<svg id="Layer_1" data-name="Layer 1" xmlns="http://www.w3.org/2000/svg" viewBox="0 0 1456.32 712.32"><defs><style>.cls-1{fill:#fff;}.cls-2{fill:#106293;}.cls-3{fill:#1c83c4;}.cls-4{fill:#fdfefe;}.cls-5{fill:#1e84c5;}.cls-6{fill:#136392;}.cls-7{fill:#1d7cb7;}.cls-8{fill:#2379ad;}.cls-9{fill:#e2e4ea;}.cls-10{fill:#d3d6de;}.cls-11{fill:#c5c9d4;}.cls-12{fill:#2c8bc8;}.cls-13{fill:#f1f2f5;}.cls-14{fill:#fcfdfe;}.cls-15{fill:#fdfdfe;}.cls-16{fill:#f8fafc;}.cls-17{fill:#f6f9fb;}.cls-18{fill:#f9fbfc;}.cls-19{fill:#fbfcfd;}.cls-20{fill:#f4f7fa;}.cls-21{fill:#f7fafb;}.cls-22{fill:#f5f8fa;}.cls-23{fill:#116293;}.cls-24{fill:#146494;}.cls-25{fill:#136494;}.cls-26{fill:#226d9a;}</style></defs><title>ImpactEnv-HD_Variante-A2-Reglette-Lettre-B</title><path class="cls-1" d="M913.2,387.12H-543.12V-325.2H913.2ZM8.88-76.56l14.4-2.88a11.9,11.9,0,0,1,3.19.28c3,1.14,5.05.09,6.55-2.51,2.54.81,5.06,0,7.6-.1,3.5-.19,7-.33,10.5-.49,0,.63,0,1.26,0,1.89-1,1.39-2,2.84-3.14,4.17Q26.62-50.73,5.21-25.29C4.09-24,3.11-22.51,2.07-21.12,1-20-.18-18.88-1.2-17.67Q-59,51.12-116.85,119.93c-.82,1-1.49,2.06-2.23,3.09-1,1-2,2-3,3.08q-16,19.05-32,38.13c-4.93,5.85-10,11.63-14.94,17.44-1.37.15-2.87-.36-4.27.84-.06,1-.14,2.06-.22,3.14a37,37,0,0,1-5.22.49c-8.94-.39-17.9-.65-26.82-1.4A218.41,218.41,0,0,1-256.08,174c-70.32-23.37-126.58-79.8-149.6-150.1a233.44,233.44,0,0,1-11-54.39,239,239,0,0,1,0-39.77,42.91,42.91,0,0,0,.35-8.11c-2.39-.45-4.27.64-6.16,1.31-33.79,12-54,43.85-53.61,75.56.2,17.76,0,35.52,0,53.28V276.34a93.38,93.38,0,0,0,.86,13.86c4.32,28.83,25.08,53.76,53,63.42,9.8,3.39,19.89,4.5,30.2,4.5q557,0,1113.93,0c1.76,0,3.52,0,5.28,0a81.8,81.8,0,0,0,33.33-8c28.15-13.61,45.51-42.34,45.37-72-.16-35.35,0-70.71,0-106.06,0-1.27-.15-2.55-.22-3.82l.12-2.84c1.56-.21,3.12-.47,4.68-.64,2.86-.29,5.79-.22,8.57-.86a33.59,33.59,0,0,0,26-32.69c-.06-39.68,0-79.36,0-119a33.14,33.14,0,0,0-25.59-32.46c-3.07-.75-6.33-.69-9.51-.94-2-.16-4.11.23-5.79-.25-.4-.44-.56-.54-.61-.68-.48-1.35-.94-2.7-1.41-4.06q-12.78-37-49.43-50.78c-9.07-3.41-18.53-4.59-28.24-4.58q-143.5.07-287,0c-1.44,0-2.88.05-4.32,0a22.69,22.69,0,0,1-2.71-.43c-.11-1.06-.17-1.86-.28-2.64-.14-1-.3-1.9-.5-2.83-3-14.22-11.53-23.23-25.61-26.75a39.17,39.17,0,0,0-9.51-.84q-71.74-.08-143.5,0H247.6a27.29,27.29,0,0,0-9.39,1.72C225-108.47,217.54-98.88,215.48-85c-.16,1.06-.31,2.11-.51,3.47H58.31c-2.08,0-4.16.1-6.23.16v-.86c1.66-1.24,1-2.93.71-4.42a253.89,253.89,0,0,0-7-31.31A236.57,236.57,0,0,0-166.12-286.53a229.28,229.28,0,0,0-69.06,5.77c-51.76,12.53-94.78,39.26-128.69,80.32-28.06,34-44.92,73-51.37,116.56-.22,1.52-.76,3.13.25,4.83,6.41-1.22,12.82-2.68,19.42-2.42l2.18.44a11,11,0,0,1-.26,1.41c-1.6,5.06-.32,9.82,1.63,14.44,1.07,2.55,3.09,4.21,6,3.91,5.43-.57,10.44-2,12.77-7.74a8.72,8.72,0,0,1,1.16-2.09,9.17,9.17,0,0,1,8-3.43,1.36,1.36,0,0,1,1.35,1.63,10.37,10.37,0,0,1-.83,2.71c-1.66,3.81-3.4,7.58-5.07,11.38-.55,1.28-1,2.61-1.46,3.88,2.29,1.14,2.3,1.18,3.73.89a65.63,65.63,0,0,1,6.55-1.35c3.89-.33,5.3,1.28,4.79,5-.08.63-.23,1.25-.35,1.88-.47,2.51-1,5-1.41,7.53-.47,2.78-.34,5.43,2.15,7.32l6-3.71,3.27.12c.08,1.59.06,3.2.29,4.77a1.71,1.71,0,0,0,1.32,1.05,1.79,1.79,0,0,0,1.34-1.07,8.47,8.47,0,0,0-.1-2.79c-.41-2.72,1.46-4.1,3.25-5.41,1.49-1.1,3.08-.56,4.45.43,2.9,2.08,6.2,2.42,9.61,2.32,1,0,1.91-.09,2.87-.12a19,19,0,0,1,13.58,5.08,53.82,53.82,0,0,1,4,4.14c2.91,3.21,6.37,5.36,10.81,5.47,5.11.13,8.45,3.12,11.74,6.57,3.08,3.23-.52,6.39.4,9.55.32,1.11-.51,2.11-1.43,2.86-.75.6-1.5,1.2-2.21,1.84a4.74,4.74,0,0,0-1.24,1.42,6.53,6.53,0,0,0,0,2.1c1.2-.68,2-1.09,2.8-1.6s1.48-1.24,2.29-1.72a3.63,3.63,0,0,1,4.44.34A2,2,0,0,1-276.85,1c-.48.67-1.93.75-1.29,2.16,1.69.84,3-.34,4.49-.81,3.51-1.1,6.31-.13,8.31,2.94.86,1.32,1.49,2.8,2.26,4.29,1.4.29,2.79.64,4.2.85a18.05,18.05,0,0,1,11.46,6.41,47.6,47.6,0,0,0,9.95,9A10.36,10.36,0,0,1-233.68,30a6.27,6.27,0,0,1-1.84,7.72c-3,2.52-6,5.18-8.63,7.5a9.26,9.26,0,0,0-.18,1,6.74,6.74,0,0,0,.1,1.43c1.68,6.71.31,13-2.59,19.08-1.81,3.8-3,4.48-7.13,4a8,8,0,0,0-4.68.44c-2.15,1.06-4.36,2-6.43,3.21-2.52,1.43-3.15,2.85-2.29,5.58a6.77,6.77,0,0,1,.21,4.17,84.88,84.88,0,0,1-9.58,20.32,5.81,5.81,0,0,1-6.13,2.84c-1.43-.18-2.85-.36-4.29-.45-.82,0-1.58.18-1.47,1.49.88.7,1.92,1.42,2.85,2.26,2.82,2.54,3,6.22.18,8.8a20.55,20.55,0,0,1-4.45,2.74c-1.13.59-2.41.87-3.54,1.45a2.5,2.5,0,0,0-1.44,2.77c.18,1.09.61,2.28.33,3.25s-1.3,1.91-2.05,2.92c1.25.81,2.3,1.53,3.39,2.19,30.26,18.23,62.95,28.74,98.27,30.87,4.94.3,9.88.55,14.83.83a5.83,5.83,0,0,0,.56,1.77c1.8,2.39,3.68,4.73,5.57,7.05.14.17.55.12.84.17.12-.09.34-.2.33-.28-.35-2.76-.7-5.52-1.11-8.27,0-.24-.44-.42-.68-.63q.06-10,.1-20c.77-9.65,1.4-19.32,3-28.89.47-2.82.79-5.65,1.17-8.48a5.68,5.68,0,0,0,.61-1.27c8.21-40.71,26-76.71,53-108.21.93-1.08,1.69-2.31,2.53-3.47,1.08-.94,2.21-1.83,3.22-2.83q3.93-3.87,7.76-7.82A204.49,204.49,0,0,1-81-34.29,242.49,242.49,0,0,1-55.66-51.35c5.35-3.14,11-5.66,16.58-8.5,2-1,3.88-2.15,5.82-3.23a17.59,17.59,0,0,0,3.18-.78c6.61-3,13.38-5.48,20.2-7.9a10.31,10.31,0,0,0,1.6-.92c3.46.43,6.44-1.35,9.66-2.07ZM-331.2,104.33a33.22,33.22,0,0,1-1.32-10.86,9.5,9.5,0,0,0-.24-2.81,39.57,39.57,0,0,1-.85-10,43,43,0,0,0-.2-6.22c-.85-7.21-4.83-11.68-11.77-13.41-.47-.11-.94-.17-1.41-.27a11.82,11.82,0,0,1-8.82-6.68,8.09,8.09,0,0,0-1.83-2.74,28.3,28.3,0,0,1-7.68-10.86A13.09,13.09,0,0,0-370.84,34c-2.73-1.53-3.16-3.83-2.5-6.55a11.1,11.1,0,0,1,1.18-3.12c1.46-2.41.79-4.19-1.34-5.71-.21-.16-.22-.58-.37-1A14.09,14.09,0,0,1-371,10.74c1.51-2.06,3.06-4.1,4.59-6.15a29.51,29.51,0,0,0,5-10.26,15.67,15.67,0,0,0,.08-8.51,10.53,10.53,0,0,1,2.59-10.54,6.76,6.76,0,0,0,2.08-4.65,18,18,0,0,0-1.69-1.14,12.09,12.09,0,0,1-6.13-7c-1-2.93-3.13-5.12-4.63-7.68-.86,0-1.49,0-2.12.11-4.86.57-8.75-1.21-11.88-4.86-.52-.61-1-1.21-1.58-1.81a5.86,5.86,0,0,0-6.56-1.65c-2,.63-3.88,1.36-5.82,2a3.76,3.76,0,0,0-.26.91c0,1.28,0,2.56,0,3.84A188,188,0,0,0-394-11.39,214.3,214.3,0,0,0-347,88.52c4.52,5.38,9.39,10.46,14.1,15.68.3.45.54,1.21.91,1.29C-331.24,105.63-331,105-331.2,104.33Z" transform="translate(543.12 325.2)"/><path class="cls-2" d="M52.08-81.37c2.07-.06,4.15-.16,6.23-.16H215c.2-1.36.35-2.41.51-3.47,2.06-13.87,9.48-23.46,22.73-28.35a27.29,27.29,0,0,1,9.39-1.72H251q71.75,0,143.5,0a39.17,39.17,0,0,1,9.51.84c14.08,3.52,22.62,12.53,25.61,26.75.2.93.36,1.88.5,2.83.11.78.17,1.58.28,2.64a22.69,22.69,0,0,0,2.71.43c1.44.07,2.88,0,4.32,0q143.51,0,287,0c9.71,0,19.17,1.17,28.24,4.58q36.6,13.77,49.43,50.78c.47,1.36.93,2.71,1.41,4.06,0,.14.21.24.61.68,1.68.48,3.76.09,5.79.25,3.18.25,6.44.19,9.51.94A33.14,33.14,0,0,1,845,12.18c.06,39.67,0,79.35,0,119a33.59,33.59,0,0,1-26,32.69c-2.78.64-5.71.57-8.57.86-1.56.17-3.12.43-4.68.64-1,.09-2,.25-1.85,1.58.08,1,.94,1.13,1.73,1.26.07,1.27.22,2.55.22,3.82,0,35.35-.12,70.71,0,106.06.14,29.64-17.22,58.37-45.37,72a81.8,81.8,0,0,1-33.33,8c-1.76.06-3.52,0-5.28,0q-557,0-1113.93,0c-10.31,0-20.4-1.11-30.2-4.5-27.93-9.66-48.69-34.59-53-63.42a93.38,93.38,0,0,1-.86-13.86V51.73c0-17.76.16-35.52,0-53.28-.35-31.71,19.82-63.59,53.61-75.56,1.89-.67,3.77-1.76,6.16-1.31a42.91,42.91,0,0,1-.35,8.11,239,239,0,0,0,0,39.77,233.44,233.44,0,0,0,11,54.39c23,70.3,79.28,126.73,149.6,150.1a218.41,218.41,0,0,0,50.52,10.79c8.92.75,17.88,1,26.82,1.4a37,37,0,0,0,5.22-.49c.67-.24,1.53-.3,2-.76a30.49,30.49,0,0,0,2.51-3.22c5-5.81,10-11.59,14.94-17.44Q-138,145.2-122,126.1c.92-1.08,2-2.06,3-3.08a4.51,4.51,0,0,0,4-1.15,23.78,23.78,0,0,1,3.08-2.24,75.33,75.33,0,0,0,11.75-9.71C-95.74,105.2-91,100.64-86.42,96A17.56,17.56,0,0,0-84.1,93.6c3.37-5.08,8.17-8.88,11.94-13.62s8.4-9.13,12.58-13.72c2.25-2.47,4.4-5,6.52-7.59,2.32-2.82,4.51-5.74,6.82-8.57,3.52-4.3,7.2-8.47,10.63-12.85,4.89-6.24,9.73-12.54,14.39-19C-14,8.38-6.36-1.22-1.1-12.39A13.9,13.9,0,0,1,.4-14.83a8.1,8.1,0,0,0,1.67-6.29c1-1.39,2-2.84,3.14-4.17Q26.59-50.76,48-76.2c1.12-1.33,2.1-2.78,3.14-4.17ZM717.44,308.4a15.15,15.15,0,0,0,3.19.68q18,.07,36,0a19.41,19.41,0,0,0,2.84-.43c.06-3.31.71-6.44-.47-9.72h-14c-2.24,0-4.48,0-6.72,0s-4.73.25-7.32-.29c0-1.77-.14-3.34-.14-4.9q0-22.55,0-45.1c0-1.37.45-2.88-.89-4.34l-12.21-.12c-1,0-1.92.29-2.07,1.48a21.08,21.08,0,0,0-.12,2.38v56.74c0,.64,0,1.27.08,1.91C715.6,307.87,716.43,308.24,717.44,308.4ZM423.18,25.22q0-51.58,0-103.17c0-2.23-.14-4.47-.29-6.7-.62-9.08-8-20.3-20.84-22.83a38,38,0,0,0-7.14-.66q-72.21,0-144.44,0c-.8,0-1.6,0-2.4,0-15.2.73-24.23,12.59-25.3,22.71a65.07,65.07,0,0,0-.39,6.69q0,103.67,0,207.31c0,1.12,0,2.24,0,3.36.68,12.64,8.95,22.62,21.11,25.26a32.25,32.25,0,0,0,6.67.55q72.69,0,145.4,0c.64,0,1.28,0,1.92,0,13.7-.31,24.24-11.4,25.36-23.13.22-2.38.33-4.78.33-7.17Q423.19,76.32,423.18,25.22Zm18.65,46.19V85.32c0,15,0,30.06,0,45.09a25.62,25.62,0,0,0,2,10.76c4.69,10.44,12.72,16.28,24.25,16.53,11.83.24,23.67.06,35.5.06,10.55,0,21.11-.07,31.66,0a26.3,26.3,0,0,0,25.13-19.35,35.9,35.9,0,0,0,1.1-9.48q.1-57.09,0-114.17a51.67,51.67,0,0,0-.41-6.21,26.37,26.37,0,0,0-25.64-22.79q-33.82,0-67.64,0A26.54,26.54,0,0,0,443.18,3.92a30.17,30.17,0,0,0-1.37,9.92Q441.89,42.63,441.83,71.41Zm276.52,0v55.65c0,1.6,0,3.2,0,4.79a26.67,26.67,0,0,0,26.25,25.91q33.58-.09,67.17,0c12.25,0,23.85-9.38,25.72-22.16a49,49,0,0,0,.5-7.16q0-56.59,0-113.21c0-1.28.05-2.56,0-3.84a26.62,26.62,0,0,0-26-25.65c-22.55.09-45.09,0-67.64,0a26.37,26.37,0,0,0-25.06,20,38.85,38.85,0,0,0-.89,8.55C718.32,33.36,718.35,52.39,718.35,71.42Zm-516.28.42V44.5c0-10.88-.09-21.76,0-32.63a24.71,24.71,0,0,0-17.81-23.53,34,34,0,0,0-9-1.14c-20.95-.1-41.9-.06-62.85,0a41.87,41.87,0,0,0-5.25.39A24.36,24.36,0,0,0,86.47,6.25a37.06,37.06,0,0,0-.8,8.55q-.08,56.85,0,113.71c0,1.12,0,2.24,0,3.36C86,145.26,96.55,155,107.47,156c2.07.2,4.15.36,6.22.37q30.23,0,60.45,0a44.5,44.5,0,0,0,6.22-.39c10.5-1.57,17.32-7.54,20.72-17.54a25.94,25.94,0,0,0,1-8.53Zm378-.33V89.26q0,20.86,0,41.74a26.65,26.65,0,0,0,26.81,26.76c13.91,0,27.82,0,41.74,0,8.47,0,17,.12,25.42,0a26.23,26.23,0,0,0,24.73-19.85,39.58,39.58,0,0,0,.95-9q.09-57.08,0-114.17a51.41,51.41,0,0,0-.45-6.2,26.38,26.38,0,0,0-25.73-22.7c-2.72,0-5.44,0-8.16,0q-29.26,0-58.52,0a25.87,25.87,0,0,0-19.66,8.46A26.36,26.36,0,0,0,580.1,13C580.14,32.5,580.11,52,580.11,71.51ZM432.94,308.82v-5.29c0-11.2,0-22.4,0-33.59,0-.74-.54-1.89,1-2.34l7.54,20.69c2.51,6.87,4.79,13.83,7.59,20.67,3.1.1,5.92.45,8.84-.25,1.36-3.71,2.7-7.3,4-10.9,3.26-9,6.49-18,9.78-27,.34-.93.29-2.32,1.86-2.42.71,1.52.4,3.14.4,4.7,0,10.56,0,21.12,0,31.67,0,1.39-.39,2.9,1,4.34,3.73-.06,7.68.3,11.77-.23.11-1,.27-1.8.27-2.57q0-29.75,0-59.5a12.63,12.63,0,0,0-.35-2.13,75.84,75.84,0,0,0-16.71.11c-1.74,5-3.52,10.13-5.31,15.25s-3.61,10.25-5.42,15.37S456,285.55,453.54,291a12.77,12.77,0,0,1-2.16-4.7q-6.66-19.26-13.33-38.5c-.4-1.17-1-2.27-1.55-3.56-5.56.27-10.94-.34-16.47.4-.1,1-.24,1.77-.24,2.54q0,29.52,0,59a18.35,18.35,0,0,0,.43,2.77A79.56,79.56,0,0,0,432.94,308.82Zm-763.22.14c.1-1.39.21-2.18.21-3q0-30.23-.11-60.46a.93.93,0,0,0-.12-.46c-.07-.13-.22-.22-.62-.59a8.26,8.26,0,0,0-1.49-.22c-4.78,0-9.57,0-14.49,0-.76,2-1.49,3.73-2.12,5.53-4.54,13-9,26-13.59,38.92a14.76,14.76,0,0,1-1.52,2.44l-16.22-46.87c-2.94,0-5.64-.13-8.34,0s-5.69-.64-8.62.64q0,31.3,0,62.44a6.7,6.7,0,0,0,.54,1.63,83.5,83.5,0,0,0,11.63-.11c1.09-1.69.67-3.32.67-4.87,0-11.52,0-23,0-34.56,0-.69-.37-1.62,1-2,.52,1.26,1.09,2.53,1.57,3.84q6.21,17.13,12.41,34.26c.42,1.16,1,2.28,1.53,3.5,3,0,5.85.57,8.7-.44.53-1.42,1-2.76,1.54-4.1q6.19-17.13,12.43-34.25c.34-.93.23-2.31,2-2.51v4.8q0,16.32,0,32.64a36.37,36.37,0,0,0,.37,3.74A97.56,97.56,0,0,0-330.28,309Zm918.91-22.2a15.22,15.22,0,0,1-3.69-4.92c-6.84-11.36-13.62-22.76-20.44-34.13-.72-1.2-1.58-2.32-2.36-3.44-4.33.16-8.45-.55-12.75.48,0,20.81,0,41.41,0,62a10.66,10.66,0,0,0,.28,1.75,33.54,33.54,0,0,0,12.67,0c.06-1.47.19-3,.19-4.59,0-11.18,0-22.37,0-33.56,0-1-.5-2.21.92-3.13.8,1.24,1.6,2.38,2.31,3.57q10.47,17.48,20.92,35c.72,1.21,1.2,2.65,2.9,3.36,3,0,6.15,0,9.35,0a17,17,0,0,0,2.83-.56c0-21,0-41.77,0-62.53a5.57,5.57,0,0,0-.52-1.52,53.45,53.45,0,0,0-12.49.16C588.58,258.52,588.81,272.19,588.63,286.76ZM357,308.89c.12-1.16.24-1.79.24-2.42q0-30.47-.11-60.93a1.08,1.08,0,0,0-.11-.47,2.41,2.41,0,0,0-.36-.35,33.39,33.39,0,0,0-12.42.16c-.06,1.49-.18,3.05-.18,4.62,0,11.35,0,22.71,0,34.06,0,.82.54,1.95-1.08,2.55l-25.12-41.88c-3.54,0-6.88,0-10.23,0a17.38,17.38,0,0,0-2.84.57c0,1.66,0,3.09,0,4.52q.06,29.27.14,58.53a.88.88,0,0,0,.14.44,7.72,7.72,0,0,0,.74.71c3.67-.1,7.74.52,12.13-.41,0-2.37,0-4.58,0-6.8,0-2.4,0-4.8,0-7.2V280.71c0-2.24,0-4.48,0-6.72a63.58,63.58,0,0,1,.19-7.52,12.61,12.61,0,0,1,2.79,3.81q10.72,17.89,21.44,35.8c.63,1.06,1.44,2,2,2.81Zm-76.78-64.52c-.08,2-.21,3.59-.21,5.16,0,11.36,0,22.72,0,34.08,0,.81.46,2-1.14,2.39-8.49-13.79-16.58-27.89-25.18-41.76-2.32,0-4.39-.05-6.46,0s-4.08-.31-6.22.41c-.09,1.13-.21,2.07-.22,3,0,2.4,0,4.8,0,7.2,0,16.31,0,32.63,0,48.95,0,1.68-.57,3.52.83,5.16,3.9.06,7.85.47,12-.3.05-1.74.12-3.31.13-4.89q0-17.51,0-35c0-.66-.43-1.64,1-1.85,8.51,13.94,16.69,28.2,25.36,42.13,4.4-.1,8.52.51,12.58-.35a10.5,10.5,0,0,0,.29-1.63q0-30.24,0-60.47a9.92,9.92,0,0,0-.53-2.22Zm-269.3.08c-.12,1.44-.26,2.66-.31,3.89s0,2.56,0,3.83V279c0,1.28,0,2.56,0,3.84a11.47,11.47,0,0,1-.42,4.21c-1-1.38-1.62-2.21-2.16-3.11q-10.6-17.67-21.18-35.35c-.89-1.48-1.5-3.19-3.25-4.36-3,0-6.2,0-9.39,0a19.75,19.75,0,0,0-2.88.51c0,20.82,0,41.42,0,62a9.57,9.57,0,0,0,.31,1.74c4.72.86,9.33.76,12.24-.23.06-.15.12-.3.17-.45a2.46,2.46,0,0,0,.1-.47,2.42,2.42,0,0,0,0-.47c0-.16,0-.32,0-.48V270c0-.48,0-1,0-1.44,0-.31,0-.63,0-.95a.78.78,0,0,1,.1-.44c.09-.11.28-.14.62-.29,1.3.86,1.82,2.42,2.6,3.72Q-1.82,288.27,8.73,306c.64,1.07,1.43,2,2.17,3.11,4.14-.05,8.09.15,12-.1a6.47,6.47,0,0,0,.56-1.62q0-30.69,0-61.36a6.27,6.27,0,0,0-.51-1.56c-1.22-.06-2.46-.19-3.71-.18A71.06,71.06,0,0,0,10.93,244.45Zm145.91,33.38c1.46-1.11,2.59-1.92,3.67-2.8a14,14,0,0,0,5.08-7.9,17.42,17.42,0,0,0-9.38-20.06,29.25,29.25,0,0,0-13-2.81q-10.06-.07-20.14,0a19.72,19.72,0,0,0-3,.48c0,20.8,0,41.42,0,62a16.26,16.26,0,0,0,.37,2.22c4.13,0,8.17.5,12.52-.33v-5c0-5.59,0-11.19,0-16.78,0-1.08.22-2.16.38-3.56,3.07,0,5.93,0,8.79,0a28.86,28.86,0,0,1,3.35.13,8.32,8.32,0,0,1,7.47,7,32.38,32.38,0,0,1,.36,4.29c.16,2.87.24,5.75.45,8.62a7.2,7.2,0,0,0,2.77,5.76c3.35,0,7,0,10.68,0a9,9,0,0,0,2.24-.69c-2.59-3.75-3.2-7.64-3.12-11.71a52.46,52.46,0,0,0-.1-5.75c-.45-5.07-2.5-9.21-7.18-11.71C158.47,278.85,157.86,278.44,156.84,277.83Zm74-.75-.34,0c0-2.39.18-4.81-.05-7.18a43,43,0,0,0-1.45-8.46c-3.36-10.92-13.88-19.71-29.28-17.86-12.42,1.5-21.54,10.43-22.88,22.23a95.31,95.31,0,0,0,0,22,25.36,25.36,0,0,0,18.85,21.29,33.78,33.78,0,0,0,12.84.51,25.32,25.32,0,0,0,21.12-20.15C230.42,285.37,230.52,281.2,230.89,277.08Zm445.48-32.71c-7.14,21.31-14.19,42.33-21.22,63.36-.08.25.12.59.24,1.13a69.3,69.3,0,0,0,12.72,0c2-4.45,2.67-9.27,4.74-13.64h20.56c1.19,3.61,2.36,7.23,3.58,10.84.35,1,.86,2,1.33,3,4.32-.09,8.44.22,13-.22-2.07-7.5-4.7-14.48-7-21.55-2.4-7.27-4.76-14.56-7.28-21.79-2.45-7-4.46-14.25-7.34-21.16Zm-893,64.39c-7.27-21.67-14.36-43-21.67-64.41-4.46-.14-8.72-.21-13.08,0-.41.91-.78,1.6-1,2.33q-10.11,29.94-20.18,59.89a16.49,16.49,0,0,0-.39,2.37H-260c1.41-2.85,2-6,3.08-9,.58-1.61.63-3.48,2.24-4.91,6.52.08,13.2-.18,20.06.17,1.56,4.68,3.06,9.17,4.57,13.72A82,82,0,0,0-216.63,308.76Zm599.38-38.27c-.78-6.16-.67-12.52.25-16h13.28l13.72-.05c1.07-4.22,1-7-.13-9.94a4.36,4.36,0,0,0-.94-.19q-18.69,0-37.39,0a13,13,0,0,0-2.47.53v4q0,27.81,0,55.62c0,1.52-.56,3.22.78,4.49a5.27,5.27,0,0,0,1,.21q18.93,0,37.87,0a10.5,10.5,0,0,0,2.09-.56c-.34-3.2.64-6.34-.77-9.58h-9.19c-3,0-6.07,0-9.11,0s-6,.18-8.92-.14a68.84,68.84,0,0,1,0-18c1.16-.05,2.41-.13,3.66-.13,5.59,0,11.18,0,16.78,0a18.21,18.21,0,0,0,2.78-.42,42.18,42.18,0,0,0-.12-9.34c-3.94-.66-7.77-.27-11.57-.33S386.76,270.49,382.75,270.49ZM-305,285.71c1.51-.07,2.44-.14,3.38-.15,3.35,0,6.72.09,10.06-.11a36.26,36.26,0,0,0,7.55-1.14,19.13,19.13,0,0,0,14.51-18.59c.2-9.64-4.6-16.86-13.54-19.77a34.4,34.4,0,0,0-9.38-1.64c-7.66-.23-15.34-.09-23-.05a14.91,14.91,0,0,0-2.67.5c-.09.89-.2,1.52-.2,2.15q0,30.43.11,60.86a1.08,1.08,0,0,0,.11.47,2.07,2.07,0,0,0,.32.35,33.52,33.52,0,0,0,12.51-.13C-304.88,301.1-305.3,293.63-305,285.71Zm845.38-31.33c0-3.77.75-6.91-.45-9.9-6.22-.47-36.84-.34-40.44.16a4.19,4.19,0,0,0-.45,1.3q0,30.68,0,61.34a5.8,5.8,0,0,0,.48,1.5,11,11,0,0,0,1.79.3q18.45,0,36.9,0a11.55,11.55,0,0,0,2.41-.58c0-1.6,0-3,0-4.46s-.15-3.09-.24-4.85A80.09,80.09,0,0,0,531,299c-3.2,0-6.39,0-9.59,0-3-.05-6,.24-8.9-.19-.79-4.76-.72-14.29.12-18,1.34-.05,2.75-.16,4.16-.17,5.43,0,10.86,0,16.29,0a20,20,0,0,0,2.91-.47c-.19-3.21.34-6.2-.39-9.45-1.67-.06-3.24-.15-4.81-.15-5.27,0-10.55,0-15.82,0a15.71,15.71,0,0,1-2.57-.39c-.74-6.08-.61-12.43.34-15.63C521.78,254.37,530.85,254.5,540.41,254.38Zm-619.17-9.79c-.24.26-.42.37-.43.49a19.16,19.16,0,0,0-.23,2.38q.06,30.21.13,60.42a1,1,0,0,0,.13.46,5.89,5.89,0,0,0,.74.68c2.92,0,6.25.07,9.57.09h10.07c3.52,0,7,.07,10.56,0,3.31-.09,6.66.45,9.9-.4.69-5,.62-6.48-.48-9.74h-8.94c-3,0-6.07,0-9.11,0s-6,.23-8.9-.19c-.78-5.27-.67-14.45.23-18,7.52-.32,15.14.11,22.66-.24.87-4.37.84-6.2-.13-9.79-7.52-.6-15.16.23-22.67-.45a53,53,0,0,1,0-15.66c1.32-.05,2.72-.14,4.13-.14,6.87,0,13.75,0,20.62,0a23.08,23.08,0,0,0,3-.48c-.26-3.29.47-6.43-.57-9.69-13.21,0-26.15,0-39.08,0A4.1,4.1,0,0,0-78.76,244.59Zm-95.83,21.23c4.4-.21,8.35.57,12.19-.49.5-9.07-3.54-16-11.44-19.42a31.76,31.76,0,0,0-18.77-2,22.93,22.93,0,0,0-15.48,10.35A23.22,23.22,0,0,0-212,264.42a109.89,109.89,0,0,0,0,24.39c0,.32.07.64.14.95a24.42,24.42,0,0,0,20.21,19.83,34.92,34.92,0,0,0,12.86-.4c7.11-1.61,12.62-5.41,15.18-12.55,1-2.79,1.85-5.7,1.09-9-2.13-.05-4-.14-5.92-.11a29.3,29.3,0,0,0-6.3.26c-.27,1.56-.44,3-.75,4.34a9.28,9.28,0,0,1-4.16,6.19,12.68,12.68,0,0,1-16.92-3.93,17.5,17.5,0,0,1-2.78-9.07c-.13-5.75-.12-11.51,0-17.26a18.05,18.05,0,0,1,2.93-9.5,10,10,0,0,1,8.77-5,25.73,25.73,0,0,1,3.83.18c4.64.68,7.43,3.34,8.44,7.95C-175.14,262.91-174.92,264.14-174.59,265.82ZM30.3,244.37c1.49,6.41,20.23,61.24,22.06,64.57a87.34,87.34,0,0,0,12.92-.08c1.47-4.28,2.91-8.5,4.35-12.73q8.18-24,16.35-48.1c.39-1.14,1.21-2.29.19-3.62H73.58c-.51,1.57-1,3.06-1.47,4.57q-6.19,20.66-12.35,41.32c-.29,1-.35,2.08-1.61,2.6-.47-1.53-.88-2.9-1.29-4.27Q50.7,268,44.53,247.29a30.78,30.78,0,0,0-1.22-2.92Zm-171,10.23v5.81q0,22.07,0,44.13c0,1.38.18,2.77.26,4.07a32.64,32.64,0,0,0,12.8-.21c0-1.49.13-3.06.13-4.63,0-15,0-30.06,0-45.09,0-1.37-.48-2.89.78-4.1,5.68-.46,11.43.28,17-.4.77-4.24.74-6-.09-9.63a6,6,0,0,0-1.3-.29q-22.79,0-45.57,0a9.91,9.91,0,0,0-2.35.62c0,1.62,0,3.05,0,4.48s-.37,3.18.63,5C-152.72,254.66-147,254.23-140.75,254.6Zm780,54.23v-5.19q0-22.06,0-44.12c0-1.55.14-3.1.22-4.86,6.12-.6,12,.25,18-.58.3-3.34.56-6.43-.14-9.45-3.76-.46-39.42-.73-47.24-.38a12.38,12.38,0,0,0-1.73.32c-.74,4.49-.71,6.06.22,9.73,1,0,2.1.13,3.19.14,3.84,0,7.68,0,11.51,0a17.45,17.45,0,0,1,2.82.53v5.49q0,22.06,0,44.13c0,1.37-.45,2.87.83,4.4A92.25,92.25,0,0,0,639.29,308.83ZM95.14,244.35c-.43.5-.6.61-.62.74a21.09,21.09,0,0,0-.22,2.37q0,30.22.13,60.44a.91.91,0,0,0,.14.45,4.37,4.37,0,0,0,.66.61c3.74.15,7.79.5,11.92-.26a17.93,17.93,0,0,0,.28-2.11q0-29.74,0-59.49a14.54,14.54,0,0,0-.54-2.72A100.15,100.15,0,0,0,95.14,244.35Zm-518.43,0c0,21.22,0,41.83,0,62.44a15.63,15.63,0,0,0,.38,2.23c4.12-.1,8.17.56,12.48-.44,0-20.82,0-41.42,0-62a12.54,12.54,0,0,0-.35-2C-414.82,244-418.74,244.29-423.29,244.34Z" transform="translate(543.12 325.2)"/><path class="cls-3" d="M-174.63,146.16q0,10-.1,20l-5.51.19c-4.95-.28-9.89-.53-14.83-.83-35.32-2.13-68-12.64-98.27-30.87-1.09-.66-2.14-1.38-3.39-2.19.75-1,1.75-1.86,2.05-2.92s-.15-2.16-.33-3.25a2.5,2.5,0,0,1,1.44-2.77c1.13-.58,2.41-.86,3.54-1.45a20.55,20.55,0,0,0,4.45-2.74c2.79-2.58,2.64-6.26-.18-8.8-.93-.84-2-1.56-2.85-2.26-.11-1.31.65-1.54,1.47-1.49,1.44.09,2.86.27,4.29.45a5.81,5.81,0,0,0,6.13-2.84,84.88,84.88,0,0,0,9.58-20.32,6.77,6.77,0,0,0-.21-4.17c-.86-2.73-.23-4.15,2.29-5.58,2.07-1.18,4.28-2.15,6.43-3.21a8,8,0,0,1,4.68-.44c4.15.52,5.32-.16,7.13-4,2.9-6.08,4.27-12.37,2.59-19.08a6.74,6.74,0,0,1-.1-1.43,9.26,9.26,0,0,1,.18-1c2.65-2.32,5.58-5,8.63-7.5A6.27,6.27,0,0,0-233.68,30a10.36,10.36,0,0,0-3.79-4.24,47.6,47.6,0,0,1-9.95-8.95,18.05,18.05,0,0,0-11.46-6.41c-1.41-.21-2.8-.56-4.2-.85-.77-1.49-1.4-3-2.26-4.29-2-3.07-4.8-4-8.31-2.94-1.48.47-2.8,1.65-4.49.81-.64-1.41.81-1.49,1.29-2.16A2,2,0,0,0-277.16-2a3.63,3.63,0,0,0-4.44-.34c-.81.48-1.5,1.19-2.29,1.72s-1.6.92-2.8,1.6a6.53,6.53,0,0,1,0-2.1,4.74,4.74,0,0,1,1.24-1.42c.71-.64,1.46-1.24,2.21-1.84.92-.75,1.75-1.75,1.43-2.86-.92-3.16,2.68-6.32-.4-9.55-3.29-3.45-6.63-6.44-11.74-6.57-4.44-.11-7.9-2.26-10.81-5.47a53.82,53.82,0,0,0-4-4.14A19,19,0,0,0-322.29-38c-1,0-1.91.09-2.87.12-3.41.1-6.71-.24-9.61-2.32-1.37-1-3-1.53-4.45-.43-1.79,1.31-3.66,2.69-3.25,5.41a8.47,8.47,0,0,1,.1,2.79,1.79,1.79,0,0,1-1.34,1.07A1.71,1.71,0,0,1-345-32.43c-.23-1.57-.21-3.18-.29-4.77.55-1.22,1.4-2.4.54-3.92-2.13.49-2.81,2.3-3.81,3.8l-6,3.71c-2.49-1.89-2.62-4.54-2.15-7.32.42-2.52.94-5,1.41-7.53.12-.63.27-1.25.35-1.88.51-3.77-.9-5.38-4.79-5A65.63,65.63,0,0,0-366.36-54c-1.43.29-1.44.25-3.73-.89.48-1.27.91-2.6,1.46-3.88,1.67-3.8,3.41-7.57,5.07-11.38a10.37,10.37,0,0,0,.83-2.71,1.36,1.36,0,0,0-1.35-1.63,9.17,9.17,0,0,0-8,3.43A8.72,8.72,0,0,0-373.26-69c-2.33,5.76-7.34,7.17-12.77,7.74-2.9.3-4.92-1.36-6-3.91-2-4.62-3.23-9.38-1.63-14.44a11,11,0,0,0,.26-1.41,11.55,11.55,0,0,0,1.24-2c1-2.54,1.87-5.1,2.7-7.68a11.94,11.94,0,0,1,4.56-6.56c2.63-1.8,5.28-3.59,8-5.31s5.84-2.54,9.1-1.1c.43.19.9.32,1.34.51a3.73,3.73,0,0,0,4.37-1,9.51,9.51,0,0,0,1.23-1.46c2.28-3.22,5.25-4,8.84-2.51a12.94,12.94,0,0,0,5.17.74c3.57-.05,4.51,1,4.45,4.57a13.87,13.87,0,0,0-.12,2.39c.41,2.35.86,4.69,1.47,7a1.66,1.66,0,0,0,2.76.6,5.73,5.73,0,0,0,1.59-2.28,12.17,12.17,0,0,0,.34-3.77A65.87,65.87,0,0,0-337-106a11.46,11.46,0,0,1,3.81-10.82c3.19-2.88,6.6-5.54,9.95-8.25,1.36-1.1,2.9-2,4.24-3.12a9.37,9.37,0,0,0,3.67-8,13,13,0,0,1,0-2.86c.09-.58.47-1.41.92-1.58,2.86-1.07,4.47-3.56,6.47-5.56,3.32-3.32,6.81-6.24,11.4-7.68a9,9,0,0,0,5.52-5,5.07,5.07,0,0,1,2.22-2.33c3.91-1.81,7.87-3.53,11.91-5a15.37,15.37,0,0,1,4.68-.49c.23,0,.49.63.87,1.15-1.54.81-3,1.47-4.27,2.32-.36.24-.47,1.09-.42,1.64,0,.21.9.61,1.2.49a66,66,0,0,1,11.5-3.23c.44-.1,1.23-.5.79-1.7-.73-.13-1.62-.36-2.51-.45a6.59,6.59,0,0,1-4.73-2.95c-1.45-2-1.44-3.18,0-5.15.38-.51.88-.93,1.24-1.46a1.78,1.78,0,0,0-1.23-2.88,16.16,16.16,0,0,0-4.71.34c-1.69.43-3.24,1.34-4.9,1.91a12.55,12.55,0,0,1-2.82.19c.74-1,1-1.62,1.46-1.84,2.3-1.11,4.62-2.19,7-3.12a17,17,0,0,1,12.19-.36c1.06.36,2.14.67,3.22.95,5.65,1.47,11.11.44,16.46-1.45,1.85-.66,2.25-2.08,1.45-3.88a5.74,5.74,0,0,0-3.36-3.23c-2.05-.72-3-2.28-3.67-4.13a31.77,31.77,0,0,1-2.1-10.28c-.09-2.36,0-4.8-1.55-7.12a16.76,16.76,0,0,0-2.7.54c-1.5.55-2.92,1.31-4.41,1.89-1.92.74-3,.35-4.09-1.28a4.12,4.12,0,0,1-.74-3.63c.89-2.93-.61-4.88-2.58-6.7a15.8,15.8,0,0,0-7.15-3.73c-3.21-.8-4.85-.24-6.38,2.62a25,25,0,0,1-5.56,7.49,3.54,3.54,0,0,0-.21,1.14c1,5.05-1.27,8.1-5.62,10.38a17.14,17.14,0,0,0-8.39,10.09,8.62,8.62,0,0,1-1.85,3.24,2.81,2.81,0,0,1-4.52-.6,5.63,5.63,0,0,1-.76-3.15,22.93,22.93,0,0,1,1.07-4.14c.34-1.19,1.2-2.34.26-3.61-2.06-.83-4.18-1.54-6.16-2.52-2.59-1.28-5.12-2.61-8-3a4.81,4.81,0,0,1-3.9-3.18,20.17,20.17,0,0,1-.78-3.22,35.71,35.71,0,0,1,3.66-4.25q4.48-3.82,9.27-7.27c3.19-2.29,6.55-4.33,9.83-6.48,1.6-.53,3.21-1,4.79-1.6a2.14,2.14,0,0,0,1.44-2.15,8.12,8.12,0,0,1,5.3-3.7c2,0,4.1,0,6.14,0,5.58.11,8.48-1.93,10.53-7.46.69-1.82,2.11-2.35,3.91-2.22,1.43,0,2.87.1,4.29,0a6.36,6.36,0,0,1,5.7,2.88,9.88,9.88,0,0,1,1.26,2,43.9,43.9,0,0,0,5.31,9c.14.17,0,.59-.07,1-1.47.89-2.68.16-3.89-.65a4.09,4.09,0,0,0-5.26.25,17.28,17.28,0,0,1-3.36,1.59,41.67,41.67,0,0,0-3.94-1.6,4.2,4.2,0,0,0-2.33,0,1.77,1.77,0,0,0-1,1.3,2,2,0,0,0,1.14,1.28,5.85,5.85,0,0,0,1.88.06l4.27.15c2,1.45,3.2,3.51,4.48,5.54a12.68,12.68,0,0,0,6.83,5.71,5.45,5.45,0,0,0,1.66,0c.45-2-2-2.75-1.31-4.63,2.21-.2,3.09,2.33,5.23,2.27.26-.22.84-.47.9-.83a7.29,7.29,0,0,0,.11-2.75c-.28-1.36-1.31-2.63-.09-4.31a10.18,10.18,0,0,1,2.4,1c1.14.85,2.09,2,3.19,2.88,1.35,1.11,2.49,1.16,3.43.3,1.11-1,1.13-2.26-.08-3.82-.77-1-1.79-1.85-2.48-2.9s-1.76-2.49-1.83-3.79c-.21-3.77-2.18-6.22-5.16-8.1a10.87,10.87,0,0,1-3.52-3.83c-.55-.94-1.26-1.79-1.8-2.54-2-.45-4.22.21-5.39-1.87.65-1.49,2.08-1.83,3.41-2.28,3.28-1.11,6.54-2.28,9.87-3.22,4.36-1.24,8.79-2.28,13.18-3.41,3,1.38,6.05,2.76,9.09,4.12.09,0,.27-.12.68-.34l-3.45-4.94c.24-.2.46-.53.73-.58,7.68-1.22,15.24-3.3,23.1-3.24a24.88,24.88,0,0,0,2.83-.36,42.48,42.48,0,0,1,4.73-.52c9.28,0,18.55,0,27.82,0a21.06,21.06,0,0,1,2.87.13c4.25.56,8.5,1.09,12.73,1.77,5.17.84,10.34,1.72,15.47,2.74a191.45,191.45,0,0,1,29.79,8.71c5.81,2.18,11.47,4.79,17.18,7.25,1.31.56,2.67,1.17,3.14,2.74a13.22,13.22,0,0,1-1.26,2,36.65,36.65,0,0,1-12.22,8.19c-1,.45-2.11.74-3.09,1.25-4.7,2.44-5.93,7.08-3.36,12.25,1.55,3.13,5.09,5.26,10.21,2.69.14-.08.27-.17.42-.24,3.8-1.72,4.8-1.44,6.94,2.09a37.3,37.3,0,0,1,1.74,3.39c.47,1,.8,2.09,1.3,3.08,1.18,2.28,2.61,3,5.08,2.44a7.23,7.23,0,0,0,5.58-4.74,17.55,17.55,0,0,1,6.16-8.85c1.44-1,1.29-2.26,0-3.65-.44-.47-1-.84-1.41-1.3-3.93-4-3.69-6.09,1.09-9.35a8.64,8.64,0,0,1,2.66.63c2.34,1.49,4.57,3.16,6.85,4.76.65,3.18,2.74,4.4,5.82,4.26l-.06,0,1,1c1.36.8,3,1.23,3.79,2.77-3.44,1.7-3.46,1.76-1.68,4.73a9.05,9.05,0,0,1,.52.8A2.12,2.12,0,0,1-51.15-212c-1.1-.1-2.18-.49-3.29-.59a2.49,2.49,0,0,0-2.9,2.46c-.11,1.11,0,2.24-.13,3.35A7,7,0,0,1-60.28-202a5.14,5.14,0,0,1-4.94.86,10.46,10.46,0,0,0-6.59.5c-1.93.72-3.9,1.32-5.81,2-3.09-1.54-6.07-2.1-9.38-1-2.27.75-3-.36-2.69-3.37a35.43,35.43,0,0,0,3.55-.89,2,2,0,0,0,.86-2.49,1.68,1.68,0,0,0-2-.77c-1.47.27-2.79,1.67-4.26.82-1.35-1.59.52-3.84-1.55-5-2.35,1-2.86,1.19-3.08,1.91a12.37,12.37,0,0,0-.71,3.67,14.69,14.69,0,0,0,.78,3.24c.82,3.26.13,4.56-3.11,5a20.57,20.57,0,0,0-11.41,5.62c-1.77,1.62-3.54,3.24-5.25,4.91a27.93,27.93,0,0,1-11,6.69c-3.46,1.11-6.65,3.14-10.46,3.2a1.78,1.78,0,0,0-1.23,1.2,1.94,1.94,0,0,0,.86,1.5c1.09.65,2.32,1,3.46,1.62a6.76,6.76,0,0,1,4,5.09,19,19,0,0,1-.4,8.08,4.57,4.57,0,0,1-3.93,3.73,31.92,31.92,0,0,1-6.18.19c-2.38-.19-4.73-.77-7.1-1.1a22.84,22.84,0,0,0-4.28-.31c-2.52.14-4,1.45-3.93,3.9a63.68,63.68,0,0,1-1.75,13.27,27.93,27.93,0,0,0-.27,5.72,3.17,3.17,0,0,0,2,3c3.47,1.57,6.93,3.18,10.67,4.91,1.63-1.84,3.89-2.14,6.34-2.4,5.85-.63,10.25-3.28,11.76-9.49a14.76,14.76,0,0,1,7.55-9.48c2.36-1.33,4-2.82,4.59-5.68.46-2.4,1.69-3,4.21-2.95a13.57,13.57,0,0,1,1.91.18,13.07,13.07,0,0,0,9.54-2.31c1.07-.7,2.21-1.28,3.34-1.87a2.58,2.58,0,0,1,3.44.71,42.89,42.89,0,0,1,2.69,3.95,18.72,18.72,0,0,0,9.71,8.16,24.86,24.86,0,0,1,3.47,1.62,9.88,9.88,0,0,1,5.45,6.9c.18.91.52,1.79.83,2.81,1.59-.53,2.42-1.32,2.35-2.82-.06-1.25-.52-2.61-.15-3.69.59-1.71,2.56-.76,3.81-1.35.09,0,.11-.22.18-.36-.14-1-1-1.06-1.69-1.44-2.36-1.34-4.94-2.43-7-4.14-3.67-3.07-7-6.5-10.47-9.84a5.39,5.39,0,0,1-1.24-2,2.08,2.08,0,0,1,.93-2.5,2.49,2.49,0,0,1,2.15-.19c2.75,1.62,5.48,3.29,8,5.17,2.72,2,5.4,4,8.68,5,3,.93,4.69,3.2,5.46,6.16.29,1.08.31,2.22.59,3.3,1,3.66,3,6.32,7,7.08a7.81,7.81,0,0,1,1.79.64c.24.11.38.44.64.76l-2.32,3.12c1,1.23,1.79,2.4,2.77,3.41a1.44,1.44,0,0,0,2.15,0c1.49-1.78,2.45-3.79,1.45-6.16-.5-1.18-1.17-2.27-1.73-3.42-1-2.1-.73-3.11,1.35-4.3a13.35,13.35,0,0,1,6.35-2q3.82-.1,7.67-.16A2.78,2.78,0,0,0-29-147.52a8,8,0,0,0-.76-2,6.5,6.5,0,0,1-.77-5.52,29.33,29.33,0,0,1,6.67-13.1,7.9,7.9,0,0,1,1.45-1.25c2.23-1.53,4.21-1.37,6,.66a45,45,0,0,1,2.66,4c1.91,2.79,2.9,2.93,5.84.79.35-.25.52-.75.93-1.39a7.7,7.7,0,0,1-1.16-.85c-1.4-1.51-1.34-2.59.29-3.33s3.56-1.4,5.34-2.09a5.35,5.35,0,0,1,2.95,4.95,13,13,0,0,0-.11,1.4c.08,2.05.19,2.12,2.56,2.1a9.07,9.07,0,0,1,2,1.91c2.69,5,5.27,10,7.89,15a14.7,14.7,0,0,1-1.83.53c-3.3.5-6.29-.55-9.27-1.82-2.63-1.13-5.32-2.14-8-3.14a8,8,0,0,0-5.62.26c-2.85,1-5.71,2-8.61,2.89-3.93,1.16-6.62,3.76-8.72,7.09A5.94,5.94,0,0,0-30-135c.39,1,.66,2.14,1.11,3.16,1.66,3.76,3.44,4.66,7.57,3.74,1.6-.36,3.11-.66,4.61.3,3,1.92,6.07,1.62,9.16.24a16.12,16.12,0,0,1,1.77-.74c2.32-.72,3.88.22,3.88,2.69,0,5.27-.12,10.58-1.61,15.68s-3.66,6.32-8.95,5.26c-1.4-.29-2.88-.9-4.21-.67-3.76.63-7.3-.37-10.89-1a53.38,53.38,0,0,1-16.3-5.4,15.31,15.31,0,0,0-2.61-1.19c-3.1-1-4.94-.12-6.06,2.88-.56,1.5-.8,3.11-1.38,4.59A3.69,3.69,0,0,1-58.45-103a41.26,41.26,0,0,1-6-1.43,8.16,8.16,0,0,1-3.67-2.12c-3.12-3.79-7.3-5.55-11.82-6.85a25.74,25.74,0,0,1-4.89-1.92,5.65,5.65,0,0,1-3.16-6c.1-.95.44-1.88.47-2.83a14,14,0,0,0-.24-3.77,3.18,3.18,0,0,0-3.48-2.67,13.62,13.62,0,0,0-4.22.64,23.49,23.49,0,0,1-12.27.92,24.34,24.34,0,0,0-10.46.48,39,39,0,0,0-10.89,4.88c-3.18,2-6.43,2.82-9.94.84a7.06,7.06,0,0,0-1.8-.66c-3.44-.8-6.48-.14-8.32,3.07a12.08,12.08,0,0,1-5.22,4.72,11.88,11.88,0,0,0-6.24,8.63c-.16.79-.25,1.58-.36,2.37a10.55,10.55,0,0,1-3.63,6.58,30.82,30.82,0,0,1-3.87,2.81,28.69,28.69,0,0,0-9.34,9.48q-4.82,8-9.48,16.11a8.17,8.17,0,0,0-.76,7.37c.52,1.34,1,2.7,1.42,4.07a16.61,16.61,0,0,1-.91,13,37.47,37.47,0,0,0-1.86,3.89,6.89,6.89,0,0,0,.09,5.59c.4.85.86,1.67,1.31,2.52-1.77,3-1.05,5.32,1.7,7.08a10.41,10.41,0,0,1,1.13.88,24.79,24.79,0,0,1,8,11.12,22.76,22.76,0,0,0,6,9.15c2.07,2,4.37,3.73,6.54,5.62A12.85,12.85,0,0,0-150.82,3.2,31.77,31.77,0,0,1-140,1.26a3.19,3.19,0,0,1,.19.67,33.53,33.53,0,0,1-1.89,4.33c-1.25,2-2.85,3.83-4.11,5.85q-5.44,8.7-10.72,17.51a179.69,179.69,0,0,0-15.11,31.94c-3.26,9.13-6.41,18.31-8.11,27.92-1.23,6.88-2.64,13.72-2.42,20.77.14,4.47.16,9,0,13.42A39.65,39.65,0,0,0-181.07,135a95.45,95.45,0,0,0,3.37,9.43C-177.17,145.9-176,146.27-174.63,146.16Zm44.32-361.48c-1.22-1-2.05-1.77-2.91-2.46-1.73-1.37-3.17-1.34-4.5.38a7.19,7.19,0,0,0-1.49,3.39,22.52,22.52,0,0,0,.32,4.76,3.15,3.15,0,0,0,2.24,2.83,15.42,15.42,0,0,1,2.28.68,4.41,4.41,0,0,1,.54,7.43c-.64.48-1.37.84-2,1.37a4.7,4.7,0,0,0-1.91,4.17,3.39,3.39,0,0,0,2.75,2.94,1.69,1.69,0,0,1,.91,1.38,2.25,2.25,0,0,1-1.19,1.32c-1,.48-2.12.7-3.14,1.16-.4.18-.64.71-1.31,1.49,2.37-.27,4.11-.41,5.83-.68,3.62-.57,7.23-1.22,10.85-1.81a4.51,4.51,0,0,0,3.58-2.1c1-1.92,2-3.89,2.94-5.81-.5-.32-.75-.64-1-.64-2.81,0-4.35-1.58-5.27-4.07-1.75-4.75-4.34-8.87-9-11.35-.21-.11-.22-.56-.41-1.1Zm-28,20.9v.92c-.06,3.08,1.22,4.14,4.09,3.3,5.81-1.68,9.51-5.29,10.94-11.33,1-4-.69-5.36-4.39-4.91a8.31,8.31,0,0,0-3.14.95A15.31,15.31,0,0,0-158.3-194.42ZM-323.39-76a8.22,8.22,0,0,0-1.39-1.06c-2.43-1.21-4.87-2.4-7.33-3.53a26.85,26.85,0,0,0-4.87-2c-5-1.19-9.84-1-14.17,2.2-.39.29-.57.87-1,1.5.68,0,1,.11,1.27,0,4.75-2.61,9.19-2,13.44,1.19,1.14.85,2.49,1.37,3.18,2.8a2.13,2.13,0,0,0,1.52,1c3,.24,6.08.61,8.86-1.07C-323.63-75.15-323.59-75.56-323.39-76Zm78.26-101.39c-4.06,2.55-5.36,3.73-7.39,6.8a29.59,29.59,0,0,0,10,4.31c1.21.24,2.48.82,3.66-.21.78-2-.39-3.32-1.72-4.55a19.8,19.8,0,0,1-2.77-2.63A24.09,24.09,0,0,1-245.13-177.44ZM-306.94-71.35c-.93-1.73-2.6-2.17-4.34-2.5-4.84-.92-5.94-.43-8.46,3.78-1.05.81-2.72.45-3.83,1.8C-314.27-67.76-310.63-68.45-306.94-71.35ZM-73.6-134c.28-3.75-.07-4.55-2.54-5.51-1.9-.73-3.85-1.33-5.78-2C-82.74-135.63-80.46-133.51-73.6-134Z" transform="translate(543.12 325.2)"/><path class="cls-4" d="M-140,1.26a31.77,31.77,0,0,0-10.8,1.94A12.85,12.85,0,0,1-164.64.63C-166.81-1.26-169.11-3-171.18-5a22.76,22.76,0,0,1-6-9.15,24.79,24.79,0,0,0-8-11.12,10.41,10.41,0,0,0-1.13-.88c-2.75-1.76-3.47-4.07-1.7-7.08-.45-.85-.91-1.67-1.31-2.52a6.89,6.89,0,0,1-.09-5.59,37.47,37.47,0,0,1,1.86-3.89,16.61,16.61,0,0,0,.91-13c-.42-1.37-.9-2.73-1.42-4.07a8.17,8.17,0,0,1,.76-7.37q4.68-8.09,9.48-16.11a28.69,28.69,0,0,1,9.34-9.48,30.82,30.82,0,0,0,3.87-2.81,10.55,10.55,0,0,0,3.63-6.58c.11-.79.2-1.58.36-2.37a11.88,11.88,0,0,1,6.24-8.63,12.08,12.08,0,0,0,5.22-4.72c1.84-3.21,4.88-3.87,8.32-3.07a7.06,7.06,0,0,1,1.8.66c3.51,2,6.76,1.13,9.94-.84a39,39,0,0,1,10.89-4.88,24.34,24.34,0,0,1,10.46-.48,23.49,23.49,0,0,0,12.27-.92,13.62,13.62,0,0,1,4.22-.64,3.18,3.18,0,0,1,3.48,2.67,14,14,0,0,1,.24,3.77c0,1-.37,1.88-.47,2.83a5.65,5.65,0,0,0,3.16,6A25.74,25.74,0,0,0-80-113.41c4.52,1.3,8.7,3.06,11.82,6.85a8.16,8.16,0,0,0,3.67,2.12,41.26,41.26,0,0,0,6,1.43,3.69,3.69,0,0,0,4.58-2.46c.58-1.48.82-3.09,1.38-4.59,1.12-3,3-3.86,6.06-2.88a15.31,15.31,0,0,1,2.61,1.19,53.38,53.38,0,0,0,16.3,5.4c3.59.66,7.13,1.66,10.89,1,1.33-.23,2.81.38,4.21.67,5.29,1.06,7.45-.1,9-5.26s1.61-10.41,1.61-15.68c0-2.47-1.56-3.41-3.88-2.69a16.12,16.12,0,0,0-1.77.74c-3.09,1.38-6.16,1.68-9.16-.24-1.5-1-3-.66-4.61-.3-4.13.92-5.91,0-7.57-3.74-.45-1-.72-2.11-1.11-3.16a5.94,5.94,0,0,1,.67-5.5c2.1-3.33,4.79-5.93,8.72-7.09,2.9-.85,5.76-1.88,8.61-2.89a8,8,0,0,1,5.62-.26c2.69,1,5.38,2,8,3.14,3,1.27,6,2.32,9.27,1.82a14.7,14.7,0,0,0,1.83-.53c.88,1.49,1.88,2.93,2.61,4.5a210.28,210.28,0,0,1,14.37,41.37c1.44,6.17,3,12.35,3.27,18.75-1.5,2.6-3.54,3.65-6.55,2.51a11.9,11.9,0,0,0-3.19-.28c0-1.69-1.07-2.53-2.47-3.14A39,39,0,0,0,2.86-86,14.24,14.24,0,0,1-.79-93.69c-.23-1.1-.43-2.24-2.1-2.41l-2.36,2.86c-.88-.84-1.58-1.45-2.21-2.13s-1.42-1.72-2.22-2.47a1.23,1.23,0,0,0-1.23,0,1.45,1.45,0,0,0-.31,1.26,12.79,12.79,0,0,0,1,2.15l3.84,7.15a3.2,3.2,0,0,1-2.93,2.1c-5.29.16-10.38,1.48-15.44,2.81s-9.77,2.92-14.61,4.53A134.94,134.94,0,0,0-65.71-65.52c-6.69,4-13.11,8.48-19.47,13a153.92,153.92,0,0,0-21.57,18.1c-7,7.23-14.23,14.28-21.35,21.41a36.59,36.59,0,0,0-2.65,2.78C-133.86-6.42-136.93-2.58-140,1.26Z" transform="translate(543.12 325.2)"/><path class="cls-2" d="M33-81.67c-.23-6.4-1.83-12.58-3.27-18.75a210.28,210.28,0,0,0-14.37-41.37c-.73-1.57-1.73-3-2.61-4.5-2.62-5-5.2-10-7.89-15a9.07,9.07,0,0,0-2-1.91c.21-2.57-.26-3.23-2.45-3.5a5.35,5.35,0,0,0-2.95-4.95c.28-1.44-.64-2.41-1.37-3.44A217.3,217.3,0,0,0-44.95-218.9a27.08,27.08,0,0,0-2.79-1.8c-.81-1.54-2.43-2-3.79-2.76l-1-1,.06,0a12.15,12.15,0,0,0-5.82-4.26c-2.28-1.6-4.51-3.27-6.85-4.76a8.64,8.64,0,0,0-2.66-.63c-.31-.52-.47-1.28-.93-1.54-4.63-2.65-9.28-5.26-14-7.77-.57-.31-1.49,0-2.24.09-.47-1.57-1.83-2.18-3.14-2.74-5.71-2.46-11.37-5.07-17.18-7.25A191.45,191.45,0,0,0-135.11-262c-5.13-1-10.3-1.9-15.47-2.74-4.23-.68-8.48-1.21-12.73-1.77a21.06,21.06,0,0,0-2.87-.13c-9.27,0-18.54,0-27.82,0a42.48,42.48,0,0,0-4.73.52,24.88,24.88,0,0,1-2.83.36c-7.86-.06-15.42,2-23.1,3.24-.27.05-.49.38-.73.58a9.67,9.67,0,0,0-6.32,1.16c-4.39,1.13-8.82,2.17-13.18,3.41-3.33.94-6.59,2.11-9.87,3.22-1.33.45-2.76.79-3.41,2.28-.3-.09-.61-.29-.89-.24a24.86,24.86,0,0,0-9.3,3.76c-.2.13-.22.55-.33.83-1.8-.13-3.22.4-3.91,2.22a2.73,2.73,0,0,0-3.09,0l-13.58,7.48a8.08,8.08,0,0,0-5.29,3.7,7.77,7.77,0,0,0-6.24,3.75c-3.28,2.15-6.64,4.19-9.83,6.48s-6.28,4.72-9.27,7.27a35.71,35.71,0,0,0-3.66,4.25,6.58,6.58,0,0,0-2.11.81c-1.92,1.68-3.74,3.48-5.58,5.27q-45.88,44.66-60.68,107c-1.4,5.91-2.44,11.9-3.64,17.85-6.6-.26-13,1.2-19.42,2.42-1-1.7-.47-3.31-.25-4.83,6.45-43.55,23.31-82.59,51.37-116.56,33.91-41.06,76.93-67.79,128.69-80.32a229.28,229.28,0,0,1,69.06-5.77A236.57,236.57,0,0,1,45.74-118a253.89,253.89,0,0,1,7,31.31c.24,1.49,1,3.18-.71,4.42l-1,0c-3.5.16-7,.3-10.5.49C38.08-81.64,35.56-80.86,33-81.67Z" transform="translate(543.12 325.2)"/><path class="cls-4" d="M-395.57-81.47c1.2-6,2.24-11.94,3.64-17.85q14.67-62.35,60.68-107c1.84-1.79,3.66-3.59,5.58-5.27a6.58,6.58,0,0,1,2.11-.81,20.17,20.17,0,0,0,.78,3.22,4.81,4.81,0,0,0,3.9,3.18c2.92.39,5.45,1.72,8,3,2,1,4.1,1.69,6.16,2.52.94,1.27.08,2.42-.26,3.61a22.93,22.93,0,0,0-1.07,4.14,5.63,5.63,0,0,0,.76,3.15,2.81,2.81,0,0,0,4.52.6,8.62,8.62,0,0,0,1.85-3.24,17.14,17.14,0,0,1,8.39-10.09c4.35-2.28,6.65-5.33,5.62-10.38a3.54,3.54,0,0,1,.21-1.14,25,25,0,0,0,5.56-7.49c1.53-2.86,3.17-3.42,6.38-2.62a15.8,15.8,0,0,1,7.15,3.73c2,1.82,3.47,3.77,2.58,6.7a4.12,4.12,0,0,0,.74,3.63c1.13,1.63,2.17,2,4.09,1.28,1.49-.58,2.91-1.34,4.41-1.89A16.76,16.76,0,0,1-251-211c1.53,2.32,1.46,4.76,1.55,7.12a31.77,31.77,0,0,0,2.1,10.28c.72,1.85,1.62,3.41,3.67,4.13a5.74,5.74,0,0,1,3.36,3.23c.8,1.8.4,3.22-1.45,3.88-5.35,1.89-10.81,2.92-16.46,1.45-1.08-.28-2.16-.59-3.22-.95a17,17,0,0,0-12.19.36c-2.37.93-4.69,2-7,3.12-.47.22-.72.88-1.46,1.84a12.55,12.55,0,0,0,2.82-.19c1.66-.57,3.21-1.48,4.9-1.91a16.16,16.16,0,0,1,4.71-.34,1.78,1.78,0,0,1,1.23,2.88c-.36.53-.86,1-1.24,1.46-1.48,2-1.49,3.19,0,5.15a6.59,6.59,0,0,0,4.73,2.95c.89.09,1.78.32,2.51.45.44,1.2-.35,1.6-.79,1.7a66,66,0,0,0-11.5,3.23c-.3.12-1.18-.28-1.2-.49-.05-.55.06-1.4.42-1.64,1.3-.85,2.73-1.51,4.27-2.32-.38-.52-.64-1.16-.87-1.15a15.37,15.37,0,0,0-4.68.49c-4,1.52-8,3.24-11.91,5a5.07,5.07,0,0,0-2.22,2.33,9,9,0,0,1-5.52,5c-4.59,1.44-8.08,4.36-11.4,7.68-2,2-3.61,4.49-6.47,5.56-.45.17-.83,1-.92,1.58a13,13,0,0,0,0,2.86,9.37,9.37,0,0,1-3.67,8c-1.34,1.12-2.88,2-4.24,3.12-3.35,2.71-6.76,5.37-9.95,8.25A11.46,11.46,0,0,0-337-106a65.87,65.87,0,0,1,.63,7.16,12.17,12.17,0,0,1-.34,3.77,5.73,5.73,0,0,1-1.59,2.28,1.66,1.66,0,0,1-2.76-.6c-.61-2.3-1.06-4.64-1.47-7a13.87,13.87,0,0,1,.12-2.39c.06-3.58-.88-4.62-4.45-4.57a12.94,12.94,0,0,1-5.17-.74c-3.59-1.44-6.56-.71-8.84,2.51a9.51,9.51,0,0,1-1.23,1.46,3.73,3.73,0,0,1-4.37,1c-.44-.19-.91-.32-1.34-.51-3.26-1.44-6.27-.73-9.1,1.1s-5.33,3.51-8,5.31a11.94,11.94,0,0,0-4.56,6.56c-.83,2.58-1.74,5.14-2.7,7.68a11.55,11.55,0,0,1-1.24,2Zm66.81-87c-.25.45-.29.64-.41.7-5.71,3.12-8.21,8.68-10.84,14.16-.07.14-.18.32-.14.44a5.82,5.82,0,0,0,.69,2.12,1.36,1.36,0,0,0,2.11-.11,25.15,25.15,0,0,0,2.89-3.71,26.09,26.09,0,0,0,1.44-3.53,13.42,13.42,0,0,1,6.46-6.78c.7-.36,1.54-.81,2.12,0a2.61,2.61,0,0,1,.09,1.74c-.07.45-.47.83-.64,1.27a2.33,2.33,0,0,0,.27,2.67,2.53,2.53,0,0,0,3.09.23,16.9,16.9,0,0,0,1.5-1.18l5.72-4.6c.46-1.3-.3-2.46-1.46-3.44A2.92,2.92,0,0,0-319-169a5.91,5.91,0,0,1-1.87.36,2,2,0,0,1-2.14-1.52,24,24,0,0,1-.45-2.82c-.52-3.31-3.1-5-6.27-3.53a31.25,31.25,0,0,1-4.85,2,12.11,12.11,0,0,0-5.55,3.56c-.64.66-1.56,1.21-1.23,2.37.26.91,1.85,1.12,3.4.46a3.81,3.81,0,0,0,.84-.46,5.44,5.44,0,0,1,5.84-.67A23.85,23.85,0,0,0-328.76-168.51Z" transform="translate(543.12 325.2)"/><path class="cls-5" d="M-332.88,104.2c-4.71-5.22-9.58-10.3-14.1-15.68A214.3,214.3,0,0,1-394-11.39a188,188,0,0,1-3.35-35.27c0-1.28,0-2.56,0-3.84a3.76,3.76,0,0,1,.26-.91c1.94-.68,3.87-1.41,5.82-2a5.86,5.86,0,0,1,6.56,1.65c.54.6,1.06,1.2,1.58,1.81,3.13,3.65,7,5.43,11.88,4.86.63-.07,1.26-.07,2.12-.11,1.5,2.56,3.64,4.75,4.63,7.68a12.09,12.09,0,0,0,6.13,7.05,18,18,0,0,1,1.69,1.14,6.76,6.76,0,0,1-2.08,4.65,10.53,10.53,0,0,0-2.59,10.54,15.67,15.67,0,0,1-.08,8.51,29.51,29.51,0,0,1-5,10.26c-1.53,2.05-3.08,4.09-4.59,6.15a14.09,14.09,0,0,0-2.82,6.94c.15.39.16.81.37,1,2.13,1.52,2.8,3.3,1.34,5.71a11.1,11.1,0,0,0-1.18,3.12c-.66,2.72-.23,5,2.5,6.55a13.09,13.09,0,0,1,5.52,6.44,28.3,28.3,0,0,0,7.68,10.86,8.09,8.09,0,0,1,1.83,2.74A11.82,11.82,0,0,0-347,60.75c.47.1.94.16,1.41.27,6.94,1.73,10.92,6.2,11.77,13.41a43,43,0,0,1,.2,6.22,39.57,39.57,0,0,0,.85,10,9.5,9.5,0,0,1,.24,2.81,33.22,33.22,0,0,0,1.32,10.86Z" transform="translate(543.12 325.2)"/><path class="cls-6" d="M2.07-21.12A8.1,8.1,0,0,1,.4-14.83a13.9,13.9,0,0,0-1.5,2.44C-6.36-1.22-14,8.38-21.22,18.29c-4.66,6.42-9.5,12.72-14.39,19C-39,41.63-42.72,45.8-46.24,50.1c-2.31,2.83-4.5,5.75-6.82,8.57-2.12,2.57-4.27,5.12-6.52,7.59C-63.76,70.85-68.3,75.14-72.16,80S-80.73,88.52-84.1,93.6A17.56,17.56,0,0,1-86.42,96c-4.62,4.63-9.32,9.19-13.86,13.91A75.33,75.33,0,0,1-112,119.63a23.78,23.78,0,0,0-3.08,2.24,4.51,4.51,0,0,1-4,1.15c.74-1,1.41-2.12,2.23-3.09Q-59,51.13-1.2-17.67C-.18-18.88,1-20,2.07-21.12Z" transform="translate(543.12 325.2)"/><path class="cls-7" d="M-174.63,146.16c-1.4.11-2.54-.26-3.07-1.7a95.45,95.45,0,0,1-3.37-9.43,39.65,39.65,0,0,1-1.13-11.36c.17-4.46.15-9,0-13.42-.22-7,1.19-13.89,2.42-20.77,1.7-9.61,4.85-18.79,8.11-27.92a179.69,179.69,0,0,1,15.11-31.94q5.27-8.82,10.72-17.51c1.26-2,2.86-3.82,4.11-5.85a33.53,33.53,0,0,0,1.89-4.33l3.74.18,4.81-.82c.09,2.21-1,3.9-2.29,5.6a209.38,209.38,0,0,0-20.86,33c-2,4-3.76,8.08-5.64,12.12a140.5,140.5,0,0,0-10.52,33.59c-.76,4-1.46,8.11-1.85,12.2-.36,3.77-.43,7.62,2,11-.38,2.83-.7,5.66-1.17,8.48C-173.23,126.84-173.86,136.51-174.63,146.16Z" transform="translate(543.12 325.2)"/><path class="cls-8" d="M-170.48,108.79c-2.39-3.33-2.32-7.18-2-11,.39-4.09,1.09-8.16,1.85-12.2a140.5,140.5,0,0,1,10.52-33.59c1.88-4,3.6-8.16,5.64-12.12a209.38,209.38,0,0,1,20.86-33c1.32-1.7,2.38-3.39,2.29-5.6l1.91-1.17,7.69-2.74,7.36-1.54c-.85,1.16-1.61,2.39-2.54,3.47-27,31.5-44.8,67.5-53,108.21A5.68,5.68,0,0,1-170.48,108.79Z" transform="translate(543.12 325.2)"/><path class="cls-9" d="M-129.37.12l-1.91,1.17-4.81.82a8.33,8.33,0,0,1,.86-2.17c2.87-3.6,5.65-7.28,8.76-10.67,3.66-4,7.56-7.78,11.49-11.53,5.75-5.5,11-11.48,17.26-16.52,3.82-3.08,7.56-6.3,11.43-9.33A190.33,190.33,0,0,1-57.75-66.28c8.77-4.63,18.09-7.89,27.52-10.81a72.34,72.34,0,0,1,9.73-2.29c5.15-.84,10.36-1.38,15.53-2.13.54-.08,1-.67,1.52-1l4.83,7.79c-3.22.72-6.2,2.5-9.67,2.07a14,14,0,0,0-3.65-.94,74.74,74.74,0,0,0-12.37.72c-13.18,2.35-25.32,7.43-37.06,13.5A172.79,172.79,0,0,0-80-47.77c-6.3,4.36-12.06,9.35-17.93,14.23-3.55,2.94-6.21,6.89-10.2,9.38-.39.23-.62.72-.93,1.08-1.24,1.45-2.41,3-3.75,4.32-4.37,4.45-8.79,8.85-13.21,13.24C-127.63-3.92-129.08-2.26-129.37.12Z" transform="translate(543.12 325.2)"/><path class="cls-10" d="M-129.37.12c.29-2.38,1.74-4,3.36-5.64,4.42-4.39,8.84-8.79,13.21-13.24,1.34-1.35,2.51-2.87,3.75-4.32.31-.36.54-.85.93-1.08,4-2.49,6.65-6.44,10.2-9.38C-92-38.42-86.29-43.41-80-47.77A172.79,172.79,0,0,1-61.37-59.4c11.74-6.07,23.88-11.15,37.06-13.5a74.74,74.74,0,0,1,12.37-.72,14,14,0,0,1,3.65.94,9.78,9.78,0,0,1-1.59.92c-6.82,2.42-13.59,5-20.2,7.9a17.59,17.59,0,0,1-3.18.78,5.49,5.49,0,0,0-5-.5c-2.21.89-4.49,1.6-6.76,2.29C-56-58-65.79-52.23-75.24-46-79.33-43.23-82.85-39.62-87-37c-6.73,4.18-11.68,10.33-17.73,15.26-5.06,4.12-9.36,9.18-14,13.8a8.66,8.66,0,0,0-2.92,5.35Z" transform="translate(543.12 325.2)"/><path class="cls-11" d="M-121.68-2.62A8.66,8.66,0,0,1-118.76-8c4.65-4.62,9-9.68,14-13.8,6-4.93,11-11.08,17.73-15.26,4.17-2.59,7.69-6.2,11.78-8.93C-65.79-52.23-56-58-45-61.29c2.27-.69,4.55-1.4,6.76-2.29a5.49,5.49,0,0,1,5,.5c-1.94,1.08-3.85,2.21-5.82,3.23-5.53,2.84-11.23,5.36-16.58,8.5A242.49,242.49,0,0,0-81-34.29a204.49,204.49,0,0,0-22.31,19.48q-3.83,4-7.76,7.82c-1,1-2.14,1.89-3.22,2.83Z" transform="translate(543.12 325.2)"/><path class="cls-12" d="M1.38-74.75l-4.83-7.79-2.91-4.79-3.84-7.15a12.79,12.79,0,0,1-1-2.15,1.45,1.45,0,0,1,.31-1.26,1.23,1.23,0,0,1,1.23,0c.8.75,1.46,1.67,2.22,2.47s1.33,1.29,2.21,2.13l2.36-2.86c1.67.17,1.87,1.31,2.1,2.41A14.24,14.24,0,0,0,2.86-86q2.34,3.28,4.69,6.56c.64.89,1.53,1.66,1.33,2.93Z" transform="translate(543.12 325.2)"/><path class="cls-13" d="M8.88-76.56c.2-1.27-.69-2-1.33-2.93Q5.2-82.76,2.86-86a39,39,0,0,1,18,3.47c1.4.61,2.46,1.45,2.47,3.14Z" transform="translate(543.12 325.2)"/><path class="cls-4" d="M-180.24,166.37l5.51-.19c.24.21.64.39.68.63.41,2.75.76,5.51,1.11,8.27,0,.08-.21.19-.33.28-.29-.05-.7,0-.84-.17-1.89-2.32-3.77-4.66-5.57-7.05A5.83,5.83,0,0,1-180.24,166.37Z" transform="translate(543.12 325.2)"/><path class="cls-4" d="M-169,181.67a30.49,30.49,0,0,1-2.51,3.22c-.45.46-1.31.52-2,.76l.22-3.14C-171.9,181.31-170.4,181.82-169,181.67Z" transform="translate(543.12 325.2)"/><path class="cls-4" d="M-348.59-37.32c1-1.5,1.68-3.31,3.81-3.8.86,1.52,0,2.7-.54,3.92Z" transform="translate(543.12 325.2)"/><path class="cls-2" d="M805.68,168.24c-.79-.13-1.65-.23-1.73-1.26-.12-1.33.85-1.49,1.85-1.58Z" transform="translate(543.12 325.2)"/><path class="cls-4" d="M-332.88,104.2l1.68.13c.18.69,0,1.3-.77,1.16C-332.34,105.41-332.58,104.65-332.88,104.2Z" transform="translate(543.12 325.2)"/><path class="cls-4" d="M51.12-82.26l1,0v.86l-.95,1C51.13-81,51.12-81.63,51.12-82.26Z" transform="translate(543.12 325.2)"/><path class="cls-14" d="M423.18,25.22q0,51.11,0,102.22c0,2.39-.11,4.79-.33,7.17-1.12,11.73-11.66,22.82-25.36,23.13-.64,0-1.28,0-1.92,0q-72.71,0-145.4,0a32.25,32.25,0,0,1-6.67-.55c-12.16-2.64-20.43-12.62-21.11-25.26-.06-1.12,0-2.24,0-3.36q0-103.65,0-207.31a65.07,65.07,0,0,1,.39-6.69c1.07-10.12,10.1-22,25.3-22.71.8,0,1.6,0,2.4,0q72.23,0,144.44,0a38,38,0,0,1,7.14.66c12.81,2.53,20.22,13.75,20.84,22.83.15,2.23.29,4.47.29,6.7Q423.19-26.36,423.18,25.22Zm-60.64-4.37,4.5-2.52A37.64,37.64,0,0,0,386.39-8.28a51.12,51.12,0,0,0-.14-19.06,40.45,40.45,0,0,0-17.39-27.07,61.57,61.57,0,0,0-16.35-7.88,96.85,96.85,0,0,0-28.78-4.54c-20.78-.21-41.57-.11-62.35-.11a20.43,20.43,0,0,0-2.93.45v176.7c0,1.12-.06,2.24,0,3.36.06.9.27,1.79.42,2.75,1.2.06,2.15.15,3.09.15h70.51a100.21,100.21,0,0,0,20-2.08,65.21,65.21,0,0,0,21.8-8.37c9.17-5.72,15.65-13.56,18.93-23.91a56.18,56.18,0,0,0,1.59-29.81c-3.47-15.23-12.46-25.63-27.74-30.1Z" transform="translate(543.12 325.2)"/><path class="cls-15" d="M441.83,71.41q0-28.78,0-57.57a30.17,30.17,0,0,1,1.37-9.92,26.54,26.54,0,0,1,24.61-18.17q33.82.06,67.64,0A26.37,26.37,0,0,1,561.07,8.56a51.67,51.67,0,0,1,.41,6.21q0,57.09,0,114.17a35.9,35.9,0,0,1-1.1,9.48,26.3,26.3,0,0,1-25.13,19.35c-10.55-.08-21.11,0-31.66,0-11.83,0-23.67.18-35.5-.06-11.53-.25-19.56-6.09-24.25-16.53a25.62,25.62,0,0,1-2-10.76c0-15,0-30.06,0-45.09Zm91.24-13.36c.81-12.84-5.2-22.52-16.53-26.92a42.72,42.72,0,0,0-20.26-2.68c-14.9,1.6-25.5,10.83-29,25.3a53,53,0,0,0-1.25,10.44c-.2,5.43-.14,10.88,0,16.31a64.64,64.64,0,0,0,.81,9.54c2.56,14.45,13.4,24.47,25.57,26.67,7.52,1.36,15,1.28,22.24-1.24a33.05,33.05,0,0,0,8.08-4.1A24.27,24.27,0,0,0,532.8,88.05a63.2,63.2,0,0,0-16.2,0c-.15.7-.35,1.47-.47,2.24-.16,1-.2,1.91-.38,2.85-1.15,6.13-5.12,9.91-11.3,10.7a32.57,32.57,0,0,1-4.31.18,14.5,14.5,0,0,1-12.49-6.84A21,21,0,0,1,484,87.43,138.72,138.72,0,0,1,484,57.77a21.62,21.62,0,0,1,2.81-8.1c3.35-6,8.53-8.37,15.21-7.86a24.92,24.92,0,0,1,2.83.47c6.41,1.28,9.79,4.69,11,11,.28,1.53.6,3.05.92,4.7C522.31,58.29,527.53,58.27,533.07,58.05Z" transform="translate(543.12 325.2)"/><path class="cls-15" d="M718.35,71.42c0-19,0-38.06,0-57.08a38.85,38.85,0,0,1,.89-8.55,26.37,26.37,0,0,1,25.06-20c22.55,0,45.09.07,67.64,0a26.62,26.62,0,0,1,26,25.65c.08,1.28,0,2.56,0,3.84q0,56.61,0,113.21a49,49,0,0,1-.5,7.16c-1.87,12.78-13.47,22.17-25.72,22.16q-33.59,0-67.17,0a26.67,26.67,0,0,1-26.25-25.91c-.06-1.59,0-3.19,0-4.79ZM801,65.72c-3,0-5.53-.07-8.06-.08s-5.12,0-7.68,0c-2.72,0-5.44,0-8.16,0a57.8,57.8,0,0,1-7.47-.18c-.83-5.44-.7-18,.25-21.4H775c9.43,0,18.87,0,28.31,0,1.22,0,2.6.4,3.74-1,0-3.87.56-8-.33-12a9.52,9.52,0,0,0-1.63-.34l-52.3.11a.76.76,0,0,0-.43.16,4.1,4.1,0,0,0-.44.46,6.09,6.09,0,0,0-.24,1.23q0,41.75.12,83.49a.91.91,0,0,0,.13.46,1.3,1.3,0,0,0,.34.32c4.45.6,50.67.57,54.48,0a31.77,31.77,0,0,0-.16-13h-4.65c-9.76,0-19.52,0-29.28,0a31.32,31.32,0,0,1-3.14-.28c-.69-5-.59-20.54.17-24.32,1.48-.05,3-.16,4.61-.16,7.84,0,15.68,0,23.52,0a24,24,0,0,0,3.14-.44Z" transform="translate(543.12 325.2)"/><path class="cls-15" d="M202.07,71.84V129.9a25.94,25.94,0,0,1-1,8.53c-3.4,10-10.22,16-20.72,17.54a44.5,44.5,0,0,1-6.22.39q-30.22,0-60.45,0c-2.07,0-4.15-.17-6.22-.37-10.92-1-21.5-10.73-21.82-24.12,0-1.12,0-2.24,0-3.36q0-56.85,0-113.71a37.06,37.06,0,0,1,.8-8.55,24.36,24.36,0,0,1,20.72-18.7,41.87,41.87,0,0,1,5.25-.39c20.95,0,41.9-.06,62.85,0a34,34,0,0,1,9,1.14,24.71,24.71,0,0,1,17.81,23.53c-.11,10.87,0,21.75,0,32.63ZM136.18,29.92c-.57,1.58-1,2.77-1.43,4q-6.67,19.76-13.34,39.51Q114.82,93,108.28,112.5c-.39,1.15-1.13,2.31-.2,3.7h16.81a24.58,24.58,0,0,0,1.16-2.61c1.32-4.11,2.56-8.24,3.88-12.35.38-1.18.92-2.31,1.34-3.34,5.19-.54,23.93-.46,27.75.13.45,1.21,1,2.52,1.42,3.87,1.23,3.8,2.4,7.62,3.65,11.41a30.56,30.56,0,0,0,1.24,2.87h17.58c-1.22-5.2-3.12-9.91-4.7-14.7s-3.13-9.4-4.7-14.1l-4.89-14.54-4.9-14.55c-1.58-4.69-3.12-9.4-4.73-14.09s-3-9.72-5.1-14.55c-5.16,0-10.11,0-15,0C138.05,29.66,137.28,29.81,136.18,29.92Z" transform="translate(543.12 325.2)"/><path class="cls-15" d="M580.11,71.51c0-19.51,0-39,0-58.52a26.36,26.36,0,0,1,7.17-18.78,25.87,25.87,0,0,1,19.66-8.46q29.27,0,58.52,0c2.72,0,5.44,0,8.16,0a26.38,26.38,0,0,1,25.73,22.7,51.41,51.41,0,0,1,.45,6.2q0,57.09,0,114.17a39.58,39.58,0,0,1-.95,9,26.23,26.23,0,0,1-24.73,19.85c-8.47.17-17,0-25.42,0-13.92,0-27.83,0-41.74,0A26.65,26.65,0,0,1,580.12,131q0-20.86,0-41.74ZM608,117.1c1.24.08,2,.18,2.78.18,9.58,0,19.17.06,28.76,0a42.37,42.37,0,0,0,7.59-.89,33.89,33.89,0,0,0,27.17-30.23,143.27,143.27,0,0,0,0-24.42,32.57,32.57,0,0,0-9.42-20.46c-7-7.13-15.5-10.51-25.37-10.6-9.58-.08-19.17,0-28.75,0a17.92,17.92,0,0,0-2.75.43Z" transform="translate(543.12 325.2)"/><path class="cls-16" d="M432.94,308.82a79.56,79.56,0,0,1-12.71.1,18.35,18.35,0,0,1-.43-2.77q0-29.5,0-59c0-.77.14-1.54.24-2.54,5.53-.74,10.91-.13,16.47-.4.57,1.29,1.15,2.39,1.55,3.56q6.69,19.23,13.33,38.5a12.77,12.77,0,0,0,2.16,4.7c2.44-5.4,3.91-10.55,5.7-15.59s3.62-10.24,5.42-15.37,3.57-10.24,5.31-15.25a75.84,75.84,0,0,1,16.71-.11,12.63,12.63,0,0,1,.35,2.13q0,29.75,0,59.5c0,.77-.16,1.54-.27,2.57-4.09.53-8,.17-11.77.23-1.35-1.44-.95-2.95-1-4.34,0-10.55,0-21.11,0-31.67,0-1.56.31-3.18-.4-4.7-1.57.1-1.52,1.49-1.86,2.42-3.29,9-6.52,18-9.78,27-1.3,3.6-2.64,7.19-4,10.9-2.92.7-5.74.35-8.84.25-2.8-6.84-5.08-13.8-7.59-20.67L434,267.6c-1.56.45-1,1.6-1,2.34-.05,11.19,0,22.39,0,33.59Z" transform="translate(543.12 325.2)"/><path class="cls-16" d="M-330.28,309a97.56,97.56,0,0,1-12.57-.08,36.37,36.37,0,0,1-.37-3.74q0-16.32,0-32.64v-4.8c-1.77.2-1.66,1.58-2,2.51q-6.27,17.12-12.43,34.25c-.49,1.34-1,2.68-1.54,4.1-2.85,1-5.69.41-8.7.44-.54-1.22-1.11-2.34-1.53-3.5q-6.22-17.13-12.41-34.26c-.48-1.31-1-2.58-1.57-3.84-1.36.42-1,1.35-1,2,0,11.52,0,23,0,34.56,0,1.55.42,3.18-.67,4.87a83.5,83.5,0,0,1-11.63.11,6.7,6.7,0,0,1-.54-1.63q0-31.19,0-62.44c2.93-1.28,5.82-.51,8.62-.64s5.4,0,8.34,0l16.22,46.87a14.76,14.76,0,0,0,1.52-2.44c4.55-13,9.05-25.95,13.59-38.92.63-1.8,1.36-3.55,2.12-5.53,4.92,0,9.71,0,14.49,0a8.26,8.26,0,0,1,1.49.22c.4.37.55.46.62.59a.93.93,0,0,1,.12.46q.06,30.24.11,60.46C-330.07,306.78-330.18,307.57-330.28,309Z" transform="translate(543.12 325.2)"/><path class="cls-17" d="M588.63,286.76c.18-14.57,0-28.24.14-42.13a53.45,53.45,0,0,1,12.49-.16,5.57,5.57,0,0,1,.52,1.52c0,20.76,0,41.53,0,62.53a17,17,0,0,1-2.83.56c-3.2.06-6.39,0-9.35,0-1.7-.71-2.18-2.15-2.9-3.36q-10.49-17.48-20.92-35c-.71-1.19-1.51-2.33-2.31-3.57-1.42.92-.91,2.14-.92,3.13,0,11.19,0,22.38,0,33.56,0,1.56-.13,3.12-.19,4.59a33.54,33.54,0,0,1-12.67,0,10.66,10.66,0,0,1-.28-1.75c0-20.61,0-41.21,0-62,4.3-1,8.42-.32,12.75-.48.78,1.12,1.64,2.24,2.36,3.44,6.82,11.37,13.6,22.77,20.44,34.13A15.22,15.22,0,0,0,588.63,286.76Z" transform="translate(543.12 325.2)"/><path class="cls-17" d="M357,308.89H344.37c-.56-.79-1.37-1.75-2-2.81q-10.74-17.9-21.44-35.8a12.61,12.61,0,0,0-2.79-3.81A63.58,63.58,0,0,0,318,274c0,2.24,0,4.48,0,6.72v13.91c0,2.4,0,4.8,0,7.2,0,2.22,0,4.43,0,6.8-4.39.93-8.46.31-12.13.41a7.72,7.72,0,0,1-.74-.71.88.88,0,0,1-.14-.44q-.07-29.26-.14-58.53c0-1.43,0-2.86,0-4.52a17.38,17.38,0,0,1,2.84-.57c3.35-.06,6.69,0,10.23,0L343,286.11c1.62-.6,1.08-1.73,1.08-2.55.05-11.35,0-22.71,0-34.06,0-1.57.12-3.13.18-4.62a33.39,33.39,0,0,1,12.42-.16,2.41,2.41,0,0,1,.36.35,1.08,1.08,0,0,1,.11.47q.06,30.47.11,60.93C357.25,307.1,357.13,307.73,357,308.89Z" transform="translate(543.12 325.2)"/><path class="cls-18" d="M280.23,244.37h12.3a9.92,9.92,0,0,1,.53,2.22q0,30.22,0,60.47a10.5,10.5,0,0,1-.29,1.63c-4.06.86-8.18.25-12.58.35-8.67-13.93-16.85-28.19-25.36-42.13-1.47.21-1,1.19-1,1.85q0,17.52,0,35c0,1.58-.08,3.15-.13,4.89-4.18.77-8.13.36-12,.3-1.4-1.64-.83-3.48-.83-5.16-.05-16.32,0-32.64,0-48.95,0-2.4,0-4.8,0-7.2,0-.94.13-1.88.22-3,2.14-.72,4.21-.35,6.22-.41s4.14,0,6.46,0c8.6,13.87,16.69,28,25.18,41.76,1.6-.43,1.14-1.58,1.14-2.39,0-11.36,0-22.72,0-34.08C280,248,280.15,246.39,280.23,244.37Z" transform="translate(543.12 325.2)"/><path class="cls-19" d="M10.93,244.45a71.06,71.06,0,0,1,8.31-.19c1.25,0,2.49.12,3.71.18a6.27,6.27,0,0,1,.51,1.56q0,30.67,0,61.36a6.47,6.47,0,0,1-.56,1.62c-3.9.25-7.85,0-12,.1-.74-1.06-1.53-2-2.17-3.11Q-1.86,288.3-12.44,270.61c-.78-1.3-1.3-2.86-2.6-3.72-.34.15-.53.18-.62.29a.78.78,0,0,0-.1.44c0,.32,0,.64,0,.95,0,.48,0,1,0,1.44v36.44c0,.16,0,.32,0,.48a2.42,2.42,0,0,1,0,.47,2.46,2.46,0,0,1-.1.47c-.05.15-.11.3-.17.45-2.91,1-7.52,1.09-12.24.23a9.57,9.57,0,0,1-.31-1.74c0-20.61,0-41.21,0-62a19.75,19.75,0,0,1,2.88-.51c3.19-.06,6.37,0,9.39,0,1.75,1.17,2.36,2.88,3.25,4.36Q-2.54,266.27,8,284c.54.9,1.19,1.73,2.16,3.11a11.47,11.47,0,0,0,.42-4.21c.05-1.28,0-2.56,0-3.84V252.17c0-1.27,0-2.55,0-3.83S10.81,245.89,10.93,244.45Z" transform="translate(543.12 325.2)"/><path class="cls-18" d="M156.84,277.83c1,.61,1.63,1,2.28,1.37,4.68,2.5,6.73,6.64,7.18,11.71a52.46,52.46,0,0,1,.1,5.75c-.08,4.07.53,8,3.12,11.71a9,9,0,0,1-2.24.69c-3.66.06-7.33,0-10.68,0a7.2,7.2,0,0,1-2.77-5.76c-.21-2.87-.29-5.75-.45-8.62a32.38,32.38,0,0,0-.36-4.29,8.32,8.32,0,0,0-7.47-7,28.86,28.86,0,0,0-3.35-.13c-2.86,0-5.72,0-8.79,0-.16,1.4-.37,2.48-.38,3.56,0,5.59,0,11.19,0,16.78v5c-4.35.83-8.39.32-12.52.33a16.26,16.26,0,0,1-.37-2.22c0-20.61,0-41.23,0-62a19.72,19.72,0,0,1,3-.48q10.06-.06,20.14,0a29.25,29.25,0,0,1,13,2.81,17.42,17.42,0,0,1,9.38,20.06,14,14,0,0,1-5.08,7.9C159.43,275.91,158.3,276.72,156.84,277.83ZM133,272.76a58.12,58.12,0,0,0,12.5.05c3.22-.35,5.86-1.91,6.88-5.17,2.05-6.55-1.2-12.78-8.26-13.12-2.72-.13-5.44-.1-8.15-.08a25.37,25.37,0,0,0-3,.41v17.91Z" transform="translate(543.12 325.2)"/><path class="cls-18" d="M230.89,277.08c-.37,4.12-.47,8.29-1.17,12.36a25.32,25.32,0,0,1-21.12,20.15,33.78,33.78,0,0,1-12.84-.51,25.36,25.36,0,0,1-18.85-21.29,95.31,95.31,0,0,1,0-22c1.34-11.8,10.46-20.73,22.88-22.23,15.4-1.85,25.92,6.94,29.28,17.86a43,43,0,0,1,1.45,8.46c.23,2.37.05,4.79.05,7.18Zm-13.57-.56h0c0-2.87.09-5.74,0-8.61a17,17,0,0,0-3.4-9.31c-4.79-6.71-16.65-6.94-21.34.65a20.18,20.18,0,0,0-3.06,10.43q-.14,6.93,0,13.88a21.09,21.09,0,0,0,2.76,10c4.58,8.24,17.67,8.32,22.4.12a17.86,17.86,0,0,0,2.67-8.58C217.37,282.27,217.32,279.4,217.32,276.52Z" transform="translate(543.12 325.2)"/><path class="cls-18" d="M676.37,244.37h13.24c2.88,6.91,4.89,14.12,7.34,21.16,2.52,7.23,4.88,14.52,7.28,21.79,2.35,7.07,5,14.05,7,21.55-4.52.44-8.64.13-13,.22-.47-1.06-1-2-1.33-3-1.22-3.61-2.39-7.23-3.58-10.84H672.85c-2.07,4.37-2.71,9.19-4.74,13.64a69.3,69.3,0,0,1-12.72,0c-.12-.54-.32-.88-.24-1.13C662.18,286.7,669.23,265.68,676.37,244.37Zm13.39,40.09c-.76-4.73-4.88-17.75-6.88-21.63-2.53,7.29-4.76,14.32-6.78,21.44A37.39,37.39,0,0,0,689.76,284.46Z" transform="translate(543.12 325.2)"/><path class="cls-18" d="M-216.63,308.76a82,82,0,0,1-13.46.18c-1.51-4.55-3-9-4.57-13.72-6.86-.35-13.54-.09-20.06-.17-1.61,1.43-1.66,3.3-2.24,4.91-1.09,3-1.67,6.13-3.08,9H-273a16.49,16.49,0,0,1,.39-2.37q10.06-30,20.18-59.89c.25-.73.62-1.42,1-2.33,4.36-.21,8.62-.14,13.08,0C-231,265.8-223.9,287.09-216.63,308.76Zm-27.9-45.6A142.64,142.64,0,0,0-252,284.81c2,.06,3.53.13,5.09.16s2.89.07,4.32,0,3.17.49,4.73-.76C-240.14,277.1-242.34,270.13-244.53,263.16Z" transform="translate(543.12 325.2)"/><path class="cls-20" d="M382.75,270.49c4,0,7.84-.05,11.66,0s7.63-.33,11.57.33a42.18,42.18,0,0,1,.12,9.34,18.21,18.21,0,0,1-2.78.42c-5.6,0-11.19,0-16.78,0-1.25,0-2.5.08-3.66.13a68.84,68.84,0,0,0,0,18c2.91.32,5.92.11,8.92.14s6.07,0,9.11,0h9.19c1.41,3.24.43,6.38.77,9.58a10.5,10.5,0,0,1-2.09.56q-18.93,0-37.87,0a5.27,5.27,0,0,1-1-.21c-1.34-1.27-.77-3-.78-4.49q0-27.81,0-55.62v-4a13,13,0,0,1,2.47-.53q18.69,0,37.39,0a4.36,4.36,0,0,1,.94.19c1.14,2.94,1.2,5.72.13,9.94l-13.72.05H383C382.08,258,382,264.33,382.75,270.49Z" transform="translate(543.12 325.2)"/><path class="cls-17" d="M-305,285.71c-.33,7.92.09,15.39-.25,22.75a33.52,33.52,0,0,1-12.51.13,2.07,2.07,0,0,1-.32-.35,1.08,1.08,0,0,1-.11-.47q-.07-30.42-.11-60.86c0-.63.11-1.26.2-2.15a14.91,14.91,0,0,1,2.67-.5c7.67,0,15.35-.18,23,.05A34.4,34.4,0,0,1-283,246c8.94,2.91,13.74,10.13,13.54,19.77A19.13,19.13,0,0,1-284,284.31a36.26,36.26,0,0,1-7.55,1.14c-3.34.2-6.71.07-10.06.11C-302.53,285.57-303.46,285.64-305,285.71Zm.45-31.15c-.81,4.3-.79,16.88.07,21,4.32,0,8.74.23,13.17-.17a10.41,10.41,0,0,0,2.31-.57,8.88,8.88,0,0,0,6.09-6.77,12.43,12.43,0,0,0-.15-6.63c-1.1-3.65-3.52-6.16-7.35-6.68A81.49,81.49,0,0,0-304.52,254.56Z" transform="translate(543.12 325.2)"/><path class="cls-21" d="M540.41,254.38c-9.56.12-18.63,0-27.63.08-.95,3.2-1.08,9.55-.34,15.63a15.71,15.71,0,0,0,2.57.39c5.27,0,10.55,0,15.82,0,1.57,0,3.14.09,4.81.15.73,3.25.2,6.24.39,9.45a20,20,0,0,1-2.91.47c-5.43,0-10.86,0-16.29,0-1.41,0-2.82.12-4.16.17-.84,3.67-.91,13.2-.12,18,2.9.43,5.91.14,8.9.19,3.2.05,6.39,0,9.59,0a80.09,80.09,0,0,1,9.33.22c.09,1.76.2,3.3.24,4.85s0,2.86,0,4.46a11.55,11.55,0,0,1-2.41.58q-18.45,0-36.9,0a11,11,0,0,1-1.79-.3,5.8,5.8,0,0,1-.48-1.5q0-30.66,0-61.34a4.19,4.19,0,0,1,.45-1.3c3.6-.5,34.22-.63,40.44-.16C541.16,247.47,540.42,250.61,540.41,254.38Z" transform="translate(543.12 325.2)"/><path class="cls-22" d="M-78.76,244.59a4.1,4.1,0,0,1,1.17-.32c12.93,0,25.87,0,39.08,0,1,3.26.31,6.4.57,9.69a23.08,23.08,0,0,1-3,.48c-6.87,0-13.75,0-20.62,0-1.41,0-2.81.09-4.13.14a53,53,0,0,0,0,15.66c7.51.68,15.15-.15,22.67.45,1,3.59,1,5.42.13,9.79-7.52.35-15.14-.08-22.66.24-.9,3.57-1,12.75-.23,18,2.89.42,5.91.14,8.9.19s6.07,0,9.11,0h8.94c1.1,3.26,1.17,4.76.48,9.74-3.24.85-6.59.31-9.9.4-3.52.09-7,0-10.56,0H-68.85c-3.32,0-6.65-.06-9.57-.09a5.89,5.89,0,0,1-.74-.68,1,1,0,0,1-.13-.46q-.08-30.21-.13-60.42a19.16,19.16,0,0,1,.23-2.38C-79.18,245-79,244.85-78.76,244.59Z" transform="translate(543.12 325.2)"/><path class="cls-17" d="M-174.59,265.82c-.33-1.68-.55-2.91-.81-4.13-1-4.61-3.8-7.27-8.44-7.95a25.73,25.73,0,0,0-3.83-.18,10,10,0,0,0-8.77,5,18.05,18.05,0,0,0-2.93,9.5c-.11,5.75-.12,11.51,0,17.26a17.5,17.5,0,0,0,2.78,9.07,12.68,12.68,0,0,0,16.92,3.93,9.28,9.28,0,0,0,4.16-6.19c.31-1.37.48-2.78.75-4.34a29.3,29.3,0,0,1,6.3-.26c1.89,0,3.79.06,5.92.11.76,3.33-.1,6.24-1.09,9-2.56,7.14-8.07,10.94-15.18,12.55a34.92,34.92,0,0,1-12.86.4,24.42,24.42,0,0,1-20.21-19.83c-.07-.31-.1-.63-.14-.95a109.89,109.89,0,0,1,0-24.39,23.22,23.22,0,0,1,3.88-10.21,22.93,22.93,0,0,1,15.48-10.35,31.76,31.76,0,0,1,18.77,2c7.9,3.43,11.94,10.35,11.44,19.42C-166.24,266.39-170.19,265.61-174.59,265.82Z" transform="translate(543.12 325.2)"/><path class="cls-21" d="M30.3,244.37h13a30.78,30.78,0,0,1,1.22,2.92Q50.71,268,56.86,288.63c.41,1.37.82,2.74,1.29,4.27,1.26-.52,1.32-1.63,1.61-2.6Q65.93,269.65,72.11,249c.45-1.51,1-3,1.47-4.57H86.17c1,1.33.2,2.48-.19,3.62q-8.16,24.06-16.35,48.1c-1.44,4.23-2.88,8.45-4.35,12.73a87.34,87.34,0,0,1-12.92.08C50.53,305.61,31.79,250.78,30.3,244.37Z" transform="translate(543.12 325.2)"/><path class="cls-20" d="M-140.75,254.6c-6.25-.37-12,.06-17.59-.28-1-1.78-.56-3.41-.63-5s0-2.86,0-4.48a9.91,9.91,0,0,1,2.35-.62q22.78,0,45.57,0a6,6,0,0,1,1.3.29c.83,3.62.86,5.39.09,9.63-5.62.68-11.37-.06-17,.4-1.26,1.21-.78,2.73-.78,4.1,0,15,0,30.06,0,45.09,0,1.57-.09,3.14-.13,4.63a32.64,32.64,0,0,1-12.8.21c-.08-1.3-.26-2.69-.26-4.07q0-22.07,0-44.13Z" transform="translate(543.12 325.2)"/><path class="cls-20" d="M639.29,308.83A92.25,92.25,0,0,1,627,309c-1.28-1.53-.82-3-.83-4.4q0-22.06,0-44.13V255a17.45,17.45,0,0,0-2.82-.53c-3.83-.05-7.67,0-11.51,0-1.09,0-2.18-.1-3.19-.14-.93-3.67-1-5.24-.22-9.73a12.38,12.38,0,0,1,1.73-.32c7.82-.35,43.48-.08,47.24.38.7,3,.44,6.11.14,9.45-6,.83-11.86,0-18,.58-.08,1.76-.22,3.31-.22,4.86q0,22.05,0,44.12Z" transform="translate(543.12 325.2)"/><path class="cls-20" d="M717.63,244.18l12.21.12c1.34,1.46.88,3,.89,4.34q0,22.56,0,45.1c0,1.56.09,3.13.14,4.9,2.59.54,5,.24,7.32.29s4.48,0,6.72,0h14c1.18,3.28.53,6.41.47,9.72a19.41,19.41,0,0,1-2.84.43q-18,0-36,0a15.15,15.15,0,0,1-3.19-.68c0-2.71.1-5.43.1-8.14Q717.6,272.21,717.63,244.18Z" transform="translate(543.12 325.2)"/><path class="cls-20" d="M95.14,244.35a100.15,100.15,0,0,1,11.74,0,14.54,14.54,0,0,1,.54,2.72q0,29.75,0,59.49a17.93,17.93,0,0,1-.28,2.11c-4.13.76-8.18.41-11.92.26a4.37,4.37,0,0,1-.66-.61.91.91,0,0,1-.14-.45q-.08-30.22-.13-60.44a21.09,21.09,0,0,1,.22-2.37C94.54,245,94.71,244.85,95.14,244.35Z" transform="translate(543.12 325.2)"/><path class="cls-14" d="M-423.29,244.34c4.55-.05,8.47-.33,12.5.18a12.54,12.54,0,0,1,.35,2c0,20.6,0,41.2,0,62-4.31,1-8.36.34-12.48.44a15.63,15.63,0,0,1-.38-2.23C-423.3,286.17-423.29,265.56-423.29,244.34Z" transform="translate(543.12 325.2)"/><path class="cls-2" d="M717.63,244.18q0,28-.09,56.08c0,2.71-.06,5.43-.1,8.14-1-.16-1.84-.53-1.92-1.71,0-.64-.08-1.27-.08-1.91V248a21.08,21.08,0,0,1,.12-2.38C715.71,244.47,716.62,244.23,717.63,244.18Z" transform="translate(543.12 325.2)"/><path class="cls-14" d="M-47.74-220.7a27.08,27.08,0,0,1,2.79,1.8A217.3,217.3,0,0,1-3.88-175.07c.73,1,1.65,2,1.37,3.44-1.78.69-3.6,1.3-5.34,2.09s-1.69,1.82-.29,3.33a7.7,7.7,0,0,0,1.16.85c-.41.64-.58,1.14-.93,1.39-2.94,2.14-3.93,2-5.84-.79a45,45,0,0,0-2.66-4c-1.75-2-3.73-2.19-6-.66a7.9,7.9,0,0,0-1.45,1.25A29.33,29.33,0,0,0-30.49-155a6.5,6.5,0,0,0,.77,5.52,8,8,0,0,1,.76,2,2.78,2.78,0,0,1-2.92,1.62q-3.84.06-7.67.16a13.35,13.35,0,0,0-6.35,2c-2.08,1.19-2.39,2.2-1.35,4.3.56,1.15,1.23,2.24,1.73,3.42,1,2.37,0,4.38-1.45,6.16a1.44,1.44,0,0,1-2.15,0c-1-1-1.78-2.18-2.77-3.41l2.32-3.12c-.26-.32-.4-.65-.64-.76a7.81,7.81,0,0,0-1.79-.64c-4-.76-6-3.42-7-7.08-.28-1.08-.3-2.22-.59-3.3-.77-3-2.41-5.23-5.46-6.16-3.28-1-6-3-8.68-5-2.57-1.88-5.3-3.55-8-5.17a2.49,2.49,0,0,0-2.15.19,2.08,2.08,0,0,0-.93,2.5,5.39,5.39,0,0,0,1.24,2c3.44,3.34,6.8,6.77,10.47,9.84,2,1.71,4.62,2.8,7,4.14.67.38,1.55.47,1.69,1.44-.07.14-.09.32-.18.36-1.25.59-3.22-.36-3.81,1.35-.37,1.08.09,2.44.15,3.69.07,1.5-.76,2.29-2.35,2.82-.31-1-.65-1.9-.83-2.81a9.88,9.88,0,0,0-5.45-6.9,24.86,24.86,0,0,0-3.47-1.62,18.72,18.72,0,0,1-9.71-8.16,42.89,42.89,0,0,0-2.69-3.95,2.58,2.58,0,0,0-3.44-.71c-1.13.59-2.27,1.17-3.34,1.87a13.07,13.07,0,0,1-9.54,2.31,13.57,13.57,0,0,0-1.91-.18c-2.52,0-3.75.55-4.21,2.95-.55,2.86-2.23,4.35-4.59,5.68a14.76,14.76,0,0,0-7.55,9.48c-1.51,6.21-5.91,8.86-11.76,9.49-2.45.26-4.71.56-6.34,2.4-3.74-1.73-7.2-3.34-10.67-4.91a3.17,3.17,0,0,1-2-3,27.93,27.93,0,0,1,.27-5.72,63.68,63.68,0,0,0,1.75-13.27c0-2.45,1.41-3.76,3.93-3.9a22.84,22.84,0,0,1,4.28.31c2.37.33,4.72.91,7.1,1.1a31.92,31.92,0,0,0,6.18-.19,4.57,4.57,0,0,0,3.93-3.73,19,19,0,0,0,.4-8.08,6.76,6.76,0,0,0-4-5.09c-1.14-.57-2.37-1-3.46-1.62a1.94,1.94,0,0,1-.86-1.5,1.78,1.78,0,0,1,1.23-1.2c3.81-.06,7-2.09,10.46-3.2a27.93,27.93,0,0,0,11-6.69c1.71-1.67,3.48-3.29,5.25-4.91a20.57,20.57,0,0,1,11.41-5.62c3.24-.44,3.93-1.74,3.11-5a14.69,14.69,0,0,1-.78-3.24,12.37,12.37,0,0,1,.71-3.67c.22-.72.73-.88,3.08-1.91,2.07,1.11.2,3.36,1.55,5,1.47.85,2.79-.55,4.26-.82a1.68,1.68,0,0,1,2,.77,2,2,0,0,1-.86,2.49,35.43,35.43,0,0,1-3.55.89c-.36,3,.42,4.12,2.69,3.37,3.31-1.09,6.29-.53,9.38,1,1.91-.64,3.88-1.24,5.81-2a10.46,10.46,0,0,1,6.59-.5,5.14,5.14,0,0,0,4.94-.86,7,7,0,0,0,2.81-4.84c.13-1.11,0-2.24.13-3.35a2.49,2.49,0,0,1,2.9-2.46c1.11.1,2.19.49,3.29.59a2.12,2.12,0,0,0,2.25-3.12,9.05,9.05,0,0,0-.52-.8C-51.2-218.94-51.18-219-47.74-220.7Z" transform="translate(543.12 325.2)"/><path class="cls-19" d="M-85-243.27c.75,0,1.67-.4,2.24-.09,4.71,2.51,9.36,5.12,14,7.77.46.26.62,1,.93,1.54-4.78,3.26-5,5.37-1.09,9.35.45.46,1,.83,1.41,1.3,1.31,1.39,1.46,2.62,0,3.65a17.55,17.55,0,0,0-6.16,8.85,7.23,7.23,0,0,1-5.58,4.74c-2.47.53-3.9-.16-5.08-2.44-.5-1-.83-2.07-1.3-3.08a37.3,37.3,0,0,0-1.74-3.39c-2.14-3.53-3.14-3.81-6.94-2.09-.15.07-.28.16-.42.24-5.12,2.57-8.66.44-10.21-2.69-2.57-5.17-1.34-9.81,3.36-12.25,1-.51,2.08-.8,3.09-1.25a36.65,36.65,0,0,0,12.22-8.19A13.22,13.22,0,0,0-85-243.27Z" transform="translate(543.12 325.2)"/><path class="cls-13" d="M-6.36-87.33l2.91,4.79c-.5.36-1,1-1.52,1-5.17.75-10.38,1.29-15.53,2.13a72.34,72.34,0,0,0-9.73,2.29C-39.66-74.17-49-70.91-57.75-66.28A190.33,190.33,0,0,0-86.29-48.11c-3.87,3-7.61,6.25-11.43,9.33-6.24,5-11.51,11-17.26,16.52-3.93,3.75-7.83,7.54-11.49,11.53-3.11,3.39-5.89,7.07-8.76,10.67a8.33,8.33,0,0,0-.86,2.17l-3.74-.18a3.19,3.19,0,0,0-.19-.67c3.09-3.84,6.16-7.68,9.27-11.49A36.59,36.59,0,0,1-128.1-13c7.12-7.13,14.33-14.18,21.35-21.41a153.92,153.92,0,0,1,21.57-18.1c6.36-4.52,12.78-9,19.47-13A134.94,134.94,0,0,1-39.34-77.89c4.84-1.61,9.68-3.24,14.61-4.53s10.15-2.65,15.44-2.81A3.2,3.2,0,0,0-6.36-87.33Z" transform="translate(543.12 325.2)"/><path class="cls-22" d="M-268.69-247.48c.11-.28.13-.7.33-.83a24.86,24.86,0,0,1,9.3-3.76c.28-.05.59.15.89.24,1.17,2.08,3.35,1.42,5.39,1.87.54.75,1.25,1.6,1.8,2.54a10.87,10.87,0,0,0,3.52,3.83c3,1.88,5,4.33,5.16,8.1.07,1.3,1.06,2.61,1.83,3.79s1.71,1.89,2.48,2.9c1.21,1.56,1.19,2.82.08,3.82-.94.86-2.08.81-3.43-.3-1.1-.91-2-2-3.19-2.88a10.18,10.18,0,0,0-2.4-1c-1.22,1.68-.19,2.95.09,4.31a7.29,7.29,0,0,1-.11,2.75c-.06.36-.64.61-.9.83-2.14.06-3-2.47-5.23-2.27-.65,1.88,1.76,2.64,1.31,4.63a5.45,5.45,0,0,1-1.66,0,12.68,12.68,0,0,1-6.83-5.71c-1.28-2-2.5-4.09-4.48-5.54l0-1.24a17.28,17.28,0,0,0,3.36-1.59,4.09,4.09,0,0,1,5.26-.25c1.21.81,2.42,1.54,3.89.65,0-.36.21-.78.07-1a43.9,43.9,0,0,1-5.31-9,9.88,9.88,0,0,0-1.26-2,6.36,6.36,0,0,0-5.7-2.88C-265.82-247.38-267.26-247.47-268.69-247.48Z" transform="translate(543.12 325.2)"/><path class="cls-22" d="M-130.31-215.32l-1.84,3.28c.19.54.2,1,.41,1.1,4.64,2.48,7.23,6.6,9,11.35.92,2.49,2.46,4.06,5.27,4.07.26,0,.51.32,1,.64-1,1.92-1.9,3.89-2.94,5.81A4.51,4.51,0,0,1-123-187c-3.62.59-7.23,1.24-10.85,1.81-1.72.27-3.46.41-5.83.68.67-.78.91-1.31,1.31-1.49,1-.46,2.14-.68,3.14-1.16a2.25,2.25,0,0,0,1.19-1.32,1.69,1.69,0,0,0-.91-1.38,3.39,3.39,0,0,1-2.75-2.94,4.7,4.7,0,0,1,1.91-4.17c.59-.53,1.32-.89,2-1.37a4.41,4.41,0,0,0-.54-7.43,15.42,15.42,0,0,0-2.28-.68,3.15,3.15,0,0,1-2.24-2.83,22.52,22.52,0,0,1-.32-4.76,7.19,7.19,0,0,1,1.49-3.39c1.33-1.72,2.77-1.75,4.5-.38C-132.36-217.09-131.53-216.35-130.31-215.32Z" transform="translate(543.12 325.2)"/><path class="cls-21" d="M-158.3-194.42a15.31,15.31,0,0,1,7.5-11.07,8.31,8.31,0,0,1,3.14-.95c3.7-.45,5.35.89,4.39,4.91-1.43,6-5.13,9.65-10.94,11.33-2.87.84-4.15-.22-4.09-3.3Z" transform="translate(543.12 325.2)"/><path class="cls-13" d="M-323.39-76c-.2.49-.24.9-.46,1-2.78,1.68-5.84,1.31-8.86,1.07a2.13,2.13,0,0,1-1.52-1c-.69-1.43-2-2-3.18-2.8-4.25-3.17-8.69-3.8-13.44-1.19-.23.13-.59,0-1.27,0,.4-.63.58-1.21,1-1.5,4.33-3.23,9.19-3.39,14.17-2.2a26.85,26.85,0,0,1,4.87,2c2.46,1.13,4.9,2.32,7.33,3.53A8.22,8.22,0,0,1-323.39-76Z" transform="translate(543.12 325.2)"/><path class="cls-13" d="M-245.13-177.44a24.09,24.09,0,0,0,1.79,3.72,19.8,19.8,0,0,0,2.77,2.63c1.33,1.23,2.5,2.53,1.72,4.55-1.18,1-2.45.45-3.66.21a29.59,29.59,0,0,1-10-4.31C-250.49-173.71-249.19-174.89-245.13-177.44Z" transform="translate(543.12 325.2)"/><path class="cls-13" d="M-306.94-71.35c-3.69,2.9-7.33,3.59-16.63,3.08,1.11-1.35,2.78-1,3.83-1.8,2.52-4.21,3.62-4.7,8.46-3.78C-309.54-73.52-307.87-73.08-306.94-71.35Z" transform="translate(543.12 325.2)"/><path class="cls-13" d="M-289.27-237.81l13.58-7.48a2.73,2.73,0,0,1,3.09,0c-2,5.53-4.95,7.57-10.53,7.46C-285.17-237.84-287.22-237.81-289.27-237.81Z" transform="translate(543.12 325.2)"/><path class="cls-20" d="M-73.6-134c-6.86.48-9.14-1.64-8.32-7.5,1.93.66,3.88,1.26,5.78,2C-73.67-138.54-73.32-137.74-73.6-134Z" transform="translate(543.12 325.2)"/><path class="cls-9" d="M-231.71-260.74a9.67,9.67,0,0,1,6.32-1.16l3.45,4.94c-.41.22-.59.38-.68.34C-225.66-258-228.68-259.36-231.71-260.74Z" transform="translate(543.12 325.2)"/><path class="cls-10" d="M-264.71-231.41l0,1.24-4.27-.15a5.85,5.85,0,0,1-1.88-.06,2,2,0,0,1-1.14-1.28,1.77,1.77,0,0,1,1-1.3,4.2,4.2,0,0,1,2.33,0A41.67,41.67,0,0,1-264.71-231.41Z" transform="translate(543.12 325.2)"/><path class="cls-11" d="M-300.8-230.36a7.77,7.77,0,0,1,6.24-3.75A2.16,2.16,0,0,1-296-232C-297.59-231.38-299.2-230.89-300.8-230.36Z" transform="translate(543.12 325.2)"/><path class="cls-11" d="M-58.33-228.66a12.15,12.15,0,0,1,5.82,4.26C-55.59-224.26-57.68-225.48-58.33-228.66Z" transform="translate(543.12 325.2)"/><path class="cls-11" d="M.44-166.68c2.19.27,2.66.93,2.45,3.5-2.37,0-2.48,0-2.56-2.1A13,13,0,0,1,.44-166.68Z" transform="translate(543.12 325.2)"/><path class="cls-11" d="M-52.57-224.45l1,1Z" transform="translate(543.12 325.2)"/><path class="cls-12" d="M-328.76-168.51a23.85,23.85,0,0,1-2.52-.75,5.44,5.44,0,0,0-5.84.67,3.81,3.81,0,0,1-.84.46c-1.55.66-3.14.45-3.4-.46-.33-1.16.59-1.71,1.23-2.37a12.11,12.11,0,0,1,5.55-3.56,31.25,31.25,0,0,0,4.85-2c3.17-1.48,5.75.22,6.27,3.53a24,24,0,0,0,.45,2.82,2,2,0,0,0,2.14,1.52A5.91,5.91,0,0,0-319-169a2.92,2.92,0,0,1,3.13.44c1.16,1,1.92,2.14,1.46,3.44l-5.72,4.6a16.9,16.9,0,0,1-1.5,1.18,2.53,2.53,0,0,1-3.09-.23,2.33,2.33,0,0,1-.27-2.67c.17-.44.57-.82.64-1.27a2.61,2.61,0,0,0-.09-1.74c-.58-.79-1.42-.34-2.12,0a13.42,13.42,0,0,0-6.46,6.78,26.09,26.09,0,0,1-1.44,3.53,25.15,25.15,0,0,1-2.89,3.71,1.36,1.36,0,0,1-2.11.11,5.82,5.82,0,0,1-.69-2.12c0-.12.07-.3.14-.44,2.63-5.48,5.13-11,10.84-14.16C-329-167.87-329-168.06-328.76-168.51Z" transform="translate(543.12 325.2)"/><path class="cls-23" d="M362.54,20.85l4.53,1.36c15.28,4.47,24.27,14.87,27.74,30.1a56.18,56.18,0,0,1-1.59,29.81c-3.28,10.35-9.76,18.19-18.93,23.91a65.21,65.21,0,0,1-21.8,8.37,100.21,100.21,0,0,1-20,2.08H262c-.94,0-1.89-.09-3.09-.15-.15-1-.36-1.85-.42-2.75-.08-1.12,0-2.24,0-3.36V-66.49a20.43,20.43,0,0,1,2.93-.45c20.78,0,41.57-.1,62.35.11a96.85,96.85,0,0,1,28.78,4.54,61.57,61.57,0,0,1,16.35,7.88,40.45,40.45,0,0,1,17.39,27.07,51.12,51.12,0,0,1,.14,19.06A37.64,37.64,0,0,1,367,18.33Zm-67.22,67a8.49,8.49,0,0,0,1.76.47c11.5,0,23,.12,34.51,0a37.2,37.2,0,0,0,13.59-2.59c7.16-2.91,11.78-8,13.41-15.67a35.13,35.13,0,0,0,0-14.26c-2.05-10.34-8.28-16.69-18.48-19a45.07,45.07,0,0,0-9.48-1.13c-10.86-.15-21.73-.09-32.6-.07a15.91,15.91,0,0,0-2.73.49Zm.14-78.42a7.12,7.12,0,0,0,1.57.43c9.1,0,18.2.05,27.3-.09A34.76,34.76,0,0,0,336,7.36c8.4-3.17,13.46-9.12,14.22-18.12,1.22-14.4-4.94-23.06-18.05-26.34a50.09,50.09,0,0,0-11.88-1.32c-7.34,0-14.69,0-22,0a23.31,23.31,0,0,0-2.63.33c-.61,4.47-.86,31.26-.44,45.25C295.21,7.92,295.37,8.68,295.46,9.41Z" transform="translate(543.12 325.2)"/><path class="cls-24" d="M533.07,58.05c-5.54.22-10.76.24-16.27,0-.32-1.65-.64-3.17-.92-4.7-1.2-6.36-4.58-9.77-11-11a24.92,24.92,0,0,0-2.83-.47c-6.68-.51-11.86,1.9-15.21,7.86a21.62,21.62,0,0,0-2.81,8.1A138.72,138.72,0,0,0,484,87.43a21,21,0,0,0,3.67,9.78,14.5,14.5,0,0,0,12.49,6.84,32.57,32.57,0,0,0,4.31-.18c6.18-.79,10.15-4.57,11.3-10.7.18-.94.22-1.9.38-2.85.12-.77.32-1.54.47-2.24a63.2,63.2,0,0,1,16.2,0,24.27,24.27,0,0,1-10.06,23.32,33.05,33.05,0,0,1-8.08,4.1c-7.25,2.52-14.72,2.6-22.24,1.24-12.17-2.2-23-12.22-25.57-26.67A64.64,64.64,0,0,1,466,80.5c-.12-5.43-.18-10.88,0-16.31a53,53,0,0,1,1.25-10.44c3.47-14.47,14.07-23.7,29-25.3a42.72,42.72,0,0,1,20.26,2.68C527.87,35.53,533.88,45.21,533.07,58.05Z" transform="translate(543.12 325.2)"/><path class="cls-25" d="M801,65.72V78.63a24,24,0,0,1-3.14.44c-7.84,0-15.68,0-23.52,0-1.56,0-3.13.11-4.61.16-.76,3.78-.86,19.32-.17,24.32a31.32,31.32,0,0,0,3.14.28c9.76,0,19.52,0,29.28,0h4.65a31.77,31.77,0,0,1,.16,13c-3.81.6-50,.63-54.48,0a1.3,1.3,0,0,1-.34-.32.91.91,0,0,1-.13-.46q-.07-41.74-.12-83.49a6.09,6.09,0,0,1,.24-1.23,4.1,4.1,0,0,1,.44-.46.76.76,0,0,1,.43-.16l52.3-.11a9.52,9.52,0,0,1,1.63.34c.89,4.05.32,8.14.33,12-1.14,1.45-2.52,1-3.74,1-9.44,0-18.88,0-28.31,0h-5.16c-1,3.38-1.08,16-.25,21.4a57.8,57.8,0,0,0,7.47.18c2.72,0,5.44,0,8.16,0,2.56,0,5.12,0,7.68,0S798,65.69,801,65.72Z" transform="translate(543.12 325.2)"/><path class="cls-25" d="M136.18,29.92c1.1-.11,1.87-.26,2.66-.26,4.94,0,9.89,0,15,0,2.12,4.83,3.45,9.75,5.1,14.55s3.15,9.4,4.73,14.09l4.9,14.55,4.89,14.54c1.57,4.7,3.15,9.39,4.7,14.1s3.48,9.5,4.7,14.7H165.33a30.56,30.56,0,0,1-1.24-2.87c-1.25-3.79-2.42-7.61-3.65-11.41-.43-1.35-1-2.66-1.42-3.87-3.82-.59-22.56-.67-27.75-.13-.42,1-1,2.16-1.34,3.34-1.32,4.11-2.56,8.24-3.88,12.35a24.58,24.58,0,0,1-1.16,2.61H108.08c-.93-1.39-.19-2.55.2-3.7q6.54-19.56,13.13-39.09,6.66-19.75,13.34-39.51C135.16,32.69,135.61,31.5,136.18,29.92Zm18.14,53.51c-.94-5.19-7.61-26-9.24-28.76-1.69,3.23-8.44,24.46-9.15,28.75A87,87,0,0,0,154.32,83.43Z" transform="translate(543.12 325.2)"/><path class="cls-25" d="M608,117.1v-86a17.92,17.92,0,0,1,2.75-.43c9.58,0,19.17-.07,28.75,0,9.87.09,18.42,3.47,25.37,10.6a32.57,32.57,0,0,1,9.42,20.46,143.27,143.27,0,0,1,0,24.42,33.89,33.89,0,0,1-27.17,30.23,42.37,42.37,0,0,1-7.59.89c-9.59.1-19.18.05-28.76,0C610,117.28,609.22,117.18,608,117.1Zm17.44-13.42a101.47,101.47,0,0,0,15.2,0,15.87,15.87,0,0,0,11.08-6A20.86,20.86,0,0,0,656.82,85c.26-7.34.19-14.7,0-22a20.09,20.09,0,0,0-3.41-10.36c-3.3-5.2-7.9-8.28-14.19-8.45-3.67-.1-7.35-.08-11-.06a23.76,23.76,0,0,0-2.81.38Z" transform="translate(543.12 325.2)"/><path class="cls-24" d="M133,272.76V254.85a25.37,25.37,0,0,1,3-.41c2.71,0,5.43-.05,8.15.08,7.06.34,10.31,6.57,8.26,13.12-1,3.26-3.66,4.82-6.88,5.17A58.12,58.12,0,0,1,133,272.76Z" transform="translate(543.12 325.2)"/><path class="cls-25" d="M217.32,276.52c0,2.88.05,5.75,0,8.62a17.86,17.86,0,0,1-2.67,8.58c-4.73,8.2-17.82,8.12-22.4-.12a21.09,21.09,0,0,1-2.76-10q-.12-6.94,0-13.88a20.18,20.18,0,0,1,3.06-10.43c4.69-7.59,16.55-7.36,21.34-.65a17,17,0,0,1,3.4,9.31c.11,2.87,0,5.74,0,8.61Z" transform="translate(543.12 325.2)"/><path class="cls-26" d="M689.76,284.46a37.39,37.39,0,0,1-13.66-.19c2-7.12,4.25-14.15,6.78-21.44C684.88,266.71,689,279.73,689.76,284.46Z" transform="translate(543.12 325.2)"/><path class="cls-26" d="M-244.53,263.16c2.19,7,4.39,13.94,6.62,21-1.56,1.25-3.21.67-4.73.76s-2.88,0-4.32,0-3.12-.1-5.09-.16A142.64,142.64,0,0,1-244.53,263.16Z" transform="translate(543.12 325.2)"/><path class="cls-24" d="M-304.52,254.56a81.49,81.49,0,0,1,14.14.17c3.83.52,6.25,3,7.35,6.68a12.43,12.43,0,0,1,.15,6.63,8.88,8.88,0,0,1-6.09,6.77,10.41,10.41,0,0,1-2.31.57c-4.43.4-8.85.14-13.17.17C-305.31,271.44-305.33,258.86-304.52,254.56Z" transform="translate(543.12 325.2)"/><path class="cls-14" d="M295.32,87.83V36a15.91,15.91,0,0,1,2.73-.49c10.87,0,21.74-.08,32.6.07a45.07,45.07,0,0,1,9.48,1.13c10.2,2.34,16.43,8.69,18.48,19a35.13,35.13,0,0,1,0,14.26c-1.63,7.68-6.25,12.76-13.41,15.67a37.2,37.2,0,0,1-13.59,2.59c-11.5.16-23,.06-34.51,0A8.49,8.49,0,0,1,295.32,87.83Z" transform="translate(543.12 325.2)"/><path class="cls-14" d="M295.46,9.41c-.09-.73-.25-1.49-.27-2.25-.42-14-.17-40.78.44-45.25a23.31,23.31,0,0,1,2.63-.33c7.34,0,14.69,0,22,0a50.09,50.09,0,0,1,11.88,1.32c13.11,3.28,19.27,11.94,18.05,26.34-.76,9-5.82,15-14.22,18.12a34.76,34.76,0,0,1-11.67,2.39c-9.1.14-18.2.08-27.3.09A7.12,7.12,0,0,1,295.46,9.41Z" transform="translate(543.12 325.2)"/><path class="cls-17" d="M154.32,83.43a87,87,0,0,1-18.39,0c.71-4.29,7.46-25.52,9.15-28.75C146.71,57.45,153.38,78.24,154.32,83.43Z" transform="translate(543.12 325.2)"/><path class="cls-14" d="M625.42,103.68V44.45a23.76,23.76,0,0,1,2.81-.38c3.67,0,7.35,0,11,.06,6.29.17,10.89,3.25,14.19,8.45a20.09,20.09,0,0,1,3.41,10.36c.16,7.35.23,14.71,0,22a20.86,20.86,0,0,1-5.12,12.68,15.87,15.87,0,0,1-11.08,6A101.47,101.47,0,0,1,625.42,103.68Z" transform="translate(543.12 325.2)"/></svg>