<svg xmlns="http://www.w3.org/2000/svg" viewBox="0 0 931.3 149.2"><defs><style>.a{fill:none;stroke:#fff;stroke-miterlimit:10;}</style></defs><path class="a" d="M791.21-270.58,811-214.5h58.36l-46.28,35.74,16.53,56-48.15-33" transform="translate(60.44 270.75)"/><path class="a" d="M791.21-270.58,771.39-214.5H713l46.28,35.74-16.52,56,48.15-33" transform="translate(60.44 270.75)"/><path class="a" d="M598.21-270.58,618-214.5h58.36l-46.28,35.74,16.53,56-48.15-33" transform="translate(60.44 270.75)"/><path class="a" d="M598.21-270.58,578.39-214.5H520l46.28,35.74-16.52,56,48.15-33" transform="translate(60.44 270.75)"/><path class="a" d="M405.21-270.58,425-214.5h58.36l-46.28,35.74,16.53,56-48.15-33" transform="translate(60.44 270.75)"/><path class="a" d="M405.21-270.58,385.39-214.5H327l46.28,35.74-16.52,56,48.15-33" transform="translate(60.44 270.75)"/><path class="a" d="M212.21-270.58,232-214.5h58.36l-46.28,35.74,16.53,56-48.15-33" transform="translate(60.44 270.75)"/><path class="a" d="M212.21-270.58,192.39-214.5H134l46.28,35.74-16.52,56,48.15-33" transform="translate(60.44 270.75)"/><path class="a" d="M19.21-270.58,39-214.5H97.39L51.11-178.76l16.53,56-48.15-33" transform="translate(60.44 270.75)"/><path class="a" d="M19.21-270.58-.61-214.5H-59l46.28,35.74-16.52,56,48.15-33" transform="translate(60.44 270.75)"/></svg>