<?xml version="1.0"?>
<svg xmlns="http://www.w3.org/2000/svg" xmlns:xlink="http://www.w3.org/1999/xlink" version="1.1" viewBox="0 0 224 224" width="480px" height="480px"><g fill="none" fill-rule="nonzero" stroke="none" stroke-width="1" stroke-linecap="butt" stroke-linejoin="miter" stroke-miterlimit="10" stroke-dasharray="" stroke-dashoffset="0" font-family="none" font-weight="none" font-size="none" text-anchor="none" style="mix-blend-mode: normal"><path d="M0,224v-224h224v224z" fill="none"/><g fill="#ffffff"><g id="surface1"><path d="M112,0c-61.76041,0 -112,50.23959 -112,112c0,61.76042 50.23959,112 112,112c61.76042,0 112,-50.23958 112,-112c0,-61.76041 -50.23958,-112 -112,-112zM112,18.66667c51.66146,0 93.33333,41.67188 93.33333,93.33333c0,22.38542 -7.94791,42.875 -21,58.91667l-131.25,-131.25c16.04167,-13.05208 36.53125,-21 58.91667,-21zM39.66667,53.08333l131.25,131.25c-16.04167,13.05209 -36.53125,21 -58.91667,21c-51.66146,0 -93.33333,-41.67188 -93.33333,-93.33333c0,-22.38541 7.94792,-42.875 21,-58.91667z"/></g></g></g></svg>
