<?xml version="1.0"?>
<svg xmlns="http://www.w3.org/2000/svg" xmlns:xlink="http://www.w3.org/1999/xlink" version="1.1" viewBox="0 0 224 224" width="480px" height="480px"><g fill="none" fill-rule="nonzero" stroke="none" stroke-width="1" stroke-linecap="butt" stroke-linejoin="miter" stroke-miterlimit="10" stroke-dasharray="" stroke-dashoffset="0" font-family="none" font-weight="none" font-size="none" text-anchor="none" style="mix-blend-mode: normal"><path d="M0,224v-224h224v224z" fill="none"/><g fill="#ffffff"><g id="surface1"><path d="M102.66667,28c-33.35938,0 -61.06771,22.49479 -70.58333,52.79167c-18.73958,9.04167 -32.08333,27.74479 -32.08333,49.875c0,30.80729 25.19271,56 56,56h112c30.80729,0 56,-25.19271 56,-56c0,-29.67708 -23.51562,-53.66667 -52.79167,-55.41667c-11.04688,-27.45312 -37.22396,-47.25 -68.54167,-47.25zM102.66667,46.66667c25.52083,0 46.84896,17.02604 53.66667,40.25l2.04167,7l7.58333,-0.29167c2.00521,-0.10938 2.58854,-0.29167 2.04167,-0.29167c20.74479,0 37.33333,16.58854 37.33333,37.33333c0,20.70833 -16.58854,37.33333 -37.33333,37.33333h-112c-20.74479,0 -37.33333,-16.625 -37.33333,-37.33333c0,-15.96875 9.91667,-29.3125 23.91667,-34.70833l4.66667,-1.75l1.16667,-4.66667c5.94271,-24.5 27.81771,-42.875 54.25,-42.875zM93.33333,84v37.33333h-16.33333l25.66667,35l25.66667,-35h-16.33333v-37.33333z"/></g></g></g></svg>
