<svg id="Layer_1" data-name="Layer 1" xmlns="http://www.w3.org/2000/svg" viewBox="0 0 480 340"><defs><style>.cls-1{fill:#00c100;}</style></defs><title>comm-download</title><g id="surface1"><path class="cls-1" d="M220,60C148.52,60,89.14,108.2,68.75,173.12,28.59,192.5,0,232.58,0,280c0,66,54,120,120,120H360c66,0,120-54,120-120,0-63.59-50.39-115-113.12-118.75C343.2,102.42,287.11,60,220,60Zm0,40a119.82,119.82,0,0,1,115,86.25l4.38,15,16.24-.63c4.3-.23,5.55-.62,4.38-.62a80,80,0,0,1,0,160H120A79.84,79.84,0,0,1,91.25,205.62l10-3.74,2.5-10C116.48,139.38,163.36,100,220,100Zm-20,80v80H165l55,75,55-75H240V180Z" transform="translate(0 -60)"/></g></svg>