<svg xmlns="http://www.w3.org/2000/svg" xmlns:xlink="http://www.w3.org/1999/xlink" viewBox="0 0 837.85 360"><defs><style>.a,.c,.e{fill:none;}.b{clip-path:url(#a);}.c,.e{stroke:#e6a514;}.c{stroke-linecap:round;stroke-linejoin:round;}.d{fill:#e9aa00;}.e{stroke-width:14px;}</style><clipPath id="a" transform="translate(-44.84 -30.57)"><rect class="a" x="373.05" y="126.54" width="440.98" height="311.84"/></clipPath></defs><rect x="1.33" width="768" height="360"/><g class="b"><path class="c" d="M762.56,321.82l9.37-12.17m15.15,2.1-15.15-2.1-5.53-14.34m0,0,15.14,2.2,5.54,14.24L777.7,324l-15.14-2.2-5.75-14.46Zm56.7,35.29,9.37-12.18m15.15,2.1-15.15-2.1-5.53-14.33m0,0,15.13,2.19,5.54,14.24-9.38,12.27L823.1,330.6l-5.75-14.46Zm-34.12,22.12L802.2,314m15.15,2.11L802.2,314l-5.53-14.33m0,0,15.14,2.19,5.54,14.25L808,328.4l-15.14-2.19-5.75-14.46Zm-30.27-4.34,9.36-12.18m15.15,2.11-15.15-2.11-5.52-14.33m0,0L785.38,271l5.53,14.25-9.38,12.26-15.13-2.19-5.76-14.46Zm3.84-26.51,9.37-12.18m15.15,2.11-15.15-2.11-5.52-14.33m0,0L793.06,218l5.54,14.25-9.38,12.26-15.14-2.19-5.75-14.46Zm-7.69,53,9.37-12.18m15.15,2.11-15.15-2.11-5.53-14.33m0,0,15.14,2.19,5.54,14.25L785.38,271l-15.14-2.19-5.75-14.46Zm52.86,61.8L836.3,292m15.15,2.1L836.3,292l-5.52-14.33m0,0,15.14,2.19,5.53,14.24-9.38,12.27-15.13-2.19-5.76-14.47Zm-34.11,22.12L806,287.57m15.15,2.1L806,287.57l-5.52-14.33m0,0,15.14,2.19,5.53,14.24-9.38,12.27-15.13-2.19-5.76-14.46Zm3.85-26.51,9.36-12.18m15.15,2.1-15.15-2.1-5.52-14.33m0,0,15.13,2.19,5.54,14.24-9.38,12.27-15.13-2.19-5.76-14.46Zm26.43,30.9L844,238.94m15.15,2.1L844,238.94l-5.52-14.33m0,0,15.13,2.19L859.14,241l-9.38,12.27-15.13-2.19-5.76-14.47Zm-7.69,53,9.37-12.18m15.15,2.1-15.15-2.1-5.52-14.33m0,0,15.13,2.19,5.54,14.24-9.38,12.27-15.14-2.19L825,263.16Zm-34.12,22.12,9.37-12.18m15.15,2.1-15.15-2.1-5.53-14.33m0,0,15.13,2.19L825,263.16l-9.38,12.27-15.14-2.19-5.75-14.46Zm-26.44-30.86,9.37-12.18m15.15,2.1-15.15-2.1-5.52-14.33m0,0,15.13,2.19,5.54,14.24-9.38,12.27-15.14-2.19-5.75-14.47Zm3.84-26.51L795,150.67m15.15,2.1L795,150.67l-5.53-14.33m0,0,15.14,2.19,5.54,14.24L800.75,165l-15.14-2.19-5.75-14.47Zm-7.68,53,9.36-12.18m15.15,2.1-15.15-2.1-5.52-14.33m0,0L800.75,165l5.53,14.24-9.38,12.27-15.13-2.19L776,174.89Zm52.85,61.8,9.37-12.18m15.15,2.1-15.15-2.1-5.52-14.33m0,0,15.13,2.19L863,214.57l-9.38,12.27-15.14-2.19-5.75-14.47Zm-34.12,22.12,9.37-12.18m15.15,2.1-15.15-2.1L812,193.75m0,0,15.13,2.19,5.54,14.24-9.38,12.27-15.14-2.19-5.75-14.47Zm3.84-26.51,9.37-12.18m15.15,2.1-15.15-2.1-5.53-14.33m0,0,15.14,2.19,5.54,14.24L831,169.43l-15.14-2.19-5.75-14.47Zm26.43,30.9,9.37-12.18m15.15,2.1-15.15-2.1L850,145.12m0,0,15.13,2.19,5.54,14.24-9.38,12.27-15.14-2.19-5.75-14.47Zm-7.69,53L851.67,186m15.15,2.1L851.67,186l-5.52-14.33m0,0,15.14,2.19,5.53,14.24-9.38,12.27-15.13-2.19-5.76-14.47ZM812,193.75l9.36-12.18m15.15,2.1-15.15-2.1-5.52-14.33m0,0L831,169.43l5.53,14.24-9.38,12.27L812,193.75l-5.76-14.47Zm-26.43-30.87,9.37-12.17M814,126.3l-15.14-2.1-5.53-14.33m0,0,15.14,2.2L814,126.3l-9.38,12.27-15.13-2.19-5.76-14.47Zm3.85-26.51,9.36-12.17m15.15,2.1-15.15-2.1L801,56.84m0,0L816.12,59l5.53,14.24-9.38,12.27-15.13-2.19-5.76-14.47Zm-7.69,53,9.37-12.17m15.15,2.1-15.15-2.1-5.52-14.34m0,0,15.13,2.2,5.54,14.24-9.38,12.27-15.14-2.19L787.54,95.4ZM850,145.15,859.36,133m15.15,2.1L859.36,133l-5.53-14.34m0,0,15.14,2.2,5.54,14.24-9.39,12.27L850,145.15l-5.75-14.46Zm-34.11,22.12,9.37-12.17m15.14,2.1-15.14-2.1-5.53-14.34m0,0,15.14,2.2,5.54,14.24L834.85,143l-15.13-2.2L814,126.3Zm3.85-26.51,9.36-12.17m15.15,2.1-15.15-2.1-5.52-14.34m0,0,15.14,2.2,5.53,14.24-9.38,12.27-15.13-2.2-5.76-14.46Zm26.43,30.9L867,80m15.15,2.1L867,80l-5.52-14.34m0,0,15.14,2.2,5.53,14.24-9.38,12.27-15.13-2.2-5.76-14.46Zm-7.69,53,9.37-12.17m15.15,2.1-15.15-2.1-5.52-14.34m0,0,15.13,2.2,5.54,14.24L869,120.84l-15.14-2.2-5.75-14.46Zm-34.12,22.12,9.37-12.17m15.15,2.1-15.15-2.1-5.52-14.34m0,0,15.13,2.2,5.54,14.24-9.38,12.27-15.14-2.2-5.75-14.46Z" transform="translate(-44.84 -30.57)"/></g><path class="d" d="M338.23,53.69h21.34V58H343.35V71.18h15v4.24h-15v18h-5.12Z" transform="translate(-44.84 -30.57)"/><path class="d" d="M372,53.69V93.38h-5.12V53.69Z" transform="translate(-44.84 -30.57)"/><path class="d" d="M380.91,93.38V53.69h5.59l12.7,20.08a111.36,111.36,0,0,1,7.11,12.9l.12-.06c-.47-5.3-.59-10.13-.59-16.31V53.69h4.82V93.38h-5.17L392.9,73.24A125.93,125.93,0,0,1,385.5,60l-.18.06c.29,5,.41,9.78.41,16.37v17Z" transform="translate(-44.84 -30.57)"/><path class="d" d="M426,80.9l-4.11,12.48H416.6l13.46-39.69h6.17l13.52,39.69h-5.46L440.05,80.9Zm13-4-3.88-11.42c-.88-2.59-1.46-4.95-2.05-7.24h-.12c-.59,2.35-1.24,4.77-2,7.18l-3.88,11.48Z" transform="translate(-44.84 -30.57)"/><path class="d" d="M455.57,93.38V53.69h5.59l12.7,20.08A111.36,111.36,0,0,1,481,86.67l.12-.06c-.47-5.3-.59-10.13-.59-16.31V53.69h4.82V93.38h-5.17L467.57,73.24A124.29,124.29,0,0,1,460.16,60l-.18.06c.3,5,.41,9.78.41,16.37v17Z" transform="translate(-44.84 -30.57)"/><path class="d" d="M522,92.08A25.27,25.27,0,0,1,511.48,94c-11.17,0-19.58-7.07-19.58-20.08,0-12.43,8.41-20.85,20.7-20.85,4.94,0,8,1.06,9.4,1.77L520.77,59a18.63,18.63,0,0,0-8-1.65c-9.29,0-15.46,5.95-15.46,16.37,0,9.72,5.59,16,15.23,16A20.5,20.5,0,0,0,520.89,88Z" transform="translate(-44.84 -30.57)"/><path class="d" d="M548.87,74.77h-15.4V89.08h17.16v4.3H528.35V53.69h21.4V58H533.47V70.53h15.4Z" transform="translate(-44.84 -30.57)"/><polyline class="e" points="1.19 82.43 83.89 96.73 98.19 1.03"/><path d="M308.76,263.12h-8.3c-9.3-.2-14.8-5.7-14.8-14.8v-42.8h166.1c0,15.5.2,30.7-.1,45.8-.1,5-3.5,8.5-8.1,10.5-5.8,2.5-6.1,3-4.3,9.8a45.06,45.06,0,0,0,5.3-.8c10.7-3.1,16.9-12,16.8-24.5,0-20.9-.2-41.8-.4-62.8-.1-14-9.7-23.7-23.8-23.7H300.06c-14,0-23.6,9.8-23.7,23.8,0,21.1.4,42.2-.1,63.3-.4,15,11.3,28.6,32.5,24ZM574.86,250c0,15.8.2,31-.1,46.1-.1,5.2-3.5,8.8-8.3,10.9-5.6,2.4-6.1,3.5-4.2,9.8,13-1,21.8-10.2,21.8-23.2.1-21.4,0-42.8,0-64.2,0-15.5-9.4-24.9-24.9-24.9h-97.1v9h98.1c10.8,0,16.7,7.8,13.9,18.7h-112v17.7C499.66,250,537,250,574.86,250ZM337,262.52c-4,0-7.7.1-11.4,0-2.8-.1-3.4,1.2-3.5,3.6a14.52,14.52,0,0,0,9.8,14.4c11.2,4.1,22.1,2.7,32-3.8,3-2,5.2-5.7,6.7-9.1,2.6-6.3.4-11.7-5.4-15.6,6.7-4,10.2-9.3,8.8-16.6-1.4-7.7-7.5-10.8-14.4-11.9-7.8-1.3-15.6-.6-22.5,3.7-5.2,3.3-8.9,7.8-9.7,14.6,2.9,0,5.4-.1,7.9,0,3.4.1,6.2,0,9-3.1s7.3-3.3,11.3-1.4c3.2,1.5,3.7,5,.9,7.1a12.25,12.25,0,0,1-6,2c-3.4.3-6.8.1-10.3.1-.6,3.9-1.2,7.3-1.7,10.9,4.3.3,8.2.1,11.9.9,1.7.4,4.1,2.4,4.3,3.8a7.41,7.41,0,0,1-2.7,5.7C346.26,271.92,339.36,269.42,337,262.52Zm169.3,6.5c3.3,7.1,5.9,13.8,9.5,19.8s3.3,10.4-1.8,15.7c-6.6,6.8-12.1,14.7-18.7,22.8,5.4,0,9.7.3,14-.1a9.39,9.39,0,0,0,5.7-2.8c4.2-4.5,8-9.3,12.4-14.6,2.6,5.3,4.7,9.9,7,14.3.6,1.2,1.9,2.9,2.9,3,5,.3,10,.1,15.9.1-4.4-8.8-8.1-16.7-12.3-24.5-1.5-2.8-1.6-4.8.6-7.4,4.7-5.6,9-11.5,13.4-17.3,2-2.6,4-5.3,6.7-8.8-5.1,0-9.1.2-13.1-.1-3-.2-4.8,1-6.5,3.4-3.3,4.9-6.9,9.7-10.7,15-2.5-5.8-4.6-10.8-7-15.6-.6-1.2-1.9-2.9-3-2.9C516.66,268.82,511.86,269,506.26,269Zm-75.9,11.8c-4.4-8.8-8.3-16.9-12.5-25-1.3-2.4-1.2-4.1.6-6.2,5.2-6.4,10.1-12.9,15.2-19.4,1.6-2.1,3.2-4.3,5.2-7.1-4.1,0-7.2.4-10.3-.1-5.2-.8-8.3,1.4-10.9,5.7s-5.8,8.1-9.1,12.7c-2.6-5.8-4.6-10.7-6.9-15.4-.6-1.2-1.9-2.7-3-2.8-4.7-.3-9.5-.1-15-.1,4.1,8.7,7.8,16.7,11.7,24.5,1.2,2.5,1,4.1-.7,6.2-6.6,7.8-13,15.8-19.4,23.8a28.37,28.37,0,0,0-2,3.3c4.8,0,8.8-.2,12.8.1,3,.2,4.9-.9,6.7-3.2,3.7-4.7,7.7-9.2,11.9-14.3,2.6,5.3,4.8,10.1,7.2,14.7.6,1.1,1.8,2.4,2.8,2.5C419.66,280.92,424.76,280.82,430.36,280.82Zm13.1,36.3h28.8c-.4,3.6-.8,6.7-1.1,10H486c.7-3.4,1.3-6.5,1.9-9.7,2.2-.2,4.2-.4,6.2-.7.7-4.2,1.4-8.1,2.1-12.3-2.1-.2-3.9-.3-6-.5,1-6.1,2-11.8,2.9-17.6s1.9-11.5,3-17.9c-4.4,0-8.3-.2-12.1.1a10.05,10.05,0,0,0-5.3,2.2c-9.2,8.5-17.9,17.7-27.6,25.7C444.56,302,442.66,308.52,443.46,317.12Zm-43.6-27.9c-1.7,19.7,11.4,30.7,31.9,27.4v-7.2c-6.1-1.3-12.2-1.6-17.3-4-6.2-3-6.1-9.8-5.8-16.2Z" transform="translate(-44.84 -30.57)"/><path class="d" d="M308.76,263.12V271c-21.2,4.5-32.9-9-32.5-24,.6-21.1.1-42.2.1-63.3,0-14,9.6-23.8,23.7-23.8,45.7-.1,91.4,0,137.1,0,14.1,0,23.7,9.7,23.8,23.7.1,20.9.3,41.8.4,62.8,0,12.5-6.2,21.4-16.8,24.5a32.34,32.34,0,0,1-5.3.8c-1.7-6.8-1.5-7.3,4.3-9.8,4.6-2,8-5.6,8.1-10.5.3-15.2.1-30.3.1-45.8H285.66v42.8c0,9.1,5.5,14.7,14.8,14.8C303.06,263.12,305.66,263.12,308.76,263.12Zm142.7-76c1.1-12.7-3.9-18.3-16-18.3H301.66c-12,0-17.3,6.1-15.6,18.3Z" transform="translate(-44.84 -30.57)"/><path class="d" d="M574.86,250H462.06v-17.7h112c2.8-10.9-3.1-18.7-13.9-18.7-30.8-.1-61.5,0-92.3,0h-5.8v-9h97.1c15.5,0,24.9,9.4,24.9,24.9v64.2c0,13-8.8,22.2-21.8,23.2-1.9-6.3-1.4-7.4,4.2-9.8,4.8-2.1,8.2-5.7,8.3-10.9C575.06,281,574.86,265.82,574.86,250Z" transform="translate(-44.84 -30.57)"/><path class="d" d="M337,262.52c2.4,6.9,9.3,9.4,14.9,5.3a7.24,7.24,0,0,0,2.7-5.7c-.1-1.5-2.6-3.5-4.3-3.8-3.7-.8-7.7-.6-11.9-.9.6-3.6,1.1-7,1.7-10.9,3.6,0,7,.2,10.3-.1a12.25,12.25,0,0,0,6-2c2.8-2.1,2.3-5.6-.9-7.1-4-1.9-8.5-1.8-11.3,1.4s-5.6,3.2-9,3.1c-2.5-.1-4.9,0-7.9,0,.8-6.8,4.4-11.3,9.7-14.6,6.9-4.3,14.6-5.1,22.5-3.7,6.9,1.2,13,4.2,14.4,11.9,1.4,7.2-2.1,12.5-8.8,16.6,5.9,3.9,8.1,9.3,5.4,15.6-1.4,3.4-3.7,7.1-6.7,9.1a34.35,34.35,0,0,1-32,3.8,14.56,14.56,0,0,1-9.8-14.4c.1-2.4.7-3.8,3.5-3.6C329.26,262.62,333.06,262.52,337,262.52Z" transform="translate(-44.84 -30.57)"/><path class="d" d="M506.26,269c5.6,0,10.4-.2,15.1.1,1.1.1,2.4,1.7,3,2.9,2.3,4.9,4.4,9.9,7,15.6,3.9-5.4,7.4-10.1,10.7-15,1.6-2.5,3.4-3.6,6.5-3.4,4,.3,8,.1,13.1.1-2.7,3.5-4.6,6.2-6.7,8.8-4.4,5.8-8.7,11.7-13.4,17.3-2.2,2.6-2.1,4.6-.6,7.4,4.1,7.8,7.9,15.7,12.3,24.5-5.9,0-10.9.2-15.9-.1-1.1-.1-2.3-1.8-2.9-3-2.4-4.5-4.5-9.1-7-14.3-4.4,5.3-8.2,10.1-12.4,14.6a9.66,9.66,0,0,1-5.7,2.8c-4.3.4-8.6.1-14,.1,6.6-8.1,12.1-16,18.7-22.8,5.1-5.3,5.5-9.6,1.8-15.7S509.56,276.12,506.26,269Z" transform="translate(-44.84 -30.57)"/><path class="d" d="M430.36,280.82c-5.7,0-10.7.1-15.8-.1-1,0-2.2-1.4-2.8-2.5-2.4-4.7-4.6-9.4-7.2-14.7-4.2,5-8.2,9.5-11.9,14.3-1.8,2.3-3.7,3.4-6.7,3.2-4-.3-8.1-.1-12.8-.1.9-1.4,1.3-2.4,2-3.3,6.4-8,12.8-15.9,19.4-23.8,1.7-2.1,2-3.7.7-6.2-3.9-7.8-7.6-15.8-11.7-24.5,5.6,0,10.3-.2,15,.1,1.1.1,2.5,1.6,3,2.8,2.3,4.7,4.3,9.6,6.9,15.4,3.3-4.6,6.5-8.5,9.1-12.7s5.7-6.5,10.9-5.7c3,.5,6.2.1,10.3.1-2,2.8-3.6,5-5.2,7.1-5,6.5-10,13.1-15.2,19.4-1.7,2.1-1.8,3.8-.6,6.2C422.06,263.82,426.06,272,430.36,280.82Z" transform="translate(-44.84 -30.57)"/><path class="d" d="M443.46,317.12c-.8-8.7,1.1-15.1,7.7-20.7,9.6-8,18.3-17.2,27.6-25.7a10.05,10.05,0,0,1,5.3-2.2c3.8-.3,7.7-.1,12.1-.1-1.1,6.4-2,12.1-3,17.9s-1.9,11.5-2.9,17.6c2.1.2,3.9.3,6,.5-.7,4.1-1.4,8.1-2.1,12.3-2.1.2-4,.4-6.2.7-.6,3.2-1.3,6.3-1.9,9.7h-14.8c.4-3.3.7-6.4,1.1-10Zm31.3-13.1c.8-4.8,1.6-9.4,2.4-14-.3-.2-.6-.3-.9-.5-4.9,4.6-9.8,9.3-15.3,14.5Z" transform="translate(-44.84 -30.57)"/><path class="d" d="M399.86,289.22h8.8c-.2,6.3-.4,13.2,5.8,16.2,5.1,2.4,11.2,2.7,17.3,4v7.2C411.16,319.92,398.16,308.92,399.86,289.22Z" transform="translate(-44.84 -30.57)"/><path d="M474.76,304h-13.9c5.5-5.2,10.4-9.8,15.3-14.5.3.2.6.3.9.5C476.36,294.62,475.56,299.22,474.76,304Z" transform="translate(-44.84 -30.57)"/></svg>