<svg xmlns="http://www.w3.org/2000/svg" viewBox="0 0 150 154.81"><defs><style>.a{fill:#fff;}.b{fill:#ebb300;}</style></defs><title>fnac</title><polygon class="a" points="20.89 0 0 132.67 129.11 154.81 150 22.14 20.89 0"/><path class="b" d="M261,242.67c0,3,2.92,3.77,6.2,3.77s9.4-1.25,9.4-9.23c-1.71,1.2-6.48,1.26-9.61,1.72S261,239.7,261,242.67Z" transform="translate(-174.55 -180.14)"/><path class="b" d="M217.9,221.52h4.27v4.12h.19c2.25-3.32,8.79-4.82,12.55-4.82,9.45,0,15,4.76,15,12.08v18.17H241V234.38c0-4.86-5-7.35-9.14-7.35-4.82,0-9.29,2.55-9.29,8.55v15.49h-8.89V227H200v24.12h-8.29V227h-3.68l-13.52,85.86L303.66,335l13.86-88c-3.08,3.22-7.93,4.93-13.91,4.93-10.89,0-18.22-6.28-18.22-15.14,0-9.21,6.7-16,18.42-16,7.53,0,14.51,2.86,16.46,8.73l4.28-27.17L195.44,180.14l-6.52,41.38h2.83v-2.28c0-5.21,4.69-11.24,14.91-11.24,6.81,0,15.22,1.8,15.22,10.81h-7.81c0-3.2-5-4.4-7.41-4.4-3.41,0-6.62,2.88-6.62,5.34v1.77H217.9Zm67,29.95h-8.69v-3.26c-3.21,2.69-8.32,3.66-12.81,3.66-7,0-12.55-2.8-12.55-8.86,0-6.68,6.28-8.29,12.55-9s12-.57,12-3.89c0-3.48-3-4-6.56-4-3.85,0-6.35,1.26-6.7,4.46H252c.57-7.6,8.46-9.89,16.73-9.89,7.34,0,16.18,2.52,16.18,9.61v21.14Z" transform="translate(-174.55 -180.14)"/><path class="b" d="M303.74,226.84c-6.35,0-8.44,5.26-8.44,9.6s2,9.32,8.23,9.32c4.61,0,7.26-2.4,7.89-6h7.23l1.23-7.83h-8.81C310.45,228.61,307.86,226.84,303.74,226.84Z" transform="translate(-174.55 -180.14)"/></svg>