<?xml version="1.0" encoding="utf-8"?>
<!-- Generator: Adobe Illustrator 23.0.2, SVG Export Plug-In . SVG Version: 6.00 Build 0)  -->
<svg version="1.1" id="Layer_1" xmlns="http://www.w3.org/2000/svg" xmlns:xlink="http://www.w3.org/1999/xlink" x="0px" y="0px"
	 viewBox="0 0 772.5 401.5" style="enable-background:new 0 0 772.5 401.5;" xml:space="preserve">
<style type="text/css">
	.st0{fill:#E6A514;}
	.st1{fill:#FFFFFF;}
	.st2{fill:#EBB300;}
</style>
<title>garantie-liverson-bg</title>
<rect x="482" y="111" class="st0" width="290.5" height="290.5"/>
<rect class="st0" width="290.5" height="290.5"/>
<rect x="38.7" y="38.1" width="697.9" height="326.3"/>
<g>
	<polygon class="st1" points="301,78.8 268.8,283.3 467.8,317.4 500,112.9 	"/>
	<path class="st2" d="M402,175.1c0,4.7,4.5,5.8,9.5,5.8c5.3,0,14.5-1.9,14.5-14.2c-2.6,1.9-10,1.9-14.8,2.6
		C406.4,170.2,402,170.6,402,175.1z"/>
	<path class="st2" d="M335.6,142.6h6.6v6.3h0.3c3.5-5.1,13.5-7.4,19.4-7.4c14.6,0,23.2,7.3,23.2,18.6v28h-13.7v-25.7
		c0-7.5-7.7-11.4-14.1-11.4c-7.4,0-14.3,3.9-14.3,13.2v23.9h-13.7v-37.2h-21.1v37.2h-12.8v-37.2h-5.7l-20.8,132.4l199,34.1
		l21.4-135.7c-4.7,5-12.2,7.6-21.5,7.6c-16.8,0-28.1-9.7-28.1-23.4c0-14.2,10.3-24.7,28.4-24.7c11.6,0,22.4,4.4,25.4,13.4l6.6-41.9
		L301,78.8l-10.1,63.8h4.4v-3.5c0-8,7.2-17.3,23-17.3c10.5,0,23.5,2.8,23.5,16.7h-12c0-5-7.7-6.8-11.4-6.8c-5.2,0-10.2,4.4-10.2,8.2
		v2.7h21.1H335.6L335.6,142.6z M438.8,188.7h-13.4v-5c-5,4.1-12.8,5.7-19.7,5.7c-10.7,0-19.4-4.3-19.4-13.7
		c0-10.3,9.7-12.8,19.4-13.9c9.5-1.2,18.5-0.9,18.5-6c0-5.4-4.6-6.2-10.1-6.2c-5.9,0-9.8,1.9-10.3,6.9h-15.6
		c0.9-11.7,13-15.2,25.8-15.2c11.3,0,24.9,3.9,24.9,14.8V188.7L438.8,188.7z"/>
	<path class="st2" d="M467.9,150.8c-9.8,0-13,8.1-13,14.8c0,6.5,3.1,14.4,12.7,14.4c7.1,0,11.2-3.7,12.1-9.3h11.1l1.9-12.1h-13.6
		C478.3,153.5,474.3,150.8,467.9,150.8z"/>
</g>
</svg>
