<?xml version="1.0" encoding="utf-8"?>
<!-- Generator: Adobe Illustrator 23.0.1, SVG Export Plug-In . SVG Version: 6.00 Build 0)  -->
<svg version="1.1" id="Layer_1" xmlns="http://www.w3.org/2000/svg" xmlns:xlink="http://www.w3.org/1999/xlink" x="0px" y="0px"
	 viewBox="0 0 512 512" style="enable-background:new 0 0 512 512;" xml:space="preserve">
<style type="text/css">
	.st0{fill:#FFFFFF;}
</style>
<g>
	<circle class="st0" cx="156.3" cy="167.7" r="156.3"/>
	<path class="st0" d="M512,182.9c0,17.5-14.2,31.8-31.8,31.8s-31.8-14.2-31.8-31.8c0-17.5,14.2-31.8,31.8-31.8S512,165.4,512,182.9z
		"/>
	<path class="st0" d="M454.8,260.4c0,35.1-28.4,63.5-63.5,63.5c-35.1,0-63.5-28.4-63.5-63.5c0-35.1,28.4-63.5,63.5-63.5
		C426.4,196.9,454.8,225.4,454.8,260.4z"/>
	<path class="st0" d="M467.5,424.3c0,42.1-34.1,76.2-76.2,76.2s-76.2-34.1-76.2-76.2c0-42.1,34.1-76.2,76.2-76.2
		C433.4,348.1,467.5,382.2,467.5,424.3z"/>
</g>
</svg>
