<svg id="Layer_1" data-name="Layer 1" xmlns="http://www.w3.org/2000/svg" viewBox="0 0 338.5 61"><defs><style>.cls-1{fill:#fff;}.cls-2{fill:none;stroke:#fff;stroke-miterlimit:10;}</style></defs><title>4stars</title><path class="cls-1" d="M155,30.5a30,30,0,1,1,30,30,30,30,0,0,1-30-30Zm30,27.6a27.6,27.6,0,1,0-27.6-27.6A27.66,27.66,0,0,0,185,58.1Z" transform="translate(-15)"/><path class="cls-1" d="M186.2,10.5,190.7,24l14.2.2a1.27,1.27,0,0,1,.7,2.3L194.2,35l4.2,13.6a1.28,1.28,0,0,1-2,1.4l-11.6-8.2L173.2,50a1.31,1.31,0,0,1-2-1.4L175.4,35,164,26.5a1.27,1.27,0,0,1,.7-2.3l14.2-.2,4.5-13.5c.8-1.1,2.4-1.1,2.8,0Z" transform="translate(-15)"/><path class="cls-1" d="M224,30.5a30,30,0,1,1,30,30,30,30,0,0,1-30-30Zm30,27.6a27.6,27.6,0,1,0-27.6-27.6A27.66,27.66,0,0,0,254,58.1Z" transform="translate(-15)"/><path class="cls-1" d="M255.2,10.5,259.7,24l14.2.2a1.27,1.27,0,0,1,.7,2.3L263.2,35l4.2,13.6a1.28,1.28,0,0,1-2,1.4l-11.6-8.2L242.2,50a1.31,1.31,0,0,1-2-1.4L244.4,35,233,26.5a1.27,1.27,0,0,1,.7-2.3l14.2-.2,4.5-13.5c.8-1.1,2.4-1.1,2.8,0Z" transform="translate(-15)"/><path class="cls-2" d="M293,30.5a30,30,0,1,1,30,30,30,30,0,0,1-30-30Zm30,27.6a27.6,27.6,0,1,0-27.6-27.6A27.66,27.66,0,0,0,323,58.1Z" transform="translate(-15)"/><path class="cls-2" d="M324.2,10.5,328.7,24l14.2.2a1.27,1.27,0,0,1,.7,2.3L332.2,35l4.2,13.6a1.28,1.28,0,0,1-2,1.4l-11.6-8.2L311.2,50a1.31,1.31,0,0,1-2-1.4L313.4,35,302,26.5a1.27,1.27,0,0,1,.7-2.3l14.2-.2,4.5-13.5c.8-1.1,2.4-1.1,2.8,0Z" transform="translate(-15)"/><path class="cls-1" d="M85,30.5a30,30,0,1,1,30,30,30,30,0,0,1-30-30Zm30,27.6A27.6,27.6,0,1,0,87.4,30.5,27.66,27.66,0,0,0,115,58.1Z" transform="translate(-15)"/><path class="cls-1" d="M116.2,10.5,120.7,24l14.2.2a1.27,1.27,0,0,1,.7,2.3L124.2,35l4.2,13.6a1.28,1.28,0,0,1-2,1.4l-11.6-8.2L103.2,50a1.31,1.31,0,0,1-2-1.4L105.4,35,94,26.5a1.27,1.27,0,0,1,.7-2.3l14.2-.2,4.5-13.5c.8-1.1,2.4-1.1,2.8,0Z" transform="translate(-15)"/><path class="cls-1" d="M15,30.5a30,30,0,1,1,30,30,30,30,0,0,1-30-30ZM45,58.1A27.6,27.6,0,1,0,17.4,30.5,27.66,27.66,0,0,0,45,58.1Z" transform="translate(-15)"/><path class="cls-1" d="M46.2,10.5,50.7,24l14.2.2a1.27,1.27,0,0,1,.7,2.3L54.2,35l4.2,13.6a1.28,1.28,0,0,1-2,1.4L44.8,41.8,33.2,50a1.31,1.31,0,0,1-2-1.4L35.4,35,24,26.5a1.27,1.27,0,0,1,.7-2.3L38.9,24l4.5-13.5c.8-1.1,2.4-1.1,2.8,0Z" transform="translate(-15)"/></svg>