<?xml version="1.0" encoding="utf-8"?>
<!-- Generator: Adobe Illustrator 23.0.1, SVG Export Plug-In . SVG Version: 6.00 Build 0)  -->
<svg version="1.1" id="Layer_1" xmlns="http://www.w3.org/2000/svg" xmlns:xlink="http://www.w3.org/1999/xlink" x="0px" y="0px"
	 viewBox="0 0 169.2 52.1" style="enable-background:new 0 0 169.2 52.1;" xml:space="preserve">
<style type="text/css">
	.st0{enable-background:new    ;}
	.st1{fill:#C80A0F;}
</style>
<title>SOLDES</title>
<g>
	<g class="st0">
		<path d="M11.8,34.9l5.5-3.2c1,2.3,2.7,3.9,5.9,3.9c3,0,3.8-1.2,3.8-2.3c0-1.7-1.6-2.4-5.8-3.6c-4.2-1.2-8.2-3.2-8.2-8.5
			c0-5.4,4.6-8.5,9.4-8.5c4.6,0,8.2,2.2,10.2,6.3l-5.4,3.2c-1-2-2.3-3.2-4.8-3.2c-2,0-3,1-3,2.1c0,1.3,0.7,2.2,5,3.5
			c4.2,1.3,9,2.8,9,8.7c0,5.4-4.3,8.6-10.4,8.6C17.1,41.8,13.4,39,11.8,34.9z"/>
	</g>
	<g class="st0">
		<path d="M35.2,27.2c0-8.2,6.5-14.6,14.6-14.6S64.4,19,64.4,27.2s-6.5,14.6-14.6,14.6S35.2,35.5,35.2,27.2z M58,27.2
			c0-5-3.6-8.3-8.2-8.3s-8.2,3.3-8.2,8.3s3.6,8.3,8.2,8.3S58,32.3,58,27.2z"/>
		<path d="M84.4,35.1v6.2H68v-28h6.4v21.9H84.4z"/>
		<path d="M112,27.2c0,7.9-5.9,14-13.6,14H87.2v-28h11.2C106.2,13.2,112,19.3,112,27.2z M105.9,27.2c0-4.8-3-7.8-7.4-7.8h-4.8v15.7
			h4.8C102.8,35.1,105.9,32.1,105.9,27.2z"/>
		<path d="M133.3,35.1v6.2h-17.6v-28h17.4v6.2h-11V24h10v6.1h-10v5H133.3z"/>
		<path d="M135.5,34.9l5.5-3.2c1,2.3,2.7,3.9,5.9,3.9c3,0,3.8-1.2,3.8-2.3c0-1.7-1.6-2.4-5.8-3.6c-4.2-1.2-8.2-3.2-8.2-8.5
			c0-5.4,4.6-8.5,9.4-8.5c4.6,0,8.2,2.2,10.2,6.3l-5.4,3.2c-1-2-2.3-3.2-4.8-3.2c-2,0-3,1-3,2.1c0,1.3,0.7,2.2,5,3.5
			c4.2,1.3,9,2.8,9,8.7c0,5.4-4.3,8.6-10.4,8.6C140.8,41.8,137,39,135.5,34.9z"/>
	</g>
</g>
<g id="Layer_3">
	<polygon class="st1" points="6.4,6.3 23.1,6.3 23.1,0 0,0 0,22 6.4,22 	"/>
	<polygon class="st1" points="162.8,44.9 146.1,44.9 146.1,51.3 169.2,51.3 169.2,29.2 162.8,29.2 	"/>
</g>
</svg>
