<svg xmlns="http://www.w3.org/2000/svg" viewBox="0 0 265.18 51.28"><defs><style>.a{fill:#c80a0f;}</style></defs><title>VENTEFLASH</title><path d="M303.47,100.3h7l6.2,20.62,6.21-20.62h7l-9.13,28H312.6Z" transform="translate(-292.65 -87.06)"/><path d="M349.92,122.16v6.16H332.3v-28h17.42v6.16h-11v4.65h10v6.08h-10v5Z" transform="translate(-292.65 -87.06)"/><path d="M375.54,100.3v28h-4.8l-10.82-15.21v15.21h-6.4v-28h4.8l10.81,15.21V100.3Z" transform="translate(-292.65 -87.06)"/><path d="M399.16,106.46H392v21.86h-6.41V106.46h-7.21V100.3h20.82Z" transform="translate(-292.65 -87.06)"/><path d="M419.58,122.16v6.16H402v-28h17.42v6.16h-11v4.65h10v6.08h-10v5Z" transform="translate(-292.65 -87.06)"/><path d="M439.6,106.46v5.41H450V118H439.6v10.29h-6.41v-28h17v6.16Z" transform="translate(-292.65 -87.06)"/><path d="M470.43,122.16v6.16H454v-28h6.41v21.86Z" transform="translate(-292.65 -87.06)"/><path d="M490.45,123.92H480l-1.4,4.4h-7l9.53-28h8.17l9.53,28h-7Zm-1.92-6-3.29-10.29L482,117.91Z" transform="translate(-292.65 -87.06)"/><path d="M499.25,122l5.53-3.21a5.86,5.86,0,0,0,5.89,3.89c3,0,3.8-1.2,3.8-2.29,0-1.72-1.6-2.4-5.81-3.56s-8.24-3.16-8.24-8.53,4.56-8.53,9.41-8.53a10.89,10.89,0,0,1,10.25,6.33l-5.41,3.16c-1-2-2.28-3.24-4.84-3.24-2,0-3,1-3,2.12,0,1.28.68,2.17,5.05,3.49s9,2.76,9,8.68c0,5.41-4.33,8.61-10.41,8.61C504.58,128.88,500.82,126.08,499.25,122Z" transform="translate(-292.65 -87.06)"/><path d="M545.5,100.3v28h-6.41V117.19h-8.8v11.13h-6.41v-28h6.41V111h8.8V100.3Z" transform="translate(-292.65 -87.06)"/><polygon class="a" points="6.39 6.35 23.06 6.35 23.06 0 0 0 0 22.04 6.39 22.04 6.39 6.35"/><polygon class="a" points="258.78 44.93 242.12 44.93 242.12 51.28 265.18 51.28 265.18 29.24 258.78 29.24 258.78 44.93"/></svg>