<svg id="Layer_1" data-name="Layer 1" xmlns="http://www.w3.org/2000/svg" viewBox="0 0 338.5 61"><defs><style>.cls-1{fill:none;stroke:#fff;stroke-miterlimit:10;}.cls-2{fill:#fff;}</style></defs><title>1stars</title><path class="cls-1" d="M155,30.93a30,30,0,1,1,30,30,30,30,0,0,1-30-30Zm30,27.6a27.6,27.6,0,1,0-27.6-27.6A27.66,27.66,0,0,0,185,58.53Z" transform="translate(-15 -0.43)"/><path class="cls-1" d="M186.2,10.93l4.5,13.5,14.2.2a1.27,1.27,0,0,1,.7,2.3l-11.4,8.5L198.4,49a1.28,1.28,0,0,1-2,1.4l-11.6-8.2-11.6,8.2a1.31,1.31,0,0,1-2-1.4l4.2-13.6L164,26.93a1.27,1.27,0,0,1,.7-2.3l14.2-.2,4.5-13.5c.8-1.1,2.4-1.1,2.8,0Z" transform="translate(-15 -0.43)"/><path class="cls-1" d="M224,30.93a30,30,0,1,1,30,30,30,30,0,0,1-30-30Zm30,27.6a27.6,27.6,0,1,0-27.6-27.6A27.66,27.66,0,0,0,254,58.53Z" transform="translate(-15 -0.43)"/><path class="cls-1" d="M255.2,10.93l4.5,13.5,14.2.2a1.27,1.27,0,0,1,.7,2.3l-11.4,8.5L267.4,49a1.28,1.28,0,0,1-2,1.4l-11.6-8.2-11.6,8.2a1.31,1.31,0,0,1-2-1.4l4.2-13.6L233,26.93a1.27,1.27,0,0,1,.7-2.3l14.2-.2,4.5-13.5c.8-1.1,2.4-1.1,2.8,0Z" transform="translate(-15 -0.43)"/><path class="cls-1" d="M293,30.93a30,30,0,1,1,30,30,30,30,0,0,1-30-30Zm30,27.6a27.6,27.6,0,1,0-27.6-27.6A27.66,27.66,0,0,0,323,58.53Z" transform="translate(-15 -0.43)"/><path class="cls-1" d="M324.2,10.93l4.5,13.5,14.2.2a1.27,1.27,0,0,1,.7,2.3l-11.4,8.5L336.4,49a1.28,1.28,0,0,1-2,1.4l-11.6-8.2-11.6,8.2a1.31,1.31,0,0,1-2-1.4l4.2-13.6L302,26.93a1.27,1.27,0,0,1,.7-2.3l14.2-.2,4.5-13.5c.8-1.1,2.4-1.1,2.8,0Z" transform="translate(-15 -0.43)"/><path class="cls-1" d="M85,30.93a30,30,0,1,1,30,30,30,30,0,0,1-30-30Zm30,27.6a27.6,27.6,0,1,0-27.6-27.6A27.66,27.66,0,0,0,115,58.53Z" transform="translate(-15 -0.43)"/><path class="cls-1" d="M116.2,10.93l4.5,13.5,14.2.2a1.27,1.27,0,0,1,.7,2.3l-11.4,8.5L128.4,49a1.28,1.28,0,0,1-2,1.4l-11.6-8.2-11.6,8.2a1.31,1.31,0,0,1-2-1.4l4.2-13.6L94,26.93a1.27,1.27,0,0,1,.7-2.3l14.2-.2,4.5-13.5c.8-1.1,2.4-1.1,2.8,0Z" transform="translate(-15 -0.43)"/><path class="cls-2" d="M15,30.93a30,30,0,1,1,30,30,30,30,0,0,1-30-30Zm30,27.6a27.6,27.6,0,1,0-27.6-27.6A27.66,27.66,0,0,0,45,58.53Z" transform="translate(-15 -0.43)"/><path class="cls-2" d="M46.2,10.93l4.5,13.5,14.2.2a1.27,1.27,0,0,1,.7,2.3l-11.4,8.5L58.4,49a1.28,1.28,0,0,1-2,1.4l-11.6-8.2-11.6,8.2a1.31,1.31,0,0,1-2-1.4l4.2-13.6L24,26.93a1.27,1.27,0,0,1,.7-2.3l14.2-.2,4.5-13.5c.8-1.1,2.4-1.1,2.8,0Z" transform="translate(-15 -0.43)"/></svg>