<svg id="Layer_1" data-name="Layer 1" xmlns="http://www.w3.org/2000/svg" viewBox="0 0 338.5 61"><defs><style>.cls-1{fill:#fff;}.cls-2{fill:none;stroke:#fff;stroke-miterlimit:10;}</style></defs><title>3stars</title><path class="cls-1" d="M155.3,30.9a30,30,0,1,1,30,30,30,30,0,0,1-30-30Zm30,27.6a27.6,27.6,0,1,0-27.6-27.6,27.66,27.66,0,0,0,27.6,27.6Z" transform="translate(-15.3 -0.4)"/><path class="cls-1" d="M186.5,10.9,191,24.4l14.2.2a1.27,1.27,0,0,1,.7,2.3l-11.4,8.5L198.7,49a1.28,1.28,0,0,1-2,1.4l-11.6-8.2-11.6,8.2a1.31,1.31,0,0,1-2-1.4l4.2-13.6-11.4-8.5a1.27,1.27,0,0,1,.7-2.3l14.2-.2,4.5-13.5c.8-1.1,2.4-1.1,2.8,0Z" transform="translate(-15.3 -0.4)"/><path class="cls-2" d="M224.3,30.9a30,30,0,1,1,30,30,30,30,0,0,1-30-30Zm30,27.6a27.6,27.6,0,1,0-27.6-27.6,27.66,27.66,0,0,0,27.6,27.6Z" transform="translate(-15.3 -0.4)"/><path class="cls-2" d="M255.5,10.9,260,24.4l14.2.2a1.27,1.27,0,0,1,.7,2.3l-11.4,8.5L267.7,49a1.28,1.28,0,0,1-2,1.4l-11.6-8.2-11.6,8.2a1.31,1.31,0,0,1-2-1.4l4.2-13.6-11.4-8.5a1.27,1.27,0,0,1,.7-2.3l14.2-.2,4.5-13.5c.8-1.1,2.4-1.1,2.8,0Z" transform="translate(-15.3 -0.4)"/><path class="cls-2" d="M293.3,30.9a30,30,0,1,1,30,30,30,30,0,0,1-30-30Zm30,27.6a27.6,27.6,0,1,0-27.6-27.6,27.66,27.66,0,0,0,27.6,27.6Z" transform="translate(-15.3 -0.4)"/><path class="cls-2" d="M324.5,10.9,329,24.4l14.2.2a1.27,1.27,0,0,1,.7,2.3l-11.4,8.5L336.7,49a1.28,1.28,0,0,1-2,1.4l-11.6-8.2-11.6,8.2a1.31,1.31,0,0,1-2-1.4l4.2-13.6-11.4-8.5a1.27,1.27,0,0,1,.7-2.3l14.2-.2,4.5-13.5c.8-1.1,2.4-1.1,2.8,0Z" transform="translate(-15.3 -0.4)"/><path class="cls-1" d="M85.3,30.9a30,30,0,1,1,30,30,30,30,0,0,1-30-30Zm30,27.6A27.6,27.6,0,1,0,87.7,30.9a27.66,27.66,0,0,0,27.6,27.6Z" transform="translate(-15.3 -0.4)"/><path class="cls-1" d="M116.5,10.9,121,24.4l14.2.2a1.27,1.27,0,0,1,.7,2.3l-11.4,8.5L128.7,49a1.28,1.28,0,0,1-2,1.4l-11.6-8.2-11.6,8.2a1.31,1.31,0,0,1-2-1.4l4.2-13.6L94.3,26.9a1.27,1.27,0,0,1,.7-2.3l14.2-.2,4.5-13.5c.8-1.1,2.4-1.1,2.8,0Z" transform="translate(-15.3 -0.4)"/><path class="cls-1" d="M15.3,30.9a30,30,0,1,1,30,30,30,30,0,0,1-30-30Zm30,27.6A27.6,27.6,0,1,0,17.7,30.9,27.66,27.66,0,0,0,45.3,58.5Z" transform="translate(-15.3 -0.4)"/><path class="cls-1" d="M46.5,10.9,51,24.4l14.2.2a1.27,1.27,0,0,1,.7,2.3L54.5,35.4,58.7,49a1.28,1.28,0,0,1-2,1.4L45.1,42.2,33.5,50.4a1.31,1.31,0,0,1-2-1.4l4.2-13.6L24.3,26.9a1.27,1.27,0,0,1,.7-2.3l14.2-.2,4.5-13.5c.8-1.1,2.4-1.1,2.8,0Z" transform="translate(-15.3 -0.4)"/></svg>