<?xml version="1.0" encoding="utf-8"?>
<!-- Generator: Adobe Illustrator 24.0.3, SVG Export Plug-In . SVG Version: 6.00 Build 0)  -->
<svg version="1.1" id="Layer_1" xmlns="http://www.w3.org/2000/svg" xmlns:xlink="http://www.w3.org/1999/xlink" x="0px" y="0px"
	 viewBox="0 0 900 520" style="enable-background:new 0 0 900 520;" xml:space="preserve">
<style type="text/css">
	.st0{enable-background:new    ;}
	.st1{fill:#FFFFFF;}
</style>
<g id="Layer_2_1_">
	<g class="st0">
		<path class="st1" d="M306.6,250.9H164.2v-64.3L306.6,17.5h68.1v172.9H410v60.6h-35.3v52.6h-68.1V250.9z M306.6,190.3v-88.5
			l-75.2,88.5H306.6z"/>
		<path class="st1" d="M447.4,22.3h86.9v106.3l91-106.3h115.6L638.3,128.4l107.2,175.1h-107l-59.3-115.7l-44.9,47v68.6h-86.9V22.3z"
			/>
	</g>
	<g class="st0">
		<path class="st1" d="M92.3,346.4h34.1v79.1c0,7.8-1,15.2-3.1,22.2c-2,7-5.2,13.1-9.6,18.3c-4.3,5.2-8.9,8.9-13.7,11
			c-6.6,3-14.6,4.4-23.9,4.4c-5.4,0-11.2-0.5-17.6-1.4c-6.4-0.9-11.7-2.7-15.9-5.4c-4.3-2.7-8.2-6.5-11.7-11.4
			c-3.5-4.9-6-10-7.3-15.3c-2.1-8.4-3.2-15.9-3.2-22.4v-79.1h34.1v81c0,7.2,1.7,12.9,5,17c3.3,4.1,8,6.1,13.9,6.1
			c5.9,0,10.5-2,13.8-6c3.3-4,5-9.7,5-17.1V346.4z"/>
		<path class="st1" d="M149,346.4h34.2v100.1h53.3v32.7H149V346.4z"/>
		<path class="st1" d="M236.4,346.4h103.8v32.8h-34.8v100h-34.2v-100h-34.8V346.4z"/>
		<path class="st1" d="M356.1,479.1V346.4H413c10.6,0,18.6,1.1,24.2,3.3c5.6,2.2,10.1,6.2,13.5,12.1c3.4,5.9,5.1,13.1,5.1,21.5
			c0,7.4-1.3,13.7-3.9,19.1c-2.6,5.3-6.2,9.7-10.8,13c-2.9,2.1-6.9,3.9-12,5.3c4.1,1.6,7,3.3,8.9,4.9c1.3,1.1,3.1,3.4,5.5,7
			c2.4,3.6,4,6.3,4.8,8.2l16.5,38.5h-38.6L408,438.6c-2.3-5.3-4.4-8.7-6.2-10.2c-2.5-2.1-5.3-3.1-8.4-3.1h-3v53.9H356.1z
			 M390.4,400.2h14.4c1.6,0,4.6-0.6,9-1.8c2.3-0.5,4.1-1.9,5.5-4.2c1.4-2.2,2.1-4.8,2.1-7.7c0-4.3-1.1-7.6-3.4-9.9
			c-2.3-2.3-6.5-3.4-12.7-3.4h-15V400.2z"/>
		<path class="st1" d="M543.7,457.2h-38.8l-5.4,21.9h-34.9l41.5-132.8h37.3L585,479.1h-35.8L543.7,457.2z M536.6,428.5l-12.2-47.7
			l-12.1,47.7H536.6z"/>
		<path class="st1" d="M647.5,346.4h34.2v46.5H719v-46.5h34.3v132.8H719v-53.7h-37.3v53.7h-34.2V346.4z"/>
		<path class="st1" d="M776.4,346.4h50.7c10,0,18.1,1.6,24.2,4.9c6.2,3.3,11.2,7.9,15.3,14c4,6.1,6.9,13.2,8.7,21.3
			c1.8,8.1,2.7,16.7,2.7,25.7c0,14.2-1.3,25.2-4,33c-2.7,7.8-6.4,14.4-11.2,19.7c-4.8,5.3-9.9,8.8-15.4,10.6
			c-7.5,2.4-14.3,3.6-20.4,3.6h-50.7V346.4z M810.6,376.4V449h8.4c7.1,0,12.2-1,15.2-2.9c3-1.9,5.4-5.2,7.1-10
			c1.7-4.7,2.6-12.4,2.6-23c0-14.1-1.9-23.7-5.7-28.9c-3.8-5.2-10.2-7.8-19-7.8H810.6z"/>
	</g>
</g>
</svg>
