<svg id="Layer_1" data-name="Layer 1" xmlns="http://www.w3.org/2000/svg" viewBox="0 0 173.38 196.03"><defs><style>.cls-1{fill:#e9aa00;}.cls-2{fill:#fff;}</style></defs><title>fnac-garantie</title><g id="TV-8K-FNAC-10_v2" data-name="TV-8K-FNAC-10% v2"><rect class="cls-1" x="173.31" y="171.71" width="153.51" height="153.51" transform="translate(-194.16 299.73) rotate(-82)"/><path class="cls-2" d="M181.5,209.8a12.21,12.21,0,0,1,4.1-10.3,12,12,0,0,1,1.5-1,23.84,23.84,0,0,1,5.6-1.8,31.32,31.32,0,0,1,10.3-.4,8.64,8.64,0,0,1,1.5.1,30,30,0,0,1,3.3.9,17.4,17.4,0,0,1,4.1,1.8,9.17,9.17,0,0,1,3.1,3.1,8.54,8.54,0,0,1,1.3,4.7h-9.2a4.94,4.94,0,0,0-.3-1.5c-.2-.6-1-1.3-2.5-2.2a11.08,11.08,0,0,0-5.8-1.3,21.75,21.75,0,0,0-2.5.1,6.72,6.72,0,0,0-3.5,2.2,6.49,6.49,0,0,0-1.9,5.6h25.7v4.4c1.4-2,3.9-3.4,7.7-4.4a11.87,11.87,0,0,1,2.4-.4c1-.1,2.7-.1,5.2-.1a26.2,26.2,0,0,1,6.6.7,13,13,0,0,1,5.8,3.4,11.1,11.1,0,0,1,3.4,6.8v21.3h-9.5V223.8a8.41,8.41,0,0,0-3.5-6.1,10.15,10.15,0,0,0-5.6-1.9l-2.7.3c-5.7.6-9,3.2-9.8,7.7v17.7h-9.2V216.4H190.8v25.1h-9.2V216.4h-4.4v-6.5h4.3Zm105.8,31.6h-9.2l-.3-3.5v-.3a10.62,10.62,0,0,1-4.9,3.1,17.38,17.38,0,0,1-5.5,1l-2.4.3c-4.9,0-8.7-.7-11.4-2.2s-4.2-3-4.6-4.6l-.3-2.1a7.18,7.18,0,0,1,.7-5.2,8.74,8.74,0,0,1,4.7-3,33.69,33.69,0,0,1,5.9-1.3q2.55-.3,7.2-.6h2.4c5.7-.8,8.3-2.3,7.7-4.4,0-1-.7-1.8-2.1-2.5a8.62,8.62,0,0,0-3.8-1l-1.8-.3a13.72,13.72,0,0,0-7.1,1c-1.8.9-2.8,1.8-3,2.8l-.3,1.8H250a12.91,12.91,0,0,1,.3-2.4c.2-1,1.1-2.4,2.8-4.3A12.23,12.23,0,0,1,260,210c3.9-1.2,9.4-1.2,16.3,0a6.15,6.15,0,0,1,1.3.1,13.67,13.67,0,0,1,2.7,1,16.29,16.29,0,0,1,3.4,2.1,9.55,9.55,0,0,1,2.5,3.5,11,11,0,0,1,.7,5.6Zm-9.8-14.8c-.2.4-.8.7-1.9.9a15.75,15.75,0,0,1-2.8.3l-1.2.3h-2.4a15.63,15.63,0,0,0-2.5.1c-.5.1-1.2.2-2.2.3a8.69,8.69,0,0,0-2.2.4c-.5.2-1,.4-1.6.7a3,3,0,0,0-1.3,1.2,2.93,2.93,0,0,0-.4,1.6c.2,3,3.3,4.3,9.2,4.1a11.76,11.76,0,0,0,8.6-3.8c1-1.2,1.4-3.3,1.2-6.2h-.5Zm21.6-15.7a26.62,26.62,0,0,1,10-1.5c9.5-.4,15.7,2.1,18.6,7.4a27.74,27.74,0,0,1,.9,3.3h-9.5c-1.6-3.2-4.8-4.6-9.8-4.4-7.3.2-11,3.4-11.2,9.8v.3c.2,3.7,1.5,6.3,4,7.7a14.75,14.75,0,0,0,7.2,2.1c4.9,0,8.2-1.6,9.8-4.7h9.5a5.79,5.79,0,0,1-.9,3c-2.8,5.5-8.9,8.2-18.3,8-4.5,0-7.9-.5-10-1.5a35.74,35.74,0,0,1-4.4-2.2,14.1,14.1,0,0,1-4-4.3,14.55,14.55,0,0,1-2.5-7.4C288.1,219,291.6,213.9,299.1,210.9Z" transform="translate(-163.37 -161.77)"/><path class="cls-2" d="M323.1,283a43.84,43.84,0,0,1-62,62,43.8,43.8,0,0,1,31-74.8A41.59,41.59,0,0,1,323.1,283Zm-4.6,19.2-6.2-6.2-24.8,24.8L275,308.5l-6.2,6.2,18.7,18.5Z" transform="translate(-163.37 -161.77)"/></g></svg>