<?xml version="1.0" encoding="utf-8"?>
<!-- Generator: Adobe Illustrator 23.0.2, SVG Export Plug-In . SVG Version: 6.00 Build 0)  -->
<svg version="1.1" id="Layer_3" xmlns="http://www.w3.org/2000/svg" xmlns:xlink="http://www.w3.org/1999/xlink" x="0px" y="0px"
	 viewBox="0 0 900 520" style="enable-background:new 0 0 900 520;" xml:space="preserve">
<style type="text/css">
	.st0{fill:#FFFFFF;}
</style>
<g>
	<path class="st0" d="M278.5,444.1c14.2-50.4,27.1-96.5,41.2-146.6c-50.1,0-97.2-0.6-144.3,0.8c-5.3,0.2-12.8,10.7-14.9,17.7
		c-11.3,35.9-21.6,72-31.2,108.4c-3.8,14.2-10.1,20.9-26,19.9C79.3,443,55,444,26.9,444c11.4-40.1,22.1-77.6,32.8-115.2
		C82.9,248,106.5,167,128.8,85.9c4-14.5,9.5-21.2,25.3-20.4c24,1.3,48.1,0.3,76.5,0.3c-14.8,52.6-28.5,102.1-43.1,154.5
		c49.4,0,95.9,0.6,142.5-0.8c5.6-0.2,13.8-9.5,15.9-16.2c11.7-36.6,23.2-73.4,31.9-110.9c5-21.8,15-29.3,36.9-27.1
		c21.2,2.1,42.5,0.3,67.7,0.3c-10.3,36.3-19.7,68.6-28.8,101.1c-23.9,84.4-48.1,168.8-71.5,253.3c-4.7,17.2-11.6,25.8-31.1,24
		C328.6,442.5,306.2,444.1,278.5,444.1z"/>
	<path class="st0" d="M449.7,441.6c22.9-79.8,44.8-157.2,67.8-234.3c1.7-5.6,10.2-12.6,15.9-12.8c26.6-1.4,53.4-0.6,83.3-0.6
		C600.3,252.1,584.9,307,569.4,362c107.4,25.8,201.7-40.5,202.8-140.8c0.5-47.8-26-76-73.9-76.7c-52.9-0.8-105.9-0.2-163.2-0.2
		c7-24.4,12.2-46.5,20.1-67.8c1.8-5,12.1-9.8,18.4-9.7c58.4,0.2,116.9-1.1,175.1,3c90.5,6.4,140.3,76.6,121.2,165.8
		C845.5,350,751.4,434,634.1,441.2C574.2,444.7,514,441.6,449.7,441.6z"/>
</g>
</svg>
