<svg id="Layer_1" data-name="Layer 1" xmlns="http://www.w3.org/2000/svg" viewBox="0 0 227.61 35.21"><defs><style>.cls-1{fill:#fff;}</style></defs><title>hdmi</title><polyline class="cls-1" points="54.61 0 54.61 35.21 39.82 35.21 39.82 22.59 14.51 22.59 14.51 35.21 0 35.21 0 0 14.51 0 14.51 14.39 39.82 14.39 39.82 0 54.61 0"/><path class="cls-1" d="M4083.48,4086.61h-40.61l.05-8.76h44.89a9.66,9.66,0,0,1,6.88,2.73,8.64,8.64,0,0,1,2.9,6.55v16.66a8.56,8.56,0,0,1-2.9,6.55,9.61,9.61,0,0,1-6.88,2.67h-44.89l-.05-20.82h14.05l0,12.06h26.57v-17.64" transform="translate(-3982.17 -4077.85)"/><path class="cls-1" d="M4169.39,4080.58a8.83,8.83,0,0,1,2.84,6.55v25.94h-14v-26.4h-13.37v26.4h-14v-26.4h-13.37v26.4H4103.4v-35.22h59.16a9.46,9.46,0,0,1,6.83,2.73" transform="translate(-3982.17 -4077.85)"/><polyline class="cls-1" points="210.55 22.59 210.55 35.21 196.04 35.21 196.04 0 210.55 0 210.55 14.39 210.49 19.11 210.55 22.59"/><path class="cls-1" d="M4203.92,4078h1.53l1.43,3.42,1.36-3.42h1.54v5.07h-1v-3.87h-.06l-1.48,3.87h-.79l-1.48-3.87h0v3.87h-1V4078m-4,.86h-1.65V4078h4.27v.86H4201v4.21h-1v-4.21" transform="translate(-3982.17 -4077.85)"/></svg>