<!DOCTYPE svg PUBLIC "-//W3C//DTD SVG 20010904//EN" "http://www.w3.org/TR/2001/REC-SVG-20010904/DTD/svg10.dtd">
<svg version="1.0" xmlns="http://www.w3.org/2000/svg" width="1200px" height="663px" viewBox="0 0 12000 6630" preserveAspectRatio="xMidYMid meet">
<g id="layer101" fill="#ffffff" stroke="none">
 <path d="M10118 5647 c-1215 -1261 -1280 -1328 -1361 -1413 -37 -39 -67 -74 -67 -79 0 -5 95 -215 212 -467 l212 -458 236 0 c129 0 273 -5 318 -10 332 -42 635 -208 808 -443 280 -379 233 -963 -105 -1296 -144 -142 -326 -231 -562 -276 -150 -28 -372 -35 -1116 -35 l-733 0 0 -585 0 -585 743 0 c756 0 1044 8 1267 35 539 66 912 235 1261 572 243 235 405 476 512 763 146 392 179 923 81 1320 -176 713 -722 1269 -1411 1440 l-92 23 627 631 c883 888 1056 1065 1051 1069 -2 2 -212 177 -466 390 -255 213 -464 387 -465 387 -2 0 -429 -443 -950 -983z"/>
 <path d="M0 3225 l0 -3225 660 0 660 0 0 1290 0 1290 1355 0 1355 0 0 650 0 650 -1355 0 -1355 0 0 1285 0 1285 -660 0 -660 0 0 -3225z"/>
 <path d="M3980 5842 l0 -610 513 -5 c468 -3 522 -6 632 -25 225 -40 370 -85 555 -174 514 -245 871 -690 1008 -1258 38 -156 50 -239 61 -410 23 -393 -51 -774 -215 -1101 -236 -471 -657 -812 -1180 -955 -239 -65 -261 -67 -841 -71 l-533 -4 0 -615 0 -614 418 0 c229 0 489 5 577 10 706 46 1323 275 1838 682 131 104 371 344 475 476 380 480 605 1056 673 1717 16 154 16 526 0 680 -81 789 -386 1458 -902 1974 -439 439 -992 727 -1629 850 -260 51 -307 54 -892 58 l-558 5 0 -610z"/>
 </g>

</svg>