<?xml version="1.0" encoding="utf-8"?>
<!-- Generator: Adobe Illustrator 23.0.1, SVG Export Plug-In . SVG Version: 6.00 Build 0)  -->
<svg version="1.1" id="Layer_1" xmlns="http://www.w3.org/2000/svg" xmlns:xlink="http://www.w3.org/1999/xlink" x="0px" y="0px"
	 viewBox="0 0 680.5 271.4" style="enable-background:new 0 0 680.5 271.4;" xml:space="preserve">
<style type="text/css">
	.st0{fill:#FFFFFF;}
</style>
<title>Hz2</title>
<g>
	<path class="st0" d="M35.5,94.4c-0.2,4.8,0.7,8.6,2.7,11.2s5.3,3.9,10.1,3.9c5.2,0.1,10.2-2,13.8-5.8c3.8-4.1,6.4-9.1,7.4-14.6
		c1.2-5.8,0.9-10.6-0.9-14.6c-1.8-4-5.6-6-11.3-6c-2.5,0-4.9,0.3-7.2,1c-3.8,1.3-7,3.7-9.3,6.9l-19.8-0.9l21.3-62.4h62.2l-4,18.9
		H54.2l-9.3,24.7c2.9-1.7,5.9-3.2,9-4.4c3.9-1.3,8-1.9,12.2-1.8c9.3,0,16.8,3.1,22.4,9.4c5.6,6.3,7.2,15.4,4.6,27.4
		c-2.2,10.4-7.5,19.8-16,28s-19.4,12.3-32.7,12.3c-10.7,0-18.9-2.9-24.6-8.7c-5.7-5.8-7.8-13.9-6.3-24.5H35.5z"/>
	<path class="st0" d="M185.8,69.3c-4,18.7-10,33-17.9,43.1s-19.1,15.1-33.4,15.1c-14.4,0-23.4-5-27.1-15.1S104,87.9,108,69.3
		c4-18.7,9.9-33,17.8-43.1S144.9,11,159.3,11c14.4,0,23.4,5.1,27,15.2C189.9,36.3,189.8,50.7,185.8,69.3z M138.3,109.4
		c6.6,0,11.7-3.4,15.2-10.3c3.5-6.9,6.7-16.8,9.5-29.8c2.9-13.6,4-23.7,3.3-30.2s-4.3-9.8-10.9-9.8c-6.6,0-11.7,3.3-15.2,9.8
		c-3.5,6.5-6.7,16.6-9.6,30.2c-2.8,13-3.9,22.9-3.2,29.8C128.1,106,131.7,109.4,138.3,109.4z"/>
	<path class="st0" d="M62.9,181.9c0.4-2,0.1-4.2-0.9-6c-1.6-3.5-4.8-5.3-9.6-5.3c-7.2,0-13.2,4.1-18,12.1
		c-2.6,4.5-5.1,11.1-7.6,19.8c3.2-3.1,6.9-5.6,11.1-7.2c4.2-1.5,8.6-2.3,13-2.3c10,0,17.5,3.4,22.5,10.2s6.3,15.5,4,26.1
		c-2.3,10.6-7.6,20.3-15.3,27.9c-8,8-18.6,12.1-31.9,12.1c-14.2,0-23.4-5.9-27.6-17.8c-3.3-9.3-3.3-21.3-0.2-36
		c1.5-7.1,3.3-14.1,5.6-21c3.3-9.6,7.5-17.6,12.6-24c4.2-5.4,9.5-9.8,15.5-13.2c6.1-3.4,12.9-5.1,19.8-5c10.5,0,18.3,2.7,23.4,8.1
		c5.1,5.4,7.1,12.5,5.9,21.4L62.9,181.9z M34.4,251.3c4.9,0,9.5-2,12.8-5.6c3.8-4,6.3-9,7.3-14.4c1.4-6.6,0.9-11.6-1.6-15.1
		c-2.5-3.5-6-5.3-10.7-5.3c-3.8,0-7.6,1.2-10.8,3.4c-5.1,3.4-8.4,8.8-10,16.4c-1.3,6.1-0.8,11,1.8,14.9S29.4,251.3,34.4,251.3z"/>
	<path class="st0" d="M171,211.1c-4,18.6-10,33-17.9,43.1c-7.9,10.1-19.1,15.1-33.4,15.1c-14.4,0-23.4-5-27.1-15.1
		c-3.7-10.1-3.5-24.4,0.5-43.1c3.9-18.7,9.9-33.1,17.8-43.1s19.1-15.2,33.5-15.2c14.4,0,23.4,5.1,27,15.2
		C175,178,174.9,192.4,171,211.1z M123.4,251.2c6.6,0,11.6-3.4,15.1-10.3c3.5-6.9,6.7-16.8,9.5-29.8c2.9-13.6,4-23.7,3.3-30.2
		s-4.3-9.8-10.8-9.8c-6.6,0-11.7,3.3-15.2,9.8c-3.5,6.5-6.7,16.6-9.6,30.2c-2.8,13-3.9,22.9-3.2,29.8
		C113.2,247.7,116.8,251.2,123.4,251.2z"/>
	<path class="st0" d="M250.2,0l-52.3,271.2l429,0.2l53.6-271L250.2,0z M398.7,253l22.6-107.1H298.8L276.2,253H245l49.1-233.9h31.5
		l-21.3,100.6h122.5l21-100.6H479L429.8,253H398.7z M616.9,99l-4.7,4.6L493.3,228.4h101.2l-4.6,24.6H454.5c-1.3,0-2.6-0.7-3.3-1.8
		l0,0c-2.8-4.5-2.4-10.2,1-14.3l4.1-4.9l117.6-123.8h-91.1l4.9-24.6h124c2.9,0,5.5,1.7,6.7,4.4l0.4,1
		C620.3,92.4,619.6,96.4,616.9,99L616.9,99z"/>
</g>
</svg>
