<svg xmlns="http://www.w3.org/2000/svg" viewBox="0 0 388.23 104.12"><defs><style>.a{fill:#fff;}</style></defs><title>led</title><path class="a" d="M62.5,102.6C46,95.8,43.1,88,42.1,45.4L40.8,5.3H70.6V40.2c0,19.1,1.6,36.9,3.2,39.4,2.3,3.9,10.7,4.9,42,4.5l38.8-.3v21.7l-42.7-.3C88.3,105.2,66,103.9,62.5,102.6Z" transform="translate(-40.8 -2.08)"/><path class="a" d="M181.8,101c-17.5-7.8-20.7-15.8-20.7-50.8,0-30.1.3-31.7,8.4-38.2,7.8-6.1,12.9-6.8,58.2-6.8h49.8V24.6H237.4c-32.3,0-41.4,1-45.3,5.2-2.9,2.6-5.2,6.5-5.2,8.1s19.1,2.9,43.7,2.9h43.7V63.4H230.6c-35.6,0-43.7,1-43.7,4.5,0,12.3,9.1,14.9,50.4,14.9h40.1v22.6H234.7C206,105.2,188.6,103.9,181.8,101Z" transform="translate(-40.8 -2.08)"/><path class="a" d="M287.2,59c0-59.8-2.9-56.9,60.8-56.9,66,0,77.6,6.1,80.5,42.7,2.3,25.9-2.9,44.3-14.6,52.7-7.4,5.5-14.9,6.5-51.4,7.4l-43,1.3V83h34.9c42.7,0,45.9-2.3,45.9-29.7,0-26.2-3.6-28.5-47.9-28.5H316.2v80.8H287V59Z" transform="translate(-40.8 -2.08)"/></svg>