<svg xmlns="http://www.w3.org/2000/svg" viewBox="0 0 362.6 103.9"><defs><style>.a{fill:#fff;}</style></defs><title>oled</title><path class="a" d="M102.6,2.2c29.9,0,51.5,22.3,51.5,51.2,0,29.6-21.6,52.7-51.5,52.7S51,83.1,51,53.5C51,24.6,72.7,2.2,102.6,2.2Zm0,91c21.3,0,37-17.2,37-39.7,0-21.8-15.7-38.4-37-38.4-21.5,0-37.1,16.6-37.1,38.4C65.5,75.9,81.1,93.2,102.6,93.2Z" transform="translate(-51 -2.2)"/><polygon class="a" points="123.3 1.7 137.4 1.7 137.4 90 182.5 90 182.5 102.2 123.3 102.2 123.3 1.7"/><polygon class="a" points="198.2 1.7 256.7 1.7 256.7 14 212.3 14 212.3 45.4 248.3 45.4 248.3 57.7 212.3 57.7 212.3 90 259.1 90 259.1 102.2 198.2 102.2 198.2 1.7"/><path class="a" d="M329.4,3.9h33.4c30.6,0,50.8,18.4,50.8,50.1,0,31.9-20.2,50.4-50.8,50.4H329.4Zm32.5,88.3c22.5,0,37.3-13.2,37.3-38.1,0-24.6-14.9-37.9-37.3-37.9H343.5v76Z" transform="translate(-51 -2.2)"/></svg>