<svg xmlns="http://www.w3.org/2000/svg" viewBox="0 0 306.51 102.18"><defs><style>.a{fill:#fff;}</style></defs><title>qled</title><path class="a" d="M115,102.6c-17-5.7-30.3-20.3-34.2-37-6.3-28,12.6-56.4,41.4-61.8,7.5-1.4,9.2-1.4,16.8,0,17.2,3.3,30.4,13,37.8,27.8,7.4,15,7.3,30.6-.4,45.5l-4,7.7,8.9,9.1,8.9,9H169.7l-4-3.9-3.9-3.7-6.2,3.3c-9,4.8-15,6.3-25,6.3A38.28,38.28,0,0,1,115,102.6Zm30.4-15.3a42.07,42.07,0,0,0,4.9-2.7c.2-.2-6.1-7-14-14.8L121.8,55.3h20.7l9.5,9.5,9.5,9.5,2.4-5.2c1.9-4.2,2.4-6.9,2.4-14.9,0-8.5-.4-10.6-2.7-15.5a38.31,38.31,0,0,0-17.5-17.4c-5-2.4-7-2.8-15-2.8-11.2.1-18,2.8-25.3,9.9-16.9,17-13.9,43.3,6.3,56.7C120.7,90.8,136.5,91.8,145.4,87.3Z" transform="translate(-79.59 -2.75)"/><polygon class="a" points="114.31 51.55 114.31 1.65 122.01 1.65 129.81 1.65 129.81 44.05 129.81 86.25 147.91 85.95 166.01 85.65 166.01 93.55 166.01 101.35 140.21 101.35 114.31 101.35 114.31 51.55"/><polygon class="a" points="173.41 51.55 173.41 1.65 199.81 1.65 226.21 1.65 226.21 8.95 226.21 16.25 207.61 16.25 189.01 16.25 189.01 28.15 189.01 40.15 207.11 40.15 225.21 40.15 225.21 47.35 225.21 54.55 207.11 54.55 189.01 54.55 189.01 70.15 189.01 85.65 207.41 85.85 225.71 86.15 225.71 93.45 225.71 100.75 199.61 101.05 173.41 101.25 173.41 51.55"/><path class="a" d="M313.2,54.3V4.4H326c23.7.1,33.2,2.8,43.9,12.8,11.5,10.6,16.1,21.2,16.2,36.6.1,14.8-3.5,24.1-13.8,35.2-10.9,11.7-21.7,15-48.3,15H313.4Zm38.1,31.1c6.9-2.9,14.9-11.6,17.2-18.2,2-6,2.1-20.2.2-25.6a31.83,31.83,0,0,0-12.8-15.9c-5.6-3.6-10-5-20.8-6.1l-6.5-.7V89l8.6-.5C343,87.9,347.5,87,351.3,85.4Z" transform="translate(-79.59 -2.75)"/></svg>