<?xml version="1.0" encoding="utf-8"?>
<!-- Generator: Adobe Illustrator 23.0.1, SVG Export Plug-In . SVG Version: 6.00 Build 0)  -->
<svg version="1.1" id="Layer_1" xmlns="http://www.w3.org/2000/svg" xmlns:xlink="http://www.w3.org/1999/xlink" x="0px" y="0px"
	 viewBox="0 0 500 500" style="enable-background:new 0 0 500 500;" xml:space="preserve">
<style type="text/css">
	.st0{fill:#FFFFFF;}
</style>
<g>
	<path class="st0" d="M0,70v320h500V70H0z M20,90h460v280H20V90z M344.1,150l9.7,16.9L136.6,275.6l-10.6-18.8L90,310h65.9l-9.7-16.9
		l217.2-108.7l10.6,18.8L410,150H344.1z M108.1,410c-5.5,0.5-9.6,5.4-9.1,10.9c0.5,5.5,5.4,9.6,10.9,9.1h280c3.6,0,7-1.8,8.8-5
		c1.8-3.1,1.8-7,0-10.1c-1.8-3.1-5.2-5-8.8-5H110c-0.3,0-0.6,0-0.9,0C108.7,410,108.4,410,108.1,410L108.1,410z"/>
</g>
</svg>
