<svg xmlns="http://www.w3.org/2000/svg" viewBox="0 0 929.83 152.37"><defs><style>.a{fill:none;stroke:#fff;stroke-miterlimit:10;}.b{fill:#fff;}</style></defs><path class="a" d="M598.29-156.22V-271.39l19.55,56.45H676.2L629.91-179.2l16.53,56Z" transform="translate(59.16 274.36)"/><path class="b" d="M597.74-156.22V-271.39l-19.55,56.45H519.84l46.28,35.74-16.53,56Z" transform="translate(59.16 274.36)"/><path class="a" d="M405.29-156.22V-271.39l19.55,56.45H483.2L436.91-179.2l16.53,56Z" transform="translate(59.16 274.36)"/><path class="b" d="M404.74-156.22V-271.39l-19.55,56.45H326.84l46.28,35.74-16.53,56Z" transform="translate(59.16 274.36)"/><path class="a" d="M212.29-156.22V-271.39l19.55,56.45H290.2L243.91-179.2l16.53,56Z" transform="translate(59.16 274.36)"/><path class="b" d="M211.74-156.22V-271.39l-19.55,56.45H133.84l46.28,35.74-16.53,56Z" transform="translate(59.16 274.36)"/><path class="a" d="M19.29-156.22V-271.39l19.55,56.45H97.2L50.91-179.2l16.53,56Z" transform="translate(59.16 274.36)"/><path class="b" d="M18.74-156.22V-271.39L-.81-214.94H-59.16l46.28,35.74-16.53,56Z" transform="translate(59.16 274.36)"/><path class="a" d="M791.29-156.22V-271.39l19.55,56.45H869.2L822.91-179.2l16.53,56Z" transform="translate(59.16 274.36)"/><path class="b" d="M790.74-156.22V-271.39l-19.55,56.45H712.84l46.28,35.74-16.53,56Z" transform="translate(59.16 274.36)"/><path class="b" d="M676.66-215H618.3l-19.55-56.45L579.2-215l-58.36.15,46.29,35.59-16.53,56,48.15-33,48.15,33-16.53-56Z" transform="translate(59.16 274.36)"/><path class="b" d="M482.66-215H424.3l-19.55-56.45L385.2-215l-58.36.15,46.29,35.59-16.53,56,48.15-33,48.15,33-16.53-56Z" transform="translate(59.16 274.36)"/><path class="b" d="M289.66-215H231.3l-19.55-56.45L192.2-215l-58.36.15,46.29,35.59-16.53,56,48.15-33,48.15,33-16.53-56Z" transform="translate(59.16 274.36)"/><path class="b" d="M97.66-215H39.3L19.75-271.45.2-215l-58.36.15,46.29,35.59-16.53,56,48.15-33,48.15,33-16.53-56Z" transform="translate(59.16 274.36)"/></svg>