<svg xmlns="http://www.w3.org/2000/svg" viewBox="0 0 927.81 149.19"><defs><style>.a{fill:#fff;}</style></defs><path class="a" d="M869.66-215H811.3l-19.55-56.45L772.2-215l-58.36.15,46.29,35.59-16.53,56,48.15-33,48.15,33-16.53-56Z" transform="translate(58.16 272.45)"/><path class="a" d="M675.66-216H617.3l-19.55-56.45L578.2-216l-58.36.15,46.29,35.59-16.53,56,48.15-33,48.15,33-16.53-56Z" transform="translate(58.16 272.45)"/><path class="a" d="M482.66-215H424.3l-19.55-56.45L385.2-215l-58.36.15,46.29,35.59-16.53,56,48.15-33,48.15,33-16.53-56Z" transform="translate(58.16 272.45)"/><path class="a" d="M289.66-215H231.3l-19.55-56.45L192.2-215l-58.36.15,46.29,35.59-16.53,56,48.15-33,48.15,33-16.53-56Z" transform="translate(58.16 272.45)"/><path class="a" d="M97.66-215H39.3L19.75-271.45.2-215l-58.36.15,46.29,35.59-16.53,56,48.15-33,48.15,33-16.53-56Z" transform="translate(58.16 272.45)"/></svg>