<?xml version="1.0" encoding="utf-8"?>
<!-- Generator: Adobe Illustrator 23.0.1, SVG Export Plug-In . SVG Version: 6.00 Build 0)  -->
<svg version="1.1" id="CLOUD_-_CONNECTIONS" xmlns="http://www.w3.org/2000/svg" xmlns:xlink="http://www.w3.org/1999/xlink"
	 x="0px" y="0px" viewBox="0 0 500 500" style="enable-background:new 0 0 500 500;" xml:space="preserve">
<style type="text/css">
	.st0{display:none;}
	.st1{display:inline;fill:none;}
	.st2{display:inline;}
	.st3{fill:#FFFFFF;}
	.st4{fill:#00C100;}
	.st5{display:none;fill:#00C100;}
	.st6{display:inline;fill:#FF0606;}
	.st7{display:none;fill:#CCCCCC;}
	.st8{fill:#FF0606;}
</style>
<g id="Cloud_1_" class="st0">
	<path class="st1" d="M0,500V0h500v500H0z"/>
	<g class="st2">
		<path class="st3" d="M250,83.3c-48.6,0-89.6,26-116,62.8C60.1,147,0,207.2,0,281.2c0,74.5,60.9,135.4,135.4,135.4h250
			c63,0,114.6-51.6,114.6-114.6c0-62.3-50.4-112.9-112.4-114.1C369.5,128,315.7,83.3,250,83.3L250,83.3z M250,125
			c51.8,0,94.3,37.5,102.5,86.8l2.9,17.4h29.9c40.5,0,72.9,32.4,72.9,72.9S425.9,375,385.4,375h-250c-52,0-93.8-41.7-93.8-93.8
			s41.7-93.7,93.8-93.7c0.7,0,2.4,0.1,5.2,0.3l12.7,0.7l6.3-11.1C177.7,146.1,211.2,125,250,125L250,125z M208.3,342 M297.8,193.6"
			/>
	</g>
</g>
<g id="Check_-_Connected">
	<polyline class="st4" points="208.3,343 327.2,224.1 297.8,194.6 	"/>
	<polyline class="st4" points="297.8,194.6 208.3,284 160.6,236.3 131.1,265.7 208.3,343 	"/>
	<g id="Cloud_2_">
		<path class="st5" d="M0,500V0h500v500H0z"/>
		<g id="CLOUD_1_">
			<path class="st4" d="M250,83.3c-48.6,0-89.6,26-116,62.8C60.1,147,0,207.2,0,281.2c0,74.5,60.9,135.4,135.4,135.4h250
				c63,0,114.6-51.6,114.6-114.6c0-62.3-50.4-112.9-112.4-114.1C369.5,128,315.7,83.3,250,83.3L250,83.3z M250,125
				c51.8,0,94.3,37.5,102.5,86.8l2.9,17.4h29.9c40.5,0,72.9,32.4,72.9,72.9S425.9,375,385.4,375h-250c-52,0-93.8-41.7-93.8-93.8
				s41.7-93.7,93.8-93.7c0.7,0,2.4,0.1,5.2,0.3l12.7,0.7l6.3-11.1C177.7,146.1,211.2,125,250,125L250,125z M208.3,342 M297.8,193.6"
				/>
		</g>
	</g>
	<g id="CHECK">
		<polyline class="st4" points="208.3,343 327.2,224.1 297.8,194.6 		"/>
		<polyline class="st4" points="297.8,194.6 208.3,284 160.6,236.3 131.1,265.7 208.3,343 		"/>
	</g>
</g>
<g id="P2P" class="st0">
	<g id="Cloud_3_" class="st2">
		<g id="CLOUD">
			<path id="Cloud_4_" class="st4" d="M250,83.3c-48.6,0-89.6,26-116,62.8C60.1,147,0,207.2,0,281.2c0,74.5,60.9,135.4,135.4,135.4
				h250c63,0,114.6-51.6,114.6-114.6c0-62.3-50.4-112.9-112.4-114.1C369.5,128,315.7,83.3,250,83.3L250,83.3z M250,125
				c51.8,0,94.3,37.5,102.5,86.8l2.9,17.4h29.9c40.5,0,72.9,32.4,72.9,72.9S425.9,375,385.4,375h-250c-52,0-93.8-41.7-93.8-93.8
				s41.7-93.7,93.8-93.7c0.7,0,2.4,0.1,5.2,0.3l12.7,0.7l6.3-11.1C177.7,146.1,211.2,125,250,125L250,125z M208.3,342 M297.8,193.6"
				/>
		</g>
	</g>
	<g id="ARROW" class="st2">
		
			<rect x="189.4" y="293" transform="matrix(-1 -1.224647e-16 1.224647e-16 -1 413.8393 621.0277)" class="st4" width="35" height="35"/>
		
			<rect x="233.7" y="292.5" transform="matrix(-1 -1.224647e-16 1.224647e-16 -1 542.7282 620.0277)" class="st4" width="75.3" height="35"/>
		<polygon class="st4" points="359.5,309.8 305.4,264.5 305.4,355 		"/>
	</g>
	<g id="ARROW_1_" class="st2">
		<rect x="264.5" y="224.5" class="st4" width="35" height="35"/>
		<rect x="179.9" y="225" class="st4" width="75.3" height="35"/>
		<polygon class="st4" points="129.4,242.8 183.5,288 183.5,197.5 		"/>
	</g>
</g>
<g id="X_-_Disconnected" class="st0">
	
		<rect x="164.3" y="249.2" transform="matrix(0.7071 -0.7071 0.7071 0.7071 -117.6551 254.5726)" class="st6" width="168.4" height="40.3"/>
	
		<rect x="164.3" y="249.2" transform="matrix(-0.7071 -0.7071 0.7071 -0.7071 233.7329 635.4324)" class="st6" width="168.4" height="40.3"/>
	<g id="Cloud" class="st2">
		<path class="st7" d="M0,500V0h500v500H0z"/>
		<g>
			<path class="st8" d="M250,83.3c-48.6,0-89.6,26-116,62.8C60.1,147,0,207.2,0,281.2c0,74.5,60.9,135.4,135.4,135.4h250
				c63,0,114.6-51.6,114.6-114.6c0-62.3-50.4-112.9-112.4-114.1C369.5,128,315.7,83.3,250,83.3L250,83.3z M250,125
				c51.8,0,94.3,37.5,102.5,86.8l2.9,17.4h29.9c40.5,0,72.9,32.4,72.9,72.9S425.9,375,385.4,375h-250c-52,0-93.8-41.7-93.8-93.8
				s41.7-93.7,93.8-93.7c0.7,0,2.4,0.1,5.2,0.3l12.7,0.7l6.3-11.1C177.7,146.1,211.2,125,250,125L250,125z M208.3,342 M297.8,193.6"
				/>
		</g>
	</g>
</g>
</svg>
