<?xml version="1.0" encoding="utf-8"?>
<!-- Generator: Adobe Illustrator 23.0.1, SVG Export Plug-In . SVG Version: 6.00 Build 0)  -->
<svg version="1.1" id="Layer_1" xmlns="http://www.w3.org/2000/svg" xmlns:xlink="http://www.w3.org/1999/xlink" x="0px" y="0px"
	 viewBox="0 0 500 500" style="enable-background:new 0 0 500 500;" xml:space="preserve">
<style type="text/css">
	.st0{fill:none;}
	.st1{fill:#FFFFFF;}
	.st2{display:none;}
	.st3{display:inline;fill:#FFFFFF;}
	.st4{fill:#FF0606;}
	.st5{display:none;fill:#CCCCCC;}
</style>
<g id="Cloud_1_">
	<path class="st0" d="M0,500V0h500v500H0z"/>
	<g>
		<path class="st1" d="M250,83.3c-48.6,0-89.6,26-116,62.8C60.1,147,0,207.2,0,281.2c0,74.5,60.9,135.4,135.4,135.4h250
			c63,0,114.6-51.6,114.6-114.6c0-62.3-50.4-112.9-112.4-114.1C369.5,128,315.7,83.3,250,83.3L250,83.3z M250,125
			c51.8,0,94.3,37.5,102.5,86.8l2.9,17.4h29.9c40.5,0,72.9,32.4,72.9,72.9S425.9,375,385.4,375h-250c-52,0-93.8-41.7-93.8-93.8
			s41.7-93.7,93.8-93.7c0.7,0,2.4,0.1,5.2,0.3l12.7,0.7l6.3-11.1C177.7,146.1,211.2,125,250,125L250,125z M208.3,342 M297.8,193.6"
			/>
	</g>
</g>
<g id="Check" class="st2">
	<polyline class="st3" points="208.3,343 327.2,224.1 297.8,194.6 	"/>
	<polyline class="st3" points="297.8,194.6 208.3,284 160.6,236.3 131.1,265.7 208.3,343 	"/>
</g>
<g id="X">
	
		<rect x="164.3" y="249.2" transform="matrix(0.7071 -0.7071 0.7071 0.7071 -117.6551 254.5726)" class="st4" width="168.4" height="40.3"/>
	
		<rect x="164.3" y="249.2" transform="matrix(-0.7071 -0.7071 0.7071 -0.7071 233.7329 635.4324)" class="st4" width="168.4" height="40.3"/>
</g>
<g id="Cloud">
	<path class="st5" d="M0,500V0h500v500H0z"/>
	<g>
		<path class="st4" d="M250,83.3c-48.6,0-89.6,26-116,62.8C60.1,147,0,207.2,0,281.2c0,74.5,60.9,135.4,135.4,135.4h250
			c63,0,114.6-51.6,114.6-114.6c0-62.3-50.4-112.9-112.4-114.1C369.5,128,315.7,83.3,250,83.3L250,83.3z M250,125
			c51.8,0,94.3,37.5,102.5,86.8l2.9,17.4h29.9c40.5,0,72.9,32.4,72.9,72.9S425.9,375,385.4,375h-250c-52,0-93.8-41.7-93.8-93.8
			s41.7-93.7,93.8-93.7c0.7,0,2.4,0.1,5.2,0.3l12.7,0.7l6.3-11.1C177.7,146.1,211.2,125,250,125L250,125z M208.3,342 M297.8,193.6"
			/>
	</g>
</g>
</svg>
