<svg xmlns="http://www.w3.org/2000/svg" viewBox="0 0 169.2 51.3"><defs><style>.a{fill:#c80a0f;}</style></defs><title>DEMO</title><polygon class="a" points="6.4 6.3 23.1 6.3 23.1 0 0 0 0 22 6.4 22 6.4 6.3"/><polygon class="a" points="162.8 44.9 146.1 44.9 146.1 51.3 169.2 51.3 169.2 29.2 162.8 29.2 162.8 44.9"/><path d="M53.43,27.65c0,8.08-5.9,14.35-13.82,14.35H28.21V13.3h11.4C47.53,13.3,53.43,19.57,53.43,27.65Zm-5.41,0c0-5.29-3.45-8.94-8.41-8.94H33.87V36.59h5.74C44.57,36.59,48,32.94,48,27.65Z"/><path d="M75.2,36.59V42H57.45V13.3H75v5.41H63.11v6.11H74v5.33H63.11v6.44Z"/><path d="M107.26,42h-5.61V23.39L93.57,36.71h-.66L84.84,23.43V42H79.18V13.3H85l8.24,13.57,8.2-13.57h5.82Z"/><path d="M111.28,27.65a14.91,14.91,0,1,1,14.88,14.92A14.79,14.79,0,0,1,111.28,27.65Zm24.15,0a9.27,9.27,0,1,0-18.53,0,9.27,9.27,0,1,0,18.53,0Z"/></svg>