<svg xmlns="http://www.w3.org/2000/svg" xmlns:xlink="http://www.w3.org/1999/xlink" viewBox="0 0 798.91 401.49"><defs><style>.a,.d{fill:none;}.b{fill:#e6a514;}.c{clip-path:url(#a);}.d{stroke:#e6a514;stroke-linecap:round;stroke-linejoin:round;}.e{fill:#fff;}</style><clipPath id="a" transform="translate(-6893.48 -7255.51)"><rect class="a" x="7229.24" y="7354.65" width="400.71" height="283.36"/></clipPath></defs><title>fnac-credit</title><rect class="b" x="7375.49" y="7366.49" width="290.51" height="290.51" transform="translate(8148.01 7767.98) rotate(180)"/><rect class="b" width="290.51" height="290.51"/><rect x="38.74" y="38.11" width="697.86" height="326.29"/><g class="c"><path class="d" d="M7583.18,7532.1l8.51-11.07m13.77,1.91-13.77-1.91-5-13m0,0,13.75,2,5,12.94-8.53,11.15-13.75-2L7578,7519Zm51.52,32.06,8.51-11.06m13.77,1.91L7646.7,7529l-5-13m0,0,13.76,2,5,12.94-8.53,11.15-13.75-2-5.23-13.14Zm-31,20.1,8.51-11.06m13.76,1.91L7619.2,7525l-5-13m0,0,13.75,2,5,12.94-8.52,11.15-13.75-2-5.23-13.14Zm-27.51-3.95,8.51-11.06m13.76,1.91-13.76-1.91-5-13m0,0,13.75,2,5,12.94-8.52,11.15-13.75-2-5.23-13.14Zm3.49-24.09,8.51-11.06m13.77,1.91-13.77-1.91-5-13m0,0,13.76,2,5,12.94-8.53,11.15-13.75-2-5.23-13.14Zm-7,48.18,8.51-11.06m13.77,1.91-13.77-1.91-5-13m0,0,13.75,2,5,12.94-8.53,11.15-13.75-2-5.23-13.14Zm48,56.16,8.51-11.07m13.76,1.91-13.76-1.91-5-13m0,0,13.75,2,5,12.94-8.52,11.15-13.75-2-5.23-13.14Zm-31,20.1,8.51-11.06m13.77,1.91-13.77-1.91-5-13m0,0,13.76,2,5,13-8.53,11.14-13.75-2-5.23-13.14Zm3.5-24.09,8.51-11.06m13.76,1.91-13.76-1.91-5-13m0,0,13.75,2,5,12.94-8.52,11.15-13.75-2-5.23-13.14Zm24,28.08,8.51-11.06m13.77,1.91-13.77-1.91-5-13m0,0,13.75,2,5,12.95-8.52,11.14-13.76-2-5.23-13.14Zm-7,48.18,8.51-11.06m13.77,1.9-13.77-1.91-5-13m0,0,13.76,2,5,12.94-8.53,11.15-13.75-2-5.23-13.14Zm-31,20.1,8.52-11.06m13.76,1.91-13.76-1.91-5-13m0,0,13.75,2,5,12.94-8.52,11.14-13.76-2-5.22-13.14Zm-24-28,8.51-11.07m13.77,1.91-13.77-1.91-5-13m0,0,13.75,2,5,12.94-8.53,11.15-13.75-2-5.23-13.14Zm3.49-24.09,8.52-11.06m13.76,1.91-13.76-1.91-5-13m0,0,13.75,2,5,12.94-8.52,11.14-13.76-2-5.22-13.14Zm-7,48.18,8.51-11.06m13.77,1.91-13.77-1.91-5-13m0,0,13.76,2,5,12.95-8.53,11.14-13.75-2-5.23-13.14Zm48,56.16,8.51-11.07m13.77,1.91-13.77-1.91-5-13m0,0,13.76,2,5,12.94-8.53,11.15-13.75-2-5.23-13.15Zm-31,20.1,8.52-11.07m13.76,1.91-13.76-1.91-5-13m0,0,13.75,2,5,12.94-8.52,11.15-13.76-2-5.22-13.15Zm3.49-24.09,8.51-11.07m13.77,1.91-13.77-1.91-5-13m0,0,13.76,2,5,12.94-8.53,11.15-13.75-2-5.23-13.14Zm24,28.08,8.51-11.07m13.76,1.91-13.76-1.91-5-13m0,0,13.75,2,5,12.94-8.52,11.15-13.75-2-5.23-13.15Zm-7,48.18,8.51-11.07m13.77,1.91-13.77-1.91-5-13m0,0,13.75,2,5,12.94-8.52,11.15-13.76-2-5.23-13.15Zm-31,20.1,8.51-11.07m13.76,1.91-13.76-1.91-5-13m0,0,13.75,2,5,12.94-8.52,11.15-13.75-2-5.23-13.14Zm-24-28,8.51-11.07m13.77,1.91-13.77-1.91-5-13m0,0,13.76,2,5,12.94-8.53,11.15-13.75-2-5.23-13.15Zm3.5-24.09,8.51-11.07m13.76,1.91-13.76-1.91-5-13m0,0,13.75,2,5,12.94-8.52,11.15-13.75-2-5.23-13.15Zm-7,48.18,8.52-11.07m13.76,1.91-13.76-1.91-5-13m0,0,13.75,2,5,12.94-8.52,11.15-13.76-2-5.22-13.15Zm48,56.15,8.52-11.06m13.76,1.91-13.76-1.91-5-13m0,0,13.75,2,5,12.94-8.52,11.15-13.76-2-5.22-13.14Zm-31,20.1,8.51-11.06m13.76,1.91-13.76-1.91-5-13m0,0,13.75,2,5,12.94-8.53,11.15-13.75-2-5.23-13.14Zm3.49-24.08,8.51-11.07m13.77,1.91-13.77-1.91-5-13m0,0,13.75,2,5,12.94-8.52,11.15-13.76-2-5.23-13.15Zm24,28.07,8.51-11.06m13.77,1.91-13.77-1.91-5-13m0,0,13.76,2,5,12.94-8.53,11.15-13.75-2-5.23-13.14Zm-7,48.18,8.51-11.06m13.76,1.91-13.76-1.91-5-13m0,0,13.75,2,5,12.94-8.52,11.15-13.75-2-5.23-13.14Zm-31,20.1,8.51-11.06m13.77,1.91-13.77-1.91-5-13m0,0,13.76,2,5,12.94-8.53,11.15-13.75-2-5.23-13.14Z" transform="translate(-6893.48 -7255.51)"/></g><path class="e" d="M7068.41,7371.32v10h21.48v15.13h-21.48v21h-15.63v-61.22h37.55v15.13Z" transform="translate(-6893.48 -7255.51)"/><path class="e" d="M7113.64,7356.19v61.22H7098v-61.22Z" transform="translate(-6893.48 -7255.51)"/><path class="e" d="M7172.48,7356.19v61.22h-12l-21.56-30.79v30.79h-15.63v-61.22h12.14l21.56,30.78v-30.78Z" transform="translate(-6893.48 -7255.51)"/><path class="e" d="M7216.84,7408.57h-20.35l-2.62,8.84h-16.94l20.17-61.22h19l20.17,61.22h-16.85Zm-4-13.46-6.2-20.82-6.11,20.82Z" transform="translate(-6893.48 -7255.51)"/><path class="e" d="M7290,7356.19v61.22H7278l-21.56-30.79v30.79h-15.63v-61.22h12.13l21.57,30.78v-30.78Z" transform="translate(-6893.48 -7255.51)"/><path class="e" d="M7297.33,7386.8c0-18,13.36-31.92,31.87-31.92a30.73,30.73,0,0,1,26.46,14.52l-13.54,7.78c-2.35-4.37-7.24-7-12.92-7-9.86,0-16.33,6.82-16.33,16.62s6.47,16.61,16.33,16.61c5.68,0,10.57-2.62,12.92-7.08l13.54,7.87a30.64,30.64,0,0,1-26.46,14.52C7310.69,7418.72,7297.33,7404.81,7297.33,7386.8Z" transform="translate(-6893.48 -7255.51)"/><path class="e" d="M7400.53,7402.71v14.7h-39.29v-61.22h38.86v14.61h-23.23v8.48h21.05v14.43h-21.05v9Z" transform="translate(-6893.48 -7255.51)"/><path class="e" d="M7448.55,7402.28v15.13H7406v-12.07l21.57-34h-21.13v-15.13h41.39v12.07l-21.57,34Z" transform="translate(-6893.48 -7255.51)"/><path class="e" d="M7048,7431.19h17.11l11.88,42.15,12-42.15H7106l-19.73,61.22h-18.6Z" transform="translate(-6893.48 -7255.51)"/><path class="e" d="M7105.43,7461.8a32,32,0,1,1,32,31.92A31.66,31.66,0,0,1,7105.43,7461.8Zm48.55,0c0-9.8-7.16-16.62-16.51-16.62S7121,7452,7121,7461.8s7.16,16.61,16.5,16.61S7154,7471.59,7154,7461.8Z" transform="translate(-6893.48 -7255.51)"/><path class="e" d="M7171.18,7478.5l13.35-7.78c2.19,5.25,5.94,8.13,12.05,8.13,5.5,0,7.16-2,7.16-4.11,0-3.5-4-4.55-11.78-6.73-9.61-2.8-18.17-7.7-18.17-19.15s9.35-19,21.22-19c10.13,0,18.42,4.81,22.7,14l-13.09,7.7c-1.92-4.55-5.07-6.82-9.52-6.82-3.84,0-5.68,1.83-5.68,4,0,2.71,2.19,4.2,10.48,6.65,9.43,2.79,19.47,6.29,19.47,19.15,0,12.15-9.43,19.15-23.22,19.15C7182.88,7493.72,7174.41,7487.51,7171.18,7478.5Z" transform="translate(-6893.48 -7255.51)"/><path class="e" d="M7284.59,7477.71v14.7H7245.3v-61.22h38.85v14.61h-23.22v8.48h21v14.43h-21v9Z" transform="translate(-6893.48 -7255.51)"/><path class="e" d="M7341.25,7431.19v61.22H7329.2l-21.56-30.79v30.79H7292v-61.22h12.14l21.56,30.78v-30.78Z" transform="translate(-6893.48 -7255.51)"/><path class="e" d="M7346.14,7431.19h17.11l11.88,42.15,12-42.15h17.11l-19.73,61.22h-18.6Z" transform="translate(-6893.48 -7255.51)"/><path class="e" d="M7424.63,7431.19v61.22H7409v-61.22Z" transform="translate(-6893.48 -7255.51)"/><path class="e" d="M7473.53,7477.71v14.7h-39.29v-61.22h38.85v14.61h-23.23v8.48h21.05v14.43h-21.05v9Z" transform="translate(-6893.48 -7255.51)"/><path class="e" d="M7477.71,7478.5l13.36-7.78c2.19,5.25,5.94,8.13,12.05,8.13,5.5,0,7.16-2,7.16-4.11,0-3.5-4-4.55-11.78-6.73-9.61-2.8-18.17-7.7-18.17-19.15s9.35-19,21.22-19c10.13,0,18.42,4.81,22.7,14l-13.09,7.7c-1.93-4.55-5.07-6.82-9.52-6.82-3.84,0-5.68,1.83-5.68,4,0,2.71,2.19,4.2,10.48,6.65,9.43,2.79,19.47,6.29,19.47,19.15,0,12.15-9.43,19.15-23.22,19.15C7489.42,7493.72,7481,7487.51,7477.71,7478.5Z" transform="translate(-6893.48 -7255.51)"/><path class="b" d="M7078,7551.37c0,7.57-5.42,13.65-12.95,13.65h-10.64v-27.3h10.64C7072.61,7537.72,7078,7543.8,7078,7551.37Zm-3.47,0c0-5.77-3.86-10.22-9.48-10.22h-7v20.44h7C7070.7,7561.59,7074.56,7557.14,7074.56,7551.37Z" transform="translate(-6893.48 -7255.51)"/><path class="b" d="M7098.74,7561.59V7565h-16.3v-27.3h16.11v3.43h-12.49v8.39h11.51v3.39h-11.51v8.66Z" transform="translate(-6893.48 -7255.51)"/><path class="b" d="M7128.65,7565h-3.58v-21.33l-8.94,14.86h-.46l-8.94-14.82V7565h-3.62v-27.3h4.09l8.7,14.43,8.66-14.43h4.09Z" transform="translate(-6893.48 -7255.51)"/><path class="b" d="M7150.26,7558.9H7138l-2.22,6.12h-3.86l10.18-27.3h4.09l10.18,27.3h-3.86Zm-1.25-3.4-4.91-13.45-4.88,13.45Z" transform="translate(-6893.48 -7255.51)"/><path class="b" d="M7180.17,7537.72V7565h-2.92l-14-20.4V7565h-3.63v-27.3h2.92l14,20.36v-20.36Z" transform="translate(-6893.48 -7255.51)"/><path class="b" d="M7209.62,7551.37c0,7.57-5.42,13.65-12.95,13.65H7186v-27.3h10.65C7204.2,7537.72,7209.62,7543.8,7209.62,7551.37Zm-3.47,0c0-5.77-3.87-10.22-9.48-10.22h-7v20.44h7C7202.28,7561.59,7206.15,7557.14,7206.15,7551.37Z" transform="translate(-6893.48 -7255.51)"/><path class="b" d="M7230.33,7561.59V7565H7214v-27.3h16.11v3.43h-12.48v8.39h11.51v3.39h-11.51v8.66Z" transform="translate(-6893.48 -7255.51)"/><path class="b" d="M7251.11,7561.59V7565h-17.82v-3.16l13.18-20.71h-12.83v-3.43h17.16v3.12l-13.22,20.75Z" transform="translate(-6893.48 -7255.51)"/><path class="b" d="M7280.67,7558.9h-12.28l-2.22,6.12h-3.87l10.18-27.3h4.1l10.18,27.3h-3.86Zm-1.24-3.4-4.92-13.45-4.87,13.45Zm-5.58-20.43-3.94-5.15H7274l3.12,5.15Z" transform="translate(-6893.48 -7255.51)"/><path class="b" d="M7299.39,7555.86v-18.14H7303v18c0,3.78,2.26,6.28,6.63,6.28s6.63-2.5,6.63-6.28v-18h3.59v18.14c0,5.92-4.25,9.67-10.22,9.67S7299.39,7561.78,7299.39,7555.86Z" transform="translate(-6893.48 -7255.51)"/><path class="b" d="M7346,7537.72V7565h-2.93l-14-20.4V7565h-3.63v-27.3h2.93l14,20.36v-20.36Z" transform="translate(-6893.48 -7255.51)"/><path class="b" d="M7359,7537.72h3.9l7.92,22.78,7.88-22.78h3.94l-9.79,27.3h-4.1Z" transform="translate(-6893.48 -7255.51)"/><path class="b" d="M7402.12,7561.59V7565h-16.31v-27.3h16.11v3.43h-12.48v8.39H7401v3.39h-11.51v8.66Z" transform="translate(-6893.48 -7255.51)"/><path class="b" d="M7427.08,7537.72V7565h-2.93l-14-20.4V7565h-3.63v-27.3h2.93l14,20.36v-20.36Z" transform="translate(-6893.48 -7255.51)"/><path class="b" d="M7456.52,7551.37c0,7.57-5.42,13.65-13,13.65h-10.64v-27.3h10.64C7451.1,7537.72,7456.52,7543.8,7456.52,7551.37Zm-3.47,0c0-5.77-3.86-10.22-9.48-10.22h-7v20.44h7C7449.19,7561.59,7453.05,7557.14,7453.05,7551.37Z" transform="translate(-6893.48 -7255.51)"/><path class="b" d="M7477.23,7561.59V7565h-16.3v-27.3H7477v3.43h-12.49v8.39h11.51v3.39h-11.51v8.66Z" transform="translate(-6893.48 -7255.51)"/><path class="b" d="M7481.25,7555.86v-18.14h3.62v18c0,3.78,2.27,6.28,6.63,6.28s6.63-2.5,6.63-6.28v-18h3.59v18.14c0,5.92-4.25,9.67-10.22,9.67S7481.25,7561.78,7481.25,7555.86Z" transform="translate(-6893.48 -7255.51)"/><path class="b" d="M7517.32,7554.57h-6.43V7565h-3.63v-27.3h10.92a8.43,8.43,0,0,1,2.85,16.38l6.43,10.92h-4Zm-6.43-3.28h7.29a5.09,5.09,0,0,0,0-10.18h-7.29Z" transform="translate(-6893.48 -7255.51)"/></svg>