<?xml version="1.0" encoding="UTF-8"?><svg id="a" xmlns="http://www.w3.org/2000/svg" viewBox="0 0 511.7975 512.1789"><defs><style>.b{fill:#f41111;}</style></defs><path class="b" d="M510.87024,228.09637c-3.46277,17.27802-13.09674,30.57224-25.46118,42.8623-77.70779,77.24023-155.05518,154.84302-232.56754,232.28003-12.01923,12.00757-25.42206,11.87018-37.41321-.11371C146.30148,434.04004,77.27226,364.85702,7.96926,295.94931c-10.72949-10.66827-10.57201-27.37732,.15381-37.67505,21.83545-20.96384,42.894-42.73575,64.32493-64.12231,20.64867-20.6059,41.37302-41.13593,62.04672-61.71677,38.87543-38.70089,77.63004-77.52411,116.68161-116.04638,9.92831-9.7937,22.78577-13.98801,36.44131-15.76622,1.81992,.12535,3.6394,.3598,5.45898,.36032,62.4639,.01784,124.9278,.01682,187.39163-.00398,1.81854-.0006,3.63702-.24368,5.45551-.37372,.89929,.0098,1.79852,.01958,2.69818,.02939l1.25055,.11339c10.86395,2.19237,18.01099,8.43628,20.97345,19.2406-.0451,.32884-.12927,.65842-.12921,.98796,.01538,65.55032,.03528,131.10067,.06171,196.65099,.0014,3.48962,.05994,6.97922,.0918,10.46884ZM363.47201,97.99734c-29.18231-1.09264-48.98792,23.77353-49.27664,48.07688-.31277,26.32486,22.10757,51.73892,52.50766,49.73212,24.77087-1.63522,44.91455-21.28409,46.06317-47.10229,1.32129-29.70127-23.883-52.68326-49.29419-50.7067Z"/><path class="b" d="M510.87024,228.09637c-.03186-3.48962-.09039-6.97922-.0918-10.46884-.02643-65.55032-.04633-131.10067-.06171-196.65099-.00006-.32954,.08411-.65912,.12921-.98796,.32501,2.27504,.93231,4.54922,.93353,6.82373,.03479,64.48317,.01904,128.96634-.04578,193.4495-.00262,2.61182-.56293,5.22305-.86346,7.83456Z"/><path class="b" d="M485.92377,.6052c-1.81848,.13004-3.63696,.37312-5.45551,.37372-62.46384,.0208-124.92773,.02182-187.39163,.00398-1.81958-.00052-3.63907-.23497-5.45898-.36032,1.96695-.20778,3.93414-.59612,5.90152-.59717,62.16595-.03285,124.33194-.03369,186.49786-.00348,1.96899,.00096,3.93781,.38031,5.90674,.58327Z"/><path class="b" d="M489.8725,.74798l-1.25055-.11339,1.25055,.11339Z"/></svg>