<svg id="Layer_1" data-name="Layer 1" xmlns="http://www.w3.org/2000/svg" viewBox="0 0 1321.11 644.88"><defs><style>.cls-1{fill:#0f6192;}.cls-2{fill:#fff;}.cls-3{fill:#699bb9;}.cls-4{fill:#feffff;}.cls-5{fill:#13618f;}.cls-6{fill:#fefefe;}.cls-7{fill:#5e92b5;}.cls-8{fill:#1a82c4;}.cls-9{fill:#1d79b1;}.cls-10{fill:#1b7db8;}.cls-11{fill:#1f75aa;}.cls-12{fill:#e0e2e8;}.cls-13{fill:#d5d8e0;}.cls-14{fill:#cfd1da;}.cls-15{fill:#1e84c5;}.cls-16{fill:#dddfe6;}.cls-17{fill:#c0c4d0;}.cls-18{fill:#c7cbd5;}.cls-19{fill:#f9fafb;}.cls-20{fill:#1f83c1;}.cls-21{fill:#1b7fbe;}.cls-22{fill:#eef0f3;}.cls-23{fill:#6497ba;}.cls-24{fill:#1b82c4;}.cls-25{fill:#fefeff;}.cls-26{fill:#eff5fa;}.cls-27{fill:#dbe9f3;}.cls-28{fill:#c0d6e7;}.cls-29{fill:#dae5ee;}.cls-30{fill:#65a0c8;}.cls-31{fill:#9bc0d9;}.cls-32{fill:#c2d8e8;}.cls-33{fill:#5697c2;}.cls-34{fill:#7aadd0;}.cls-35{fill:#116293;}.cls-36{fill:#126393;}.cls-37{fill:#106192;}.cls-38{fill:#eff0f4;}.cls-39{fill:#1b80be;}.cls-40{fill:#fbfdfe;}.cls-41{fill:#f4f8fc;}.cls-42{fill:#f8fbfd;}.cls-43{fill:#ebf4f9;}.cls-44{fill:#f6fafc;}.cls-45{fill:#d9e9f5;}.cls-46{fill:#cee2f2;}.cls-47{fill:#bfdaed;}.cls-48{fill:#f2f6f9;}.cls-49{fill:#c5c9d4;}.cls-50{fill:#fafafc;}</style></defs><title>ImpactEnv-HD_Variante-A2-Reglette-Lettre-A</title><path class="cls-1" d="M593.28,245.75c1.66-2,3.85-2.46,6.38-2.39,5.12.14,10.24.06,15.36,0,1.58,0,3.21.28,4.86-.49.36-2.12.68-4.32,1.12-6.5,3-15.11,16.64-26,30.75-26.44,1.44,0,2.88-.07,4.31-.07h143c4,0,8,0,11.87,1.31,12.76,4.25,20.65,12.89,23.42,26.11.39,1.86.74,3.73,1.11,5.59,2,.91,4.08.48,6.12.48h425.25c11.84,0,23.28,1.74,34.09,6.65,21.66,9.83,36.45,26,44.17,48.57.37,1,.69,2.13,1,3.2a2.3,2.3,0,0,0,2.48,1.79,84.7,84.7,0,0,1,11.48.53,33.37,33.37,0,0,1,28,32.44c.2,15,0,30.08,0,45.12V456a33.55,33.55,0,0,1-33,33.66c-1.6,0-3.2,0-4.79.13a1.22,1.22,0,0,0-1.22,1.22h0c-.08,1.43-.12,2.87-.12,4.31,0,35.68-.06,71.35,0,107a77.88,77.88,0,0,1-17.39,50.2c-13.49,16.87-31.11,26.72-52.51,29.72a105.16,105.16,0,0,1-10.53.56c-1.6.06-3.2,0-4.8,0H151.26a99.24,99.24,0,0,1-17.22-1C107.19,676.92,87.6,662.16,75.18,638c-5.72-11.13-8.14-23.1-8.13-35.66q.11-111.11,0-222.22c0-18.88.17-37.76,0-56.63-.35-33.32,21.68-65.86,56.73-76.68a6.1,6.1,0,0,1,1-.17c1.69-.85,2.41.16,3,1.53.23,9.26-.76,18.47-.75,27.74,0,33.49,7.28,65.3,20.91,95.81a227,227,0,0,0,50.44,71.79c36.1,34.64,79,56.11,128.6,63.77a220.59,220.59,0,0,0,39.2,2.23,8.68,8.68,0,0,0,7.05-3.25c16.46-19.79,33.11-39.43,49.64-59.17,2.34-2.8,4.53-5.79,7.53-8,6.82-.7,10.14-6.5,14.33-10.56,28.88-28,55.22-58.14,78-91.31,3.54-5.14,6.92-10.37,10.47-15.5a19.9,19.9,0,0,0,3.58-8.8c3.6-7.07,9.52-12.35,14.46-18.37,12.57-15.29,25.48-30.3,38.18-45.49C590.48,247.73,591.34,246.11,593.28,245.75Z" transform="translate(-67.05 -38)"/><path class="cls-2" d="M593.28,245.75c-.79,1.8-2.25,3.09-3.47,4.54Q565.6,279.15,541.35,308c-1.33,1.58-2.52,3.27-3.77,4.91-3.32,6.69-8.74,11.79-13.44,17.38Q497,362.56,469.87,394.87c-11.79,14.07-23.69,28.1-35.43,42.23a16.78,16.78,0,0,1-3.36,2.58c-2.52,2-4.29,4.7-6.34,7.13q-25.68,30.45-51.26,61a6.15,6.15,0,0,0-.61.74A5.29,5.29,0,0,1,368,511c-7.84.09-15.68.12-23.5-.49A236.91,236.91,0,0,1,132.08,329.73a238.31,238.31,0,0,1-5.54-34,268.46,268.46,0,0,1-.63-33.56c.15-4.47.63-8.93,1-13.39.54-1.31.42-3,2-3.71A29.22,29.22,0,0,1,141,242.72c4.17.16,5.94-1.53,6.65-5.62a214.92,214.92,0,0,1,20.49-61.52,219.87,219.87,0,0,1,46.67-61.38c1.15-1.08,2.25-2.33,4.08-2.14,3.51,6.17,10.33,7,15.95,9.65,3.83,1.79,5.8,3.75,4.07,8a5.29,5.29,0,0,0-.22,3.31,2.07,2.07,0,0,0,1.46,1.72,2,2,0,0,0,2-1,8,8,0,0,0,1.17-2.09,22.9,22.9,0,0,1,9.7-10.94c1.69-1,3.59-2.23,3.52-4.26-.18-5.74,4.08-9.17,6.55-13.52a6.33,6.33,0,0,1,6.47-3.24A13,13,0,0,1,281.35,111c.34,3.48,1.77,4.4,5.06,3.48,6.59-1.85,8.16-.67,8.52,6.32.3,5.92,1.36,11.18,6.74,15,3.85,2.78,2.88,6.69-1.71,8.35-5.36,1.95-10.88,2.67-16.44.67a21.35,21.35,0,0,0-18.07,1.49,10.35,10.35,0,0,1,7.05-1.5c2.87.56,4.25,1.92,2.83,5.08-2,4.4-1.55,5.21,2.93,7,1.39.56,3.57.5,3.23,2.76-.28,1.83-2.11,2.26-3.68,2.59-2.51.53-4.93,1.37-7.4,2-1.35.36-2.94,1-3.84-.72s.33-2.69,2.2-4.46c-7.06,2.5-13.55,3.76-17.38,9.91a5.61,5.61,0,0,1-2.92,2.42c-7.19,2.31-11.75,8.11-17.19,12.75a6.38,6.38,0,0,0-2.5,5.09c-.09,5-2.9,8.3-6.92,10.78-1.64,1-3.16,2.18-4.74,3.28-7.06,4.93-11.46,11.05-9.47,20.25a13.26,13.26,0,0,1,0,5.25c-.39,2-1,3.87-3.32,4.15s-3.35-1.45-4.1-3.32a16.64,16.64,0,0,1-.89-6.14c0-2.87-1.11-4.58-4.24-4.52a11.93,11.93,0,0,1-4.21-.85,6.28,6.28,0,0,0-7.38,1.86c-2.25,2.45-4.93,3.11-8.25,2.59-7-1.1-17.21,4.75-19.93,11.23-1.67,4-3,8.08-4.55,12.12-1.75,4.65-.59,9.21,1.82,13.35,1.89,3.26,4.62,3.68,9.32,2a12.75,12.75,0,0,0,7-6.25,9.94,9.94,0,0,1,7-5.37c4.32-.8,6.11,1.19,4.78,5.4-1.16,3.67-3.08,7-4.59,10.56-1.35,3.16-.61,4.2,2.72,3.5a22.7,22.7,0,0,1,2.84-.46c6.19-.52,8.2,1.64,7.28,7.83-.45,3-1.15,6-1.32,9-.07,1.11,0,2.38,1,3s2.1-.27,3-.89,1.92-1.69,2.92-2.48c1.2-1,2.36-2.75,4.05-1.71s.93,2.85.66,4.42a6.09,6.09,0,0,0,0,2.33c2-7.35,4.69-8.78,11.51-5.7,3.06,1.38,6.22,1.45,9.4,1.28,7.51-.42,13.31,2.74,18,8.3,3,3.56,6.51,6,11.4,6.23,5.78.32,10.12,3.73,12.68,8.42s.28,9.47-2.24,13.35c.08,0-.69.56-.5.43,4.72-3,7.44-2,8.06,4,5.39-2.3,9.24-.11,12.08,4.49,1.31,2.14,3.34,2.83,5.59,3.27a20,20,0,0,1,12.66,8c2.22,3,5.41,4.94,8.28,7.23,6.46,5.16,6.71,10.06.45,15.33-4.27,3.59-7.21,7.32-6,13.47.75,3.78-.6,7.57-2.05,11.19-1.9,4.76-4.78,7.81-10.43,7.3-3.58-.32-6.36,1.87-9.17,3.69-1.48.95-1.8,2.44-1.79,4.18.08,10.19-5.58,18.1-10.69,26.15-1.83,2.87-5.48,2.09-9,2.79,2.4,2.74,3.45,5.62,2.31,8.92s-3.81,4.7-6.72,5.65c-3.66,1.19-3.31,4.27-3.82,7s1.53,3.62,3.31,4.66c26.91,15.66,55.7,25.51,86.78,28.68,7.85.81,15.65.48,23.47.78,3.26.13,4.68-1.13,4.58-4.46-.14-4.64,0-9.28-.11-13.92v-4.69c.85-6.5,1-13.08,2.06-19.56,1.8-10.59,3.4-21.22,6.63-31.51a240,240,0,0,1,24.21-56.53,232.24,232.24,0,0,1,26-36.13c.8-.83,1.64-1.62,2.44-2.44a237.75,237.75,0,0,1,39.39-35.26c2.21-1.58,4.48-3.06,6.78-4.49.48-.33,1-.64,1.48-1a6.61,6.61,0,0,1,.94-.52c.29-.16.61-.31.91-.46l.88-.43a7.74,7.74,0,0,0,1.27-.6c.23-.21.48-.4.72-.59a4,4,0,0,1,.76-.54,6.35,6.35,0,0,1,.81-.44c.26-.16.52-.32.77-.5,0,0,.36-.28.36-.29a5,5,0,0,1,.74-.56,4.23,4.23,0,0,1,.82-.42q.62-.3,1.23-.63a8,8,0,0,1,.83-.41l.83-.44c.27-.17.56-.33.84-.48l.86-.52c.28-.23.57-.43.85-.65s.6-.47.91-.69a8.78,8.78,0,0,1,1.06-.64c5.55-2.72,10.92-5.8,16.71-8,2.31-1,4.58-2.1,7-2.9l1.67-.72a8.77,8.77,0,0,1,1.12-.4c.75-.23,1.5-.48,2.24-.79a11.72,11.72,0,0,1,1.17-.44c2.29-.82,4.48-1.9,6.82-2.55.81-.27,1.62-.53,2.41-.85a10.28,10.28,0,0,1,1.21-.44c2.08-.67,4.23-1.07,6.3-1.78a24.55,24.55,0,0,1,3.88-1,8.65,8.65,0,0,0,3.86-1,12,12,0,0,1,4.71-1.22c3-.46,5.89-1.6,9-1.79a13.15,13.15,0,0,0,2.78-.54,9,9,0,0,1,1.45-.35c5-1.43,10.22-.44,15.15-2,4.7-1.23,9.39-2.09,14.06.12C593.89,243.73,593.58,244.74,593.28,245.75Z" transform="translate(-67.05 -38)"/><path class="cls-1" d="M218.9,112.35a169.35,169.35,0,0,0-18.7,18.51A215.65,215.65,0,0,0,150,230.72c-.66,3.13-1.08,6.3-1.69,9.43s-.63,3.27-3.54,3.36a94.08,94.08,0,0,0-16.1,2.31c-.94.2-1.35-.15-1.14-1.13a195.41,195.41,0,0,1,6.3-32.43A236.68,236.68,0,0,1,292,48.58a232.77,232.77,0,0,1,47.39-9.47,236.88,236.88,0,0,1,40.74-.44c40.49,3.13,78,15.58,111.77,38.14q77.14,51.45,100,141.55c1.69,6.65,2.74,13.46,4.07,20.2.09.47,0,1,.17,1.43.48,1.73-.72,2.23-1.94,2.72-4.82,0-9.64-.08-14.36,1.13-6,1.51-4.48-3.64-5.63-6.41a215.62,215.62,0,0,0-18.91-58.13c-2.81-6.26-6.72-11.93-9.65-18.13-.43-.75-.87-1.51-1.34-2.24-1.74-2.18-3.12-4.61-4.69-6.91a262.27,262.27,0,0,0-27.43-32.28c-5.11-5-10.79-9.36-16.09-14.14-1.26-1.11-2.74-2-3.93-3.15a13.33,13.33,0,0,0-2.4-1.89c-1.93-1.26-3.82-2.56-5.77-3.77-3.25-2.18-6.56-4.25-9.81-6.42-4.86-2.79-9.88-5.29-14.66-8.23-16.14-7-32.34-13.76-49.65-17.38a281.56,281.56,0,0,0-36-5c-19-1.47-37.54,1-56.13,4-1.74.38-3.49.76-5.26,1-9.64,2.76-19.25,5.61-28.71,9-2.78,1.1-5.5,2.35-8.35,3.25-1.87.71-3.46,2-5.26,2.8-4.95,2.36-9.77,5-14.74,7.32-.74.35-1.5.67-2.22,1.05a13.89,13.89,0,0,0-2.37,1.74,22.34,22.34,0,0,1-3.6,2l-2,1.21a13.16,13.16,0,0,0-2,1.38c-7,5.68-14.55,10.67-21.25,16.73A4.16,4.16,0,0,1,218.9,112.35Z" transform="translate(-67.05 -38)"/><path class="cls-3" d="M127.55,244.69l1.14,1.13c-.61,1-1.23,2-1.85,2.93a2.22,2.22,0,0,0-2.12-2.11Z" transform="translate(-67.05 -38)"/><path class="cls-2" d="M827.88,350V454.1a32.14,32.14,0,0,1-1.13,10,26.74,26.74,0,0,1-24.25,18.71c-1.11.05-2.24,0-3.35,0h-143a38,38,0,0,1-6.22-.32c-13.08-2.15-22.14-12.48-22.76-25.84,0-1.28,0-2.56,0-3.84V247a54.35,54.35,0,0,1,.44-7.65c1.76-12.42,13-22.33,25.56-22.39H799.51a34.67,34.67,0,0,1,8.56.8c10.83,2.74,19.48,12.85,19.77,24.32v4.8Z" transform="translate(-67.05 -38)"/><path class="cls-2" d="M985,396.74v-58a31.74,31.74,0,0,1,.86-8.07c3.18-12.47,14.43-19.72,24.26-19.87h66.2c3.36,0,6.72,0,9.93,1.23,10.17,3.75,16.33,10.86,18,21.65a37.9,37.9,0,0,1,.41,5.73V454.05a35,35,0,0,1-1,9,26.76,26.76,0,0,1-24.44,19.71c-1.12.06-2.24,0-3.36,0h-62.36a36.69,36.69,0,0,1-5.74-.31,26.8,26.8,0,0,1-22.81-26.73c.16-16.47,0-32.94,0-49.41Z" transform="translate(-67.05 -38)"/><path class="cls-2" d="M1261.48,396.11v-56.6a40,40,0,0,1,.71-8.1c2.41-11.39,13.13-20.61,25.07-20.63h67.16a25.82,25.82,0,0,1,19.66,8.49,26.7,26.7,0,0,1,7.11,17.38v117a51.6,51.6,0,0,1-.44,6.69,26.52,26.52,0,0,1-25.13,22.39c-.95.05-1.91,0-2.87,0h-62.84a32.63,32.63,0,0,1-9.48-1.19,26.82,26.82,0,0,1-18.85-23.64c-.12-1.75-.08-3.52-.08-5.27Q1261.47,424.42,1261.48,396.11Z" transform="translate(-67.05 -38)"/><path class="cls-2" d="M1123.24,396.45V337.93a26.3,26.3,0,0,1,5.94-17.32,25.44,25.44,0,0,1,19.48-9.82h67.15a27.38,27.38,0,0,1,7.59.89c11.38,3.32,18.73,12.73,19.49,25.13.08,1.27,0,2.55,0,3.83V452.89a47.7,47.7,0,0,1-.45,7.17,26.63,26.63,0,0,1-24.82,22.72h-67.16a28.1,28.1,0,0,1-9.4-1.56,26.41,26.41,0,0,1-17.84-24.84c-.11-11.19,0-22.38,0-33.58Q1123.22,409.65,1123.24,396.45Z" transform="translate(-67.05 -38)"/><path class="cls-2" d="M848.28,396.67V339.1a31.3,31.3,0,0,1,.82-8.57,25.3,25.3,0,0,1,22.74-18.33H939a27.2,27.2,0,0,1,8.49,1.33,25.06,25.06,0,0,1,17.22,22.6c.06,1.28,0,2.56,0,3.84V453.68a39,39,0,0,1-.54,7.63c-2.26,11.5-12.88,20-23.84,19.92H875.57a33.76,33.76,0,0,1-9.5-1c-10-2.93-17.48-12.3-17.78-22.6,0-1.44,0-2.88,0-4.32Z" transform="translate(-67.05 -38)"/><path class="cls-2" d="M158.68,591.47v38.22c0,4.34.17,4.2-4.2,4.18-2.4,0-4.79,0-7.19-.07a1.4,1.4,0,0,1-1.45-1.35,1.09,1.09,0,0,1,0-.18c0-1-.06-1.92-.06-2.87V573.74c0-1,0-1.92.06-2.87a1.4,1.4,0,0,1,1.27-1.52H161.7a1.46,1.46,0,0,1,1.43,1c.38,1.05.76,2.1,1.12,3.16l13.32,38.49c.41,1.2.85,2.4,1.28,3.6,1.35,0,1.37-1.07,1.65-1.88,4.58-13.12,9.1-26.27,13.75-39.36,2.16-6.1.8-5,7.25-5.14,3,0,6.08,0,9.12,0,2.13,0,2.34.31,2.42,2.59V629q0,1.68-.06,3.36a1.4,1.4,0,0,1-1.34,1.47h-.19c-3.36,0-6.72.05-10.07,0a1.46,1.46,0,0,1-1.44-1.48s0-.08,0-.12c0-1.28,0-2.56,0-3.84V592.2c-1.59.39-1.57,1.66-1.89,2.54q-6.34,17.32-12.58,34.68c-.33.91-.71,1.79-1,2.71a2.23,2.23,0,0,1-2.52,1.7c-8.44-.12-6.5,1.24-9.15-5.93-4.15-11.23-8.17-22.52-12.25-33.78A3.74,3.74,0,0,0,158.68,591.47Z" transform="translate(-67.05 -38)"/><path class="cls-2" d="M1017.24,591.49c-1.85,1.71-2,3.21-2.47,4.52q-6.27,17.09-12.42,34.19c-1.41,3.91-1.23,3.61-5,3.64h-1.92c-3.3-.05-3.34,0-4.44-3.09q-6.39-17.55-12.71-35.12c-.42-1.15-.85-2.3-1.56-4.23a9.27,9.27,0,0,0-.67,4.29v36c-.07,1.74-.5,2.26-2.37,2.16-3.45-.19-7,.75-10.35-.6-.85-3.14-.34-6.33-.36-9.5-.06-16.31,0-32.61,0-48.92v-3.36c.07-1.68.4-2.12,1.88-2.13,4.47-.05,8.95,0,13.43,0a2.3,2.3,0,0,1,2.38,1.88c.47,1.36,1,2.71,1.42,4.07q6.57,19,13.15,38c.18.61.39,1.22.63,1.81a1,1,0,0,0,.72.5.82.82,0,0,0,.68-.42c.72-1.95,1.39-3.91,2.07-5.87q6.24-17.87,12.47-35.74.56-1.57,1.14-3.15a1.49,1.49,0,0,1,1.45-1h14.38c1,0,1.34.73,1.38,1.6s0,1.92,0,2.88v55.64q0,1.44-.06,2.88c0,.68-.33,1.34-1,1.35q-5.28.09-10.54,0a1.2,1.2,0,0,1-1.17-1.23v0c-.06-1.27-.1-2.55-.1-3.83v-34Z" transform="translate(-67.05 -38)"/><path class="cls-2" d="M887.08,611c0-1.38.13-2.76.13-4.14V574.74c0-1.28,0-2.56.06-3.84a1.5,1.5,0,0,1,1.44-1.56h0a5,5,0,0,1,.95,0c3.34.13,6.69-.34,10,.31,1.39,3.2.62,6.58.64,9.86.09,16.3,0,32.61,0,48.91v3.84a1.42,1.42,0,0,1-1.28,1.56h-.15c-3.51.06-7,0-10.54,0a2.26,2.26,0,0,1-1.91-1.26c-.76-1.22-1.49-2.45-2.23-3.69Q874.09,612,864.08,595.13c-.65-1.09-1.35-2.16-2-3.2-1.29.22-1,1.17-1,1.86v37.83c-.07,1.79-.41,2.14-2.34,2.18q-4.08.09-8.15,0c-2.25,0-2.54-.35-2.62-2.43V571.49c.08-1.81.42-2.16,2.34-2.19h9.11a2.61,2.61,0,0,1,2.39,1.29c.77,1.22,1.49,2.46,2.23,3.7q10,16.65,19.94,33.3c.74,1.22,1.5,2.42,2.26,3.63Z" transform="translate(-67.05 -38)"/><path class="cls-2" d="M1131.83,611.36V574.53c0-1.28,0-2.56.08-3.84a1.19,1.19,0,0,1,1.1-1.28h0c3.52,0,7,0,10.54,0a1.28,1.28,0,0,1,1.2,1.27,27.44,27.44,0,0,1,.13,2.87v57.6c-.1,2.4-.34,2.68-2.83,2.72h-8.16a3.49,3.49,0,0,1-3.43-2.06c-1.71-3.07-3.59-6-5.39-9.07l-16.26-27.17c-.72-1.21-1.49-2.4-2.23-3.58-1.45.48-.95,1.61-1,2.42V629c0,5.08.35,4.91-5,4.89h-5.76c-1.92,0-2.26-.38-2.35-2.17v-57.6c0-5.11-.29-4.82,4.56-4.79,2.71,0,5.42.12,8.14.19,2.17,2,3.24,4.7,4.71,7.13,6.37,10.54,12.67,21.12,19,31.68.65,1.1,1.36,2.16,2,3.23Z" transform="translate(-67.05 -38)"/><path class="cls-2" d="M796.88,591.26V632.2c0,.89-.43,1.57-1.38,1.58H785.44c-1,0-1.36-.71-1.39-1.59,0-1.12,0-2.24,0-3.36V574.2c0-1.12,0-2.24.08-3.35a1.42,1.42,0,0,1,1.36-1.47h.17c3.66,0,7.33.11,11,.16,2.39,2.23,3.57,5.26,5.21,8C808,587.65,814,597.82,820.06,608c.65,1.08,1.36,2.12,2,3.16,1.58-.28,1.07-1.48,1.08-2.28v-37.4c.09-1.59.49-2,2-2.06,3,0,6.08,0,9.11,0,1.52,0,1.8.4,1.88,2.12v58q0,1.44-.06,2.88c0,.68-.31,1.35-1,1.36-3.67.07-7.34.08-11,.08a1.83,1.83,0,0,1-1.55-1c-.59-.94-1.18-1.89-1.76-2.85q-10.2-17.07-20.42-34.14A13.21,13.21,0,0,0,796.88,591.26Z" transform="translate(-67.05 -38)"/><path class="cls-2" d="M553.74,612V574.56c0-1.28,0-2.56.08-3.84a1.22,1.22,0,0,1,1.11-1.31h10.55c.67,0,1,.68,1.06,1.37.05,1,.07,1.92.07,2.87v58.08c-.08,1.66-.4,2.07-1.9,2.09-3.2.06-6.4,0-9.6,0a2.48,2.48,0,0,1-2.33-1.38c-.53-1-1.15-1.92-1.73-2.88l-20.43-34.17c-.65-1.1-1.34-2.17-2.08-3.21-.1-.15-.55-.11-.83-.09a.44.44,0,0,0-.3.29c0,1-.08,1.92-.08,2.87V628.4q0,1.92-.06,3.84a1.37,1.37,0,0,1-1.41,1.55H515.79a1.21,1.21,0,0,1-1.25-1.17h0c-.08-1-.09-1.91-.09-2.87V573.58c0-4.47-.06-4.29,4.1-4.28h4.32c5.36.06,4.17-.52,6.76,3.72,3.67,6,7.24,12.06,10.85,18.1s7,11.81,10.6,17.7A7.17,7.17,0,0,0,553.74,612Z" transform="translate(-67.05 -38)"/><path class="cls-2" d="M700.15,602.42c.25,1,1,1.22,1.75,1.58,4.93,2.47,7,6.74,7.52,12a30.57,30.57,0,0,1,.09,3.83c-.16,4.67.23,9.22,2.75,13.17-.67,1-1.52.85-2.25.86h-8.64c-2.38-.05-3.09-.58-3.82-2.82a15.33,15.33,0,0,1-.63-3.28c-.17-2.23-.23-4.47-.32-6.71v-2.88c-.31-6.53-3.71-10-10.34-10h-7.2c-2.61.06-2.89.34-2.91,3.16V628.6c0,5.75.52,5.27-5.07,5.18-2.48,0-5.06.65-7.46-.61-.71-2.34-.32-4.74-.33-7.11q-.06-25.42,0-50.87v-3.83c.06-1.67.39-2.09,1.91-2.1,8,0,16-.08,24,.11a23.6,23.6,0,0,1,11,3A17.52,17.52,0,0,1,708.73,592a13.92,13.92,0,0,1-5.1,7.89C702.48,600.86,701.28,601.63,700.15,602.42Z" transform="translate(-67.05 -38)"/><path class="cls-2" d="M773.64,602c0,4.14.16,8.27-.73,12.39a25.39,25.39,0,0,1-23.52,20.37,34.28,34.28,0,0,1-9.54-.47A25.44,25.44,0,0,1,720,611.83a114.35,114.35,0,0,1,0-20.1,25.39,25.39,0,0,1,22.93-23.22c9-.91,17.12,1.16,23.56,8,4.71,5,6.86,11,7.21,17.8C773.75,596.85,773.64,599.41,773.64,602Z" transform="translate(-67.05 -38)"/><path class="cls-2" d="M1197.83,633.8l5.92-17.6q7.2-21.32,14.39-42.64c.36-1.06.74-2.11,1.11-3.16a1.45,1.45,0,0,1,1.42-1.06h11a1.89,1.89,0,0,1,1.73,1.41c.29.75.52,1.51.78,2.27q9.51,28.37,19,56.74c.39,1.18.66,2.4,1,3.83-4.07.52-7.89.22-11.69.25a2.06,2.06,0,0,1-2.11-1.59c-1-3.2-2-6.41-3-9.59-.81-2.48-.87-2.55-3.31-2.56q-8.14-.06-16.29,0c-2,0-2.06.1-2.69,2-1,3.19-2,6.4-3,9.58-.66,2-.93,2.17-3.13,2.19C1205.48,633.89,1202,633.82,1197.83,633.8Z" transform="translate(-67.05 -38)"/><path class="cls-2" d="M326.08,633.55c-4,.63-8,.27-11.93.25-.93,0-1.4-.73-1.66-1.51-.77-2.26-1.46-4.56-2.22-6.83-2.06-6.23-.49-5.29-7.43-5.37-3.84-.05-7.68,0-11.51,0-4.37-.05-3.72.38-4.65,3.32-.87,2.74-1.69,5.49-2.59,8.22-.67,2-.9,2.21-3.09,2.25H270.78a2.21,2.21,0,0,1-.11-2.57q9.91-29.5,19.86-59c.21-.6.4-1.21.65-1.8a1.71,1.71,0,0,1,1.42-1.12,5,5,0,0,1,.95-.07c3.66.12,7.33-.36,11,.29,2,3,2.59,6.45,3.7,9.74q8.37,24.72,16.63,49.48A14.28,14.28,0,0,1,326.08,633.55Z" transform="translate(-67.05 -38)"/><path class="cls-2" d="M224.85,601.65V571.46c.08-1.77.44-2.07,2.37-2.17h24a26.86,26.86,0,0,1,8.92,1.58c9,3.16,13.87,10.46,13.49,20.32-.35,8.84-6.12,15.92-15,18.25a34.16,34.16,0,0,1-9.49,1.13c-3.19-.05-6.39,0-9.58,0a1.4,1.4,0,0,0-1.5,1.29v.19c-.06,1.27-.06,2.55-.06,3.83v15.81c0,1.59-.44,2.07-1.93,2.09-3.19.05-6.39,0-9.58,0a1.46,1.46,0,0,1-1.55-1.37v-.11c0-1.27-.06-2.55-.06-3.83Q224.85,615.07,224.85,601.65Z" transform="translate(-67.05 -38)"/><path class="cls-2" d="M912.21,601.51V574.64c0-1.28,0-2.56.07-3.83a1.49,1.49,0,0,1,1.49-1.49h.05c.8-.06,1.6,0,2.4,0h36c.8,0,1.36.39,1.38,1.07.1,2.55.12,5.11,0,7.66,0,.65-.69,1.07-1.37,1.12-1.11.07-2.23.06-3.35.06H930.21c-1.11,0-2.23,0-3.35.08a1.44,1.44,0,0,0-1.46,1.42s0,.1,0,.15v13a1.4,1.4,0,0,0,1.26,1.51h.2c1.44.06,2.88.06,4.32.07H947.5a1.61,1.61,0,0,1,1.81,1.4,1.29,1.29,0,0,1,0,.34v6.72c0,1.18-.74,1.7-1.85,1.7H931.16c-6.64,0-5.73-.8-5.8,5.91v9.12c0,3.24.06,3.28,3.13,3.31h23c1.85,0,2.28.44,2.32,2.23.06,2.08,0,4.16-.06,6.23a1.32,1.32,0,0,1-1.21,1.27,12,12,0,0,1-1.9.12h-35a12.32,12.32,0,0,1-1.92-.06,1.54,1.54,0,0,1-1.46-1.59c0-1.28,0-2.56,0-3.83Q912.21,614.94,912.21,601.51Z" transform="translate(-67.05 -38)"/><path class="cls-4" d="M463.71,601.52V574.65c0-1.28,0-2.55.06-3.83a1.44,1.44,0,0,1,1.4-1.48h.11c.8,0,1.6-.06,2.4-.06h33.58c.8,0,1.6,0,2.39.07s1.31.36,1.33,1.09c0,2.55.07,5.11,0,7.66,0,.67-.66,1-1.36,1.06-1.12,0-2.23.07-3.35.07H478.72a1.68,1.68,0,0,0-1.8,1.53,1.92,1.92,0,0,0,0,.24v10.55c0,3.76,0,3.77,3.59,3.81h14.87c6,0,5.52-.56,5.53,5.82,0,1,0,1.92-.09,2.87a1.52,1.52,0,0,1-1.56,1.48h0c-1.27.06-2.55.05-3.83.05H479.11c-1.7,0-2.14.38-2.15,1.84v14.87a1.4,1.4,0,0,0,1.24,1.54h.2c1.28,0,2.56.06,3.84.07h20.63c2,0,2.25.34,2.36,2.15v.48c-.16,8.44,1.31,7.15-6.9,7.21-9.75.07-19.51,0-29.26,0-1.28,0-2.56,0-3.83-.08a1.44,1.44,0,0,1-1.44-1.44c0-.05,0-.09,0-.13v-3.84Q463.71,615,463.71,601.52Z" transform="translate(-67.05 -38)"/><path class="cls-2" d="M1042.2,601.47V574.12c0-1.12,0-2.24.09-3.35a1.46,1.46,0,0,1,1.5-1.44h37.07a13.69,13.69,0,0,1,1.43.07,1.43,1.43,0,0,1,1.33,1.14,2.67,2.67,0,0,1,.08.48c-.12,9.55,1.64,8.15-7.35,8.25-5.6.05-11.2,0-16.8,0a24.69,24.69,0,0,0-2.87.11,1.45,1.45,0,0,0-1.45,1.47V594a1.41,1.41,0,0,0,1.33,1.48,1.2,1.2,0,0,0,.19,0c2.4.06,4.8.05,7.2.06h13c1.87,0,2.2.37,2.25,2.28s0,3.83,0,5.75-.4,2.12-2.37,2.14H1060c-5.29,0-4.78-.28-4.8,5v11.52a1.6,1.6,0,0,0,1.39,1.79h25.32a1.61,1.61,0,0,1,1.83,1.36,1.93,1.93,0,0,1,0,.34v1.44c-.14,7.56,1.16,6.67-6.51,6.7h-33.11c-1.1,0-1.83-.47-1.85-1.68s0-2.55,0-3.83Z" transform="translate(-67.05 -38)"/><path class="cls-2" d="M343.69,601.74v8.16a18.52,18.52,0,0,0,2.37,8.69,12.5,12.5,0,0,0,17,4.91h0a8.64,8.64,0,0,0,4.59-6.92c.51-4.55.94-4,4.71-4.05h6.71c1.27,0,1.83.58,1.78,1.72-.36,7.52-3.25,13.61-10.05,17.4a21.6,21.6,0,0,1-3.93,1.75,33.19,33.19,0,0,1-17.07.76A24.08,24.08,0,0,1,331.16,614a52.78,52.78,0,0,1-.57-7.64c0-5.43-.29-10.86.44-16.28,1.72-12.87,11.49-21.56,24.51-21.74a32,32,0,0,1,13.13,2.28c7.88,3.34,11.77,9.48,12.25,17.9.09,1.55-.33,2-1.89,2.08-3,.05-6.08,0-9.12,0a1.77,1.77,0,0,1-1.87-1.67v-.08c-.15-.94-.24-1.91-.46-2.84a9.35,9.35,0,0,0-2.85-4.89c-4.84-4.37-14.22-3.3-17.91,2.09a18.28,18.28,0,0,0-3.13,9.92c-.1,2.87,0,5.75,0,8.63Z" transform="translate(-67.05 -38)"/><path class="cls-2" d="M602.8,615.33Q609,594.69,615.23,574c1.66-5.53.68-4.66,6.42-4.74h6.71c1.24,0,1.69.66,1.32,1.87-.56,1.83-1.21,3.64-1.82,5.45l-17.73,52.22c-.21.61-.4,1.21-.62,1.82-1.13,3.16-1.13,3.18-4.33,3.22h-8.63a2.11,2.11,0,0,1-2.16-1.55l-.93-2.72q-9.47-27.92-18.92-55.84c-.45-1.33-.78-2.71-1.27-4.44H585.1c1.37,0,1.95.81,2.3,2q2,6.67,3.94,13.33,4.85,16.27,9.74,32.55C603.08,617.91,602.08,615.8,602.8,615.33Z" transform="translate(-67.05 -38)"/><path class="cls-4" d="M1182.38,606.72v22.52c0,1.12,0,2.24-.11,3.35a1.35,1.35,0,0,1-1.3,1.2q-5.25,0-10.52-.08c-.75,0-1.07-.63-1.09-1.32,0-1.27-.07-2.55-.07-3.83v-45c0-4.22,0-4.24-4.16-4.28s-8,0-12,0c-1.59,0-2-.46-2.07-1.95,0-2.08,0-4.16,0-6.23,0-1.19.69-1.7,1.82-1.72H1196c1.12,0,2.24,0,3.35.08a1.48,1.48,0,0,1,1.45,1.51v0a3.69,3.69,0,0,1,0,.47c-.14,9.09,1.48,7.72-7.28,7.84-3,0-6.07,0-9.1,0-1.51,0-2,.52-2,2-.06,4.31,0,8.62,0,12.93C1182.37,598.42,1182.38,602.57,1182.38,606.72Z" transform="translate(-67.05 -38)"/><path class="cls-4" d="M402.4,606.2V581.32c-.08-1.53-.5-2-2-2H390.33c-7,0-6,.58-6.13-6.15v-1.92a1.65,1.65,0,0,1,1.4-1.85h46.78a1.41,1.41,0,0,1,1.53,1.28V578a1.2,1.2,0,0,1-1.24,1.16h0c-1.76.07-3.51.1-5.27.11h-8.62c-3,0-3.12.13-3.13,3.35V632a1.61,1.61,0,0,1-1.35,1.83,1.3,1.3,0,0,1-.34,0h-9.59a1.61,1.61,0,0,1-1.81-1.4,1.22,1.22,0,0,1,0-.33v-5.27Z" transform="translate(-67.05 -38)"/><path class="cls-4" d="M1260.69,601V574.12c0-1.12,0-2.24.08-3.35a1.44,1.44,0,0,1,1.45-1.45.48.48,0,0,1,.12,0c3.19,0,6.39-.05,9.58,0,1.51,0,1.83.43,1.89,2.12v48.87c0,3.75.12,3.7,3.73,3.69H1301c.88,0,1.58.42,1.6,1.38q.06,3.6,0,7.18a1.22,1.22,0,0,1-1.26,1.17c-.8.07-1.59.1-2.39.1h-36.42a1.67,1.67,0,0,1-1.81-1.5v-4.08Z" transform="translate(-67.05 -38)"/><path class="cls-5" d="M431.08,439.68c1-1.4,2-2.85,3.14-4.18q50.63-60.3,101.33-120.62c.61-.72,1.35-1.32,2-2,.53,3.66-1.47,6.59-3.31,9.32-1.52,2.23-2.87,4.58-4.42,6.78-4.74,6.71-9.42,13.54-14.34,20.22-3.78,5.08-7.4,10.3-11.35,15.3-2.25,2.88-4.59,5.67-6.9,8.51l-12,14.78a5.42,5.42,0,0,1-.63.72c-4.92,4.34-9,9.49-13.28,14.39-7.8,8.89-16.33,17-24.62,25.44a19.84,19.84,0,0,1-4.71,4,6.6,6.6,0,0,0-2.5,2.86c-1.25,2.2-3.55,3.16-5.63,4.27C433.08,439.89,432,439.63,431.08,439.68Z" transform="translate(-67.05 -38)"/><path class="cls-6" d="M637.43,601.7V574.38c0-1.28,0-2.56.11-3.83a1.18,1.18,0,0,1,1.19-1.17h.06c3.33,0,6.69-.07,10.06,0a1.48,1.48,0,0,1,1.57,1.37v.08c.07,1,.1,1.91.1,2.87v58c-.1,1.76-.51,2.29-2.36,2.18-3.45-.18-7,.74-10.34-.59-.85-3.13-.32-6.33-.36-9.49C637.37,616.4,637.43,609.05,637.43,601.7Z" transform="translate(-67.05 -38)"/><path class="cls-2" d="M132.7,601.9v26.88c0,1.27,0,2.55-.11,3.83a1.23,1.23,0,0,1-1.25,1.17,13.71,13.71,0,0,1-1.92.08c-3-.18-6,.45-9-.38-1.25-2.91-.53-6-.54-8.94-.09-16.64,0-33.28,0-49.91,0-1.28,0-2.56.07-3.84a1.38,1.38,0,0,1,1.32-1.45h9.8c1.22,0,1.63.79,1.65,1.87V575Z" transform="translate(-67.05 -38)"/><path class="cls-7" d="M602.8,615.33a3.71,3.71,0,0,1-.41,2.57c-.18.35-.68.87-.85.81-.68-.24-.6-.89-.5-1.49Z" transform="translate(-67.05 -38)"/><path class="cls-8" d="M540.69,151.73l4.52,6.61c-.79,1.35-.27,1.94,1.15,2,2.45,4.34,5,8.66,7.33,13,.89,1.63,2,3.2,2.15,5.17-1,2.22-3,2.07-5,2a10.43,10.43,0,0,1-5.47-1.65c-8.15-5.89-16.17-2.86-24.09.33-6,2.41-8.44,8.31-5.92,13.14.76,1.46,1.81,3.26,3.39,3.06,5.85-.76,11.42,3.07,17.43.58,3.62-1.49,6,.23,6.25,4.18a43,43,0,0,1-2.21,16.53c-1.33,3.79-4.24,5.43-8.27,5.06-11.64-1.07-23.28-2.08-33.9-7.68-2.81-1.49-5-1.15-6.52,2.26-3.16,7.23-8.58,9-15.22,4.1a63.4,63.4,0,0,0-17.23-9.15c-4-1.35-5.5-4.44-5.12-8.71.6-6.61-.84-7.7-7.29-6.09a25.59,25.59,0,0,1-10,.81,30.3,30.3,0,0,0-21.13,4.49c-3.82,2.45-7.8,3.46-12.28,1.53-3.32-1.43-6.25-.48-8.55,2.35a14.94,14.94,0,0,1-4.12,4,13.82,13.82,0,0,0-7.33,10.65c-.63,4.32-3.3,7.24-6.78,9.43-10.53,6.64-14.45,18-20.23,28-1.11,1.94-.26,4,.49,6a21.14,21.14,0,0,1-.66,17.73c-2.64,5.31-1,13.9,3.32,18a38.33,38.33,0,0,1,8.13,11.74c3.2,6.84,8.74,11.73,15.24,15.49a9.33,9.33,0,0,0,7,.79c3-.65,5.79-1.88,8.82-2.29,1.83-.06,3.68-.28,5.35.75a1.35,1.35,0,0,1,.47,1.37c-.91,1.31-2.46,1.89-3.42,3.27-17.33,25.08-31.23,51.76-38.26,81.62-4.08,17.37-6.45,34.91-2.06,52.66,1.14,4.63,2.28,9.24,5.18,13.89.89-2.36.33-4.32,1-6.06.32-.73.74-1.33,1.66-1.27.08,5.76.18,11.51.22,17.27,0,1.77-.37,2.14-2.33,2.21a192.68,192.68,0,0,1-22.54-.56,215.25,215.25,0,0,1-94.39-30.88c-.95-.58-1.85-1.23-2.76-1.84,1.52-2.48,1.52-2.48,1.44-6.63a2.49,2.49,0,0,1,1.31-2.39c1.14-.58,2.38-.94,3.55-1.44a14.07,14.07,0,0,0,4.52-2.67c2.24-2.16,3.12-6.32,0-8.87-.75-.6-1.51-1.19-2.31-1.72a1.1,1.1,0,0,1-.6-1.15c.13-.81.82-.92,1.45-.88,1.59.09,3.18.26,4.77.4a5.42,5.42,0,0,0,5.29-2.56,83,83,0,0,0,10-21.16,6.26,6.26,0,0,0-.39-3.7c-.76-2.61-.29-4,2-5.29s4.81-2.53,7.27-3.67c1.35-.63,2.82-.32,4.26-.22,4.34.33,5.19-.18,7.09-4.09,2.87-5.92,4.18-12.07,2.62-18.61a3.54,3.54,0,0,1,1.57-4.12c2.75-1.94,4.58-4.83,7.58-6.65,2.21-1.34,2.54-4.86,1.31-7.41a10.86,10.86,0,0,0-3.83-4.21,46.91,46.91,0,0,1-9.92-9,16.68,16.68,0,0,0-11.56-6.24c-3.17-.27-5-1.45-5.93-4.44a6.31,6.31,0,0,0-2.07-2.56c-1.82-1.52-3.88-2.2-6.23-1.2a23,23,0,0,1-3.12,1.19,2.22,2.22,0,0,1-1.79-.28c-.54-.53.1-1,.52-1.51,1.49-1.67,1.63-2.28.85-3.17-1.32-1.51-2.69-1.92-4.22-1s-3.12,2.2-4.71,3.26a.85.85,0,0,1-1.18-.28.22.22,0,0,1-.05-.08,1,1,0,0,1-.07-.88,6.75,6.75,0,0,1,1.17-1.49c.81-.77,1.68-1.47,2.54-2.19a3.57,3.57,0,0,0,1.51-3.77,5.21,5.21,0,0,1,.73-3.67,3.66,3.66,0,0,0-.48-4c-3.16-4.25-6.89-7.61-12.6-7.65a13.13,13.13,0,0,1-9-3.92c-1.17-1.09-2.19-2.33-3.28-3.5-4.47-4.83-9.8-7.61-16.57-7.13-1.59.12-3.19.07-4.79.05-2.66,0-4.92-1.17-7.17-2.45-2.57-1.48-3.36-1.27-5.5.7-1.5,1.38-2.53,2.87-1.83,5.06a3.83,3.83,0,0,1,.16,1.84,1.61,1.61,0,0,1-1.61,1.47c-1,0-1.38-.72-1.41-1.57a16.6,16.6,0,0,1,.48-5.7,10.88,10.88,0,0,0,.33-1.88.48.48,0,0,0-.23-.4c-.27-.1-.62-.24-.84-.14a2.68,2.68,0,0,0-1.14.82c-2,3-5.43,4.32-7.88,6.75-2.74-2.32-2.8-5.11-2.23-8.07s1.15-5.64,1.61-8.47c.68-4.23-.58-5.65-4.81-5.4a34.5,34.5,0,0,0-3.76.69c-1.42.23-2.83.5-4.26.59-1.81.1-2.41-.68-1.72-2.33,1.49-3.53,3.08-7,4.63-10.53.65-1.46,1.35-2.9,1.92-4.4.91-2.37.14-3.43-2.27-3.2-3.61.33-6.44,1.87-7.86,5.37-2.42,6-7.61,7.38-13.19,7.9a5.36,5.36,0,0,1-5.34-3.46c-2.5-5.53-3.94-11.17-.94-17a42.49,42.49,0,0,0,3.15-8.54,11.5,11.5,0,0,1,6.33-8,23.25,23.25,0,0,0,4.74-3.24c3.36-2.72,7-3.73,11.16-2,2.58,1.09,4.65.41,6.27-1.87a10.74,10.74,0,0,1,1.92-2.12,5.54,5.54,0,0,1,5.4-1.16,18.27,18.27,0,0,0,8,1.19c1.9-.25,3.23,1.34,3.32,3.33a26.74,26.74,0,0,1-.15,3.35c-.2,2.47.62,4.75,1.39,7a2,2,0,0,0,2.57,1.17,2,2,0,0,0,.94-.72,6.48,6.48,0,0,0,1.36-5c-.15-2.71-.41-5.42-.75-8.12a11.63,11.63,0,0,1,3.41-10,62.8,62.8,0,0,1,10.26-8.64c1.33-.88,2.68-1.75,3.93-2.73a9.75,9.75,0,0,0,4.1-8.73,9.56,9.56,0,0,1,0-2.39c.11-.59.41-1.42.86-1.62,3.17-1.45,5.16-4.24,7.53-6.57a25.2,25.2,0,0,1,9.89-6.54,9,9,0,0,0,6.18-5.58,3.05,3.05,0,0,1,1.55-1.74c4.89-2.36,9.66-5,15.13-5.88a8.53,8.53,0,0,1,1.89-.09c.25,0,.52.34.69.58a.83.83,0,0,1-.21,1.15l-.12.07c-1.25.69-2.57,1.24-3.82,1.93a1,1,0,0,0-.4,1.26c.15.48.56,1,1,.83,3.86-1.54,7.94-2.27,11.93-3.34a2.13,2.13,0,0,0,.74-.59.89.89,0,0,0,.18-.41c.11-.38,0-.68-.38-.74-.78-.12-1.57-.2-2.36-.3a7,7,0,0,1-5-3.38c-1.25-1.87-1.2-2.88.31-4.71.79-1,2.14-1.74,1.51-3.21-.73-1.69-2.42-1.23-3.81-1.27-2-.06-3.71.82-5.47,1.6a18.53,18.53,0,0,1-2.66,1.08,1.54,1.54,0,0,1-1.24-.43.83.83,0,0,1,.14-1.16l.1-.07c6.42-3.52,12.93-6.44,20.49-3.56,6,2.28,12,1.57,17.85-.38,3.25-1.08,3.76-3.18,1.51-5.78a6.27,6.27,0,0,0-2.75-1.86A5.1,5.1,0,0,1,296,132a32,32,0,0,1-2.29-10.25,42.83,42.83,0,0,0-.78-6.17c-.24-1.3-1.25-1.79-2.57-1.3-1.64.6-3.23,1.38-4.86,2a3.83,3.83,0,0,1-5.52-3.68,9.22,9.22,0,0,1,.38-1.88,4.93,4.93,0,0,0-1.33-4.4,15.79,15.79,0,0,0-8.92-5.29c-2.95-.66-4.51,0-6,2.64s-2.69,5.1-5,6.94a2.44,2.44,0,0,0-.79,2.16c0,.64.08,1.28.14,1.92a6.57,6.57,0,0,1-3.65,6.72c-1.11.64-2.19,1.32-3.25,2a17.17,17.17,0,0,0-7,8.89c-.2.61-.39,1.22-.64,1.81-.84,1.91-2.49,3-4,2.69-1.82-.37-2.94-2.12-2.77-4.44a12.34,12.34,0,0,1,.47-2.33c.21-.77.53-1.51.77-2.27,1-3,.93-3-2-4a52.36,52.36,0,0,1-5.25-2.33,17.57,17.57,0,0,0-6.28-2.24c-2.37-.21-3.72-1.67-4.64-3.66-.48-1-.82-2.07-1.22-3.11a226.77,226.77,0,0,1,21.09-16.74c1-.73,1.94-1.59,2.9-2.39.94.53,1.69-.14,2.5-.39.41-.2.81-.42,1.2-.62a.4.4,0,0,0,.2-.53l-.06-.09a.56.56,0,0,1,.05-.7l3.82-1.64c.67-.49,1.39-.89,2.09-1.33.84-.17,1.46-.83,2.29-1a14.65,14.65,0,0,1,4.69-.69c5.11,0,8.25-2.71,10-7.34l5.15-2.78c1,.88,2.11.51,3.19.46,3.94-.17,6.63,1.7,8.44,5.06a49.7,49.7,0,0,0,4.62,7.75c.8,1,1.5,2.17.48,3.44a2.76,2.76,0,0,1-3.45.81,8.12,8.12,0,0,0-7.31.32c-2.07.64-3.9-.66-5.89-.78,1.37.18,2.63.77,4,1.08,2.69,1.18,3.78,3.81,5.39,6a11.73,11.73,0,0,0,4.42,3.88c-.59-6.51,3.62-2.55,5.92-2.59.62-6.66.62-6.66,9.67-3.08-4.81-4.82-4.5-12.2-10-17.14-3.51-3.18-8.07-4.79-11-8.53,9.42-3.66,19.21-6.17,28.84-9.18,2,1.15,4.3,1.5,6.78,3.14-1.24-1.64-2.47-2.47-2.2-4.06l7-1.13c5-.79,10.05-1.41,15.06-2.13a106,106,0,0,1,12.84-.79,19.94,19.94,0,0,0,3.77-.47A30.62,30.62,0,0,1,366.86,58a47,47,0,0,0,7.58.61c8,0,15.78,1.35,23.63,2.55,7.4,1.13,14.61,3,21.84,4.8a170.93,170.93,0,0,1,23,7.78c6,2.47,11.9,5.21,17.84,7.84a44.54,44.54,0,0,1-16.94,12.11c-5.66,2.38-7.19,7.18-4,11.48,1.68,2.24,3.79,3.22,6.69,2.39,7.9-2.29,10.57-.55,12.34,7.83a3.62,3.62,0,0,1-1.24,2.53c-5.14,2.87-5.48,2.8-8.62-2.13-1.9,2-1.15,4.2-.84,6.32.54,3.64-1,6-4.51,6.68-5.32,1-9.57,4-13,7.64-5.84,6.18-13,9.7-20.91,12a2.76,2.76,0,0,0-2.19,1.47c5.22,2.22,6.91,6.42,6.56,11.91-.39,6.23-3.06,9-9.4,8.79-3.5-.14-7-.7-10.47-1.15-4.42-.56-5.87.71-6,5.17A81.23,81.23,0,0,1,386.64,185c-1.12,6.6,5.88,13,12.39,11.2,2.46-.69,4.93-1.29,7.41-1.87,4-.92,7-3.15,8.08-7.32a16.82,16.82,0,0,1,7.81-10.48c1.38-.83,2.84-1.76,3.4-3.29,1.66-4.5,4.94-5.9,9.43-5.52,3.36.28,6.27-1.17,9-2.91,3.34-2.15,6.24-1.66,8.25,1.57a27.26,27.26,0,0,0,13.67,11.35c3.26,1.27,5.34,4.29,7.12,8,.09-2.53.37-4.41,2.71-5.64a53.59,53.59,0,0,1-15.22-11.87,14.21,14.21,0,0,1-2.86-3.81,3.2,3.2,0,0,1,.2-3.61,3.28,3.28,0,0,1,3.47-1,14.15,14.15,0,0,1,4.75,2.22c4.51,3,8.79,6.34,13.83,8.55,3,1.29,4.43,4.09,4.91,7.26.64,4.16,2.62,7.11,6.84,8.35,2.09.62,3.34,1.84,2.26,4.3-.44,1-.81,2.51.88,2.55,1.38,0,1.41-1.49,1.42-2.61a10,10,0,0,0-.94-3.2c-1.55-4.41-.29-7.11,4.2-8.32a36.1,36.1,0,0,1,9-1.41c2.69,0,3.52-.93,3.14-3.8-.93-7.06,2.23-12.77,7-17.6,3.41-3.46,6.57-3.08,9.78.69.52.61.94,1.29,1.45,1.91.71.88,1.49,1.92,2.71,1.7,1.92-.33.53-1.73.65-2.66C533.94,153.36,537.86,153.2,540.69,151.73Z" transform="translate(-67.05 -38)"/><path class="cls-8" d="M211.37,428.68c-1.85.06-2.47-1.23-3.31-2.08a216.27,216.27,0,0,1-59-113,192.13,192.13,0,0,1-3.37-36.21,24.84,24.84,0,0,1,.18-3.34c.05-.37.51-1,.83-1a14.89,14.89,0,0,0,5-1.53c2.33-1.11,4.36-.46,6.16,1.17.82.75,1.52,1.63,2.27,2.46,3.23,3.53,7.06,5.45,12,4.44,1.52-.31,2.28.35,3,1.66,1.36,2.52,3.13,4.78,4.14,7.53s3.39,4.54,6,6a1.76,1.76,0,0,1,.85,2.77,6.37,6.37,0,0,1-1.55,2.38c-2.46,1.83-2.37,4.76-3.39,7.2a3.17,3.17,0,0,0,.26,2.32c2,5.75.52,11-2.23,16.1a58.07,58.07,0,0,1-3.74,5.56c-1.28,1.83-2.64,3.61-3.93,5.43a15.66,15.66,0,0,0-2.15,4.79c-.34,1.16-.35,2.3.81,3,2,1.17,1.86,2.68,1,4.48a28.43,28.43,0,0,0-1.53,4c-.71,2.41-.1,4.56,2.11,5.82,3.4,1.94,5.27,5,6.78,8.41a23.63,23.63,0,0,0,6.12,8.48,9,9,0,0,1,2.6,3.37c1.61,3.86,4.75,5.88,8.67,6.86.46.12.94.15,1.41.26,7,1.67,11.05,6.06,11.92,13.23a53.63,53.63,0,0,1,.21,7.17,33.32,33.32,0,0,0,.74,8.57,3.36,3.36,0,0,1,.2.94C210.31,420.2,211,424.39,211.37,428.68Z" transform="translate(-67.05 -38)"/><path class="cls-9" d="M377.2,414.7c-.87,3.71-1.82,7.4-2.59,11.13-1.24,5.91-2.6,11.81-3.32,17.82a19,19,0,0,1-.75,2.75c-3.63,0-3.91-2.74-4.05-5.28a126,126,0,0,1,5.06-43.55,206.89,206.89,0,0,1,30.91-61.86,60.73,60.73,0,0,0,4-6c.2-.42.43-.84.66-1.24a11.91,11.91,0,0,1,1.11-1.71,4.17,4.17,0,0,1,1.53-1.2c1-.43,2-.77,3-1.12s2-.73,3.07-1.08c1.32-.31,2.66-1,3.9.22,0,2.49-1.79,4-3.14,5.71-13.35,16.62-24.63,34.5-32,54.54C380.91,393.79,376.52,403.69,377.2,414.7Z" transform="translate(-67.05 -38)"/><path class="cls-10" d="M408,328.33a5.13,5.13,0,0,1-1.11,3.53c-6.72,8.69-12.38,18.06-17.9,27.56-7.51,12.9-12.57,26.78-16.91,40.91-1.76,5.74-2.54,11.75-3.57,17.68-1.33,7.64-.45,15.26-.85,22.87-.13,2.47.56,4.38,2.88,5.52q-1,10.08-1.93,20.16c-2.59,1.1-3.44-.81-4.17-2.56a47.31,47.31,0,0,1-3.8-16.69,134,134,0,0,1,2.54-31.4,46,46,0,0,0,.36-5.24c3.29-16.35,9.77-31.51,17.18-46.34a208.7,208.7,0,0,1,20.06-32.92C402.6,329,404.2,326.1,408,328.33Z" transform="translate(-67.05 -38)"/><path class="cls-11" d="M377.2,414.7a7.87,7.87,0,0,1-1.12-6.66c1.46-5.86,3.09-11.65,4.85-17.42,1.49-4.89,3.5-9.56,5.26-14.32A93.79,93.79,0,0,1,392.67,363a222.27,222.27,0,0,1,14.16-22.69c2.72-3.71,5.56-7.34,8.36-11,1.45-1.9,2.91-3.78,4.36-5.67a2.09,2.09,0,0,1,1-1.63,17.14,17.14,0,0,1,3.18-1.19,5,5,0,0,1,2.11-.07c.94.33,1.88.66,1.52,2-3.49,4.34-7.09,8.61-10.46,13a235.93,235.93,0,0,0-38.27,74.9C378.23,412,377.68,413.36,377.2,414.7Z" transform="translate(-67.05 -38)"/><path class="cls-12" d="M409.93,326.37l-1,.94a1.76,1.76,0,0,1-1.24.51c-1.08-.21-2.33.54-3.23-.61a5,5,0,0,0-.45-.74c6.31-4.28,10.45-10.68,15.56-16.12,24.77-26.34,51.81-49.44,86.89-61,10.61-3.5,21.51-6.1,32.89-5.07a7,7,0,0,1,1.29,0,2.23,2.23,0,0,1,1.1.51,6.93,6.93,0,0,1,.94,1.45,9,9,0,0,1,.46,1c.23.47.46,1,.66,1.45a2.81,2.81,0,0,1,.13,1,1.65,1.65,0,0,1-.59.85l-3.84,1c-9.13-1.89-18.1-.46-26.89,1.86-24.41,6.4-45.34,19.31-64.23,35.8a348.77,348.77,0,0,0-33.52,33.4C413.47,324.2,411.56,325.1,409.93,326.37Z" transform="translate(-67.05 -38)"/><path class="cls-13" d="M415.69,324.44a4.12,4.12,0,0,1-2.89,1c1.27-3.48,3.81-6.1,6.34-8.6,10-9.89,19.44-20.28,30.22-29.31,20-16.79,42-29.91,67.88-35.45,4.16-.88,8.4-1.87,12.74-1.44,1.68.17,3.78,0,2.82,2.84h-.91c-.55.54-1.46.31-2,.93l-7.65,2.79c-12,.44-22.94,4.69-33.69,9.57-18.58,8.43-34.17,21.08-48.91,34.91C431.61,309.2,424.68,317.92,415.69,324.44Z" transform="translate(-67.05 -38)"/><path class="cls-14" d="M415.69,324.44a13.91,13.91,0,0,1,3.14-3.57c6.29-6.33,12.63-12.63,18.93-19a191.56,191.56,0,0,1,23.59-20c3.86-2.79,7.51-6,11.63-8.28,3.15-1.76,6.08-3.93,9.52-5.26,4.14-1.61,8.06-3.77,12.16-5.54,5.86-2.55,12-4.09,18.13-5.7,3-.77,6-.49,8.89-1.41,1.41-.45.63.86.56,1.48a4.87,4.87,0,0,1-.93.08c-.53.55-1.44.32-1.95.93a6.46,6.46,0,0,1-.88,0,8.39,8.39,0,0,0-1,.88L509.8,262a13.87,13.87,0,0,0-4.7.72c-19.57,5.67-36.21,16.51-51.87,29.15a171.44,171.44,0,0,0-13.66,12.75c-6.48,5.86-11.93,12.79-19,18l-1,.94Z" transform="translate(-67.05 -38)"/><path class="cls-15" d="M214.54,156.9c-1.54-1.41-3.43-1.32-5-1.91-1-.35-1.83.34-2.66.82-1.1.64-2.13,1.45-3.49,1.45a1.65,1.65,0,0,1-1.57-.88,1.06,1.06,0,0,1,.25-1.29c1.88-2,3.73-3.89,6.57-4.59,1.84-.45,3.52-1.51,5.32-2.16,2.7-1,4.74.09,5.51,2.88.34,1.22.36,2.53.7,3.75a1.94,1.94,0,0,0,2.19,1.46,14.67,14.67,0,0,0,1.85-.45c1.94-.39,3.12.08,4.07,1.59a2.24,2.24,0,0,1-.35,3.15,2.3,2.3,0,0,1-.65.36,11.3,11.3,0,0,0-3.46,2.51c-.45.46-.89.92-1.37,1.34-1.55,1.31-2.87,1.52-3.83.57-1.14-1.13-.69-2.31,0-3.49a7.94,7.94,0,0,0,.56-1.31c.21-.71-.74-1.56-1.5-1.32a9.26,9.26,0,0,0-1.76.71,13.54,13.54,0,0,0-6.31,7.56,14.11,14.11,0,0,1-2,4.33,15.06,15.06,0,0,1-2.07,2,1.38,1.38,0,0,1-1.77,0,1.93,1.93,0,0,1-.78-1.66,2.41,2.41,0,0,1,.28-.91,46.48,46.48,0,0,1,5.7-10A18.69,18.69,0,0,1,214.54,156.9Z" transform="translate(-67.05 -38)"/><path class="cls-16" d="M532.8,253.43c-.16-1-.64-1.85-1.8-1.84a42.14,42.14,0,0,0-8.09.42c-3.89.76-7.82,1.25-11.68,2.24-2.66.68-5,2.19-7.65,2.7a41.79,41.79,0,0,0-7.73,2.43,152.6,152.6,0,0,0-29.77,16.17c-4.16,2.93-8.16,6.07-12.18,9.2-12.92,10-23.76,22.23-35.37,33.62a78.17,78.17,0,0,0-5.71,7,4.12,4.12,0,0,1-2.87,1c3.24-3.72,6.35-7.56,9.76-11.11,5.08-5.32,10.4-10.4,15.56-15.64a213.49,213.49,0,0,1,25.36-21.73,221.4,221.4,0,0,1,19.64-12.69c7.61-4.49,15.74-7.72,24-10.66a101.12,101.12,0,0,1,17.57-4.25c5.77-1,11.45-.47,17.17-.63,1.29,0,.65,1.11.53,1.82C537.4,252.57,535.08,252.82,532.8,253.43Z" transform="translate(-67.05 -38)"/><path class="cls-17" d="M478.08,279.29a2.87,2.87,0,0,1-.82.13,4.06,4.06,0,0,0-1.1.92L462,290.73a143.45,143.45,0,0,0-16,13.43c-1.69,1.67-3.48,3.23-5.33,4.74a35.6,35.6,0,0,0-5.94,6.14,20,20,0,0,1-5.73,5.61c-1,.88-2.17.5-3.29.33-1.57-2.2.57-3.13,1.62-4.21,3.88-4,7.75-8,11.82-11.77.28-.31.57-.62.84-.94a10.31,10.31,0,0,1,.88-.87l.45-.43c.3-.29.61-.56.93-.82a8.81,8.81,0,0,1,1-.73c2.62-1.89,4.58-4.49,7-6.56a9.82,9.82,0,0,1,1-.81,76.66,76.66,0,0,0,9.2-7.67,142.69,142.69,0,0,1,27-16.14c1.32-.59,3.19-2.08,4,.76h0a4.55,4.55,0,0,0-1,.91h0c-.51.57-1.42.38-1.9,1h0a10.55,10.55,0,0,1-1,.84,3.3,3.3,0,0,1-.88.14,7.59,7.59,0,0,0-1,.88,2.54,2.54,0,0,1-.82.11,3.89,3.89,0,0,0-1.11.91h0a11.4,11.4,0,0,1-1,.84,3.39,3.39,0,0,1-.89.15,10,10,0,0,0-1.06.89h0c-.49.59-1.4.39-1.87,1h0Z" transform="translate(-67.05 -38)"/><path class="cls-18" d="M491.62,270.79c-.4-.55-1-1-1.6-.69-4.57,2.24-9.25,4.31-13.63,6.88-5.33,3.13-10.41,6.69-15.59,10.06-3.3,2.43-6.46,5-9.6,7.68-3.29,2.1-5.39,5.54-8.64,7.68h0c-.33.31-.66.64-1,1s-.67.69-1,1a1.3,1.3,0,0,1-1.84.08l-.08-.08a65.07,65.07,0,0,1,11.25-11c2.56-1.88,4.89-4.08,7.32-6.13a51.35,51.35,0,0,1,8.11-5.87,76.29,76.29,0,0,0,6.82-4.41c3.89-2.76,8.06-5,12.18-7.42,2.23-1.29,4.9-1.62,7.09-2.82,4.11-2.26,8.63-3.26,12.94-4.87a8.3,8.3,0,0,1,3.81-.68,2.31,2.31,0,0,1,1.61.93C503.72,265,497.93,268.43,491.62,270.79Z" transform="translate(-67.05 -38)"/><path class="cls-19" d="M575.08,237c1,1.37.76,3,1,4.53.35,2,.34,2,2.78,2.21a7.43,7.43,0,0,1,.93.13c-.54.3-1.07.86-1.61.87a54.17,54.17,0,0,0-11.85,1,12.43,12.43,0,0,1-2.86,0c-4.23-2.15-8.53-3.93-13.43-3.77-1.78.06-3.26-1.06-4.67-2.1-1.16-1.14-2.29-2.3-1-4.06,8.27-2.46,16.23-.4,24.15,1.78C570.88,238.26,573.08,239,575.08,237Z" transform="translate(-67.05 -38)"/><path class="cls-20" d="M544.27,236.2a4.16,4.16,0,0,0,1.81,2.9c1.24,1.82,3.42,2.76,4.58,4.61.89,1.43,2.82,2.75,1.16,4.84a11.3,11.3,0,0,0-4.6,1.1c-1.29.38-2.62,1.06-3.7-.41a.6.6,0,0,0-.27-.63,3.69,3.69,0,0,1-.73-1.24.69.69,0,0,0-.27-.69,6.52,6.52,0,0,1-.72-1.15.74.74,0,0,0-.29-.72c-.39-.47-1-.62-1.41-1.12a37.47,37.47,0,0,1-2.3-3.53,10.81,10.81,0,0,1-.57-1.06,12.56,12.56,0,0,0-1.24-2c-.73-1-1.38-2.13-2.07-3.19a23.75,23.75,0,0,1-1.73-2.87c-.71-1.46-1.5-3.14,0-4.39s2.62.12,3.67,1.09c.59.54,1.12,1.27,2,1.29,1.61.06,3.29-2,4.81,0S544.18,233.61,544.27,236.2Z" transform="translate(-67.05 -38)"/><path class="cls-21" d="M364.8,409.92c.53,3.87-.65,7.6-1.2,11.35-.46,3.13-1.21,6.2-.85,9.4-1.57,5.32-.55,10.77-.82,16.16a20.72,20.72,0,0,0,.8,6.6c1,3.66,1.48,7.46,3,11a3.1,3.1,0,0,0,2.83,2.15,12.61,12.61,0,0,1-.13,4.82l-.81.94c-3,.23-3.83-2-4.45-4.11-1.85-6.27-3.6-12.56-3.67-19.19-.11-11.62-.4-23.26,2.67-34.62C362.67,412.75,362.15,410.37,364.8,409.92Z" transform="translate(-67.05 -38)"/><path class="cls-22" d="M551.8,248.55c.32-1-.26-1.77-.8-2.57-1.59-2.34-3.89-4.16-4.94-6.88,2.13,1.58,4.53,1.84,7.14,2,4,.17,8,.79,10.32,4.71-.53.55-1.42.36-1.93,1-2.61-.2-5,1-7.47,1.38A20.49,20.49,0,0,0,551.8,248.55Z" transform="translate(-67.05 -38)"/><path class="cls-23" d="M425.31,320.7H429a2.77,2.77,0,0,1-1.64,2.09c-.42-1-1.32-1.07-2.19-1.24l-.23-.45Z" transform="translate(-67.05 -38)"/><path class="cls-16" d="M543.5,249.2c1.17.72,2.47.25,3.7.41-1,1.32-2.49.89-3.84.89Z" transform="translate(-67.05 -38)"/><path class="cls-18" d="M488.65,272.66a1.91,1.91,0,0,1,1.9-1A2,2,0,0,1,488.65,272.66Z" transform="translate(-67.05 -38)"/><path class="cls-13" d="M519.36,258.2a2,2,0,0,1,1.95-.93A2,2,0,0,1,519.36,258.2Z" transform="translate(-67.05 -38)"/><path class="cls-16" d="M529.92,254.4a1.92,1.92,0,0,1,2-.93A2.07,2.07,0,0,1,529.92,254.4Z" transform="translate(-67.05 -38)"/><path class="cls-19" d="M561.59,246.71a2,2,0,0,1,1.93-1A2,2,0,0,1,561.59,246.71Z" transform="translate(-67.05 -38)"/><path class="cls-18" d="M479.08,278.43a1.92,1.92,0,0,1,1.87-1A2,2,0,0,1,479.08,278.43Z" transform="translate(-67.05 -38)"/><path class="cls-18" d="M483.84,275.53l1.11-.91Z" transform="translate(-67.05 -38)"/><path class="cls-18" d="M485.77,274.51l1-.88Z" transform="translate(-67.05 -38)"/><path class="cls-18" d="M487.69,273.49l1-.84Z" transform="translate(-67.05 -38)"/><path class="cls-18" d="M490.56,271.67l1-.91Z" transform="translate(-67.05 -38)"/><path class="cls-13" d="M517.45,259.2l1-.88Z" transform="translate(-67.05 -38)"/><path class="cls-18" d="M482.9,276.36l1-.84Z" transform="translate(-67.05 -38)"/><path class="cls-18" d="M481,277.4l1.06-.89Z" transform="translate(-67.05 -38)"/><path class="cls-18" d="M476.17,280.34a1.42,1.42,0,0,1,1.1-.92Z" transform="translate(-67.05 -38)"/><path class="cls-18" d="M478.08,279.29l1-.88Z" transform="translate(-67.05 -38)"/><path class="cls-2" d="M544.27,236.2c-1.31-1.29-1.6-3-2-4.69a6,6,0,0,0-.9-2.12.93.93,0,0,0-1.57-.14c-.38.48-.57,1.11-.91,1.63a1.19,1.19,0,0,1-1.58.57,1.14,1.14,0,0,1-.42-.33,22,22,0,0,1-1.82-2.15,13,13,0,0,0-1.53-1.77,1,1,0,0,0-1.64,1,19.69,19.69,0,0,0,1.23,2.53c.56,1.12,1.48,2.06,1.63,3.37,1.15,3.43-1.42,3.71-3.61,4.12a162.09,162.09,0,0,0-20.93,5.11c-16.38,5.33-31.28,13.55-45.54,23.06-15.89,10.6-29.89,23.43-43.09,37.13-6.74,7-13,14.48-19.12,22-1.26.71-2.83-.19-4.06.75-2.76.81-5.52,1.61-8.28,2.44a10.23,10.23,0,0,1-8.75-1.23,47.7,47.7,0,0,1-12.17-10.75,19.07,19.07,0,0,1-3.22-5.86,24.33,24.33,0,0,0-8-11.16l-2.23-1.82c-1.52-1.26-2.17-2.85-1.33-4.68a3.48,3.48,0,0,0-.37-3.58,7,7,0,0,1,0-6.88c.41-.87.8-1.75,1.27-2.59,2.58-4.65,2.54-9.47.91-14.38-.3-.91-.65-1.81-1-2.69a8.78,8.78,0,0,1,.8-8.25q4.31-7.2,8.5-14.48a30.45,30.45,0,0,1,10.48-11,25.51,25.51,0,0,0,2.39-1.6,11.31,11.31,0,0,0,4.79-8c.52-5.19,3-9,7.8-11.24a8.51,8.51,0,0,0,3.41-3.24c3.06-4.4,5.63-5.37,10.65-3.17a9.88,9.88,0,0,0,9.95-.86l1.64-1a29.13,29.13,0,0,1,19.73-4.39,25.8,25.8,0,0,0,13.2-1.22,8.59,8.59,0,0,1,1.85-.5,4.26,4.26,0,0,1,5.13,3.16,4.51,4.51,0,0,1,.09.53,11.6,11.6,0,0,1-.32,4.27c-.71,4.53.4,6.52,4.62,8.22,1.77.71,3.63,1.22,5.45,1.82a19.54,19.54,0,0,1,8.89,5.43c3.14,3.54,7.49,4,11.83,4.27,1.64.1,2.64-1.12,3.18-2.51s.83-3.1,1.38-4.59c1.16-3.08,2.92-3.87,6-2.8a17.75,17.75,0,0,1,2.6,1.25A58.19,58.19,0,0,0,517,218.88c3.13.56,6.22,1.25,9.46.79,1.73-.24,3.46.45,5.18.82,3.93.84,6.14-.38,7.58-4a15.79,15.79,0,0,0,1.14-4.15c.42-4,.66-8,.94-12a6.84,6.84,0,0,0-.17-1.91,2.39,2.39,0,0,0-2.71-2,3.07,3.07,0,0,0-.52.14,35.17,35.17,0,0,0-3.59,1.34,7.29,7.29,0,0,1-6.92-.27,7.76,7.76,0,0,0-6-.68c-3.86.79-5.55-.16-7.15-3.78-.51-1.17-.85-2.41-1.25-3.62a5.53,5.53,0,0,1,.59-4.62c2-3.41,4.55-6.18,8.48-7.35a61.36,61.36,0,0,0,9.53-3.21,7.21,7.21,0,0,1,5.62-.07c2.11.74,4.16,1.63,6.25,2.44,1.93.75,3.84,1.56,5.81,2.2a8.35,8.35,0,0,0,6.54-.34,7.65,7.65,0,0,1,2,3.18,216.49,216.49,0,0,1,17,51.88,27.53,27.53,0,0,1,.26,3.27,19.4,19.4,0,0,1-.3,2.85,1.29,1.29,0,0,1-1,.72,9,9,0,0,1-2.29-.6,60.68,60.68,0,0,0-24.82-3.74Z" transform="translate(-67.05 -38)"/><path class="cls-2" d="M540.69,151.73a2.21,2.21,0,0,1-1.28,1.87c-1.47.62-2.95,1.24-4.37,2s-1.41,1.79-.18,3c.44.44.94.82,1.44,1.25a7.6,7.6,0,0,1-1,1.19c-2.78,2.1-4,1.93-5.89-.8-.81-1.19-1.45-2.51-2.34-3.62-1.94-2.44-4.32-2.73-6.66-.73a19.53,19.53,0,0,0-3.15,3.58,30,30,0,0,0-4.17,8.6c-.82,2.65-1.25,5.31.54,7.81a3.19,3.19,0,0,1,.33.89,1.42,1.42,0,0,1-.84,1.82l-.16,0a14.36,14.36,0,0,1-2.85.22,48,48,0,0,0-8.12.6,11.93,11.93,0,0,0-5.7,2.35,2.3,2.3,0,0,0-.77,3c.53,1.16,1.24,2.23,1.78,3.39a5.38,5.38,0,0,1,.64,3.24c-.35,2.06-1.77,4.23-2.81,4.07-1.81-.27-2.59-1.76-3.32-3.17s.28-2,1.16-2.74.78-1.72-.35-2.08a7.77,7.77,0,0,0-.93-.21c-4.64-.7-6.82-3.74-7.69-8-.16-.78-.16-1.6-.36-2.37-.8-2.93-2.36-5.25-5.42-6.2a26.38,26.38,0,0,1-9-5.28,44.32,44.32,0,0,0-7.68-4.88A2,2,0,0,0,459,161a2.19,2.19,0,0,0-.43,2.64,7.23,7.23,0,0,0,1,1.61c3.76,3.92,7.42,8,12,11,2,1.3,4.22,2.25,6.31,3.41a1.82,1.82,0,0,1,.85,1c.2.73-.49.62-.9.69a4.77,4.77,0,0,1-1,0c-2.29.36-2.78.88-2.34,3.16.29,1.47.73,2.78-.75,3.86-.6.44-1.29.39-1.5-.26a9.88,9.88,0,0,1-.35-1.4c-.69-4-3.25-6.46-6.75-8.14a22.37,22.37,0,0,0-2.2-.94,19,19,0,0,1-10-8.48,34.19,34.19,0,0,0-2.81-4,2.39,2.39,0,0,0-3-.62c-1.28.65-2.53,1.37-3.75,2.13a13.17,13.17,0,0,1-9.58,2.19,9.75,9.75,0,0,0-1.43-.14c-2.81-.07-3.88.46-4.53,3.19a7.16,7.16,0,0,1-3.93,5,15.68,15.68,0,0,0-8.29,10.59c-1.18,4.9-4.87,7.28-9.52,8.37-1.09.25-2.24.18-3.34.39s-2.46.27-3.14,1c-1.61,1.62-2.88,1.28-4.62.26a60.31,60.31,0,0,0-7.35-3.5,3.6,3.6,0,0,1-2.6-3.59,26.38,26.38,0,0,1,.26-5.25A62.58,62.58,0,0,0,387,172c0-2.59,1.27-3.77,3.82-4a23.34,23.34,0,0,1,5.72.43,73,73,0,0,0,8.07,1.06c5.86.3,7.85-1.53,8.33-7.32.08-1,.1-1.91.09-2.87a7.56,7.56,0,0,0-4.93-7.5,25.61,25.61,0,0,1-3-1.41,1.31,1.31,0,0,1,.26-2.29c4.25-.27,7.91-2.39,11.81-3.73A27.78,27.78,0,0,0,427.28,138c2.19-2.1,4.4-4.2,6.73-6.14a16.79,16.79,0,0,1,9.47-4.25,8.27,8.27,0,0,0,1-.12c2.5-.57,3.36-2,2.77-4.62a39.53,39.53,0,0,1-1-4.17,4.93,4.93,0,0,1,2.9-5.07,1.42,1.42,0,0,1,1.86.72s0,.07,0,.11c.37,1.38-.76,3.24.56,4.1,1.7,1.11,3.24-.66,4.86-1.14a3.36,3.36,0,0,0,.43-.2c4,2.58.59,4.25-.84,6,8.06,2.6,15.8-.59,23.67-.8,3.24-.08,4.64-2.52,4.84-5.55.24-3.58,1.72-5.77,5.64-5.53,2.21.14,2.16-1.09,1.89-2.76-.52-3.26.59-5,4.24-4a218.62,218.62,0,0,1,43,45.39A19.45,19.45,0,0,0,540.69,151.73Z" transform="translate(-67.05 -38)"/><path class="cls-2" d="M457.94,115.2c-.24-2.49-1.64-4.46-3-6.42-1.58-2.3-2.73-2.52-5.27-1.42a43,43,0,0,1-4,1.66,5.79,5.79,0,0,1-5.41-1.07,8.83,8.83,0,0,1,.82-14.55c1-.49,2-.92,3.06-1.31,5-2.19,9.7-4.84,13.26-9.11.87-1,1.79-1.81,3.25-1.44l14.28,8a1,1,0,0,1,.57,1.29,1.05,1.05,0,0,1-.17.29c-3.24,3.4-2.56,6.42.56,9.48,1.91,1.86,1.89,4-.14,5.84a18.77,18.77,0,0,0-5,7.44,10.35,10.35,0,0,1-3.17,4.12C463.39,121.4,459.86,120.39,457.94,115.2Z" transform="translate(-67.05 -38)"/><path class="cls-24" d="M457.94,115.2c.28.37.58.74.85,1.13,2.09,3,3.78,3.42,6.82,1.88a7.6,7.6,0,0,0,4-4.53,15.61,15.61,0,0,1,6-8.43c1.41-1,1.26-2.3-.05-3.67-.88-.92-1.91-1.71-2.71-2.69-1.89-2.34-1.81-4.14.11-6.43.77-.93,2.3-1.32,2.06-3l10,6.67c.9,2.14,3.11,2.77,4.69,4.12.84.6,1.91.78,2.7,1.48l3.89,2.73a9.28,9.28,0,0,0-1.89.28c-1.83.66-2.27,1.75-1.38,3.28a23.22,23.22,0,0,1,1.34,2,2.06,2.06,0,0,1-2,2.93c-1.1-.08-2.19-.45-3.29-.54-2.06-.19-3,.61-3.21,2.62-.08.79,0,1.6-.05,2.4-.39,4.54-3.16,7-7.63,6.41a17.65,17.65,0,0,0-9.35,1.4,6.44,6.44,0,0,1-5.54.16,9.49,9.49,0,0,0-6.58-.21,4.31,4.31,0,0,1-1.85.26,2.18,2.18,0,0,1-1.78-2,1.78,1.78,0,0,1,1.51-2h0c.3-.06.64.08,1,0,2.76-.47,3.11-1.62,1.31-4.23A2.08,2.08,0,0,0,457.94,115.2Z" transform="translate(-67.05 -38)"/><path class="cls-25" d="M280.32,93.29c.37-.31.76-.59,1.1-.93a4.12,4.12,0,0,1,5.63-.59c.95.61,1.87,1.32,3.08,1a2.45,2.45,0,0,0,1.1-.78.9.9,0,0,0-.15-.79c-2.58-2.52-3.94-5.77-5.5-8.91A13.07,13.07,0,0,0,284,79.9a5.83,5.83,0,0,0-5-2.34,30.82,30.82,0,0,1-3.33,0c-.83-.07-.77-.88-.93-1.47l8.48-3.37c2,.8,3.65,2.6,6.15,2.25,1.05-.15,1.77.75,2.17,1.62a14.08,14.08,0,0,0,5.09,5.57c2.31,1.6,3.95,3.72,4,6.73a7.12,7.12,0,0,0,2.17,4.66c.94,1.09,1.9,2.16,2.74,3.32a2.11,2.11,0,0,1-.22,3h0a2,2,0,0,1-2.81.36l-.19-.17c-1.11-.89-2.12-1.93-3.18-2.89a4.26,4.26,0,0,0-2-1.21c-.79-.16-1.72.47-1.6,1.26s.35,1.54.52,2.31a16.65,16.65,0,0,1,.44,2.32,1.8,1.8,0,0,1-.79,1.64,1.5,1.5,0,0,1-1.79-.08c-1.07-.68-2.06-1.5-3.13-2.19a.84.84,0,0,0-1.18.21.18.18,0,0,0,0,.07,1,1,0,0,0,0,.88c.22.42.6.75.83,1.17.42.75,1.67,1.45.71,2.39-.8.77-1.84,0-2.65-.41a12.34,12.34,0,0,1-5.54-5.11,18.94,18.94,0,0,0-4.46-5.57C278,93.05,279.85,94,280.32,93.29Z" transform="translate(-67.05 -38)"/><path class="cls-26" d="M269.62,78.84c.29.85,1.12,1.62.46,2.61-2.48,3.74-5.52,6.41-10.46,5.79a44.59,44.59,0,0,0-5.17-.06l.09-.61A109.36,109.36,0,0,1,269.62,78.84Z" transform="translate(-67.05 -38)"/><path class="cls-27" d="M316.67,62.59c1.35,1.52,2.71,3,4,4.58.12.14,0,.53-.07.79a.46.46,0,0,1-.39.18,35.42,35.42,0,0,1-7.95-3.74c-.18-.12-.14-.59-.2-.89Z" transform="translate(-67.05 -38)"/><path class="cls-28" d="M489.56,101a13.33,13.33,0,0,1-3.8-2.39,2.43,2.43,0,0,1-.81-2.44l5.56,3.76C490.79,100.78,490.5,101.2,489.56,101Z" transform="translate(-67.05 -38)"/><path class="cls-29" d="M546.36,160.38a4.29,4.29,0,0,1-.82,1.07,1.16,1.16,0,0,1-1.64-.1,1.08,1.08,0,0,1-.21-.34c-.43-1.18-.11-1.74,1.52-2.66Z" transform="translate(-67.05 -38)"/><path class="cls-30" d="M489.56,101l1-1.07a2.47,2.47,0,0,1,1.83,1.84C491.33,101.78,490.29,101.93,489.56,101Z" transform="translate(-67.05 -38)"/><path class="cls-31" d="M246,93.36c-1.79,1.14-1.8,1.14-3.1-.14l2-.92C245.35,92.53,246,92.63,246,93.36Z" transform="translate(-67.05 -38)"/><path class="cls-32" d="M246,93.36l-1.13-1.06,1.91-1.41a.82.82,0,0,1,0,.49,1.62,1.62,0,0,1,1,.81A2.12,2.12,0,0,1,246,93.36Z" transform="translate(-67.05 -38)"/><path class="cls-33" d="M252.5,88.49a2,2,0,0,1-1.9.76,2.75,2.75,0,0,1,1.89-1.85C253.08,87.76,253.08,88.12,252.5,88.49Z" transform="translate(-67.05 -38)"/><path class="cls-34" d="M252.5,88.49V87.4c.67-.3,1.21-1,2-.83a.81.81,0,0,1-.09.61C254.13,88.11,253.33,88.32,252.5,88.49Z" transform="translate(-67.05 -38)"/><path class="cls-1" d="M809.08,441.25a13.3,13.3,0,0,1-1.66.25H773.83c-2.65,0-2.71,0-3.59-2.82-3.3-10.36-6.55-20.72-9.82-31.08-.24-.76-.52-1.51-.72-2.29C758.87,402,758.62,402,755,402H702.71a19.19,19.19,0,0,0-2.39.1,1.49,1.49,0,0,0-1.39,1.1c-.34,1.06-.7,2.12-1,3.19q-4.73,15.09-9.46,30.18c-.34,1.07-.74,2.12-1,3.21-.31,1.37-1.23,1.73-2.47,1.71H652.33a23.76,23.76,0,0,1-2.39-.08,1,1,0,0,1-1-1,1.55,1.55,0,0,1,.06-.31c.3-1.24.68-2.46,1.09-3.67q29.31-87,58.67-173.93c1.62-4.8.66-4.44,6.33-4.44h27.83c6,0,4.88-.49,6.66,4.66,3.91,11.32,7.66,22.7,11.48,34.06q23.4,69.75,46.79,139.49C808.37,437.77,809.19,439.2,809.08,441.25Z" transform="translate(-67.05 -38)"/><path class="cls-1" d="M1026.47,397.93c0,5-.23,9.91.64,14.84a23.79,23.79,0,0,0,3.86,9.71c4.94,7,15.62,8.93,22.71,4.14a10.93,10.93,0,0,0,3.52-3.85,16.74,16.74,0,0,0,1.75-4.94c.33-1.67-.26-3.79,1.32-4.89,1.29-.9,3.11-.33,4.69-.35h9.6c1.23,0,1.77.55,1.77,1.71,0,11.05-4.55,19.46-14.57,24.49-7.38,3.71-15.35,4.48-23.39,3.33-15.88-2.26-26.31-13-28.7-29.05a47.64,47.64,0,0,1-.54-7.16c0-5.76,0-11.52,0-17.27a38.42,38.42,0,0,1,2.69-14.53c5.36-12.89,15-19.93,29-20.8A46.14,46.14,0,0,1,1057,355.2a29.31,29.31,0,0,1,9.78,4.94c7,5.45,9.77,12.8,9.71,21.44a1.36,1.36,0,0,1-1.43,1.55h-13.9a1.5,1.5,0,0,1-1.56-1.42v0c-.23-1.42-.39-2.86-.71-4.26-1.17-5.1-4.17-8.52-9.34-9.85-.62-.16-1.24-.36-1.86-.48-9-1.76-15.79,2-19.11,10.47a34.55,34.55,0,0,0-2.06,11.74C1026.41,392.2,1026.47,395.06,1026.47,397.93Z" transform="translate(-67.05 -38)"/><path class="cls-1" d="M1294.76,399V359.72c0-4.26,0-4.29,4.13-4.3h49.4a1.74,1.74,0,0,1,1.85,1.63v.15a5.57,5.57,0,0,1,0,1c-.33,3.44.74,7-.66,10.32-3.14.83-6.34.32-9.5.35-7.51.09-15,0-22.54,0h-3.35a1.66,1.66,0,0,0-1.88,1.42,1.1,1.1,0,0,0,0,.25V387.8c0,2.73.14,2.85,3.1,2.86h23.49c1.28,0,2.56,0,3.83.06a1.38,1.38,0,0,1,1.53,1.22,1.13,1.13,0,0,1,0,.26c0,3.36,0,6.71,0,10.07a1.61,1.61,0,0,1-1.36,1.81,1.93,1.93,0,0,1-.34,0H1314.6c-2.06,0-2.43.31-2.44,2q-.06,10.31,0,20.61c0,1.58.47,2,2,2.08h34.55c.85,0,1.62.43,1.63,1.38q.06,5.26,0,10.53a1.27,1.27,0,0,1-1.08,1.44h-.18c-1.11.1-2.23.14-3.34.14h-46.51c-1,0-1.92,0-2.87-.06a1.5,1.5,0,0,1-1.56-1.42v-.06c-.1-1.27-.07-2.55-.07-3.83Q1294.76,418,1294.76,399Z" transform="translate(-67.05 -38)"/><path class="cls-1" d="M1151,399V357.36a1.62,1.62,0,0,1,1.69-1.85h1.92c9,0,17.9-.09,26.85,0,10.7.13,20,3.57,27.38,11.67a32.11,32.11,0,0,1,8.52,19.38,150.14,150.14,0,0,1,0,24.91,34,34,0,0,1-28.4,30.16,58.54,58.54,0,0,1-9.54.75c-7.84-.07-15.67,0-23.5,0-1.12,0-2.23,0-3.35-.06a1.46,1.46,0,0,1-1.54-1.38v-.1c-.08-1.27-.06-2.56-.06-3.83Z" transform="translate(-67.05 -38)"/><path class="cls-1" d="M926.26,396c1,.39,1.44.59,1.9.73,9.52,3,13.46,11.4,13.32,20a30.4,30.4,0,0,1-1,7.1,20.41,20.41,0,0,1-10,12.9,30.83,30.83,0,0,1-10.82,3.74,64.07,64.07,0,0,1-9.07.8c-10.08.1-20.16,0-30.24,0-.8,0-1.6,0-2.4-.07a1.48,1.48,0,0,1-1.46-1.5v-.06c-.06-.63,0-1.27,0-1.91V356.66c.1-1.82.41-2.17,2.36-2.18,9.6,0,19.2-.1,28.79.08A46.94,46.94,0,0,1,919,356.2a31.33,31.33,0,0,1,9.6,4.26,19.06,19.06,0,0,1,8.53,14.81,35,35,0,0,1,.06,4.8,17.34,17.34,0,0,1-6.93,13.13C929.08,394.11,927.89,394.86,926.26,396Z" transform="translate(-67.05 -38)"/><path class="cls-35" d="M676.15,588.57v-7.64a1.5,1.5,0,0,1,1.41-1.59h0c4-.18,8-.41,11.89.5a8,8,0,0,1,5.86,5.13,10.93,10.93,0,0,1,.19,7.48,6.88,6.88,0,0,1-4.46,4.65,15.69,15.69,0,0,1-4.17.9c-2.86.15-5.73.11-8.6.06-1.84,0-2.15-.37-2.19-2.32-.06-2.39,0-4.78,0-7.17Z" transform="translate(-67.05 -38)"/><path class="cls-1" d="M760.44,601.55v8.62a17.72,17.72,0,0,1-2.45,8.17c-4.69,8.53-18,8.85-22.89-.23a18.52,18.52,0,0,1-2.4-8.21c-.16-5.42-.18-10.85,0-16.28a19.49,19.49,0,0,1,2.75-9.06c4.6-8,16.81-7.52,21.34-1.32a17.42,17.42,0,0,1,3.66,9.7c.11,2.87,0,5.74,0,8.61Z" transform="translate(-67.05 -38)"/><path class="cls-36" d="M1219.4,609.77c.95-5,5-17.89,6.8-21.59,1,.48.92,1.51,1.15,2.24q2.78,8.64,5.41,17.32c.48,1.6.16,2-1.52,2C1227.43,609.79,1223.62,609.77,1219.4,609.77Z" transform="translate(-67.05 -38)"/><path class="cls-36" d="M297.9,587.82c1.85,3.49,6.25,17.36,7,21.85a115.62,115.62,0,0,1-13.68-.13C293.08,602.12,295.52,595.1,297.9,587.82Z" transform="translate(-67.05 -38)"/><path class="cls-37" d="M238,589.78v-8.13c0-2,.36-2.38,2.14-2.38,3.82,0,7.66-.32,11.47.24a10.62,10.62,0,0,1,7.45,16.4A8.52,8.52,0,0,1,252,600.2c-4.14.17-8.28.15-12.43.16a1.38,1.38,0,0,1-1.5-1.25.89.89,0,0,1,0-.23v-9.1Z" transform="translate(-67.05 -38)"/><path class="cls-38" d="M398.41,326.35c1-1.34,2.51-.78,3.82-.93,10.2-11.2,19.92-22.84,31-33.18a264.59,264.59,0,0,1,39.19-30.51,163,163,0,0,1,42.66-18.81A111.28,111.28,0,0,1,537.63,239a11.91,11.91,0,0,1,2.86,4.79q.39.35.24.69c-.09.22-.19.33-.27.33-1.12,1.4-2.69,1.16-4,.69a9.29,9.29,0,0,0-5.57,0c-2.76.65-5.64.54-8.49,1.08a138.91,138.91,0,0,0-28.17,8.75,166,166,0,0,0-23.54,12.47,130.4,130.4,0,0,0-16.6,12c-2.75,2.39-5.71,4.55-8.57,6.83a7.24,7.24,0,0,0-1.07,1c-6.09,6.78-13.68,12-19.69,18.84-4.2,4.77-8.87,9.13-12.64,14.29a55.55,55.55,0,0,1-4.45,5c-1,1.06-2.42.52-3.64.77Z" transform="translate(-67.05 -38)"/><path class="cls-39" d="M364.8,409.92c-1.56,1.8-1.19,4.18-1.76,6.27-1.14,4.1-1,8.48-2.33,12.57a3.3,3.3,0,0,0-.09,1.4c.75,5.71.39,11.45.28,17.17-.14,7.44,2,14.39,3.83,21.44a5.45,5.45,0,0,0,2.94,3.55c0,2.71,0,5.43-.1,8.15a1.22,1.22,0,0,1-.48.75c-.51.43-.9.06-1.21-.3a21.17,21.17,0,0,1-3.94-7.08,95.43,95.43,0,0,1-4.77-31.45c0-2.54-.28-5.11.75-7.57a4.69,4.69,0,0,0,.18-1.9c-.11-5.47,1.43-10.7,2.33-16,1.84-10.9,5.76-21.21,9.29-31.61a96.21,96.21,0,0,1,4.57-10.53c2.34-4.91,4.73-9.8,7.28-14.59a194.4,194.4,0,0,1,9.74-17c2.91-4.37,5.87-8.74,8.58-13.24a4.91,4.91,0,0,1,4.59-2.75l3.52.29a.48.48,0,0,1,.21.54c-.07.18-.14.27-.2.27h0c-2.95-.43-4.88.84-6.09,3.5a11.15,11.15,0,0,1-1.75,2.83c-3.68,4-6.35,8.74-9.21,13.32s-5.34,9.71-8,14.59c-2,3.76-3.29,7.92-5.91,11.39-2,2.59-2,6-3.4,8.87C369.57,391.46,367,400.63,364.8,409.92Z" transform="translate(-67.05 -38)"/><path class="cls-25" d="M407.08,138.34a8.41,8.41,0,0,0,1.62-1,1.28,1.28,0,0,0,.39-1.77,1.26,1.26,0,0,0-.66-.52,1.89,1.89,0,0,0-.44-.19,2.94,2.94,0,0,1-2.55-2.47,4,4,0,0,1,1.11-3.53,21.89,21.89,0,0,1,3-2.33,4.54,4.54,0,0,0-.5-7.2,6.74,6.74,0,0,0-1.81-.59c-2.24-.51-3.08-2-3.12-4.19,0-1.12-.15-2.23-.19-3.35a5.25,5.25,0,0,1,2.35-4.46,2.2,2.2,0,0,1,3-.08c.38.29.66.69,1,1,.7.62,1.67,1.08,2.08,1.85.52,1-.68,1.64-1.06,2.47-.6,1.32-.54,2.08.82,2.77,3.84,1.93,5.83,5.3,7.44,9,.19.44.43.86.58,1.31.83,2.46,2.26,4.17,5.06,4.39,1.06.09,1.31.86.81,1.69-3.48,5.87-1.1,6.14-9.75,7.44-2,.31-4.1.51-6.16.76C409.08,139.37,407.46,140.64,407.08,138.34Z" transform="translate(-67.05 -38)"/><path class="cls-40" d="M384.83,130.63a15.38,15.38,0,0,1,7.47-11.16,8.82,8.82,0,0,1,3.6-1.09c3-.29,4.81,1.09,4.06,4.56-1.41,6.42-5.22,10.31-11.51,11.91-2.4.6-3.57-.34-3.62-2.89C384.82,131.65,384.83,131.33,384.83,130.63Z" transform="translate(-67.05 -38)"/><path class="cls-41" d="M193,243.93c4.91-3,10.1-2.78,15.2-.87A112.81,112.81,0,0,1,219,248.2a1.33,1.33,0,0,1,.55,1.15,1.48,1.48,0,0,1-.9,1,20.32,20.32,0,0,1-7.11.79,4.23,4.23,0,0,1-2.91-1.38c-3.93-4.23-8.55-6.56-14.5-4.81C193.08,245.36,192.86,244.84,193,243.93Z" transform="translate(-67.05 -38)"/><path class="cls-42" d="M290.36,154c2.12-2.65,4.83-4.57,7.66-6.92.8,1.43.46,3,1.51,4s1.88,1.71,2.77,2.62a13.13,13.13,0,0,1,1.84,2.17,2.3,2.3,0,0,1,.21,2.28c-.45.93-1.23.75-2,.64C298,158.2,295.26,157.2,290.36,154Z" transform="translate(-67.05 -38)"/><path class="cls-43" d="M224.25,256.73c-1.26.07-2.52.16-3.78.2a2.26,2.26,0,0,1-.73-.3c.17-.26.28-.62.51-.74a3.69,3.69,0,0,1,1.35-.35,2.93,2.93,0,0,0,2.8-2.15c.71-2.21,2.44-2.74,4.48-2.67a12.88,12.88,0,0,1,5.93,1.44c.54.3,1.1.64,1.18,1.36s-.58,1.07-1.1,1.32a15.59,15.59,0,0,1-5.9,1.61c-1.58.08-3.16.19-4.74.29Z" transform="translate(-67.05 -38)"/><path class="cls-44" d="M461,183.44c2.4.83,4.35,1.46,6.28,2.17a3.55,3.55,0,0,1,2.44,3.2c.16,1.61-.44,2.33-2.1,2.35-2,0-3.83-.19-5.24-1.72A6.19,6.19,0,0,1,461,183.44Z" transform="translate(-67.05 -38)"/><path class="cls-45" d="M280.32,93.29l-1.82,1.55a8.5,8.5,0,0,0-4.63-.37,3.7,3.7,0,0,1-1.81,0,1.18,1.18,0,0,1-.89-1.41v0a1.51,1.51,0,0,1,.86-.94,5.25,5.25,0,0,1,3.7.26A12.88,12.88,0,0,0,280.32,93.29Z" transform="translate(-67.05 -38)"/><path class="cls-46" d="M407.08,138.34c.77,1.11,2.07.66,3.09,1-2,1.16-4.1.9-6.59.89A3.29,3.29,0,0,1,407.08,138.34Z" transform="translate(-67.05 -38)"/><path class="cls-47" d="M193,243.93l1.09,1c-.09.13-.16.3-.29.36-.92.49-2.27,1.82-2.79.93C190.25,244.91,191.9,244.38,193,243.93Z" transform="translate(-67.05 -38)"/><path class="cls-48" d="M247.72,92.2l-1-.81a.9.9,0,0,1,1.27,0l0,0C248.3,91.7,248.08,92,247.72,92.2Z" transform="translate(-67.05 -38)"/><path class="cls-10" d="M408,328.31v-.81l1-.19Z" transform="translate(-67.05 -38)"/><path class="cls-49" d="M438.72,304.32h1.92a11.29,11.29,0,0,1-2.79,3.25c-3.37,3.41-6.77,6.78-10.15,10.18a8.31,8.31,0,0,0-2.39,3h0c-.55.55-1.49.3-2,1a3.69,3.69,0,0,1-2.86,1,5.09,5.09,0,0,1,1.62-2.28q7.35-7.37,14.71-14.7A17.17,17.17,0,0,1,438.72,304.32Z" transform="translate(-67.05 -38)"/><path class="cls-17" d="M423.38,321.68a1.83,1.83,0,0,1,2-1,7.43,7.43,0,0,1-.16.82Z" transform="translate(-67.05 -38)"/><path class="cls-16" d="M542.5,247.37a1.39,1.39,0,0,1,.74,1.24Z" transform="translate(-67.05 -38)"/><path class="cls-16" d="M541.51,245.53a1.25,1.25,0,0,1,.72,1.16Z" transform="translate(-67.05 -38)"/><path class="cls-16" d="M540.47,244.81v-1a1,1,0,0,1,.72,1h-.72Z" transform="translate(-67.05 -38)"/><path class="cls-49" d="M451.2,294.72a21.52,21.52,0,0,1,9.6-7.68,7.09,7.09,0,0,1-2.72,3.09,29.05,29.05,0,0,0-4.69,3.81A3.25,3.25,0,0,1,451.2,294.72Z" transform="translate(-67.05 -38)"/><path class="cls-49" d="M442.56,302.4c1.75-2.68,4.28-4.62,6.47-6.88a3.14,3.14,0,0,1,2.17-.8c-1.75,2.68-4.28,4.62-6.47,6.88A3.14,3.14,0,0,1,442.56,302.4Z" transform="translate(-67.05 -38)"/><path class="cls-49" d="M441.6,303.36l1-1Z" transform="translate(-67.05 -38)"/><path class="cls-49" d="M440.64,304.32l1-1Z" transform="translate(-67.05 -38)"/><path class="cls-50" d="M537.64,239a8.26,8.26,0,0,1-5.73,1.92c-2.28-.06-4.4.64-6.59.92-7.8,1-14.94,4.32-22.53,6-2.83,1.77-6.49,1.76-9,4.17a23.74,23.74,0,0,0-6.64,2.61c-2,1-4.14,1.76-5.66,3.5-1.27,1.46-3.41.65-4.78,2-1.13,1.09-2.06,2.48-3.74,2.89a3.75,3.75,0,0,0-1.33.49c-5.8,4.18-12,7.75-17.48,12.41-2.3,2-4.76,3.71-7.14,5.56a5.15,5.15,0,0,0-.77.55c-3.17,3.62-7.28,6.19-10.65,9.59-4.05,4.08-8.09,8.17-12.2,12.19a163.2,163.2,0,0,0-14.25,16.06,57.17,57.17,0,0,1-4.7,4.77,3.11,3.11,0,0,1-2.2.79c.73-2.9,3.1-4.71,4.67-7,2.61-3.86,6.39-6.69,9.2-10.31,4.34-5.58,9.51-10.3,14.49-15.21,4.74-4.68,9.82-9,14.94-13.29,3.42-2.85,6.72-5.82,10.36-8.39,3.49-2.47,6.92-5,10.5-7.38,2.93-1.91,5.84-3.86,8.79-5.68,2.52-1.55,5.27-2.87,7.92-4.31a67.73,67.73,0,0,1,8.47-4.36c3.1-1.14,6-2.7,9.08-3.88s6.23-2.23,9.33-3.38a118.39,118.39,0,0,1,15.17-4c2.29-.53,4.58-1.28,7-1.18,1.72.06,2.43-1.27,2.58-2.87a5.64,5.64,0,0,1,1.86,3c.65.43.36,1.4,1,1.81Z" transform="translate(-67.05 -38)"/><path class="cls-38" d="M537.64,239a1.8,1.8,0,0,1-1-1.81A2,2,0,0,1,537.64,239Z" transform="translate(-67.05 -38)"/><path class="cls-2" d="M729.08,309.08a5.77,5.77,0,0,1,1.46,3l18,57.11a18,18,0,0,1,.7,2.78.93.93,0,0,1-.82,1,12.08,12.08,0,0,1-1.9.16h-35a12,12,0,0,1-1.89-.19.86.86,0,0,1-.76-.95.09.09,0,0,0,0-.05,22.1,22.1,0,0,1,.72-2.77l18.06-57.08A5.63,5.63,0,0,1,729.08,309.08Z" transform="translate(-67.05 -38)"/><path class="cls-2" d="M1168.36,398.72V370.47a1.46,1.46,0,0,1,1.39-1.53h.1c4.62-.05,9.25-.37,13.86.19,5.81.69,10,3.83,13,8.74a20.69,20.69,0,0,1,3.23,10.4c.13,7,.11,14,0,21.06a20.88,20.88,0,0,1-2.94,10c-3.3,5.87-8.3,9.18-15.06,9.5-3.82.18-7.66.08-11.49,0-1.76,0-2.09-.44-2.16-2.37V423.1Z" transform="translate(-67.05 -38)"/><path class="cls-4" d="M893.8,415.47V405.4c0-2,.37-2.38,2.12-2.38,5.43,0,10.87,0,16.3.11a11.89,11.89,0,0,1,9,4c3.28,3.71,3.87,11.09,1.3,15.36a10.08,10.08,0,0,1-6.46,4.62,24.65,24.65,0,0,1-5.67.83c-4.63.12-9.26.08-13.9,0-2.38,0-2.61-.29-2.64-2.86-.05-3.2,0-6.4,0-9.59Z" transform="translate(-67.05 -38)"/><path class="cls-4" d="M893.82,379.36v-9.57c0-1.09.53-1.85,1.7-1.84,5.09,0,10.2-.45,15.25.65,3.77.82,6.82,2.57,8.29,6.41,2.58,6.75-.47,13-7.4,15a17.24,17.24,0,0,1-4.22.7c-3.82.1-7.65.09-11.47,0-1.87,0-2.12-.31-2.15-2.33-.05-3,0-6.05,0-9.08Z" transform="translate(-67.05 -38)"/></svg>