<svg id="Loewe." xmlns="http://www.w3.org/2000/svg" viewBox="0 0 399.38 134.93"><defs><style>.cls-1{fill:#fff;fill-rule:evenodd;}</style></defs><title>loewe_logo</title><polygon class="cls-1" points="30.23 2.57 0 2.53 0 130.97 51.13 131.16 51.13 107.54 29.99 107.35 30.23 2.57"/><polygon class="cls-1" points="135.71 130.97 186.09 131.16 186.09 106.63 165.19 106.63 165.19 75.73 186.09 75.73 186.09 52.1 165.19 52.1 165.28 26.84 186.3 26.77 186.36 2.84 135.83 2.84 135.71 130.97"/><polygon class="cls-1" points="342.81 26.84 364.12 26.84 363.89 2.84 313.37 2.84 313.23 130.97 363.62 131.16 363.62 106.63 342.72 106.63 342.72 75.73 363.62 75.73 363.62 52.1 342.72 52.1 342.81 26.84"/><path class="cls-1" d="M276.14,77.91s-6.55-48-10.18-72.34h-.73l.73-.36H239.78L230.7,79.73,221.61,4.84l-28.72-.27,21.45,129,29.2-.25L253.23,63l9.09,70.52,29.08-.25L313.3,4.57l-28.8.27Z" transform="translate(-3.62 -2)"/><path class="cls-1" d="M76.93,4.48C67.84,7.39,59.12,15.39,58,25.2v86.15a22.7,22.7,0,0,0,5.09,13.45c11.26,13.82,32.35,13.82,48,9.82,9.09-2.91,18.72-10.91,19.45-20.73l.18-82.15c0-5.08-.73-9.45-2.91-13.45C118,.48,94.38-.24,76.93,4.48Zm24.84,103.35c-.73,2.55-3.39,3.89-5.57,4.25a8.14,8.14,0,0,1-8-2.54L86.74,107V30.29c.73-2.91,3.64-4.36,6.91-4.73,2.91-.36,5.09.73,7.27,2.91L102,31Z" transform="translate(-3.62 -2)"/><polygon class="cls-1" points="399.38 131.16 370.66 131.16 370.57 102.99 399.26 102.8 399.38 131.16"/></svg>