<svg id="Panasonic" xmlns="http://www.w3.org/2000/svg" viewBox="0 0 759.23 118.39"><defs><style>.cls-1,.cls-2{fill:#fff;}.cls-1{fill-rule:evenodd;}</style></defs><title>panasonic_logo</title><path class="cls-1" d="M187.14,75.48c0-18.63-2.23-33.39-39.19-33.39-30.85,0-41.16,11.09-40.94,29.35h27.62c.74-6.7,7.06-9.67,11.38-9.67,3.28,0,10.13.75,10.13,6.41,0,17-53.37,1.31-53.37,37.41,0,16.24,16.85,22.84,25.65,22.62,11.62-.29,20.57-2.38,29.36-10.58l3.38,8.34h27.4C187.26,123,187.14,75.48,187.14,75.48ZM141.8,110.37c-6.11,0-8.74-4.17-8.69-8.05.07-6.62,13.78-6.38,23.92-11.3C157.78,101.75,152.68,110.37,141.8,110.37Z" transform="translate(-4.77 -10.25)"/><path class="cls-1" d="M734.34,93.21c-.89,6.1-4,13.68-12.07,13.68-9.75,0-15.08-9.49-15.08-21.26,0-9.24,3.46-21.64,15.08-21.64a10.47,10.47,0,0,1,8.05,3.13,11.72,11.72,0,0,1,3.28,8h29.8c-2.23-23.1-20.27-32-41.13-32-25.78,0-44.88,15.34-44.88,42,0,26.38,19.69,42.61,44.88,42.61,21.61,0,39.05-10.86,41.73-34.55Z" transform="translate(-4.77 -10.25)"/><rect class="cls-2" x="639.44" y="35.54" width="29.93" height="80.25"/><rect class="cls-2" x="639.44" y="2.76" width="29.93" height="20.5"/><path class="cls-1" d="M503.47,42.3c-26.39,0-44.53,15.83-44.53,43,0,26.67,19.64,42.5,44.68,42.5s44.7-15.41,44.7-44C548.32,59.44,531,42.3,503.47,42.3Zm.15,64.59c-7.9,0-14-8.47-14-23.23,0-8.79,3.74-19.67,14.31-19.67,8-.45,13.74,8.82,13.74,20.29C517.65,99,512,106.89,503.62,106.89Z" transform="translate(-4.77 -10.25)"/><path class="cls-1" d="M404.67,65.25c.08-3.88,4.29-5.67,9.65-5.67,2.39,0,5.74.59,7.38,1.93a9.88,9.88,0,0,1,3,5.67h28.17C452.08,46.33,431.64,42,413.37,42,397.13,42,376.05,48.4,376,68.37c0,32.76,50.06,20.8,50.06,33.32,0,5.52-4.13,7.59-11.52,7.59-3,0-6.2-2-8.14-3.5-2.08-1.64-2.95-3.56-3.28-7.16H375.31c.55,21.87,20.51,30,38.39,30,33.16,0,42.73-14.41,42.84-30.66C456.76,66.66,404.47,76.5,404.67,65.25Z" transform="translate(-4.77 -10.25)"/><path class="cls-1" d="M370.74,75.48c0-18.63-2.23-33.39-39.19-33.39-30.85,0-41.16,11.09-40.94,29.35h27.62c.74-6.7,7.06-9.67,11.38-9.67,3.28,0,10.13.75,10.13,6.41,0,17-53.37,1.31-53.37,37.41,0,16.24,16.85,22.84,25.65,22.62,11.62-.29,20.57-2.38,29.36-10.58l3.38,8.34h27.4C370.86,123,370.74,75.48,370.74,75.48ZM325.4,110.37c-6.11,0-8.74-4.17-8.7-8.05.08-6.62,13.8-6.38,23.93-11.3C341.37,101.75,336.28,110.37,325.4,110.37Z" transform="translate(-4.77 -10.25)"/><path class="cls-1" d="M58,10.25H4.77V126H39.12V90.06h20C90,90.06,105,73.48,105,50.38,105,28.32,88.8,10.25,58,10.25ZM56.37,64.62H39.12V38.52H51.75c7.45,0,18.77,2,18.77,12C70.52,59.77,64.57,64.62,56.37,64.62Z" transform="translate(-4.77 -10.25)"/><path class="cls-1" d="M608.59,42.3c-11.78,0-16.75,2-27.7,12l.07-8.88-28.39,0V126H581V83.66c0-10,5.14-16.1,14.69-16.1,8.79,0,10.87,4.61,10.87,12.36V126h31V76.66C637.52,55.19,629.15,42.3,608.59,42.3Z" transform="translate(-4.77 -10.25)"/><path class="cls-1" d="M252.31,42.3c-11.77,0-16.74,2-27.69,12l.07-8.88-28.39,0V126h29.91V83.66c0-10,3.95-17.22,13.49-17.22,8.79,0,10.55,5.73,10.55,13.48V126h31V76.66C281.25,55.19,272.88,42.3,252.31,42.3Z" transform="translate(-4.77 -10.25)"/></svg>