<svg id="Philips" xmlns="http://www.w3.org/2000/svg" viewBox="0 0 722.02 132.39"><defs><style>.cls-1{fill:#fff;}</style></defs><title>philips_logo</title><path class="cls-1" d="M77.75,51.29c0,16.48-8,27.65-28.16,27.65H43.21V26.43c2.27-.13,4.38-.13,6.38-.13,19.12,0,28.16,9,28.16,25M57,101.8c36.13,0,59-18.62,59-51C116,15.13,91.56,2.37,51.71,2.37A435.19,435.19,0,0,0,4.43,5V132.11H43.21V101.8ZM576.62,51.29c0,16.48-8,27.65-28.16,27.65H542.1V26.43c2.25-.13,4.37-.13,6.36-.13,19.13,0,28.16,9,28.16,25m-20.7,50.51c36.1,0,59-18.62,59-51,0-35.63-24.44-48.39-64.29-48.39A435.52,435.52,0,0,0,503.3,5V132.11h38.8V101.8ZM665.34,37.46c0-6.91,6.92-10.1,18.06-10.1,12.23,0,25.52,2.66,34.54,6.39L714.76,6.09a152.15,152.15,0,0,0-35.6-3.72c-31.35,0-52.59,12.37-52.59,38.29,0,44.65,60.57,35.62,60.57,56.36,0,8-5.85,12.21-20.2,12.21-12.74,0-32.41-4.24-44.09-10.09l4.26,29.25c11.68,4.25,27.62,6.37,40.37,6.37,32.4,0,59-10.63,59-42.54,0-42.52-61.11-34.55-61.11-54.76M474.09,5H435.31V132.11h38.78ZM316.83,5H278V132.11h38.79ZM384.3,106.58V5H345.51V132.11h70.14l5.84-25.53ZM249.35,5H210.57V55.54H170.19V5H131.4V132.11h38.79v-50h40.38v50h38.78Z" transform="translate(-4.43 -2.37)"/></svg>