<svg id="Proline" xmlns="http://www.w3.org/2000/svg" viewBox="0 0 752.08 131.53"><defs><style>.cls-1{fill:#fff;}</style></defs><title>proline_logo</title><path class="cls-1" d="M550.35,35.55c-.37,8.8-.93,17.6-1.05,26.4-.18,13.45,0,26.91-.06,40.37-.12,18-10,28.56-28,29-17.78.39-35.61.61-53.37-.13-6.34-.26-12.55-3.56-19.7-5.74-4.42,6.94-13.13,6.33-21.35,6.36q-27.9.12-55.79-.47c-17.25-.4-27.69-11.33-27.9-28.69q-.54-42.72-1-85.44c-.09-9.23.62-9.88,9.63-9.89a35.2,35.2,0,0,0,3.56,0c5.12-.51,6.93,1.68,6.9,6.86-.19,27.91-.09,55.81-.09,83.72,0,1.78,0,3.56,0,5.34.32,6.87,2.57,9.08,9.58,9.1q27.9.08,55.81,0c9.48,0,12.76-3.21,12.85-12.92.15-16,.25-32.07-.07-48.09-.1-5.24,1.44-6.84,6.7-6.68,11.27.33,11.28.06,11.28,11.42,0,14.44,0,28.89,0,43.34,0,9.84,3,12.9,12.61,12.93q24,.08,48.09,0c8.94,0,11.82-2.91,11.89-11.6q.32-38.27.57-76.54c.07-9.94,3-14.89,10.36-17.23,6.83-2.17,14.48.63,19.52,7.83,11.43,16.35,22.51,33,34,49.3,7.81,11.16,16,22,24,33.1,1.38,1.91,2.47,4,3.69,6.06l2.53-1.58c.32-7.72.86-15.44.91-23.17.12-21,0-41.95.05-62.93,0-7.52.2-7.73,7.65-7.72,13.89,0,11.84-.88,11.87,11.59,0,31.27.12,62.54-.26,93.8a25.12,25.12,0,0,1-4.16,13.16c-7,10.22-18.24,10-25.4-.23C597.33,99.1,578.59,72,559.71,44.9c-2.35-3.36-5-6.48-7.56-9.71Z" transform="translate(-3.82 -3.21)"/><path class="cls-1" d="M178.25,83.85l32.68,50.8c-11.81,0-22,.24-32.14-.21-1.92-.09-4.23-2.61-5.47-4.58-8-12.66-15.81-25.5-23.72-38.25a18.43,18.43,0,0,0-6.1-6.32,46.18,46.18,0,0,0-.75,5.81c-.07,12.27-.18,24.54,0,36.8.09,5.25-2.18,7-7.14,6.82-5.72-.25-11.45-.16-17.18-.14-4.49,0-5.65-2.59-5.62-6.54.07-11.47,0-22.94,0-34.42q0-40.65,0-81.31c0-8,1-9,8.73-9,19.39,0,38.77-.08,58.16,0,15.54.07,25.51,8.86,26.66,24.31.69,9.24.3,18.59,0,27.87-.45,13.48-9,20.84-20.4,25.75-1.08.46-2.21.81-3.33,1.2C181.78,82.71,180.88,83,178.25,83.85ZM142.73,68.34c8.24-9.91,18-10.88,28.32-10.88,2.22,0,6.11-2.17,6.34-3.74a43.81,43.81,0,0,0-.45-15.11c-.43-1.93-4.14-4.26-6.51-4.45-7.45-.6-15-.18-22.47-.36-3.47-.08-5.23,1.27-5.23,4.75Z" transform="translate(-3.82 -3.21)"/><path class="cls-1" d="M321.81,58.58q0,22.24,0,44.49c0,14.9-10.73,27.41-25.66,28.12-16.35.77-32.79.6-49.17,0-12.07-.45-22.31-12.83-22.29-26.56,0-26.48.42-52.95,1-79.42.25-11.47,12.44-21.81,25.43-21.9,21-.15,41.92,0,62.88-.08,5.52,0,7.88,2.5,7.86,7.91C321.76,26.94,321.81,42.76,321.81,58.58Zm-29,10.48q0-14,0-27.88c0-4.35-1.48-7.28-6.47-7.25-9.69.07-19.38,0-29.07,0-3.71,0-5.37,1.73-5.36,5.43,0,18-.1,36,.08,54,.06,6.52,3.64,9.7,10.1,9.7,8.1,0,16.22-.42,24.3,0,5.25.24,6.51-2.13,6.45-6.66C292.77,87.25,292.86,78.15,292.85,69.06Z" transform="translate(-3.82 -3.21)"/><path class="cls-1" d="M3.83,68.37q0-28.19,0-56.36c0-7.28,2-8.73,9.36-8.65,16.6.19,33.22.46,49.8,0,17.34-.54,29.3,9.82,29.74,27.17.25,10.07.25,20.17-.11,30.25C92.14,74.39,82.38,87.34,66,86.39c-7.49-.44-15-.15-22.53,0-3.76,0-5.41-1.58-5.36-5.33.09-6.12.08-12.26,0-18.39,0-4.14,1.76-6.26,6-6.23,4.94,0,9.88-.07,14.83,0,4.63,0,7-2.24,7-6.82,0-3.75.35-7.79-.94-11.12-.92-2.35-4.19-5-6.64-5.3-7.05-.73-14.22-.42-21.33-.28-4.6.08-5,3.33-5,7.06q.09,41.52,0,83.05c0,1.39,0,2.77,0,4.15.06,3.69-1.65,5.43-5.41,5.34-4.75-.11-9.5,0-14.24,0-8,0-8.56-.51-8.56-8.28Q3.81,96.25,3.83,68.37Z" transform="translate(-3.82 -3.21)"/><path class="cls-1" d="M755.88,7.66c0,9.82.06,18.84,0,27.86-.06,8.29-.23,16.59-.39,24.88a27.41,27.41,0,0,1-27.35,27c-14.82.1-29.65,0-44.48,0a7.22,7.22,0,0,0-1.55.5c0,5.47-.62,11.2.17,16.71.88,6.14,5.83,7.82,11.53,7.8,18.39,0,36.78.14,55.16-.11,4.81-.07,6.51,1.16,6.43,6.23-.23,13.89,0,14-13.82,13.87-17-.11-34-.27-51-.58-13.8-.25-25.8-11.77-26-25.47-.27-24.91-.22-49.83,0-74.74.11-12.7,7.73-21.71,20.46-22.5,18.7-1.17,37.49-1,56.25-1.42C746.07,7.58,750.8,7.66,755.88,7.66ZM706.73,68.45c6.32,0,12.64.06,19,0,7.57-.09,11.7-4.16,11.81-11.7s-.13-15,.07-22.52c.12-4.47-1.41-6.45-6.15-6.37-12.64.2-25.29,0-37.93.09-7.34.05-11.39,3.92-11.58,11.26-.2,8.09.07,16.2-.09,24.29-.08,4,1.62,5.15,5.36,5C693.69,68.3,700.21,68.45,706.73,68.45Z" transform="translate(-3.82 -3.21)"/><path class="cls-1" d="M450.5,29.31c-8.1,0-12.81-4.32-12.72-11.57A12.57,12.57,0,0,1,450.29,5.33c7-.11,11.86,5.06,11.87,12.59C462.17,25.88,458.63,29.34,450.5,29.31Z" transform="translate(-3.82 -3.21)"/></svg>