<svg id="Samsung" xmlns="http://www.w3.org/2000/svg" viewBox="0 0 752.38 110.21"><defs><style>.cls-1{fill:#fff;fill-rule:evenodd;}</style></defs><title>samsung_logo</title><path class="cls-1" d="M416.39,64.39a95.37,95.37,0,0,0-11.88-6.25,93.75,93.75,0,0,1-16.9-9.62,9.77,9.77,0,0,1-2.3-11.09,7,7,0,0,1,7.27-3.75s7.52.42,7.52,6.62v8.5H427V36s2-21.08-31.74-21.93c0,0-26.58-1.74-34.18,12.54,0,0-3,3.19-3,14.32v8a26.94,26.94,0,0,0,4.42,15.26,34.8,34.8,0,0,0,9.39,8.21s13.38,7.24,21.41,11.37c0,0,8.12,4.69,7,12a8,8,0,0,1-8.5,7.28,7.46,7.46,0,0,1-7.13-7.75V86.55H355.91V99.41s-.84,24.18,36.06,24.18c0,0,35.22.71,36.86-24.83V88.28A27,27,0,0,0,416.39,64.39Z" transform="translate(-3.81 -13.38)"/><polygon class="cls-1" points="274.73 3.68 265.71 60.16 263.6 60.16 255 4.19 210.02 4.19 207.77 106.46 234.39 106.46 234.72 29.41 236.83 29.41 250.92 106.46 278.95 106.46 292.9 29.45 294.73 29.45 295.38 106.46 322.15 106.46 319.28 3.68 274.73 3.68 274.73 3.68"/><polygon class="cls-1" points="116.26 4.1 98.51 106.36 127.2 106.36 137.67 27.06 140.02 27.06 150.53 106.36 179.18 106.36 161.47 4.1 116.26 4.1 116.26 4.1"/><path class="cls-1" d="M721.54,63V78.1h7.32V94.25a7.37,7.37,0,0,1-14.65,1.59,7,7,0,0,1,0-1v-56c0-5.78,7.32-6.11,7.32-6.11a6.85,6.85,0,0,1,7,6.67,1.77,1.77,0,0,1,0,.23v8.5h27c.9-16.62-2.44-20.61-2.44-20.61-6.67-15.07-32-14.09-32-14.09-38.92-.14-34.61,29.68-34.61,29.68V97.25c.85,28.17,39.21,25.17,39.87,25.17,17-1.93,22.21-7.33,22.21-7.33a16.52,16.52,0,0,0,6-8.4,49,49,0,0,0,1.69-12V63Z" transform="translate(-3.81 -13.38)"/><polygon class="cls-1" points="628.28 66.26 627.11 66.26 599.69 3.68 566.91 3.68 566.91 106.5 593.59 106.5 591.99 43.96 593.16 43.96 621.57 106.5 653.36 106.5 653.36 3.68 626.36 3.68 628.28 66.26 628.28 66.26"/><path class="cls-1" d="M505.6,94.25s.42,8.45-7.42,8.45a7.7,7.7,0,0,1-8.2-7.16,5.61,5.61,0,0,1,0-.82V17.39H460.71V93.87s-3.1,29,37.89,29c0,0,35.6.42,35.6-27.7v-78H505.6Z" transform="translate(-3.81 -13.38)"/><path class="cls-1" d="M64.29,64.39a95.37,95.37,0,0,0-11.88-6.25,93.56,93.56,0,0,1-16.95-9.62A9.74,9.74,0,0,1,33.2,37.43a6.9,6.9,0,0,1,7.28-3.75S48,34.1,48,40.3v8.5H75V36s2-21.08-31.79-21.93a55,55,0,0,0-6.29,0S16.68,15.18,9.12,26.4h0s-3,3.19-3,14.32v8.22a26.67,26.67,0,0,0,4.7,15.26,35,35,0,0,0,9.39,8.21s13.38,7.24,21.41,11.32c0,0,8.12,4.7,7,12a8,8,0,0,1-8.5,7.28A7.46,7.46,0,0,1,33,95.28V86.55H3.81V99.41S3,123.59,39.87,123.59c0,0,35.22.71,36.86-24.83V88.28A27,27,0,0,0,64.29,64.39Z" transform="translate(-3.81 -13.38)"/></svg>