<?xml version="1.0" encoding="utf-8"?>
<!-- Generator: Adobe Illustrator 23.0.2, SVG Export Plug-In . SVG Version: 6.00 Build 0)  -->
<svg version="1.1" id="TCL" xmlns="http://www.w3.org/2000/svg" xmlns:xlink="http://www.w3.org/1999/xlink" x="0px" y="0px"
	 viewBox="0 0 768 137" style="enable-background:new 0 0 768 137;" xml:space="preserve">
<style type="text/css">
	.st0{fill:#FFFFFF;}
</style>
<g>
	<polyline class="st0" points="3.5,45 50.9,45 50.9,129.9 93.3,129.9 93.3,45 140.6,45 140.6,10.7 3.5,10.7 3.5,45 	"/>
	<path class="st0" d="M223.7,105.3c-9.9,0-17.2-2.8-23.5-8.7c-6.1-5.7-10.5-14.5-10.5-26.4v-1.8c0-11.8,4.4-20.7,10.5-26.4
		c6.3-5.9,13.7-8.6,23.5-8.6c23.1,0,28.1,13.8,29.6,22.8h37.6c-0.9-18.1-9.6-30.9-21.8-39.4c-12.2-8.4-26.3-12.8-45-12.8
		c-23,0-39.4,5.1-52.9,16.5c-13.5,11.6-20.8,30-20.8,48.3v0.9c0,20,6.3,35,20.2,47.7c13,11.8,31.9,17.2,53,17.1
		c18.7,0,34.7-4.4,45.8-12.7c12.2-9.2,20.6-22.2,21.6-39.3h-37.5C252.5,89.8,248,105.3,223.7,105.3"/>
	<polyline class="st0" points="354.6,97.2 354.6,10.7 313.8,10.7 313.8,129.8 421.5,129.8 421.5,97.2 354.6,97.2 	"/>
</g>
</svg>
