<?xml version="1.0" encoding="utf-8"?>
<!-- Generator: Adobe Illustrator 23.0.2, SVG Export Plug-In . SVG Version: 6.00 Build 0)  -->
<svg version="1.1" id="Thomson" xmlns="http://www.w3.org/2000/svg" xmlns:xlink="http://www.w3.org/1999/xlink" x="0px" y="0px"
	 viewBox="0 0 768 137" style="enable-background:new 0 0 768 137;" xml:space="preserve">
<style type="text/css">
	.st0{fill:#FFFFFF;}
</style>
<g>
	<path class="st0" d="M37.1,49.3c-12.3,0-24.2,0-36.6,0c1.2-5.6,2.3-10.8,3.4-16.2c40.1,0,80,0,120.5,0c-1.9,9.2-3.7,18.2-5.6,27.6
		c1.9,0.1,3.2,0.2,4.6,0.2c14.9,0,29.8-0.1,44.7,0.1c3.7,0.1,4.9-1.3,5.5-4.6c1.4-7.8,3.2-15.5,4.8-23.4c6.8,0,13.4,0,20.3,0
		c-1.8,8.7-3.5,17.3-5.3,25.8c-3.4,16.1-6.9,32.3-10.2,48.4c-0.6,2.9-1.5,4.2-4.8,4c-5.3-0.3-10.6-0.1-16.4-0.1
		c2.3-11.2,4.5-21.8,6.8-33c-1.7,0-3,0-4.2,0c-15.3,0-30.6,0.1-45.8-0.1c-2.9,0-4.1,0.8-4.6,3.8c-1.6,8.6-3.7,17.2-5.4,25.9
		c-0.5,2.6-1.4,3.6-4.1,3.5c-5.4-0.2-10.9-0.1-17.1-0.1c4.4-20.8,8.6-41.1,12.9-61.7c-1.3-0.1-2.4-0.3-3.4-0.3
		c-12.1,0-24.1,0.1-36.2-0.1c-2.6,0-3.6,0.8-4.1,3.4c-3.8,18.5-7.8,36.9-11.6,55.3c-0.5,2.6-1.5,3.5-4.1,3.5
		c-5.4-0.2-10.9-0.1-17-0.1C28.5,90.4,32.8,70.1,37.1,49.3z"/>
	<path class="st0" d="M412.5,59.3c-14.6,14-29.1,27.9-43.9,42.1c-8.9-14.4-17.7-28.4-27-43.5c-2,9.4-3.7,17.6-5.5,25.8
		c-1.7,8.3-3.4,16.5-5.3,24.7c-0.2,1-1.2,2.6-1.9,2.6c-6.2,0.2-12.3,0.1-19,0.1c1.7-7.9,3.2-15.3,4.8-22.7
		c3.7-17.5,7.4-34.9,11-52.4c0.5-2.5,1.4-3.3,3.9-3.2c5.7,0.1,11.4,0.1,17.1,0c2.2-0.1,3.3,0.8,4.4,2.6C358,46.8,365,58.1,372,69.4
		c0.7,1.1,1.5,2.2,2.4,3.6c4.1-3.9,7.8-7.5,11.6-11.1c9.1-8.8,18.3-17.5,27.3-26.4c1.9-1.9,3.9-2.7,6.6-2.6
		c6.3,0.2,12.6,0.1,19.5,0.1c-1.4,6.9-2.8,13.2-4.1,19.5c-3.9,18.4-7.8,36.9-11.6,55.3c-0.6,2.7-1.5,3.7-4.3,3.6
		c-5.4-0.2-10.9-0.1-16.9-0.1c3.7-17.5,7.2-34.5,10.8-51.5C413,59.6,412.7,59.4,412.5,59.3z"/>
	<path class="st0" d="M686.6,57.6c-1.9,8.8-3.6,16.6-5.2,24.5c-1.8,8.6-3.7,17.2-5.4,25.9c-0.5,2.5-1.4,3.5-4.1,3.4
		c-5.4-0.2-10.9-0.1-17-0.1c5.5-26.3,11-52.2,16.5-78.3c7.4,0,14.6-0.1,21.8,0.1c1.1,0,2.4,1.5,3.2,2.6
		c11.6,15.7,23.2,31.4,34.8,47.1c0.9,1.2,1.8,2.3,3.2,4.1c1.7-7.8,3.2-14.8,4.7-21.8c2-9.7,4.1-19.4,6.1-29.1
		c0.4-2.1,1.1-3.2,3.6-3.1c5.6,0.2,11.2,0.1,17.4,0.1c-1,5-1.9,9.7-2.9,14.4c-4.2,19.8-8.4,39.5-12.4,59.4c-0.7,3.5-1.9,5-5.7,4.7
		c-5.1-0.4-10.2-0.2-15.3,0c-2.4,0.1-3.8-0.8-5.2-2.7c-11.5-15.7-23.2-31.4-34.8-47.1C688.9,60.5,688.1,59.4,686.6,57.6z"/>
	<path class="st0" d="M436.5,99.3c4.3-4.6,8.4-8.9,12.7-13.3c7.5,5,15.5,8.5,24.3,10c10.1,1.7,20.3,2.2,30.2-1.1
		c3.2-1.1,6.4-2.9,8.8-5.3c3.5-3.4,2.5-7.2-2.3-8.3c-5.4-1.2-11-1.6-16.5-2.3c-9.2-1-18.5-1.9-27.7-3c-1.6-0.2-3.1-0.7-4.7-1.3
		c-11.5-3.9-15-12-10.2-23.1c2.5-5.7,6.7-9.8,11.9-12.9c7.5-4.5,15.7-6.8,24.3-7.6c14.4-1.3,28.8-1.1,42.6,4.1
		c4.2,1.6,8.1,4,12.7,6.3c-4.8,4.4-8.8,8.3-13,11.9c-0.6,0.5-2.3,0.3-3.2-0.1c-15-7.7-30.7-8-46.8-4.9c-2.5,0.5-5,1.6-7.1,3
		c-1.3,0.9-2.6,3-2.5,4.5c0.1,1.2,2.1,3,3.5,3.3c5.9,1.2,12,1.9,18,2.7c9.9,1.3,19.9,2.4,29.8,3.7c1.4,0.2,2.8,0.9,4.2,1.5
		c8.2,3.5,11.2,9.6,9.3,18.3c-2.2,10-8.3,17.1-17.4,20.9c-7.1,3-14.8,5.4-22.4,6.2c-17.7,2-35.2,1-51.2-8.4c-2-1.2-3.9-2.6-5.9-3.9
		C437.3,100,436.7,99.6,436.5,99.3z"/>
	<path class="st0" d="M245.7,114.2c-6.2-1-12.6-1.4-18.6-3.2c-28.2-8.2-32.2-31.6-20.7-52c6.2-11,15.9-18,27.4-22.6
		c17.1-6.9,34.5-8.3,52-1.8c15.2,5.6,23.7,17.7,22.7,31.5c-0.9,11.8-5.8,21.7-14.4,29.8C281.9,107.1,264.5,113.5,245.7,114.2z
		 M247.5,97.4c4.4-0.5,7.4-0.6,10.3-1.1c12.9-2.5,23.4-8.4,27.9-21.6c4.1-12.1-0.8-22-13-25.7c-12.9-3.9-25.3-2.4-36.9,4.5
		c-6.9,4.1-11.5,10.1-13.5,18c-2.7,10.9,1.8,19.8,12.4,23.3C239.2,96.3,244.1,96.7,247.5,97.4z"/>
	<path class="st0" d="M590.4,114.2c-6.2-1-12.6-1.5-18.6-3.2c-27.4-8.2-32.3-31.1-20.3-52.2c6.1-10.8,15.8-17.7,27.1-22.3
		c17.2-7,34.7-8.3,52.3-1.7c16.2,6.1,23.8,18,22,34.3c-1.2,10.6-6.1,19.6-14,26.9C625.3,108.3,608.7,113.3,590.4,114.2z M592.9,97.4
		c3.9-0.4,6.8-0.5,9.6-1.1c13.5-2.5,24.3-8.7,28.5-22.8c3.4-11.4-1.4-20.8-12.7-24.3c-13.5-4.3-26.5-2.7-38.6,4.9
		c-6,3.8-10.1,9.1-12.1,16c-3.6,12.1,1.3,21.6,13.5,25.2C585.3,96.5,589.7,96.8,592.9,97.4z"/>
</g>
</svg>
