<?xml version="1.0" encoding="utf-8"?>
<!-- Generator: Adobe Illustrator 23.0.2, SVG Export Plug-In . SVG Version: 6.00 Build 0)  -->
<svg version="1.1" id="Vizio" xmlns="http://www.w3.org/2000/svg" xmlns:xlink="http://www.w3.org/1999/xlink" x="0px" y="0px"
	 viewBox="0 0 768 137" style="enable-background:new 0 0 768 137;" xml:space="preserve">
<style type="text/css">
	.st0{fill:#FFFFFF;}
</style>
<path class="st0" d="M455,133.4c-17.7,0-32.1-14.4-32.1-32.1V36.9c0-17.7,14.4-32.1,32.1-32.1h69.6c17.7,0,32.1,14.4,32.1,32.1v64.5
	c0,17.7-14.4,32.1-32.1,32.1H455z M439.4,36.9v64.5c0,8.6,7,15.5,15.5,15.5h69.6c8.6,0,15.5-7,15.5-15.5V36.9
	c0-8.6-7-15.5-15.5-15.5H455C446.4,21.3,439.4,28.3,439.4,36.9z"/>
<rect x="375.1" y="4.2" class="st0" width="16.5" height="129.2"/>
<rect x="160.5" y="4.2" class="st0" width="16.5" height="129.2"/>
<path class="st0" d="M136.7,4.2h-16.5v42.3c0,0.2-0.1,0.4-0.1,0.8c-0.1,0.7-0.3,1.8-0.6,3c-0.5,2.4-1.6,5.3-2.7,6.9l-0.1,0.2
	l-33,56.1l-0.1,0.2l-0.2,0.3c-0.3,0.4-0.8,1.1-1.8,1.8c-1.8,1.4-5.1,3.2-11.8,3.4c-6.6-0.2-9.9-2-11.8-3.4c-1-0.7-1.5-1.4-1.8-1.8
	l-0.2-0.3l-0.1-0.2l-33-56.1L23,57.2c-1.1-1.6-2.1-4.5-2.7-6.9c-0.3-1.2-0.4-2.3-0.6-3c0-0.3-0.1-0.6-0.1-0.8V4.2H3.1h0v43l0,0.3
	c0,0.3,0.2,2.8,1,6.4C5,57.4,6.3,61.8,9,66.1l32.4,55.1c0.7,1.4,2.7,4.6,6.7,7.7c4.4,3.4,11.3,6.4,20.7,6.7c0.3,0,0.7,0,1,0
	c0.3,0,0.7,0,1,0c9.4-0.3,16.3-3.3,20.7-6.7c4.1-3.1,6-6.3,6.7-7.7l32.4-55.1c2.8-4.3,4.1-8.7,4.9-12.2c0.8-3.5,1-6.1,1-6.4l0-0.3
	L136.7,4.2L136.7,4.2z"/>
<path class="st0" d="M227.2,116.7c-0.8-7.4,4.3-17.6,4.3-17.6h0c1.6-2.4,3.9-5,7.6-7.2l73.2-28.5l4.8-1.9c1.1-0.5,2.1-1.1,3.2-1.6
	c6.9-3.8,11.9-8.4,15.5-13.1c1.4-1.8,2.6-3.7,3.5-5.5c1.3-2.4,2.2-4.7,2.9-6.9c1.7-5.2,2-9.6,2-11.9c0-0.4,0-0.8,0-1l0-0.3V4.8h-127
	v16.7h110.4v0.3l0,0.3c0,0,0,0.1,0,0.4c0,1.4-0.3,5.9-2.9,10.8c-2.3,4.2-4.8,10.7-14.4,14.4l-3.1,1.2l-66.5,25.9l-4.8,1.9
	c-8.4,4-14.5,9.3-18.6,14.7c-1.4,1.8-2.6,3.7-3.6,5.5c-1.3,2.4-2.2,4.7-2.9,6.9c-1.7,5.2-2,9.6-2,11.9c0,0.4,0,0.8,0,1l0,0.3v16.4
	H347v-16.7H227.2z"/>
</svg>
