<svg id="Layer_1" data-name="Layer 1" xmlns="http://www.w3.org/2000/svg" viewBox="0 0 338.5 61"><defs><style>.cls-1{fill:none;stroke:#fff;stroke-miterlimit:10;}.cls-2{fill:#fff;}</style></defs><title>2stars</title><path class="cls-1" d="M155.5,30.5a30,30,0,1,1,30,30,30,30,0,0,1-30-30Zm30,27.6a27.6,27.6,0,1,0-27.6-27.6,27.66,27.66,0,0,0,27.6,27.6Z" transform="translate(-15.5)"/><path class="cls-1" d="M186.7,10.5,191.2,24l14.2.2a1.27,1.27,0,0,1,.7,2.3L194.7,35l4.2,13.6a1.28,1.28,0,0,1-2,1.4l-11.6-8.2L173.7,50a1.31,1.31,0,0,1-2-1.4L175.9,35l-11.4-8.5a1.27,1.27,0,0,1,.7-2.3l14.2-.2,4.5-13.5c.8-1.1,2.4-1.1,2.8,0Z" transform="translate(-15.5)"/><path class="cls-1" d="M224.5,30.5a30,30,0,1,1,30,30,30,30,0,0,1-30-30Zm30,27.6a27.6,27.6,0,1,0-27.6-27.6,27.66,27.66,0,0,0,27.6,27.6Z" transform="translate(-15.5)"/><path class="cls-1" d="M255.7,10.5,260.2,24l14.2.2a1.27,1.27,0,0,1,.7,2.3L263.7,35l4.2,13.6a1.28,1.28,0,0,1-2,1.4l-11.6-8.2L242.7,50a1.31,1.31,0,0,1-2-1.4L244.9,35l-11.4-8.5a1.27,1.27,0,0,1,.7-2.3l14.2-.2,4.5-13.5c.8-1.1,2.4-1.1,2.8,0Z" transform="translate(-15.5)"/><path class="cls-1" d="M293.5,30.5a30,30,0,1,1,30,30,30,30,0,0,1-30-30Zm30,27.6a27.6,27.6,0,1,0-27.6-27.6,27.66,27.66,0,0,0,27.6,27.6Z" transform="translate(-15.5)"/><path class="cls-1" d="M324.7,10.5,329.2,24l14.2.2a1.27,1.27,0,0,1,.7,2.3L332.7,35l4.2,13.6a1.28,1.28,0,0,1-2,1.4l-11.6-8.2L311.7,50a1.31,1.31,0,0,1-2-1.4L313.9,35l-11.4-8.5a1.27,1.27,0,0,1,.7-2.3l14.2-.2,4.5-13.5c.8-1.1,2.4-1.1,2.8,0Z" transform="translate(-15.5)"/><path class="cls-2" d="M85.5,30.5a30,30,0,1,1,30,30,30,30,0,0,1-30-30Zm30,27.6A27.6,27.6,0,1,0,87.9,30.5a27.66,27.66,0,0,0,27.6,27.6Z" transform="translate(-15.5)"/><path class="cls-2" d="M116.7,10.5,121.2,24l14.2.2a1.27,1.27,0,0,1,.7,2.3L124.7,35l4.2,13.6a1.28,1.28,0,0,1-2,1.4l-11.6-8.2L103.7,50a1.31,1.31,0,0,1-2-1.4L105.9,35,94.5,26.5a1.27,1.27,0,0,1,.7-2.3l14.2-.2,4.5-13.5c.8-1.1,2.4-1.1,2.8,0Z" transform="translate(-15.5)"/><path class="cls-2" d="M15.5,30.5a30,30,0,1,1,30,30,30,30,0,0,1-30-30Zm30,27.6A27.6,27.6,0,1,0,17.9,30.5,27.66,27.66,0,0,0,45.5,58.1Z" transform="translate(-15.5)"/><path class="cls-2" d="M46.7,10.5,51.2,24l14.2.2a1.27,1.27,0,0,1,.7,2.3L54.7,35l4.2,13.6a1.28,1.28,0,0,1-2,1.4L45.3,41.8,33.7,50a1.31,1.31,0,0,1-2-1.4L35.9,35,24.5,26.5a1.27,1.27,0,0,1,.7-2.3L39.4,24l4.5-13.5c.8-1.1,2.4-1.1,2.8,0Z" transform="translate(-15.5)"/></svg>