<?xml version="1.0" encoding="utf-8"?>
<!-- Generator: Adobe Illustrator 24.0.3, SVG Export Plug-In . SVG Version: 6.00 Build 0)  -->
<svg version="1.1" xmlns="http://www.w3.org/2000/svg" xmlns:xlink="http://www.w3.org/1999/xlink" x="0px" y="0px"
	 viewBox="0 0 900 520" style="enable-background:new 0 0 900 520;" xml:space="preserve">
<style type="text/css">
	.st0{fill:#7FFFE4;}
	.st1{display:none;}
	.st2{display:inline;fill:#FFFFFF;}
	.st3{font-family:'Arial-Black';}
	.st4{font-size:392.9119px;}
	.st5{font-size:185.473px;}
</style>
<g id="Layer_1">
	<g id="layer101">
		<path class="st0" d="M60,478.3c-1.4-0.2-5-1.1-8-2s-5.7-1.7-6-1.8c-3.5-0.7-20-15.1-20-17.5c0-0.4-0.8-1.8-1.9-3.1
			c-1-1.3-1.9-2.7-2-3.1c0-0.5-0.1-0.9-0.2-1c-1.4-4.8-3-14.1-3-18.5c0-2.4-0.5-4.5-1-4.9c-0.5-0.3-0.9-1.1-0.9-1.7
			c0-0.7,0.4-0.6,1,0.3c0.6,1,0.9-13.4,0.7-40.8L18.5,342h17.8H54v44.1c0,42.6,0.6,52.9,3.2,52.9c0.5,0,0.6,0.4,0.3,1
			c-1.1,1.7,4.5,5.8,9.3,6.9c4.9,1,10.5,0.5,9.7-0.9c-0.3-0.5,0.3-0.6,1.3-0.4c1,0.3,2.9-0.7,4.6-2.5c1.7-1.7,2.6-3.1,2.2-3.1
			c-0.5,0-0.2-0.7,0.5-1.7c1.1-1.3,1.4-10.5,1.6-48.7l0.2-47.1l17.2-0.5c9.4-0.3,17.3-0.3,17.5-0.1c0.2,0.2,0.4,21.6,0.4,47.5
			c0,42.4-0.2,47.8-1.9,54.1c-2.5,9.6-5,14.2-11.5,20.7c-6.5,6.7-17.3,12.4-26.1,13.8C76.6,479,64.9,479.1,60,478.3z"/>
		<path class="st0" d="M761.1,411.1c0-37.4-0.2-68.4-0.4-68.8c-0.3-0.4,5.2-0.7,12.1-0.6c7,0.2,22.4,0.4,34.2,0.6
			c18.1,0.4,22.5,0.7,28.2,2.5c3.6,1.1,6.9,1.8,7.2,1.6c0.3-0.2,0.4-0.1,0.1,0.2c-0.4,0.6,5.7,4.2,7.9,4.7c0.5,0.1,3.4,2.5,6.4,5.2
			c3,2.8,5.9,4.9,6.4,4.7c0.5-0.1,0.7,0.2,0.4,0.7c-0.5,0.7,2.1,4.6,6.4,9.8c3.7,4.4,9,29.4,8.5,39.8c-0.3,7.2-3.1,23-4.6,25.6
			c-0.5,1.1-0.7,2.4-0.4,2.9c0.3,0.6,0.2,1-0.4,1c-0.5,0-1.3,1-1.6,2.3c-0.4,1.2-1.8,3.7-3.2,5.5c-2.1,2.8-2.3,3.6-1.2,5
			c0.9,1.2,0.9,1.4,0.1,0.6c-0.9-0.8-2.7,0.3-6.8,4.2c-8.4,7.9-8.9,8.2-16.8,11.3c-13.4,5.4-19.9,6.2-51.1,6.1
			c-24.2,0-28.6,0.2-29.9,1.5C761.2,478.9,761.1,472.3,761.1,411.1z M828,441.5c5.9-3.2,11-9.6,13-16.3c0.7-2,1.4-7.7,1.7-12.7
			c0.9-14.7-2.9-26-11.1-33.2c-5.8-5.1-10.8-6.5-24.1-6.7l-10.5-0.2v36.4v36.4l12.8-0.4C821.7,444.5,822.9,444.3,828,441.5z"/>
		<path class="st0" d="M563.5,476.9c-0.5-0.7-6.4-1-17.6-0.8c-9.3,0.1-17,0.1-17.2-0.2c-0.8-1-3.9-10.1-4.1-12.2
			c-0.2-1.2-0.6-3.2-1-4.4c-0.7-2.3-0.8-2.3-23.6-2.3h-22.9l-1.9,5.3c-1.1,2.8-2.5,7.1-3.2,9.5l-1.3,4.2l-5.6,0.1
			c-13.3,0.1-31.6-0.2-31.9-0.6c-0.3-0.3,7.2-20.3,15.8-41.9c1.1-2.6,1.7-5.3,1.3-5.9c-0.3-0.5-0.2-0.7,0.3-0.4
			c0.5,0.3,3.7-6.5,7.1-15.1c16.2-41.2,18.2-46.6,17.6-47.6c-0.3-0.6-0.2-0.8,0.2-0.3c0.8,0.7,5.5-9,5.9-12.3c0.1-0.8,1-3.3,1.9-5.4
			c1.2-2.8,1.4-4.2,0.6-4.6c-0.7-0.5-0.5-0.9,0.6-1.3c0.9-0.4,1.3-0.3,1,0.3c-0.4,0.6,5.4,1.1,15,1.2l15.7,0.3l3.3,8.5
			c1.9,4.7,5.3,13.7,7.6,20c2.4,6.3,4.5,11.7,4.9,12c0.3,0.3,0.6,1.2,0.8,2c0.7,3.6,11.6,30,12.4,30c0.5,0,0.6,0.5,0.3,1
			c-0.3,0.6-0.2,1,0.4,1c0.6,0,0.8,0.7,0.5,1.4c-0.5,1.4,3.1,11.9,8.8,25.8c2,4.8,2.6,5.6,3.8,4.5c1.2-1,1.2-0.9,0.1,0.5
			c-1.2,1.5-0.8,3.1,2.5,11.2c2.1,5.2,4.1,9.3,4.4,9.1c0.3-0.2,0.6,1.2,0.7,3.1c0.2,2.5-0.1,3.4-1.3,3.4c-0.8,0-1.2,0.5-0.9,1
			c0.3,0.6,0.4,1,0.1,1C564.3,478,563.8,477.5,563.5,476.9z M513,428.4c0-1.4-6.4-19-7.3-20.1c-0.5-0.7-0.6-1.3-0.1-1.3
			s0.2-0.5-0.6-1c-1.2-0.8-1.2-1-0.1-1s1.1-0.3,0-1.7c-0.8-0.9-1.2-1.8-1-2c0.8-0.8-3.3-13.3-4.4-13.3c-1.4,0-11.8,32.7-10.9,34.2
			c0.4,0.7,0.3,0.8-0.4,0.4c-0.7-0.4-1.2-0.1-1.2,0.6s-0.3,2.3-0.6,3.6l-0.6,2.2h13.6C506.9,429,513,428.7,513,428.4z"/>
		<path class="st0" d="M155.8,476.2l-11.8-0.3V409v-67h17.5H179v51.5V445h19.5c14.7,0,19.7,0.3,20,1.3c0.3,0.6,0.6,7.5,0.7,15.2
			l0.3,14l-26,0.5C179.2,476.3,162.2,476.4,155.8,476.2z"/>
		<path class="st0" d="M239,476.2c-0.6-0.2-1-18.8-1-51.8v-51.3l-12.7-0.3l-12.8-0.3L212,364c-0.3-4.7-0.4-11.5-0.2-15.2l0.4-6.8
			H256h43.9l0.3,15.4c0.2,8.5,0.1,15.4-0.2,15.4c-0.3,0-6.2,0-13.2,0.1L274,373v51c0,40-0.3,51.2-1.2,51.5
			C271.2,476,240.4,476.6,239,476.2z"/>
		<path class="st0" d="M402.4,476.2l-16-0.2l-2.7-5.3c-10.3-20.4-28-51.6-28.9-51.1c-0.4,0.3-0.5-0.1-0.2-0.9s-0.2-2-1-2.6
			c-1.4-1.2-1.5,0.6-1.1,16.5c0.2,9.9,0.1,23.6-0.2,30.7l-0.6,12.7h-17.3H317v-67.1v-67.1l32.8,0.4c35.1,0.5,37.3,0.8,48.3,6.4
			c2.6,1.3,5,2,5.4,1.6c0.3-0.4,0.5-0.1,0.3,0.7c-0.2,0.7,0.3,1.6,1.1,1.9c0.8,0.2,1.1,0,0.7-0.6c-0.3-0.6-0.1-1.4,0.5-1.8
			c0.7-0.4,0.9-0.3,0.5,0.4c-0.3,0.6-0.2,1.3,0.4,1.7s0.8,1,0.5,1.4c-0.2,0.5,0.6,2.1,1.9,3.6c5.8,6.7,9.7,18.9,10,30.8
			c0,4.4-0.2,8.1-0.6,8.4c-0.5,0.2-0.8,1.3-0.8,2.4c0,3.4-5.5,14.2-9.8,19.2c-2.3,2.7-4.2,4.5-4.2,4.1s-0.8,0-1.7,0.8
			c-1,0.9-2.8,1.9-4,2.2c-2.9,0.9-2.9,1.3,0.3,7c2.3,4.1,2.8,4.5,4.7,3.5c2.1-1,2.1-0.9,0.3,0.5c-1.7,1.4-1.6,2,4.5,12.6
			c3.5,6.1,7.2,12.6,8.2,14.6c1,1.9,2.2,3.2,2.7,2.9c0.5-0.3,0.7,0.1,0.4,0.9c-0.3,0.8,0.1,2.5,1,3.8c2.1,2.9,2,4.5-0.1,4.9
			C419.3,476.3,411.3,476.4,402.4,476.2z M375.5,408.6c8-3.2,12.1-14.1,9-23.5c-2.9-8.9-8.5-11.9-22.6-12.3l-9.4-0.3l-0.3,19.4
			l-0.2,19.4l9.7-0.5C367.4,410.5,373.2,409.6,375.5,408.6z"/>
		<path class="st0" d="M627,409v-67h17.5H662l0.1,17.3c0,9.4,0,20.7-0.1,25l-0.1,7.7h21.3h21.3l-0.2-22.8c-0.1-12.5,0-23.8,0.4-25
			c0.5-2.2,0.8-2.2,16.4-2.2c10.6,0,15.9-0.4,15.9-1.1c0-0.6,0.7-0.4,1.5,0.5c1.3,1.3,1.5,10.2,1.5,68.1V476l-17.7-0.2l-17.8-0.3
			v-26.3V423h-21.2H662v26.5V476h-17.5H627V409z"/>
		<path class="st0" d="M521.8,276.2L471,276V149.6V23.3l10.3-0.6c8.2-0.4,90.1-0.3,93,0.2c0.4,0,0.7,20.6,0.7,45.6
			s0.2,45.5,0.5,45.5c1.9,0,25.5-14,25.5-15.1c0-0.5,0.7-0.9,1.6-0.9c2.2,0,28.4-15.9,28.4-17.3c0-0.6,0.3-0.8,0.6-0.4
			c0.8,0.8,9.3-3.5,12.2-6.3c1.2-1.1,2.2-1.8,2.2-1.5s1.3-0.2,2.9-1.1c1.7-1,2.7-2.2,2.4-2.7c-0.3-0.6-0.1-0.7,0.5-0.3
			c0.6,0.4,2.8-0.4,4.9-1.7c2.1-1.3,6.2-3.6,9.1-5.1c3.2-1.6,5-3.1,4.6-3.8c-0.5-0.7-0.3-0.8,0.6-0.3c0.7,0.4,1.5,0.4,1.9-0.1
			c0.3-0.5,1.9-1.5,3.4-2.2c1.7-0.7,2.5-1.7,2.1-2.4s-0.3-0.8,0.4-0.4c0.6,0.4,1.9,0.2,2.9-0.3c6.5-3.5,33.3-19.3,40.7-23.9l8.9-5.6
			l64.8-0.1c35.7-0.1,65.4,0.3,66.1,0.7c1,0.7,0.9,1.2-0.6,2.1c-1,0.7-3.3,2.3-4.9,3.7c-1.7,1.4-2.7,1.8-2.2,1.1
			c0.5-0.9-0.3-0.7-2.1,0.5c-1.6,1.2-3.7,2.4-4.7,2.7c-1.1,0.4-1.5,1.2-1.1,1.8c0.4,0.8,0.3,0.9-0.5,0.5c-0.6-0.4-3.7,0.7-6.9,2.5
			c-8.7,4.9-11.1,6.2-19.2,10.6c-4.1,2.3-13.1,7.3-19.9,11.2c-6.8,3.9-12.6,7.1-12.8,7.1c-0.4,0-10.3,6.6-12,8
			c-0.7,0.6-1.3,0.8-1.3,0.5s-3.1,1.1-6.9,3.2c-3.8,2-6.7,4.1-6.4,4.7c0.3,0.5,0.2,0.7-0.3,0.4c-0.9-0.6-9.6,3.5-9.1,4.3
			c0.1,0.2,0,0.3-0.2,0.2c-0.4-0.3-19.1,9.5-20.8,10.9c-0.7,0.6-3.9,2.4-7,4c-10,5.2-18.7,10.1-20.3,11.4c-0.8,0.7-3.7,2.4-6.5,3.8
			c-2.7,1.3-11.7,6.3-20,11c-8.2,4.7-15.4,8.7-16,9c-1.4,0.5-1.2,0.7,11.3,8.5c8.4,5.3,12,7,13.5,6.6s1.8-0.3,0.9,0.3
			c-1.4,1,2.8,3.9,20.3,14.2c5,2.9,11.9,7.2,15.4,9.4c3.5,2.3,6.6,3.9,6.9,3.8c0.3-0.2,0.8,0.1,1.1,0.6c1.4,2.1,9.1,6.1,10.8,5.6
			c1.4-0.4,1.5-0.4,0.4,0.4c-0.9,0.7-1,1.2-0.2,1.6c0.6,0.4,1.1,0.4,1.1-0.1c0-0.4,0.4-0.3,0.8,0.4c0.8,1.2,12.8,9.3,13.8,9.3
			c0.3,0,2,1,3.7,2.2c10.2,7.3,26.1,16,27.2,15c0.5-0.4,0.6-0.2,0.2,0.4c-0.6,1.1,4.7,4.9,18.1,12.6c4.8,2.7,10.6,6.3,13,7.9
			c2.4,1.6,4.8,2.6,5.4,2.3c0.7-0.4,0.8-0.2,0.4,0.4c-0.4,0.7-0.3,1.2,0.2,1.2s4,2,7.8,4.5s7.4,4.3,8.1,4.1c0.7-0.3,1.2,0,1,0.6
			c-0.2,1.2,16.3,11.9,17.4,11.2c0.3-0.2,1.6,0.7,2.9,1.9c1.3,1.2,5.3,4,8.8,6.2c3.6,2.3,6.7,4.6,7,5.3c0.3,0.9-15.3,1.2-67.8,1.4
			l-68.2,0.3l-8.3-5.2c-4.6-2.8-8.6-4.9-9.1-4.5c-0.4,0.4-0.4,0.2-0.1-0.4c0.6-1-17.7-12.7-20-12.7c-0.6,0-1-0.3-0.8-0.7
			c0.6-0.9-50.5-33-52.6-33c-0.5,0-0.9-0.4-0.9-1c0-0.9-5.4-4.1-6.6-3.9c-0.4,0-1-0.3-1.3-0.8c-1.2-1.8-7.1-5.4-9-5.6
			c-1.1,0-1.7-0.5-1.5-0.9c0.3-0.4-0.5-1.2-1.8-1.7s-3.7-2-5.4-3.4c-3.3-2.8-9.4-6.1-9.4-5.1c0,0.4-1.2-0.6-2.7-2.1s-3.9-3.3-5.3-4
			c-1.4-0.7-6.2-3.8-10.8-6.9c-4.6-3.1-8.8-5.6-9.3-5.6s-1.8-0.8-2.9-1.7c-1-1-3.1-2.6-4.7-3.5l-2.9-1.7l0.1,51.6
			c0,50.7,0,51.6-2,52.2C573.4,276.2,549.7,276.4,521.8,276.2z"/>
		<path class="st0" d="M304.7,275.3c-0.4-0.3-0.7-9.2-0.7-19.7v-19.1l-129.8-0.1l-129.7-0.1l-5.6-2.5c-13.6-6.2-17.2-17.5-11.3-36
			c1.3-3.9,2.6-5.4,8.5-9.7c3.8-2.8,6.9-5.6,6.9-6.1c0-0.6,0.3-0.9,0.8-0.6c0.4,0.2,5-2.7,10.2-6.5c10.9-8,26.2-19.1,32.1-23.3
			c3.2-2.2,3.8-3.1,2.7-3.8c-1-0.7-0.8-0.8,0.5-0.4c1.8,0.6,7.2-2.6,6.2-3.6c-0.3-0.3,0.1-0.5,0.8-0.5c1.3,0,18.7-12,18.7-12.9
			c0-0.3-0.5-0.2-1.2,0.2s-0.8,0.3-0.4-0.5c0.4-0.6,1.1-0.9,1.6-0.6c1,0.6,10.9-5.8,15.4-10c1.5-1.4,2.9-2.5,3.1-2.5
			c0.6,0,13-8.5,20.8-14.2c4-3,6.4-5.5,6-6.1c-0.3-0.7-0.3-0.9,0.2-0.5c1.1,1,3.7-0.5,14.4-8.6c5.2-3.9,10.1-7.5,11-8.1
			c4.8-3,16.1-11.3,19.7-14.4c2.3-2,5.4-4.3,7-5.1c6-3,11.4-7.2,10.8-8.2c-0.4-0.6-0.3-0.8,0.3-0.5c1.2,0.7,8.5-4.1,7.9-5.2
			c-0.3-0.4,0-0.8,0.7-0.8c1.5,0,20.8-13,22.5-15.2c0.7-0.9,1.6-1.6,2-1.6s0.6-0.4,0.4-0.8c-0.1-0.5,0.2-0.6,0.7-0.2
			c0.6,0.3,3-0.7,5.3-2.2l4.3-2.7l68-0.1c37.4,0,68.8,0.1,69.8,0.3c1.6,0.4,1.7,5.3,1.7,84.7v84.2l13.5,0.7c7.4,0.4,18.4,0.4,24.5,0
			l11-0.7v24.7V241h-24.5H407v17.5V276h-50.8C328.2,276,305,275.7,304.7,275.3z M306,130.5c-0.1-27.2-0.4-49.5-0.8-49.5
			c-1.7,0-22.1,14.7-22.2,15.9c0,0.8-0.3,1.2-0.6,0.8c-0.5-0.5-18,10.5-19.4,12.3c-0.3,0.3-2.1,1.7-4,3s-3.7,2.7-4,3s-2.5,1.8-5,3.2
			c-2.5,1.4-5.8,3.8-7.5,5.3c-1.6,1.4-4.2,3.3-5.7,4.1c-1.6,0.8-2.8,1.9-2.8,2.4c0,0.6-0.7,1-1.5,1s-1.5,0.4-1.5,0.8
			c0,0.5-1,1.4-2.2,2.1c-5.5,2.8-21.4,13.8-23.9,16.4c-1,1.1-1.9,1.7-1.9,1.3s-2.7,1.2-6,3.5s-6,4.6-6,5.1s-0.4,0.6-1,0.3
			c-0.5-0.3-1,0-1,0.8c0,0.7-0.6,1.4-1.3,1.4c-1.3,0-22.4,13.9-23.3,15.4c-0.3,0.5,31.5,0.9,70.6,0.9h71.1L306,130.5z"/>
	</g>
	<g id="layer102" class="st1">
		<path class="st2" d="M60,478.3c-1.4-0.2-5-1.1-8-2s-5.7-1.7-6-1.8c-3.5-0.7-20-15.1-20-17.5c0-0.4-0.8-1.8-1.9-3.1
			c-1-1.3-1.9-2.7-2-3.1c0-0.5-0.1-0.9-0.2-1c-1.4-4.8-3-14.1-3-18.5c0-2.4-0.5-4.5-1-4.9c-0.5-0.3-0.9-1.1-0.9-1.7
			c0-0.7,0.4-0.6,1,0.3c0.6,1,0.9-13.4,0.7-40.8L18.5,342h17.8H54v44.1c0,42.6,0.6,52.9,3.2,52.9c0.5,0,0.6,0.4,0.3,1
			c-1.1,1.7,4.5,5.8,9.3,6.9c4.9,1,10.5,0.5,9.7-0.9c-0.3-0.5,0.3-0.6,1.3-0.4c1,0.3,2.9-0.7,4.6-2.5c1.7-1.7,2.6-3.1,2.2-3.1
			c-0.5,0-0.2-0.7,0.5-1.7c1.1-1.3,1.4-10.5,1.6-48.7l0.2-47.1L104,342c13.9-0.4,17.1-0.2,17.5,0.9c0.3,0.7,0.5,22.1,0.5,47.5
			c-0.1,41.1-0.3,46.9-1.9,53.1c-2.4,9.6-5,14.2-11.5,20.7c-6.5,6.7-17.3,12.4-26.1,13.8C76.6,479,64.9,479.1,60,478.3z"/>
		<path class="st2" d="M761.1,411.1c0-37.4-0.2-68.4-0.4-68.8c-0.3-0.4,5.2-0.7,12.1-0.6c7,0.2,22.4,0.4,34.2,0.6
			c18.1,0.4,22.5,0.7,28.2,2.5c3.6,1.1,6.9,1.8,7.2,1.6c0.3-0.2,0.4-0.1,0.1,0.2c-0.4,0.6,5.7,4.2,7.9,4.7c0.5,0.1,3.4,2.5,6.4,5.2
			c3,2.8,5.9,4.9,6.4,4.7c0.5-0.1,0.7,0.2,0.4,0.7c-0.5,0.7,2.1,4.6,6.4,9.8c3.7,4.4,9,29.4,8.5,39.8c-0.3,7.2-3.1,23-4.6,25.6
			c-0.5,1.1-0.7,2.4-0.4,2.9c0.3,0.6,0.2,1-0.4,1c-0.5,0-1.3,1-1.6,2.3c-0.4,1.2-1.8,3.7-3.2,5.5c-2.1,2.8-2.3,3.6-1.2,5
			c0.9,1.2,0.9,1.4,0.1,0.6c-0.9-0.8-2.7,0.3-6.8,4.2c-8.4,7.9-8.9,8.2-16.8,11.3c-13.4,5.4-19.9,6.2-51.1,6.1
			c-24.2,0-28.6,0.2-29.9,1.5C761.2,478.9,761.1,472.3,761.1,411.1z M828,441.5c5.9-3.2,11-9.6,13-16.3c0.7-2,1.4-7.7,1.7-12.7
			c0.9-14.7-2.9-26-11.1-33.2c-5.8-5.1-10.8-6.5-24.1-6.7l-10.5-0.2v36.4v36.4l12.8-0.4C821.7,444.5,822.9,444.3,828,441.5z"/>
		<path class="st2" d="M563.5,476.9c-0.5-0.7-6.4-1-17.6-0.8c-9.3,0.1-17,0.1-17.2-0.2c-0.8-1-3.9-10.1-4.1-12.2
			c-0.2-1.2-0.6-3.2-1-4.4c-0.7-2.3-0.8-2.3-23.6-2.3h-22.9l-1.9,5.3c-1.1,2.8-2.5,7.1-3.2,9.5l-1.3,4.2l-5.6,0.1
			c-13.3,0.1-31.6-0.2-31.9-0.6c-0.3-0.3,7.2-20.3,15.8-41.9c1.1-2.6,1.7-5.3,1.3-5.9c-0.3-0.5-0.2-0.7,0.3-0.4
			c0.5,0.3,3.7-6.5,7.1-15.1c16.2-41.2,18.2-46.6,17.6-47.6c-0.3-0.6-0.2-0.8,0.2-0.3c0.8,0.7,5.5-9,5.9-12.3c0.1-0.8,1-3.3,1.9-5.4
			c1.2-2.8,1.4-4.2,0.6-4.6c-0.7-0.5-0.5-0.9,0.6-1.3c0.9-0.4,1.3-0.3,1,0.3c-0.4,0.6,4.7,1,14.2,1c8.1,0,15.3,0.4,15.9,0.8
			c1.1,0.7,4.3,8.6,11.5,28.2c2.4,6.3,4.5,11.7,4.9,12c0.3,0.3,0.6,1.2,0.8,2c0.7,3.6,11.6,30,12.4,30c0.5,0,0.6,0.5,0.3,1
			c-0.3,0.6-0.2,1,0.4,1c0.6,0,0.8,0.7,0.5,1.4c-0.5,1.4,3.1,11.9,8.8,25.8c2,4.8,2.6,5.6,3.8,4.5c1.2-1,1.2-0.9,0.1,0.5
			c-1.2,1.5-0.8,3.1,2.5,11.2c2.1,5.2,4.1,9.3,4.4,9.1c0.3-0.2,0.6,1.2,0.7,3.1c0.2,2.5-0.1,3.4-1.3,3.4c-0.8,0-1.2,0.5-0.9,1
			c0.3,0.6,0.4,1,0.1,1C564.3,478,563.8,477.5,563.5,476.9z M513,428.4c0-1.4-6.4-19-7.3-20.1c-0.5-0.7-0.6-1.3-0.1-1.3
			s0.2-0.5-0.6-1c-1.2-0.8-1.2-1-0.1-1s1.1-0.3,0-1.7c-0.8-0.9-1.2-1.8-1-2c0.8-0.8-3.3-13.3-4.4-13.3c-1.4,0-11.8,32.7-10.9,34.2
			c0.4,0.7,0.3,0.8-0.4,0.4c-0.7-0.4-1.2-0.1-1.2,0.6s-0.3,2.3-0.6,3.6l-0.6,2.2h13.6C506.9,429,513,428.7,513,428.4z"/>
		<path class="st2" d="M417.8,476.4c-0.2-0.2-7.4-0.4-15.9-0.5l-15.4-0.1l-6-11.1c-3.3-6.2-7.6-14.3-9.5-18.2
			c-1.9-3.8-3.8-7.2-4.1-7.5c-1.1-1-8.1-14-7.4-14c0.3,0-0.3-1-1.5-2.2c-1.1-1.2-2-2.6-2-3c0-0.5-0.5-0.6-1.2-0.2
			c-0.7,0.5-0.8,0.3-0.4-0.5c0.5-0.7,0.1-2-0.7-2.9c-0.8-0.9-1.7-2.4-2-3.2c-0.4-1.2-0.6-1.2-0.6,0.2c-0.1,0.9,0.3,1.9,0.8,2.3
			c0.6,0.3,0.8,1.5,0.5,2.8c-0.7,3.3-0.6,19.2,0.2,22.2c0.3,1.4,0.3,10-0.1,19l-0.7,16.5h-17.4H317v-67.1v-67.1l32.8,0.4
			c35.1,0.5,37.3,0.8,48.3,6.4c2.6,1.3,5,2,5.4,1.6c0.3-0.4,0.5-0.1,0.3,0.7c-0.2,0.7,0.3,1.6,1.1,1.9c0.8,0.2,1.1,0,0.7-0.6
			c-0.3-0.6-0.1-1.4,0.5-1.8c0.7-0.4,0.9-0.3,0.5,0.4c-0.3,0.6-0.2,1.3,0.4,1.7s0.8,1,0.5,1.4c-0.2,0.5,0.6,2.1,1.9,3.6
			c5.8,6.7,9.7,18.9,10,30.8c0,4.4-0.2,8.1-0.6,8.4c-0.5,0.2-0.8,1.3-0.8,2.4c0,3.4-5.5,14.2-9.8,19.2c-2.3,2.7-4.2,4.5-4.2,4.1
			s-0.8,0-1.7,0.8c-1,0.9-2.8,1.9-4,2.2c-2.9,0.9-2.9,1.3,0.3,7c2.3,4.1,2.8,4.5,4.7,3.5c2.1-1,2.1-0.9,0.3,0.5
			c-1.7,1.4-1.6,2,4.5,12.6c3.5,6.1,7.2,12.6,8.2,14.6c1,1.9,2.2,3.2,2.7,2.9c0.5-0.3,0.7,0.1,0.4,0.9c-0.3,0.8,0.1,2.5,1,3.8
			c0.9,1.2,1.6,2.8,1.6,3.4C422,475.7,418.5,477.2,417.8,476.4z M351.7,449.3c-0.2-1.6-0.4-0.5-0.4,2.2c0,2.8,0.2,4,0.4,2.8
			C351.9,453,351.9,450.8,351.7,449.3z M375.5,408.6c8-3.2,12.1-14.1,9-23.5c-2.9-8.9-8.5-11.9-22.6-12.3l-9.4-0.3l-0.3,19.4
			l-0.2,19.4l9.7-0.5C367.4,410.5,373.2,409.6,375.5,408.6z"/>
		<path class="st2" d="M144.3,408.8v-66.6l17.3-0.2l17.4-0.1v51.5V445l19.6,0.2l19.6,0.3l-0.1,14.8c-0.2,11.9,0.1,14.7,1.1,14.1
			c0.7-0.4,1-0.4,0.7,0c-0.3,0.3-17.5,0.8-38.1,0.9l-37.4,0.2L144.3,408.8z"/>
		<path class="st2" d="M238.2,424l0.3-51.5l-12.7,0.3l-12.7,0.3l-0.3-15.3l-0.3-15.3l24,0.2c13.2,0.2,32.6,0.3,43.1,0.3
			c17.5,0,19.2,0.2,19.6,1.8c0.3,0.9,0.3,7.7,0,15l-0.5,13.3l-12.6-0.3l-12.6-0.3l0.3,51.2l0.2,51.2l-18,0.3l-18,0.3L238.2,424z"/>
		<path class="st2" d="M644.2,475.3L627,475l0.2-65.8l0.3-65.7l17-0.5l17-0.5l-0.3,24.8l-0.3,24.7h21.8h21.8l-0.2-23.2
			c0-12.7,0.1-23.7,0.4-24.5c0.4-1,4.2-1.3,17.4-1.3H739v66v66h-17.4h-17.4v-24.2c-0.1-13.4,0.3-24.7,0.8-25.3s0.5-1.6,0.1-2.3
			c-0.6-0.9-6-1.2-22.2-1l-21.4,0.3v26.8c0,14.7,0,26.6,0,26.5C661.5,475.7,653.7,475.4,644.2,475.3z"/>
		<path class="st2" d="M219.3,467c0-3.6,0.2-5,0.4-3.2c0.2,1.7,0.2,4.7,0,6.5C219.5,472,219.3,470.6,219.3,467z"/>
		<path class="st2" d="M576,267.7l0.5-8.2l0.3,7.4c0.2,4.1-0.1,7.8-0.5,8.2C575.9,275.5,575.7,272.2,576,267.7z"/>
		<path class="st2" d="M304.3,267c0-4.7,0.2-6.6,0.4-4.2c0.2,2.3,0.2,6.1,0,8.5C304.5,273.6,304.3,271.7,304.3,267z"/>
		<path class="st2" d="M306.5,273.7c-0.3-0.6-0.6-9.5-0.7-19.7l-0.3-18.5L174,235l-131.5-0.5l-5-2.5c-2.7-1.3-5.4-2.3-6-2.1
			c-0.5,0.1-0.7-0.1-0.3-0.4c1.1-1.1-1.1-4.7-2.4-3.9c-0.6,0.4-0.8,0.3-0.5-0.4c0.8-1.2-0.2-4.4-1.2-3.8c-1.1,0.7-0.4-16,0.9-19.8
			c0.6-2,0.9-4.4,0.6-5.2s-0.2-1.3,0.3-1c0.8,0.5,2.6-2.1,2.3-3.5c0-0.3,0.5-0.6,1.1-0.6c2.1,0,6.7-3.5,6-4.6
			c-0.3-0.5-0.2-0.7,0.3-0.4c1.2,0.7,3.8-0.8,4-2.3c0.1-0.5,0.2-1.6,0.3-2.2c0.1-1,0.4-0.9,1,0.1c0.5,0.7,1.4,1,2,0.7
			c0.6-0.4,0.9-1.1,0.6-1.6c-0.3-0.4,0.3-0.7,1.3-0.6c1,0,1.6-0.5,1.4-1.4c-0.2-0.8,0-1.2,0.3-0.8c1.1,1.1,4.7-1.1,3.9-2.4
			c-0.4-0.7-0.2-0.8,0.5-0.4c1.3,0.9,4.4-1.2,3.6-2.4c-0.3-0.4,0.3-0.7,1.3-0.6c0.9,0,1.6-0.5,1.4-1.2c-0.1-0.8,0.2-1.1,0.8-0.7
			c1.3,0.8,4.2-1.4,3.5-2.5c-0.3-0.5,0-1.2,0.6-1.6c0.8-0.4,0.9-0.3,0.5,0.4c-1,1.7,0.9,1.5,2.3-0.1c0.6-0.8,0.7-1.8,0.3-2.2
			c-0.4-0.5-0.1-0.5,0.6-0.1c1.4,0.8,7.5-3.1,6.7-4.4c-0.3-0.4,0.3-0.7,1.3-0.6c1,0,1.6-0.5,1.4-1.4c-0.2-0.8,0-1.2,0.3-0.8
			c1,1,4.7-1.1,4-2.1c-0.2-0.5,0.3-1.5,1.3-2.2c1.5-1.3,1.6-1.2,0.3,0.4c-0.7,0.9-0.9,1.7-0.3,1.7c1.5,0,3.3-2.6,2.4-3.5
			c-0.4-0.5-0.1-0.5,0.6-0.1s2,0.2,2.8-0.5c1.4-1.2,1.4-1.4-0.2-2.6c-1-0.7-1.3-1.3-0.8-1.3c0.6,0,1.5,0.5,2.1,1.1
			c1.2,1.2,3.7,0.3,2.8-1.1c-0.3-0.5,0-1.2,0.6-1.6c0.8-0.4,0.9-0.3,0.5,0.4s-0.3,1.2,0.2,1.2c1.3,0,3.3-2.5,2.6-3.2
			c-0.3-0.3,0.3-0.5,1.3-0.4c0.9,0,1.8-0.4,1.8-1.1c0-0.6,0.4-1.5,0.9-2s0.6-0.3,0.2,0.5c-1.1,1.8,0.9,1.5,2.5-0.5
			c1.2-1.5,1.2-1.6-0.1-0.8c-0.9,0.5-1.2,0.4-0.7-0.1s1.6-0.9,2.5-0.9s1.6-0.6,1.4-1.3c-0.1-0.8,0.2-1.1,0.8-0.7
			c1.4,0.9,4.2-1.4,3.3-2.8c-0.3-0.6-0.1-0.7,0.6-0.3c1.4,0.9,4.3-1.2,3.5-2.5c-0.3-0.5-1-0.6-1.6-0.3c-0.7,0.4-0.8,0.2-0.4-0.5
			c0.6-0.9,1.1-0.9,2.1-0.1c1.6,1.4,3.8,0.4,2.9-1.2c-0.4-0.7-0.2-0.8,0.5-0.4c1.5,1,11.3-6.2,10.4-7.6c-0.3-0.7-0.1-0.8,0.6-0.4
			c0.6,0.4,1.9,0.2,2.7-0.5c1.2-1,1.2-1.4,0.2-2.1c-0.9-0.5-0.5-0.7,1.2-0.6c1.3,0.2,2.5-0.2,2.5-0.9c0-0.6,0.4-1.5,0.9-2
			s0.6-0.3,0.2,0.4c-0.4,0.7-0.3,1.3,0.2,1.3c1.5,0,3.3-2.6,2.4-3.5c-0.4-0.5-0.2-0.5,0.5-0.1c1.6,0.9,6.5-2.3,5.6-3.7
			c-0.3-0.5-0.2-0.7,0.4-0.4c0.9,0.6,7.5-3.5,7-4.4c-0.1-0.2,0-0.3,0.2-0.2c1.1,0.6,4.1-2,3.5-3c-0.4-0.7-0.4-0.9,0.1-0.5
			c0.4,0.4,1.6,0.3,2.7-0.3c1.4-0.8,1.6-1.4,0.9-2.3c-0.8-0.9-0.7-1.3,0.4-1.3c0.8,0,1.1,0.5,0.8,1s0,0.7,0.8,0.5
			c0.8-0.3,1.2-1.2,1.1-1.9c-0.2-0.8,0-1.1,0.3-0.7c1.1,1.1,4.7-1.1,3.9-2.4c-0.4-0.7-0.3-0.8,0.4-0.4c1.5,0.9,7.3-3.4,6.5-4.7
			c-0.3-0.6-0.1-0.7,0.6-0.3c1.4,0.9,4.3-1.2,3.5-2.5c-0.3-0.5,0.1-0.6,0.9-0.3c0.8,0.3,2-0.3,2.8-1.2c1.2-1.6,1.2-1.7-0.1-0.9
			c-1,0.5-0.8,0.1,0.4-1.3c1-1.2,2.8-2,4-1.9c1.4,0.1,2-0.3,1.8-1.3c-0.2-0.8,0-1.2,0.3-0.8c1,1,4.7-1.1,4-2.1
			c-0.2-0.5,0.3-0.8,1.3-0.7c1,0,1.6-0.5,1.4-1.4c-0.2-0.8,0-1.2,0.3-0.8c1.1,1.1,4.7-1.1,3.9-2.4c-0.4-0.7-0.2-0.8,0.5-0.4
			c1.4,0.9,4.3-1.2,3.5-2.5c-0.7-1.2,8.4-7.4,10.9-7.4c1.2,0,2.1-0.6,1.9-1.3c-0.1-0.6,0.1-1.1,0.5-1.1c2.1,0.3,3.3-0.2,2.7-1.3
			c-0.4-0.6-0.3-0.8,0.3-0.5c1.4,0.9,8.5-4.2,7.7-5.5c-0.4-0.6-0.3-0.8,0.4-0.4c1.3,0.8,14.4-8.2,13.7-9.4c-0.3-0.5,0-1.2,0.6-1.6
			c0.8-0.5,0.9-0.3,0.4,0.6c-0.5,0.8-0.3,1.1,0.6,0.8c0.8-0.3,1.3-1,1.2-1.6c-0.1-0.5,0.5-0.9,1.5-0.8c0.9,0,1.7-0.4,1.7-1.1
			c0-0.6,0.4-1.5,0.9-2s0.6-0.3,0.2,0.5c-0.4,0.6-0.3,1.2,0.2,1.2c1.3,0,3.3-2.5,2.6-3.2c-0.3-0.3,0.3-0.5,1.3-0.5
			c1.3,0.2,1.7-0.4,1.5-1.8c-0.2-1.5-0.1-1.7,0.6-0.6c0.6,0.7,1.5,1,2.1,0.6c0.9-0.5,0.9-1.1-0.1-2.3c-1.2-1.5-1.1-1.6,0.4-0.4
			c1.9,1.5,4.2,0.7,3.2-1c-0.4-0.7-0.2-0.8,0.4-0.4c1.2,0.7,5.6-1.7,4.8-2.5c-0.2-0.2,30.9-0.2,69.2,0.1l69.7,0.5l0.3,84.8L406,194
			h24.5h24.4l0.3,23.3l0.3,23.2l-24.7-0.3l-24.8-0.3v17c0,14.1-0.2,17-1.5,17.5c-0.8,0.3-23.1,0.5-49.5,0.6
			C317.6,275,306.8,274.7,306.5,273.7z M306.8,130c0.2-42.1,0-51-1.1-51c-2.1,0-2.8,1.2-1.6,2.6c0.7,0.8,0.7,1.4-0.1,1.9
			c-0.6,0.4-0.9,0.1-0.8-0.7c0.2-0.7-0.4-1.3-1.2-1.3c-0.8,0-1.4,0.6-1.2,1.3c0.1,0.6-0.1,1.1-0.5,1.1c-1.7-0.3-2.9,0.2-5.3,2.2
			c-1.4,1.1-1.8,1.7-1,1.3c0.9-0.4,1.2-0.3,0.7,0.2s-1.6,0.9-2.5,0.9s-1.6,0.5-1.5,1.1c0.1,0.7-0.5,1.1-1.5,1c-0.9,0-1.6,0.4-1.5,1
			s-0.4,1.1-1,1.1c-1.9,0-6.7,3.4-6.2,4.3c0.3,0.5,0,1.2-0.6,1.6c-0.8,0.4-0.9,0.3-0.5-0.4c1.1-1.8-1-1.4-2.5,0.5
			c-1.2,1.5-1.2,1.6,0.1,0.8c0.9-0.5,1.2-0.4,0.7,0.1s-1.6,0.9-2.5,0.9s-1.6,0.5-1.5,1.1c0.1,0.7-0.5,1.1-1.5,1
			c-0.9,0-1.6,0.4-1.5,1c0.1,0.7-0.5,1.1-1.5,1c-0.9,0-1.6,0.5-1.4,1.2c0.1,0.8-0.1,1.1-0.6,0.8c-1.2-0.7-8.4,4.3-7.7,5.3
			c0.2,0.5-0.3,0.8-1.3,0.7c-0.9,0-1.6,0.5-1.4,1.2c0.1,0.8-0.2,1.1-0.7,0.7c-1.2-0.7-6.3,2.4-5.6,3.4c0.2,0.4-0.2,0.8-0.9,0.8
			c-1.3,0-10.6,6-10.6,6.9c0,0.3,0.5,0.2,1-0.1c1.6-1,1.1,0.1-0.7,1.6c-1.1,1-1.4,1-0.9,0.2c1-1.7,0-1.6-2.9,0.3
			c-1.4,0.9-2.1,2.2-1.8,3s0,1.4-0.7,1.4c-0.6,0-0.8-0.4-0.5-1c1.1-1.7-0.5-1.1-5.1,2.1c-2.5,1.7-4.3,3.3-4,3.6s1.4,0,2.3-0.8
			c1.6-1.3,1.7-1.2,0.4,0.4c-0.8,1-2.1,1.5-2.9,1.2c-1.6-0.6-4.4,1.3-3.7,2.5c0.3,0.4-0.3,0.7-1.3,0.6c-0.9,0-1.6,0.4-1.5,1
			c0.1,0.7-0.5,1.1-1.5,1c-0.9,0-1.7,0.4-1.7,1.1c0,0.6-0.4,1.5-0.9,2s-0.6,0.2-0.1-0.6c0.5-0.9,0.3-1.2-0.6-0.9
			c-0.8,0.3-1.2,1.2-1.1,1.9c0.2,0.8,0,1.1-0.3,0.7c-1.1-1.1-4.7,1.1-3.9,2.4c0.4,0.7,0.3,0.8-0.4,0.4c-1.3-0.8-6.4,2.2-5.7,3.4
			c0.3,0.4-0.3,0.7-1.3,0.6c-1,0-1.6,0.5-1.4,1.4c0.2,0.8,0,1.2-0.3,0.8c-1-1-4.7,1.1-4,2.1c0.2,0.5-0.3,0.8-1.3,0.7
			c-1.2-0.1-1.6,0.5-1.4,1.9c0.2,1.5,0.1,1.7-0.7,0.6c-0.7-1.1-1.4-1-4,0.8c-1.7,1.3-2.9,2.6-2.6,3.1c0.3,0.4-0.3,0.7-1.3,0.6
			c-0.9,0-1.6,0.4-1.5,1c0.1,0.7-0.5,1.1-1.5,1c-0.9,0-1.6,0.5-1.4,1.2c0.1,0.8-0.1,1.1-0.6,0.8s-1.8,0.2-2.8,1
			c-1,0.9-1.3,1.2-0.5,0.8c0.9-0.5,1.2-0.3,0.7,0.5c-0.4,0.6-1.1,0.9-1.6,0.6c-1.3-0.8-6.1,2.5-5.4,3.6c0.3,0.5-0.1,0.6-0.9,0.3
			c-0.8-0.3-2,0.3-2.8,1.2c-1.2,1.5-1.2,1.7,0,0.9c1-0.5,1.2-0.4,0.7,0.4c-0.4,0.6-1.2,0.9-1.7,0.6c-1.1-0.7-3.1,0.4-2.5,1.3
			c0.2,0.4,33.2,0.6,73.3,0.5l72.8-0.2L306.8,130z M210.6,63.9c2.5-1.7,4.3-3.3,4-3.6c-0.4-0.5-9.6,5.6-9.6,6.4
			C205,67.5,206.5,66.8,210.6,63.9z"/>
		<path class="st2" d="M473.3,274.3c-1-0.4-1.3-26.4-1.3-125.4V24h51h51v46.1c0,41.6,0.2,46.1,1.6,45.5c0.9-0.3,1.8-0.6,2-0.6
			c0.3,0,0.2-0.5-0.2-1.2s-0.3-0.8,0.4-0.4c1.6,1,5.4-1.2,4.6-2.6c-0.4-0.7-0.3-0.8,0.4-0.4c1.5,0.9,9.3-3.4,8.5-4.7
			c-0.3-0.6-0.1-0.7,0.5-0.3c1.5,0.9,5.5-1.8,4.4-2.9c-0.4-0.5-0.2-0.5,0.5-0.2c1.5,0.9,12.4-5.4,11.6-6.6c-0.3-0.6-0.1-0.7,0.5-0.3
			c1.5,0.9,5.5-1.8,4.4-2.9c-0.4-0.5-0.1-0.5,0.5-0.1c1.5,0.8,5.6-1.7,4.6-2.8c-0.4-0.4,0.1-0.4,1.1,0c1.3,0.5,1.7,0.4,1.3-0.3
			c-0.4-0.6,0.1-1,1.1-0.9c0.9,0,1.6-0.5,1.4-1.2c-0.1-0.8,0.2-1.1,0.8-0.7c1.4,0.9,5.2-1.4,4.4-2.7c-0.4-0.7-0.3-0.8,0.4-0.4
			c1.5,0.9,5.4-1.2,4.7-2.4c-0.4-0.6,0.1-0.7,1.1-0.3c1.2,0.4,1.5,0.3,1-0.5s-0.1-1,1-0.5c1.3,0.5,1.5,0.3,0.9-0.7
			c-0.5-0.9-0.4-1.1,0.3-0.6c1.2,0.7,6.2-2.1,5.2-2.8c-0.3-0.3-0.1-0.8,0.4-1.3s0.6-0.2,0.1,0.6c-0.5,0.9-0.3,1.2,0.6,0.9
			c0.8-0.3,1.3-1.4,1.2-2.4s0-1.3,0.3-0.6c0.3,0.6,1,1.2,1.5,1.2c0.6,0,0.8-0.4,0.5-0.9s0.2-0.8,1.2-0.7c0.9,0,1.6-0.5,1.4-1.2
			c-0.1-0.8,0.2-1.1,0.8-0.7c1.3,0.8,12.2-5.4,11.5-6.6c-0.4-0.5,0.2-0.6,1.1-0.2c1.2,0.4,1.5,0.3,1-0.5s-0.1-1,1-0.5
			c1.3,0.5,1.5,0.3,0.9-0.7c-0.5-0.8-0.4-1.1,0.3-0.6c0.6,0.3,2.7-0.3,4.7-1.5c2.8-1.7,3.3-2.4,2.3-3.1c-0.9-0.7-0.8-0.8,0.5-0.4
			c1,0.3,2.7,0.1,3.8-0.5c1.7-0.9,1.8-1.3,0.7-2.7c-1.2-1.5-1.1-1.6,0.4-0.4c1.5,1.2,2.3,1,5.7-0.9c2.2-1.2,3.7-2.7,3.4-3.2
			c-0.3-0.6-0.1-0.7,0.5-0.3c1.5,0.9,5.4-1.2,4.7-2.4c-0.4-0.6,0.1-0.7,1.1-0.3c1.3,0.5,1.5,0.3,0.9-0.7c-0.5-0.9-0.4-1.1,0.3-0.6
			c1.3,0.8,5.6-1.7,4.6-2.6c-0.3-0.3,0.3-0.5,1.3-0.5c1,0.1,1.7-0.3,1.6-1c-0.2-0.8,0.4-1,1.4-0.6c1.2,0.5,1.4,0.3,0.8-0.7
			c-0.5-0.9-0.4-1.1,0.3-0.6c1.4,0.8,5.5-1.8,4.5-2.8c-0.4-0.4,0.1-0.4,1.1,0c1.5,0.6,1.7,0.4,1.1-0.6c-0.5-0.9-0.4-1.1,0.3-0.6
			c1.5,0.9,5.5-1.8,4.4-2.9c-0.4-0.5-0.1-0.5,0.5-0.1c1.5,0.8,5.6-1.1,4.8-2.3c-0.2-0.5,0.3-0.8,1.3-0.7c0.9,0,1.6-0.5,1.4-1.2
			c-0.1-0.8,0.2-1.1,0.7-0.7c0.6,0.3,2.4-0.1,4-1c4.4-2.2,129.8-2.3,129.8,0c0,0.8-0.4,1.2-0.9,0.9c-0.9-0.6-9.1,4.1-8.6,4.9
			c0.2,0.3-0.1,0.9-0.6,1.4s-0.6,0.3-0.2-0.5c0.9-1.5,0.1-1.5-2.5-0.1c-1.7,0.9-1.8,1.3-0.8,2.7c1.1,1.4,1.1,1.5-0.1,0.5
			c-1.7-1.5-3.4-1.7-2.5-0.3c0.4,0.6-0.1,0.7-1.1,0.3c-1.3-0.5-1.5-0.3-0.9,0.7c0.5,0.9,0.4,1.1-0.3,0.6c-1.5-0.9-5.5,1.8-4.4,2.9
			c0.4,0.5,0.1,0.5-0.6,0.1c-1.5-0.9-9.3,3.4-8.5,4.7c0.3,0.6,0.1,0.7-0.5,0.3c-1.6-1-7.4,2.2-6.6,3.6c0.4,0.6,0.3,0.8-0.4,0.5
			c-1.4-0.9-4.3,0.3-3.6,1.4c0.3,0.5-0.3,0.6-1.2,0.2c-1.2-0.4-1.5-0.3-1,0.6c0.4,0.6,0.4,1-0.1,0.9c-1.6-0.4-5.3,1.4-4.8,2.3
			c0.3,0.5-0.2,0.6-1.1,0.2c-1.3-0.5-1.5-0.3-0.9,0.7c0.5,0.9,0.4,1.1-0.3,0.6c-1.4-0.8-5.5,1.8-4.5,2.8c0.4,0.4-0.1,0.4-1.1,0
			c-1.5-0.6-1.7-0.4-1.1,0.6c0.5,0.9,0.4,1.1-0.3,0.6c-1.4-0.8-7.3,2.4-6.6,3.6c0.3,0.4-0.3,0.5-1.2,0.1c-1.1-0.4-1.5-0.2-1.1,0.4
			s-0.1,1-1.1,0.9c-0.9,0-1.6,0.5-1.4,1.2c0.1,0.8-0.2,1.1-0.7,0.8c-1.4-0.9-4.2,0.5-3.4,1.7c0.3,0.6,0.1,0.7-0.5,0.3
			c-1.4-0.8-12.4,5.3-11.6,6.5c0.3,0.5-0.3,0.6-1.2,0.2c-1.3-0.5-1.5-0.3-0.9,0.7c0.5,0.9,0.4,1.1-0.3,0.6c-1.5-0.9-7.5,2.2-6.7,3.4
			c0.4,0.6-0.1,0.7-1.1,0.3c-1.3-0.5-1.5-0.3-0.9,0.7c0.5,0.9,0.4,1.1-0.3,0.6c-1.5-0.9-5.4,1.2-4.7,2.4c0.4,0.6-0.1,0.7-1.1,0.3
			c-1.1-0.4-1.5-0.3-1,0.5c0.3,0.6,0.1,1.4-0.5,1.8c-0.8,0.4-0.9,0.3-0.5-0.4c1-1.6,0.1-1.5-3.5,0.3c-1.6,0.9-2.7,2-2.4,2.5
			c0.4,0.6-0.1,0.7-1.1,0.3c-1.1-0.4-1.5-0.3-1,0.5c0.3,0.6,0.1,1.4-0.5,1.8c-0.8,0.4-0.9,0.3-0.5-0.4c1-1.7,0.1-1.5-4.5,0.8
			c-2.4,1.3-3.7,2.5-3.3,3.2s0.3,0.8-0.4,0.4c-1.3-0.8-16.3,7.4-15.6,8.6c0.3,0.4-0.3,0.5-1.2,0.1c-1.3-0.5-1.5-0.3-0.9,0.7
			c0.5,0.8,0.4,1.1-0.3,0.6c-1.4-0.8-7.4,2.8-6.4,3.9c0.4,0.5,0.2,0.5-0.5,0.1c-1.5-0.8-12.5,5.2-11.7,6.5c0.3,0.5-0.3,0.6-1.2,0.2
			c-1.1-0.4-1.5-0.3-1,0.5c0.3,0.6,0.1,1.4-0.5,1.8c-0.8,0.5-0.9,0.3-0.4-0.6c0.6-1,0.4-1.2-0.9-0.7c-1,0.4-2,0.7-2.2,0.7
			c-0.3,0-0.2,0.5,0.2,1.2s0.3,0.8-0.4,0.4c-1.5-0.9-5.4,1.2-4.7,2.4c0.4,0.6-0.1,0.7-1.1,0.3c-1.3-0.5-1.5-0.3-0.9,0.7
			c0.5,0.9,0.4,1.1-0.3,0.6c-1.6-1-5.4,1.2-4.6,2.6c0.4,0.7,0.3,0.8-0.4,0.4c-1.5-0.9-7.5,2.2-6.7,3.4c0.4,0.6-0.1,0.7-1.1,0.3
			c-1.3-0.5-1.5-0.3-0.9,0.7c0.5,0.9,0.4,1.1-0.3,0.6c-1.5-0.9-5.4,1.2-4.7,2.4c0.4,0.6-0.1,0.7-1.1,0.3c-1.3-0.5-1.5-0.3-0.9,0.7
			c0.5,0.8,0.4,1.1-0.3,0.7c-1.3-0.9-4.4,0.2-3.7,1.3c0.3,0.4-0.3,0.7-1.3,0.6c-0.9,0-1.7,0.6-1.7,1.4s0.8,1.4,1.7,1.4
			c1-0.1,1.6,0.3,1.5,1c-0.1,0.6,0.6,1,1.5,1c1-0.1,1.6,0.3,1.5,1c-0.1,0.6,0.6,1,1.6,0.9c1,0,1.6,0.2,1.3,0.5
			c-1,0.9,3.3,3.4,4.7,2.6c0.6-0.4,0.9-0.4,0.5,0.1c-1.1,1.2,2.9,3.8,4.5,2.9c0.6-0.4,0.9-0.3,0.4,0.1c-0.9,1.1,7.4,6.6,9.1,6
			c0.7-0.3,1.1-0.1,0.8,0.4c-0.8,1.2,9.3,7.3,10.6,6.5c0.7-0.5,0.8-0.2,0.3,0.6c-0.6,1-0.4,1.2,0.9,0.7c1-0.4,1.5-0.3,1.1,0.3
			c-0.7,1.1,3.2,3.3,4.5,2.5c0.6-0.4,0.9-0.1,0.8,0.6c-0.2,0.6,0.3,1.4,1.1,1.7c0.9,0.3,1.1,0,0.6-0.8c-0.5-0.9-0.4-1.1,0.4-0.6
			c0.6,0.4,0.9,1.1,0.6,1.6c-0.8,1.2,3.3,3.3,4.7,2.4c0.7-0.4,0.8-0.3,0.4,0.4c-0.8,1.3,3,3.6,4.4,2.7c0.6-0.4,0.9-0.1,0.8,0.6
			c-0.2,0.6,0.3,1.4,1.1,1.7c0.9,0.3,1.1,0,0.6-0.8c-0.5-0.9-0.4-1.1,0.4-0.6c0.6,0.4,0.9,1.1,0.6,1.6c-0.8,1.2,3.3,3.3,4.7,2.4
			c0.7-0.4,0.8-0.3,0.4,0.4c-0.8,1.3,3,3.6,4.4,2.7c0.6-0.4,0.9-0.1,0.8,0.7c-0.2,0.7,0.5,1.2,1.4,1.2c1-0.1,1.6,0.2,1.3,0.6
			c-0.7,1.1,9.5,7.1,10.7,6.4c0.7-0.5,0.8-0.2,0.3,0.6c-0.6,1-0.4,1.2,0.8,0.7c1-0.4,1.6-0.2,1.4,0.6c-0.1,0.7,0.6,1.1,1.6,1.1
			c1-0.1,1.6,0.1,1.3,0.4c-0.9,0.9,7.7,6.3,9.2,5.7c0.7-0.3,1.1-0.1,0.8,0.4c-0.7,1.1,6.2,5.3,7.5,4.5c0.5-0.3,0.8,0,0.7,0.8
			c-0.2,0.7,0.5,1.2,1.5,1.1c1,0,1.6,0.2,1.3,0.5c-1,0.9,3.3,3.4,4.7,2.6c0.6-0.4,0.9-0.4,0.5,0.1c-1.1,1.1,2.9,3.8,4.4,2.9
			c0.6-0.4,0.8-0.3,0.5,0.3c-0.9,1.4,11.1,8.5,12.6,7.6c0.7-0.3,0.9-0.3,0.5,0.2c-1.1,1.1,6,5.8,7.4,4.9c0.7-0.5,0.8-0.3,0.3,0.6
			c-0.6,1-0.4,1.2,0.8,0.7c1-0.4,1.6-0.2,1.4,0.6c-0.1,0.7,0.6,1.1,1.5,1.1c1-0.1,1.5,0.3,1.1,0.9c-0.4,0.6,0,0.8,1,0.4
			c1-0.4,1.6-0.2,1.4,0.5c-0.1,0.6,0.4,1.3,1.2,1.6c0.9,0.3,1.1,0,0.6-0.8c-0.5-0.9-0.4-1.1,0.4-0.6c0.6,0.4,0.9,1.1,0.6,1.6
			c-0.8,1.2,3.3,3.3,4.7,2.4c0.6-0.4,0.8-0.3,0.4,0.4c-0.8,1.4,5.7,5.4,7.7,4.6c0.8-0.3,1.8-0.1,2.2,0.5c0.4,0.7-0.1,0.9-1.2,0.5
			c-1.6-0.5-1.6-0.4,0.2,1c1.1,0.9,2.5,1.4,3.2,1.2c0.7-0.3,1.2,0,1,0.7c-0.1,0.7,0.6,1.1,1.5,1.1c1-0.1,1.5,0.2,1.3,0.7
			c-0.8,1.1,3.3,3.1,4.7,2.3c0.6-0.4,0.8-0.3,0.5,0.3c-0.8,1.3,9.1,7.5,10.6,6.6c0.7-0.3,0.9-0.3,0.5,0.2c-1.1,1.1,2.9,3.8,4.4,2.9
			c0.7-0.5,0.8-0.3,0.3,0.6c-0.6,1-0.4,1.2,0.8,0.7c0.9-0.3,1.6-0.2,1.4,0.3c-0.3,1.3,12.3,9.1,13.6,8.4c0.7-0.4,0.9-0.4,0.5,0.1
			c-1,1.1,2.9,3.8,4.2,3c0.5-0.3,0.7,0,0.4,0.9c-0.5,1.3-9.1,1.5-66.6,1.6l-66,0.1l-4.4-2.6c-2.4-1.4-4.9-2.3-5.4-2
			c-0.6,0.4-0.9,0.1-0.8-0.7c0.2-0.7-0.5-1.2-1.4-1.2c-1,0.1-1.6-0.3-1.5-0.8c0.1-0.6-0.4-1.3-1.2-1.6c-0.9-0.3-1.1,0-0.6,0.9
			c0.5,0.8,0.4,1.1-0.1,0.6s-0.9-1.4-0.9-2c0-0.7-0.8-1.1-1.8-1.1c-0.9,0.1-1.4-0.2-1.1-0.7c0.5-0.9-1.1-1.3-3.1-0.9
			c-0.5,0.1-0.7-0.2-0.3-0.6c1.1-1-3-3.7-4.4-2.8c-0.7,0.5-0.8,0.3-0.3-0.6c0.6-1,0.4-1.2-0.8-0.7c-1,0.4-1.6,0.2-1.4-0.6
			c0.1-0.7-0.6-1.1-1.5-1.1c-1,0.1-1.6-0.3-1.5-1c0.1-0.6-0.6-1-1.5-1c-1,0.1-1.6-0.2-1.3-0.6c0.7-1.1-6.4-5.2-7.6-4.4
			c-0.5,0.3-0.8,0-0.7-0.8c0.2-0.7-0.5-1.2-1.5-1.2c-1,0.1-1.6-0.1-1.3-0.4c0.9-0.8-6.3-5.4-7.4-4.7c-0.6,0.4-0.9,0.1-0.8-0.7
			c0.2-0.7-0.5-1.2-1.5-1.2c-1,0.1-1.6-0.1-1.3-0.4c0.9-0.8-3.3-3.4-4.4-2.7c-0.6,0.4-0.9,0.1-0.8-0.7c0.2-0.7-0.5-1.2-1.4-1.2
			c-1,0.1-1.5-0.2-1.2-0.7c0.5-0.9-1.1-1.3-3.1-0.9c-0.5,0.1-0.7-0.2-0.3-0.6c1-1-2.9-3.7-4.2-2.9c-0.6,0.4-0.9,0.1-0.8-0.7
			c0.2-0.7-0.5-1.2-1.4-1.2c-1,0.1-1.6-0.1-1.3-0.5c0.6-1.1-5.3-4.3-6.5-3.6c-0.6,0.4-0.9,0.1-0.8-0.6c0.2-0.6-0.3-1.4-1.1-1.7
			c-0.9-0.3-1.1,0-0.6,0.9c0.5,0.8,0.4,1.1-0.1,0.6s-0.9-1.4-0.9-1.9c0-0.6-0.6-1.3-1.4-1.6c-0.9-0.3-1.1,0-0.6,0.9
			c0.5,0.8,0.4,1.1-0.1,0.6s-0.9-1.4-0.9-1.9c0-0.6-0.6-1.3-1.4-1.6c-0.8-0.3-1.1,0-0.7,0.7c0.4,0.6,0.2,1.1-0.4,1.1
			c-0.7,0-1-0.7-0.6-1.5c0.6-1.7-2.9-3.9-4.6-2.9c-0.7,0.4-0.8,0.3-0.4-0.4c0.8-1.3-3-3.6-4.4-2.7c-0.6,0.4-0.9,0.1-0.8-0.7
			c0.2-0.7-0.5-1.2-1.4-1.2c-1,0.1-1.5-0.2-1.3-0.7c0.3-0.4-0.3-1.3-1.4-1.8c-2.4-1.3-3.4-1.4-2.7-0.3c0.3,0.5-0.1,0.9-0.9,0.9
			c-1.1,0-1.2-0.4-0.4-1.3c1.2-1.4-0.2-2.7-2.3-1.9c-0.7,0.2-2.4-0.5-3.8-1.6l-2.5-2.1l2.8,1.7c1.6,0.9,3.1,1.5,3.3,1.2
			c0.4-0.4-17.1-11.7-18.2-11.7c-0.3,0-0.2,0.5,0.2,1.2s0.3,0.8-0.5,0.4c-0.6-0.4-0.9-1.1-0.6-1.6c0.7-1.2-3.2-3.3-4.5-2.5
			c-0.6,0.4-0.9,0.1-0.8-0.6c0.2-0.6-0.3-1.4-1.1-1.7c-0.9-0.3-1.1,0-0.6,0.9c0.5,0.8,0.4,1.1-0.1,0.6s-0.9-1.4-0.9-2
			c0-0.7-0.8-1.1-1.8-1.1c-0.9,0.1-1.4-0.2-1.1-0.7c0.5-0.8-1-1.3-2.9-1c-0.5,0.1-0.6-0.2-0.3-0.7c0.7-1.2-6.9-5.4-7.9-4.4
			c-0.5,0.4-0.5,0.1,0-0.7c0.6-1,0.2-1.2-1.6-0.6c-1.7,0.4-2,0.3-1-0.3c1.5-1.1-0.3-2.7-1.9-1.7c-0.6,0.4-0.9,0.1-0.8-0.7
			c0.2-0.7-0.5-1.2-1.5-1.2c-1,0.1-1.6,0-1.3-0.4c0.7-0.6-2.5-3.1-4.1-3.2c-1,0-1.3,11.3-1.5,51.8l-0.3,51.7l-50,0.2
			C497,274.8,473.9,274.6,473.3,274.3z"/>
		<path class="st2" d="M576.4,229.5c0-5.5,0.1-7.6,0.3-4.7s0.2,7.4,0,10S576.4,235,576.4,229.5z"/>
		<path class="st2" d="M52.3,236.3c2-0.2,5.4-0.2,7.5,0c2,0.2,0.3,0.4-3.8,0.4S50.2,236.5,52.3,236.3z"/>
		<path class="st2" d="M87.8,236.3c2.8-0.2,7.6-0.2,10.5,0c2.8,0.2,0.5,0.3-5.3,0.3S84.9,236.5,87.8,236.3z"/>
		<path class="st2" d="M127.8,236.3c2.8-0.2,7.6-0.2,10.5,0c2.8,0.2,0.5,0.3-5.3,0.3S124.9,236.5,127.8,236.3z"/>
		<path class="st2" d="M167.8,236.3c2.8-0.2,7.6-0.2,10.5,0c2.8,0.2,0.5,0.3-5.3,0.3S164.9,236.5,167.8,236.3z"/>
		<path class="st2" d="M207.8,236.3c2.8-0.2,7.6-0.2,10.5,0c2.8,0.2,0.5,0.3-5.3,0.3S204.9,236.5,207.8,236.3z"/>
		<path class="st2" d="M247.8,236.3c2.8-0.2,7.6-0.2,10.5,0c2.8,0.2,0.5,0.3-5.3,0.3C247.2,236.6,244.9,236.5,247.8,236.3z"/>
		<path class="st2" d="M287.8,236.3c2.8-0.2,7.6-0.2,10.5,0c2.8,0.2,0.5,0.3-5.3,0.3S284.9,236.5,287.8,236.3z"/>
		<path class="st2" d="M576.4,189.5c0-5.5,0.1-7.6,0.3-4.7s0.2,7.4,0,10S576.4,195,576.4,189.5z"/>
		<path class="st2" d="M613.4,196.8c-1-1.6,0.2-1.8,2.1-0.5c1.6,1.2,1.6,1.4,0.1,1.4C614.7,197.7,613.7,197.3,613.4,196.8z"/>
		<path class="st2" d="M410.8,192.3c2.3-0.2,6.1-0.2,8.5,0c2.3,0.2,0.4,0.4-4.3,0.4C410.3,192.7,408.4,192.5,410.8,192.3z"/>
		<path class="st2" d="M445.7,192.3c1.8-0.2,5-0.2,7,0c2.1,0.2,0.7,0.4-3.2,0.4C445.7,192.7,444,192.5,445.7,192.3z"/>
		<path class="st2" d="M776,73.6c0-0.3,1.4-1.2,3-2.1c1.7-0.9,3-1.3,3-1.1c0,0.3-1.3,1.2-3,2.1C777.4,73.4,776,73.8,776,73.6z"/>
		<path class="st2" d="M234.5,44c-0.4-0.6-0.3-0.9,0.2-0.8c0.4,0.1,1.8-0.3,3.1-1c3-1.7,2.8-0.8-0.2,1.2
			C236,44.4,234.9,44.6,234.5,44z"/>
		<path class="st2" d="M287.3,22.3c2.6-0.2,6.8-0.2,9.5,0c2.6,0.2,0.4,0.3-4.8,0.3C286.8,22.6,284.6,22.5,287.3,22.3z"/>
		<path class="st2" d="M327.3,22.3c2.6-0.2,6.8-0.2,9.5,0c2.6,0.2,0.4,0.3-4.8,0.3C326.8,22.6,324.6,22.5,327.3,22.3z"/>
		<path class="st2" d="M367.3,22.3c2.6-0.2,6.8-0.2,9.5,0c2.6,0.2,0.4,0.3-4.8,0.3C366.8,22.6,364.6,22.5,367.3,22.3z"/>
		<path class="st2" d="M487.3,22.3c2.6-0.2,6.8-0.2,9.5,0c2.6,0.2,0.4,0.3-4.8,0.3C486.8,22.6,484.6,22.5,487.3,22.3z"/>
		<path class="st2" d="M527.3,22.3c2.6-0.2,6.8-0.2,9.5,0c2.6,0.2,0.4,0.3-4.8,0.3S524.6,22.5,527.3,22.3z"/>
		<path class="st2" d="M565.3,22.3c1.5-0.2,3.9-0.2,5.5,0c1.5,0.2,0.2,0.4-2.8,0.4S563.7,22.5,565.3,22.3z"/>
		<path class="st2" d="M735.8,22.3c1.2-0.2,3-0.2,4,0c0.9,0.3-0.1,0.5-2.3,0.4C735.3,22.7,734.5,22.5,735.8,22.3z"/>
		<path class="st2" d="M767.3,22.3c2.6-0.2,6.8-0.2,9.5,0c2.6,0.2,0.4,0.3-4.8,0.3S764.6,22.5,767.3,22.3z"/>
		<path class="st2" d="M807.3,22.3c2.6-0.2,6.8-0.2,9.5,0c2.6,0.2,0.4,0.3-4.8,0.3S804.6,22.5,807.3,22.3z"/>
		<path class="st2" d="M847.3,22.3c2.6-0.2,6.8-0.2,9.5,0c2.6,0.2,0.4,0.3-4.8,0.3S844.6,22.5,847.3,22.3z"/>
	</g>
</g>
<g id="Layer_2">
	<text transform="matrix(1 0 0 1 156.1497 303.5166)" class="st3 st4">4K</text>
	<text transform="matrix(0.8325 0 0 1 9.0466 479.1328)" class="st3 st5">ULTRA HD</text>
</g>
</svg>
