<?xml version="1.0" encoding="utf-8"?>
<!-- Generator: Adobe Illustrator 23.0.1, SVG Export Plug-In . SVG Version: 6.00 Build 0)  -->
<svg version="1.1" id="Layer_1" xmlns="http://www.w3.org/2000/svg" xmlns:xlink="http://www.w3.org/1999/xlink" x="0px" y="0px"
	 viewBox="0 0 500 500" style="enable-background:new 0 0 500 500;" xml:space="preserve">
<style type="text/css">
	.st0{clip-path:url(#SVGID_2_);}
</style>
<g>
	<g>
		<defs>
			<rect id="SVGID_1_" x="48" width="404" height="500"/>
		</defs>
		<clipPath id="SVGID_2_">
			<use xlink:href="#SVGID_1_"  style="overflow:visible;"/>
		</clipPath>
		<path class="st0" d="M163.1-0.3c-0.4,0.1-0.9,0.2-1.3,0.3c-3.3,0.8-6,3.1-7.2,6.3c-1.2,3.2-0.8,6.7,1.3,9.5l21.4,32.1
			c-36.3,19.1-62.3,51.9-68.4,91c0,0.1,0,0.2,0,0.3c0,0.1,0,0.2,0,0.3c0,0.3,0,0.6,0,0.9c0,0.2,0,0.4,0,0.6c0,0.5,0,1.1,0,1.6v14.2
			c-6-3.5-12.8-5.7-20.2-5.7c-22.2,0-40.3,18.2-40.3,40.3v121c0,22.2,18.2,40.3,40.3,40.3c7.4,0,14.2-2.2,20.2-5.7V373
			c0,16.6,13.7,30.2,30.2,30.2h10.1v60.5c0,22.2,18.2,40.3,40.3,40.3c22.2,0,40.3-18.2,40.3-40.3v-60.5h40.3v60.5
			c0,22.2,18.2,40.3,40.3,40.3c22.2,0,40.3-18.2,40.3-40.3v-60.5h10.1c16.6,0,30.2-13.7,30.2-30.2v-25.8c6,3.5,12.8,5.7,20.2,5.7
			c22.2,0,40.3-18.2,40.3-40.3v-121c0-22.2-18.2-40.3-40.3-40.3c-7.4,0-14.2,2.2-20.2,5.7V143c0.1-0.9,0.1-1.9,0-2.8
			c0-0.1,0-0.2,0-0.3c0-0.1,0-0.2,0-0.3c-5.9-39.4-31.9-72.5-68.4-91.7l21.4-32.1c2.5-3.4,2.6-8,0.2-11.5c-2.3-3.5-6.5-5.2-10.6-4.3
			c-2.6,0.6-4.9,2.2-6.3,4.4l-23.6,35c-16.6-6-34.9-9.1-53.9-9.1c-19,0-37.2,3.1-53.9,9.1l-23.6-35C170.5,1.2,166.9-0.6,163.1-0.3
			L163.1-0.3z M250,50.4c18.9,0,36.7,3.7,52.3,10.4c0.3,0.1,0.6,0.2,0.9,0.3c31.5,13.8,54.5,39.7,63.3,69.9H133.5
			c8.7-29.8,31.2-55.4,62.1-69.3c0.7-0.2,1.3-0.6,1.9-0.9C213.1,54,231,50.4,250,50.4L250,50.4z M194.6,80.6
			c-8.4,0-15.1,6.8-15.1,15.1c0,8.4,6.7,15.1,15.1,15.1c8.3,0,15.1-6.7,15.1-15.1C209.7,87.4,202.9,80.6,194.6,80.6L194.6,80.6z
			 M305.5,80.6c-8.3,0-15.1,6.8-15.1,15.1c0,8.4,6.8,15.1,15.1,15.1c8.4,0,15.1-6.7,15.1-15.1C320.6,87.4,313.8,80.6,305.5,80.6
			L305.5,80.6z M129,151.2H371V373c0,5.7-4.4,10.1-10.1,10.1h-78.8c-1.3-0.3-2.8-0.3-4.1,0H161.2c-1.3-0.3-2.8-0.3-4.1,0h-18
			c-5.7,0-10.1-4.4-10.1-10.1V151.2z M88.7,171.4c11.3,0,20.2,8.9,20.2,20.2v121c0,11.3-8.9,20.2-20.2,20.2
			c-11.3,0-20.2-8.9-20.2-20.2v-121C68.6,180.3,77.5,171.4,88.7,171.4L88.7,171.4z M411.3,171.4c11.3,0,20.2,8.9,20.2,20.2v121
			c0,11.3-8.9,20.2-20.2,20.2c-11.3,0-20.2-8.9-20.2-20.2v-121C391.1,180.3,400,171.4,411.3,171.4L411.3,171.4z M169.4,403.2h40.3
			v60.5c0,11.3-8.9,20.2-20.2,20.2c-11.3,0-20.2-8.9-20.2-20.2V403.2z M290.3,403.2h40.3v60.5c0,11.3-8.9,20.2-20.2,20.2
			c-11.3,0-20.2-8.9-20.2-20.2V403.2z M290.3,403.2"/>
	</g>
</g>
</svg>
