<svg id="Layer_1" data-name="Layer 1" xmlns="http://www.w3.org/2000/svg" viewBox="0 0 301.7 73.4"><defs><style>.cls-1,.cls-2{fill:#fff;}.cls-2,.cls-3{fill-rule:evenodd;}.cls-3{fill:#0066b2;}</style></defs><title>bluetooth</title><path class="cls-1" d="M100.1,49.7c0-18.5,10.8-33.5,24-33.5s24,15,24,33.5-10.8,33.5-24,33.5S100.1,68.2,100.1,49.7Z" transform="translate(-99.1 -12.4)"/><path class="cls-2" d="M174.2,51.8H177c5.2,0,7.1,2.6,7.1,7.8s-1.7,7.8-6.3,7.8h-3.6V51.8m0-20.8h3.3c3.9,0,5.7,2.4,5.7,7.1,0,4.2-2.5,6.4-5.8,6.4h-3.2V31m-8.7,43.5h13.7c9.9,0,13.6-6.3,13.6-14.7,0-6.5-2.6-10-7-12,4.2-1.7,6-6.2,6-10.6,0-8.6-4.1-13.4-13.5-13.4H165.4V74.5" transform="translate(-99.1 -12.4)"/><rect class="cls-1" x="97.2" y="11.5" width="7.9" height="50.6"/><path class="cls-1" d="M225.2,36.8V66.4c-1.8,1.3-3.4,2.4-5,2.4s-2.8-.8-2.8-2.7V36.8h-7.9V67.3c0,4.9,2.4,7.9,6.6,7.9,4.6,0,6.2-1.7,9.5-4.5v3.8H233V36.8h-7.8" transform="translate(-99.1 -12.4)"/><path class="cls-2" d="M245.7,50.6v-2c0-4.4,1.5-6.2,4.4-6.2s4.3,1.8,4.3,6.2v2h-8.7m16.5-.5c0-8.3-3.2-14-12.2-14s-12.2,5.8-12.2,14V61.2c0,8.3,3.2,14,12.2,14,8.8,0,12.1-5.5,12.2-13.5h-7.9v.8c0,4.3-1.5,6.2-4.3,6.2s-4.4-1.8-4.4-6.2V57h16.6V50.1" transform="translate(-99.1 -12.4)"/><path class="cls-1" d="M269.2,43.2V66.7c0,5.7,3.3,8.5,9.2,8.5a16.49,16.49,0,0,0,3.9-.4V68h-2.6c-1.8,0-2.7-1.1-2.7-3.1V43.2h5.3V36.7H277V26.6h-7.9V36.8h-4.3v6.5h4.4" transform="translate(-99.1 -12.4)"/><path class="cls-2" d="M302.1,62.6c0,4.3-1.5,6.2-4.3,6.2s-4.3-1.8-4.3-6.2V48.7c0-4.4,1.6-6.2,4.3-6.2s4.3,1.8,4.3,6.2V62.6m-16.5-1.4c0,8.3,3.2,14,12.2,14s12.2-5.7,12.2-14V50.1c0-8.3-3.2-14-12.2-14s-12.2,5.8-12.2,14V61.2" transform="translate(-99.1 -12.4)"/><path class="cls-2" d="M330.6,62.6c0,4.3-1.5,6.2-4.3,6.2s-4.4-1.8-4.4-6.2V48.7c0-4.4,1.6-6.2,4.4-6.2s4.3,1.8,4.3,6.2V62.6m-16.5-1.4c0,8.3,3.2,14,12.2,14s12.2-5.7,12.2-14V50.1c0-8.3-3.2-14-12.2-14s-12.2,5.8-12.2,14V61.2" transform="translate(-99.1 -12.4)"/><path class="cls-1" d="M345.2,43.2V66.7c0,5.7,3.3,8.5,9.2,8.5a16.49,16.49,0,0,0,3.9-.4V68h-2.6c-1.8,0-2.7-1.1-2.7-3.1V43.2h5.3V36.7H353V26.6h-7.8V36.8h-4.4v6.5h4.4" transform="translate(-99.1 -12.4)"/><path class="cls-1" d="M371,74.5V44.9c1.8-1.3,3.4-2.4,5.1-2.4s2.8.8,2.8,2.7V74.4h7.8V44c0-4.9-2.5-7.9-6.6-7.9-4.6,0-6.2,1.7-9.1,4.2V23.9h-7.9V74.5H371" transform="translate(-99.1 -12.4)"/><path class="cls-3" d="M129.1,30.6l6.1,6.1-6.1,6.1V30.6m0,37.1,6.1-6.1-6.1-6.1V67.7m-6.5-18.6L109.5,36l3.8-3.8,10.4,10.5v-25l19,19L130.2,49.2l12.5,12.6-19,19v-25L113.3,66.3l-3.8-3.8,13.1-13.4m3.5,36.7c16,0,27.1-7.6,27.1-36.7s-11-36.7-27.1-36.7-27,7.6-27,36.7,11,36.7,27,36.7" transform="translate(-99.1 -12.4)"/><path class="cls-1" d="M400.8,28a6.3,6.3,0,0,1-6.2,6.2,6.11,6.11,0,0,1-6.2-6.2,6.23,6.23,0,0,1,6.2-6.2,6.11,6.11,0,0,1,6.2,6.2Zm-11-.1a4.89,4.89,0,0,0,4.8,4.9,4.85,4.85,0,0,0,0-9.7,4.87,4.87,0,0,0-4.8,4.8Zm5.9,3.4-1.9-3h-.1v3h-1.2V24.5h2.1c1.6,0,2.3.7,2.3,1.7a2,2,0,0,1-1.8,2,9.82,9.82,0,0,0,.7,1l1.4,2.1Zm-1.1-5.8h-.8v2.1h.5c1.1,0,1.4-.6,1.4-1.2s-.3-.9-1.1-.9Z" transform="translate(-99.1 -12.4)"/></svg>