<?xml version="1.0" encoding="utf-8"?>
<!-- Generator: Adobe Illustrator 23.0.1, SVG Export Plug-In . SVG Version: 6.00 Build 0)  -->
<svg version="1.1" xmlns="http://www.w3.org/2000/svg" xmlns:xlink="http://www.w3.org/1999/xlink" x="0px" y="0px"
	 viewBox="0 0 500 500" style="enable-background:new 0 0 500 500;" xml:space="preserve">
<style type="text/css">
	.st0{display:none;}
	.st1{display:inline;}
	.st2{fill:none;}
	.st3{fill:#FFFFFF;}
</style>
<g id="Layer_2" class="st0">
	<g class="st1">
		<path class="st2" d="M306.6,361.4V146H522v215.4H306.6z"/>
		<g id="surface1">
			<path class="st3" d="M410,146c-23.6,0-44.6,5.7-59.2,22.5s-22.6,43.7-22.6,85.2s8,68.4,22.6,85.2c14.7,16.8,35.6,22.5,59.2,22.5
				s44.6-5.7,59.2-22.5c14.7-16.8,22.6-43.7,22.6-85.2s-8-68.4-22.6-85.2S433.6,146,410,146z M410,154.6c22.3,0,40.1,5.1,52.8,19.5
				c12.6,14.4,20.5,39.1,20.5,79.6s-7.8,65.1-20.5,79.6c-12.6,14.5-30.5,19.5-52.8,19.5s-40.1-5.1-52.8-19.5
				c-12.6-14.5-20.5-39.1-20.5-79.6s7.8-65.1,20.5-79.6C369.8,159.7,387.7,154.6,410,154.6z M405.7,165.4v76.2l-32-31.7l-6.1,6.1
				l36,35.4l-36,35.4l6.1,6.2l32-31.7v76l7.4-7.7L450,291l3-3.1l-3.1-3l-34.1-33.5l34.1-33.7l3.1-3.1l-3-3l-36.9-38.6L405.7,165.4z
				 M414.3,186.9l26.5,27.7l-26.5,26.1V186.9z M414.3,262.2l26.5,26.1l-26.5,27.8V262.2z"/>
		</g>
		<path class="st3" d="M144,157.7c-25.2-0.1-49.4,10-67.1,27.9H54.8c-27.7,0-50.2,22.5-50.2,50.2v33.5c0,27.7,22.5,50.1,50.2,50.2
			h22.1c36.9,37,96.8,37.2,133.8,0.3c0.1-0.1,0.2-0.2,0.3-0.3h22.1c27.7,0,50.1-22.5,50.2-50.2v-33.5c0-27.7-22.5-50.1-50.2-50.2
			h-22.5c-0.2-0.5-0.5-0.9-0.9-1.3C192.2,167.2,168.5,157.6,144,157.7L144,157.7z M171.9,196.7h61.3c21.5,0,39,17.5,39,39v33.5
			c0,21.5-17.5,39-39,39H111.9c6.4-0.5,32.1-4.2,32.1-33.5v-50.2C144,197.7,169,196.7,171.9,196.7L171.9,196.7z M119.1,219.3
			c4.5,0.4,7.9,4.3,7.6,8.8s-4.3,7.9-8.8,7.6c-4.3-0.3-7.6-3.9-7.6-8.2C110.4,222.8,114.3,219.2,119.1,219.3z M238.1,219.3
			c-4.5,0.4-7.9,4.3-7.6,8.8s4.3,7.9,8.8,7.6c4.3-0.3,7.6-3.9,7.6-8.2C246.8,222.8,242.8,219.2,238.1,219.3z M87.5,223h16.6
			l-13.9,63.6H74.9l-6.6-39l-6.5,39h-15l-14.1-63.5h16.9l4.9,37.1l6.5-37.1h15l6.5,37.1L87.5,223z M170.1,223.2v62.9h16.4v-19.2h31
			v-14.8h-31V238h34.3v-14.8L170.1,223.2z M111.2,240.4h15.3v45.8h-15.3V240.4z M230.3,240.4v45.8h15.3v-45.8H230.3z"/>
	</g>
</g>
<g id="Layer_3">
	<path class="st2" d="M102.3,393.9V101h292.9v292.9H102.3z"/>
	<g id="surface1_1_">
		<path class="st3" d="M242.9,101c-32.1,0-60.6,7.8-80.5,30.6s-30.8,59.4-30.8,115.9s10.8,93.1,30.8,115.9s48.4,30.6,80.5,30.6
			s60.6-7.8,80.5-30.6s30.8-59.4,30.8-115.9s-10.8-93.1-30.8-115.9S275,101,242.9,101z M242.9,112.8c30.3,0,54.6,6.9,71.8,26.5
			c17.2,19.7,27.8,53.2,27.8,108.2s-10.6,88.5-27.8,108.2c-17.2,19.7-41.5,26.5-71.8,26.5s-54.6-6.9-71.8-26.5
			c-17.2-19.7-27.8-53.2-27.8-108.2s10.6-88.5,27.8-108.2S212.6,112.8,242.9,112.8z M237,127.4V231l-43.6-43l-8.2,8.2l48.9,48.1
			l-48.9,48.1l8.2,8.4l43.6-43v103.4l10.1-10.4l50.2-52.5l4-4.2l-4.2-4l-46.3-45.6l46.3-45.8l4.2-4.2l-4-4L247.1,138L237,127.4z
			 M248.7,156.7l36.1,37.7l-36.1,35.5V156.7z M248.7,259l36.1,35.5l-36.1,37.7V259z"/>
	</g>
</g>
</svg>
