<svg id="Layer_1" data-name="Layer 1" xmlns="http://www.w3.org/2000/svg" viewBox="0 0 400 240.7"><defs><style>.cls-1{fill:#e9aa00;}</style></defs><title>fnac-livraison</title><g id="TV-8K-FNAC-10_v2" data-name="TV-8K-FNAC-10% v2"><path class="cls-1" d="M121.8,250.3,117.1,269H35.9l4.7-18.7Zm3.9-17.9H44.5l4.7-18.8h80.5Zm8.6-39.1H53.8l3.9-18.7H139Zm301.6,45.3a55.78,55.78,0,0,1-1.6,14.1l-14.1,55.5c-2.1,6.2-6.5,9.4-13.3,9.4H342.8a34.26,34.26,0,1,1-57.9,25,32.75,32.75,0,0,1,10.9-25H221.6a32.75,32.75,0,0,1,11.7,25.8,34.8,34.8,0,0,1-9.8,25,32.17,32.17,0,0,1-24.2,10.2,33.53,33.53,0,0,1-24.6-10.2,33.94,33.94,0,0,1-10.2-25c0-10.4,4.2-19,12.5-25.8H148.1c-5.7,0-10.4-1.6-14.1-4.7s-4.9-7.3-3.9-12.5l39.1-162.5H395l-10.9,43.7c13,2.6,23.7,7.6,32,14.8C429.3,207.4,435.9,221.4,435.9,238.6ZM208.1,352.3a11.77,11.77,0,0,0,3.5-8.6,11.93,11.93,0,0,0-3.5-8.6,12.1,12.1,0,1,0,0,17.2ZM328,350.7a11.06,11.06,0,0,0,3.9-8.6,11.21,11.21,0,0,0-3.9-8.6,12.32,12.32,0,0,0-17.2,0,11.06,11.06,0,0,0-3.9,8.6,11.21,11.21,0,0,0,3.9,8.6,12.82,12.82,0,0,0,8.6,3.5A12.18,12.18,0,0,0,328,350.7Zm84.4-112.9c-.5-18.2-11.7-29.2-33.6-32.8l-9.4,39.1h42.2A22.7,22.7,0,0,0,412.4,237.8Z" transform="translate(-35.9 -137.9)"/></g></svg>