<svg id="Layer_1" data-name="Layer 1" xmlns="http://www.w3.org/2000/svg" viewBox="0 0 680.51 271.4"><defs><style>.cls-1{fill:#fff;}</style></defs><title>Hz</title><path class="cls-1" d="M35.52,94.44q-.23,7.25,2.69,11.18t10.09,3.93a18.26,18.26,0,0,0,13.78-5.8,29.67,29.67,0,0,0,7.44-14.6q1.86-8.64-.9-14.6t-11.33-6a24,24,0,0,0-7.24,1,18.93,18.93,0,0,0-9.35,6.93l-19.78-.93L42.18,13.17H104.4L100.35,32H54.18L44.91,56.7a60.16,60.16,0,0,1,9-4.44,37.63,37.63,0,0,1,12.15-1.79q14,0,22.43,9.43t4.6,27.41q-3.28,15.64-16,28T44.38,127.62q-16.11,0-24.6-8.65T13.47,94.44Z" transform="translate(-0.01 -0.01)"/><path class="cls-1" d="M185.84,69.29q-6,28-17.88,43.06t-33.44,15.11q-21.57,0-27.06-15.11t.5-43.06q5.92-28,17.84-43.14T159.28,11q21.57,0,27,15.19T185.84,69.29ZM138.33,109.4q9.9,0,15.15-10.32t9.46-29.79q4.29-20.4,3.31-30.22t-10.86-9.81q-9.9,0-15.19,9.81t-9.58,30.22q-4.2,19.47-3.19,29.79T138.33,109.4Z" transform="translate(-0.01 -0.01)"/><path class="cls-1" d="M62.94,181.93a9.3,9.3,0,0,0-.86-6q-2.41-5.3-9.65-5.29-10.83,0-18,12.15-3.9,6.69-7.63,19.78a33.13,33.13,0,0,1,11.09-7.17,36.51,36.51,0,0,1,13-2.26q15,0,22.47,10.21t4,26.08A55.23,55.23,0,0,1,62,257.31q-12,12.07-31.85,12.07-21.35,0-27.65-17.83-4.9-13.94-.23-36a192.77,192.77,0,0,1,5.6-21q5-14.42,12.62-24A52.29,52.29,0,0,1,36,157.39a39.92,39.92,0,0,1,19.82-5q15.72,0,23.36,8.06t5.92,21.45ZM34.36,251.32a17.28,17.28,0,0,0,12.81-5.57,28.54,28.54,0,0,0,7.28-14.45q2.1-9.88-1.59-15.14T42.15,210.9a18.82,18.82,0,0,0-10.75,3.43q-7.63,5.05-10,16.35-2,9.1,1.75,14.87T34.36,251.32Z" transform="translate(-0.01 -0.01)"/><path class="cls-1" d="M171,211.06q-6,27.94-17.88,43.06t-33.44,15.11q-21.57,0-27.06-15.11t.5-43.06q5.93-28,17.84-43.15t33.48-15.18q21.57,0,27,15.18T171,211.06Zm-47.51,40.1q9.9,0,15.15-10.32t9.46-29.78q4.29-20.42,3.31-30.22T140.52,171q-9.9,0-15.19,9.81T115.75,211q-4.23,19.49-3.23,29.8T123.44,251.16Z" transform="translate(-0.01 -0.01)"/><path class="cls-1" d="M250.2,0l-52.28,271.2,429,.2L680.52.4ZM398.7,253l22.61-107.14H298.77L276.16,253H245L294.19,19.08h31.45l-21.3,100.59H426.88l21-100.59H479L429.83,253ZM616.87,99l-4.65,4.55L493.29,228.45H594.52L589.94,253H454.52a3.92,3.92,0,0,1-3.31-1.83h0a12.14,12.14,0,0,1,1-14.28l4.1-4.86L573.89,108.2H482.8l4.92-24.57h124A7.33,7.33,0,0,1,618.4,88l.43,1a9,9,0,0,1-2,10Z" transform="translate(-0.01 -0.01)"/></svg>