<!DOCTYPE svg PUBLIC "-//W3C//DTD SVG 20010904//EN" "http://www.w3.org/TR/2001/REC-SVG-20010904/DTD/svg10.dtd">
<svg version="1.0" xmlns="http://www.w3.org/2000/svg" width="505px" height="276px" viewBox="0 0 5050 2760" preserveAspectRatio="xMidYMid meet">
<g id="layer101" fill="#ffffff" stroke="none">
 <path d="M74 2742 c-6 -9 -8 -24 -4 -32 15 -30 30 -87 30 -114 0 -16 4 -25 10 -21 6 3 10 -5 10 -19 0 -13 -5 -26 -10 -28 -6 -2 -2 -13 10 -25 13 -15 20 -36 20 -63 0 -25 4 -39 10 -35 6 4 10 -15 10 -50 0 -35 4 -54 10 -50 6 4 10 -10 10 -34 0 -23 5 -41 10 -41 6 0 10 -20 10 -45 0 -25 4 -45 9 -45 6 0 11 -19 13 -42 2 -28 7 -42 16 -40 8 1 12 -13 12 -47 0 -28 5 -53 11 -57 8 -4 9 -25 5 -60 -4 -36 -3 -54 5 -54 6 0 8 8 4 20 -4 12 -2 20 5 20 6 0 10 -14 8 -33 -1 -18 6 -44 15 -57 11 -15 17 -45 18 -80 0 -40 3 -50 9 -35 6 15 9 6 9 -33 1 -36 5 -51 12 -46 8 4 10 -9 8 -45 -3 -43 -2 -49 9 -34 10 14 12 8 12 -40 0 -36 4 -57 11 -57 11 0 9 -44 -2 -89 -2 -7 1 -15 8 -18 6 -2 13 4 16 14 3 10 5 0 6 -22 0 -23 6 -46 12 -52 6 -6 10 -32 7 -57 -2 -34 0 -45 9 -42 7 3 12 -2 11 -12 -2 -26 13 -82 23 -82 5 0 9 -23 9 -51 0 -31 4 -48 10 -44 6 4 10 -12 10 -42 0 -35 3 -44 10 -33 7 11 10 -2 10 -42 0 -36 4 -58 11 -58 8 0 10 -17 7 -52 -5 -47 -4 -50 9 -32 14 17 15 14 10 -38 -4 -45 -2 -58 8 -58 7 0 16 6 18 13 3 6 6 -17 6 -53 1 -46 4 -61 11 -50 7 11 10 4 10 -27 0 -24 4 -43 9 -43 5 0 11 -17 14 -38 3 -20 14 -77 26 -127 11 -50 20 -114 21 -142 0 -46 3 -53 20 -53 16 0 20 -7 20 -30 l0 -30 2151 -2 c1213 -2 2154 1 2159 6 5 5 6 15 3 23 -5 12 -7 12 -14 1 -5 -8 -9 9 -9 45 0 31 -4 57 -10 57 -5 0 -10 13 -10 30 0 16 -4 39 -9 52 -5 13 -17 57 -26 98 -10 41 -22 79 -26 84 -5 6 -9 32 -9 58 0 28 -5 48 -11 48 -7 0 -10 15 -7 39 3 31 1 37 -9 29 -10 -8 -13 1 -13 43 0 39 -3 50 -10 39 -7 -11 -10 -2 -10 33 0 30 -4 46 -10 42 -6 -4 -10 15 -10 49 0 31 -4 56 -10 56 -5 0 -10 18 -10 40 0 22 -4 40 -9 40 -5 0 -11 19 -14 43 -6 51 -34 148 -38 127 -1 -8 -5 8 -9 35 -4 28 -16 75 -25 105 -10 30 -20 74 -22 97 -3 24 -9 40 -14 37 -5 -3 -9 15 -9 40 0 25 -4 46 -10 46 -5 0 -10 20 -10 45 0 25 -4 45 -10 45 -5 0 -10 18 -10 40 0 22 -4 40 -10 40 -5 0 -10 20 -10 45 0 25 -4 45 -10 45 -5 0 -10 13 -10 30 0 16 -4 39 -9 52 -5 13 -17 58 -26 101 -10 42 -22 77 -27 77 -4 0 -8 20 -8 45 0 25 -4 45 -10 45 -5 0 -10 18 -10 41 0 24 -4 38 -10 34 -6 -4 -10 15 -10 50 0 35 -4 54 -10 50 -6 -4 -10 12 -10 39 0 28 -5 46 -11 46 -8 0 -10 21 -7 68 3 37 3 57 1 45 -2 -13 -8 -23 -13 -23 -12 0 -18 84 -6 92 8 5 7 8 -1 8 -7 0 -17 -8 -22 -17 -8 -14 -10 -6 -11 35 0 28 -4 52 -10 52 -5 0 -10 18 -10 40 0 22 -4 40 -10 40 -5 0 -10 11 -10 24 0 13 -3 31 -6 40 -6 15 -204 16 -2143 16 -2026 0 -2137 -1 -2147 -18z m765 -249 c7 -32 15 -84 18 -116 2 -31 9 -55 14 -51 5 3 9 -23 9 -58 0 -44 3 -59 10 -48 7 11 10 -2 10 -42 0 -32 5 -58 10 -58 6 0 10 -18 10 -41 0 -32 3 -40 15 -35 12 4 15 -5 15 -55 0 -38 4 -58 10 -54 6 4 10 -13 10 -44 0 -28 5 -51 10 -51 6 0 10 -18 10 -39 0 -22 5 -43 10 -46 6 -3 10 -26 10 -51 0 -26 5 -44 11 -44 8 0 9 -20 4 -65 -4 -44 -3 -65 4 -65 6 0 11 -18 11 -40 0 -33 3 -40 20 -40 15 0 20 -7 20 -25 0 -23 4 -25 41 -25 24 0 38 -4 34 -10 -3 -5 3 -10 15 -10 12 0 18 5 15 10 -4 7 172 10 519 10 461 0 526 2 526 15 0 8 -5 15 -10 15 -6 0 -10 6 -9 13 5 38 -2 97 -11 92 -6 -4 -10 12 -10 39 0 25 -4 46 -10 46 -5 0 -10 20 -10 45 0 25 -4 45 -10 45 -5 0 -10 20 -10 44 0 26 -5 46 -12 49 -10 4 -9 8 2 16 10 7 11 11 3 11 -7 0 -13 11 -13 24 0 14 -4 28 -10 31 -5 3 -10 24 -10 46 0 21 -5 39 -11 39 -6 0 -9 12 -8 28 2 15 -5 41 -14 59 -9 18 -17 48 -17 68 0 19 -4 35 -10 35 -5 0 -10 21 -10 48 0 34 -3 43 -10 32 -7 -11 -10 -2 -10 33 0 28 -4 46 -9 42 -6 -3 -11 16 -13 42 -2 32 -7 47 -15 46 -9 -2 -13 10 -13 35 0 24 3 32 9 24 6 -11 9 -9 13 6 4 14 0 22 -13 25 -11 3 -20 -1 -22 -12 -3 -9 -5 -3 -6 12 -1 17 3 26 9 22 6 -3 10 0 10 9 0 8 -6 17 -12 19 -7 3 49 6 125 6 164 1 167 0 168 -86 0 -43 3 -53 10 -38 7 16 8 11 6 -19 -1 -24 3 -41 11 -44 7 -2 12 -24 12 -58 0 -30 5 -54 10 -54 6 0 10 -18 10 -39 0 -46 9 -73 21 -65 5 3 9 -15 9 -40 0 -25 5 -46 10 -46 6 0 10 -11 10 -25 0 -14 6 -25 13 -25 9 0 8 -3 -2 -9 -9 -6 -10 -11 -2 -15 6 -4 11 -25 11 -47 0 -21 4 -39 9 -39 4 0 13 -33 20 -72 21 -128 23 -138 32 -138 14 0 11 -98 -3 -102 -10 -4 -10 -10 -1 -29 l12 -24 0 27 c2 47 21 42 21 -6 0 -24 -4 -46 -9 -48 -5 -2 -3 -12 6 -23 15 -20 15 -20 8 3 -4 13 -2 22 4 22 6 0 11 -21 11 -51 0 -31 4 -48 10 -44 6 4 10 -10 10 -34 0 -22 -5 -43 -10 -46 -6 -4 -7 -11 -4 -17 5 -7 12 -4 21 7 12 17 13 14 13 -28 0 -26 5 -47 10 -47 6 0 10 -22 10 -49 0 -28 4 -52 9 -56 11 -6 26 -90 22 -117 -1 -10 2 -18 6 -18 5 0 9 -10 10 -22 1 -11 7 -24 13 -28 7 -4 11 -23 9 -41 -5 -82 0 -117 21 -124 17 -5 20 -15 20 -66 0 -54 11 -77 23 -46 3 6 6 -16 6 -51 1 -39 5 -61 11 -57 6 4 10 -12 10 -42 0 -35 3 -44 10 -33 7 11 10 0 10 -38 0 -33 4 -51 10 -47 6 4 10 -15 10 -49 0 -30 5 -56 11 -58 7 -2 8 -17 4 -41 l-7 -37 -113 0 c-84 0 -112 3 -111 12 0 7 -3 13 -9 13 -5 0 -9 -6 -9 -13 1 -6 -4 -12 -12 -12 -10 0 -11 6 -3 29 6 16 9 42 6 58 -3 23 -4 22 -6 -9 -2 -51 -17 -48 -25 4 -3 24 -9 61 -12 83 -4 22 -11 45 -16 52 -5 6 -12 37 -15 67 -3 31 -10 56 -14 56 -5 0 -9 27 -9 60 0 33 -4 60 -10 60 -5 0 -10 19 -10 43 0 31 -3 38 -10 27 -7 -11 -10 2 -10 43 0 34 -4 57 -11 57 -6 0 -9 19 -8 50 2 27 0 53 -4 56 -4 4 -7 17 -8 28 0 21 -1 21 -9 1 -7 -15 -9 -10 -9 23 -1 23 -5 42 -11 42 -5 0 -10 20 -10 45 0 32 -6 51 -20 65 -20 20 -32 20 -566 20 -454 -1 -548 -3 -560 -15 -16 -16 -20 -90 -4 -80 6 4 10 -12 10 -39 0 -25 5 -46 10 -46 6 0 10 -20 10 -45 0 -25 5 -45 10 -45 6 0 10 -13 10 -29 0 -16 7 -45 15 -64 8 -20 15 -50 15 -67 0 -16 5 -30 10 -30 6 0 10 -16 10 -36 0 -21 4 -33 10 -29 6 4 10 -13 10 -44 0 -30 -5 -51 -13 -54 -9 -4 -9 -7 1 -18 10 -11 12 -10 12 4 0 9 7 17 15 17 11 0 15 -12 15 -46 0 -27 4 -43 10 -39 6 4 10 -12 10 -40 0 -28 4 -44 10 -40 6 4 10 -10 10 -35 0 -25 4 -39 10 -35 6 4 10 -15 10 -49 l0 -56 -140 0 -140 0 0 40 c0 22 -4 40 -10 40 -5 0 -10 20 -10 45 0 25 -5 45 -11 45 -6 0 -10 12 -9 27 3 47 0 60 -10 38 -6 -14 -9 3 -9 53 -1 41 -5 72 -11 72 -5 0 -10 18 -10 41 0 24 -4 38 -10 34 -6 -4 -10 12 -10 39 0 25 -4 46 -9 46 -5 0 -12 39 -17 88 -8 80 -9 84 -15 42 l-6 -45 -1 48 c-1 26 -6 47 -12 47 -5 0 -10 14 -10 32 0 30 -8 62 -36 140 -10 28 -11 38 -1 41 8 3 5 16 -10 46 -13 24 -23 58 -23 78 0 20 -4 32 -10 28 -6 -4 -10 13 -10 45 0 36 -3 49 -11 44 -9 -5 -10 9 -7 50 4 52 -3 73 -15 44 -3 -7 -6 11 -6 40 -1 28 -5 52 -11 52 -5 0 -10 20 -10 45 0 25 -4 45 -10 45 -5 0 -10 16 -10 35 0 19 -4 43 -9 53 -12 21 -41 144 -41 172 0 11 -4 20 -10 20 -5 0 -10 18 -10 40 0 22 -4 40 -10 40 -6 0 -10 28 -10 63 0 44 -3 58 -10 47 -7 -11 -10 -2 -10 33 0 26 -4 47 -9 47 -4 0 -11 32 -13 72 -3 40 -11 74 -17 76 -6 2 -11 16 -11 30 0 21 2 24 10 12 8 -13 10 -12 10 3 0 14 -5 17 -21 12 -19 -6 -20 -3 -19 32 3 56 1 65 -10 58 -5 -3 -10 1 -10 9 0 9 6 16 13 16 8 0 7 4 -3 10 -10 7 33 10 130 10 l146 0 13 -57z m3216 47 c-3 -5 1 -10 9 -10 11 0 16 -9 16 -30 0 -16 5 -30 10 -30 6 0 10 -19 10 -41 0 -36 -2 -41 -20 -36 -11 3 -23 1 -26 -4 -3 -5 2 -9 10 -9 20 0 20 -7 0 -28 -15 -15 -15 -16 2 -23 14 -5 8 -8 -19 -8 -23 -1 -36 3 -32 9 4 7 -155 10 -470 10 -315 0 -474 -3 -470 -10 3 -5 -3 -10 -14 -10 -12 0 -21 -5 -21 -11 0 -16 26 -39 44 -39 9 0 16 -8 16 -19 0 -11 5 -21 11 -23 18 -6 -2 -38 -24 -38 -11 0 -17 -3 -14 -7 4 -4 32 -5 62 -4 50 2 55 0 55 -18 0 -14 6 -21 20 -21 13 0 20 -7 20 -20 0 -11 7 -20 16 -20 8 0 51 -36 95 -80 43 -44 83 -80 89 -80 6 0 45 -34 87 -75 42 -41 80 -75 84 -75 5 0 32 -22 60 -50 28 -27 55 -50 60 -50 5 0 9 -7 9 -15 0 -8 5 -15 10 -15 11 0 26 -13 95 -77 19 -18 37 -33 41 -33 3 0 19 -13 34 -30 15 -16 33 -30 40 -30 6 0 31 -20 56 -45 24 -25 49 -45 54 -45 6 0 40 -30 75 -66 36 -36 65 -63 65 -59 0 3 15 -9 34 -27 86 -81 117 -108 129 -108 7 0 21 -11 31 -25 10 -13 22 -22 27 -19 5 3 9 -1 9 -8 0 -8 9 -20 20 -28 11 -8 20 -22 20 -32 0 -10 5 -18 10 -18 6 0 10 -31 10 -72 0 -51 -3 -68 -10 -58 -8 13 -10 13 -10 -2 0 -9 5 -18 11 -20 17 -6 -58 -78 -81 -78 -11 0 -20 -4 -20 -10 0 -7 -218 -10 -635 -10 l-635 0 0 25 c0 23 4 25 48 27 l47 1 -43 4 c-38 4 -44 8 -57 40 -8 19 -15 46 -15 58 0 13 -6 26 -12 29 -10 5 -10 7 0 12 6 3 10 10 6 15 -3 5 2 9 11 9 9 0 13 -4 10 -10 -4 -7 151 -10 457 -10 452 0 464 0 478 -20 8 -11 24 -20 35 -19 14 0 16 2 5 6 -8 4 -21 12 -28 20 -11 11 -8 13 18 13 21 0 29 4 24 12 -5 8 2 9 24 5 28 -6 32 -4 32 14 0 21 -42 69 -60 69 -6 0 -8 5 -5 10 3 6 1 10 -5 10 -5 0 -24 13 -41 30 -17 16 -40 32 -50 35 -11 4 -19 12 -19 20 0 8 -9 17 -20 20 -23 7 -26 21 -7 29 6 3 2 3 -10 0 -13 -3 -23 -1 -23 5 0 6 -9 11 -19 11 -11 0 -23 9 -26 20 -3 11 -11 20 -18 20 -6 0 -39 29 -73 65 -34 36 -67 65 -73 65 -6 0 -11 5 -11 11 0 14 -26 39 -40 39 -19 0 -40 28 -34 44 3 9 1 16 -5 16 -6 0 -11 -4 -11 -10 0 -5 -4 -10 -10 -10 -5 0 -10 7 -10 15 0 8 -4 15 -8 15 -10 0 -44 26 -93 72 -25 24 -37 42 -33 52 3 9 2 16 -4 16 -6 0 -12 -4 -14 -9 -1 -5 -12 -3 -22 5 -19 13 -19 14 5 14 19 0 21 2 9 10 -8 5 -25 10 -37 10 -16 0 -23 6 -23 20 0 13 -7 20 -20 20 -11 0 -20 7 -20 15 0 8 -8 15 -18 15 -10 0 -24 9 -32 20 -8 11 -20 20 -28 20 -7 0 -10 5 -7 10 3 6 1 10 -5 10 -6 0 -29 18 -51 41 -21 22 -39 38 -39 34 0 -4 -18 12 -39 34 -22 23 -44 41 -50 41 -6 0 -11 5 -11 10 0 6 -7 10 -15 10 -8 0 -14 5 -13 12 2 6 -7 14 -20 17 -13 3 -23 9 -23 14 3 29 -2 37 -25 43 -27 7 -204 175 -204 194 0 6 -4 8 -10 5 -6 -4 -10 5 -10 19 0 14 5 26 11 26 5 0 7 5 4 10 -3 6 -1 10 5 10 6 0 8 5 4 12 -5 8 -11 6 -19 -5 -20 -27 -25 -20 -25 32 0 75 47 151 94 151 14 0 26 5 26 10 0 7 214 10 621 10 411 0 618 -3 614 -10z m68 -197 c3 -18 0 -23 -12 -21 -9 2 -17 13 -19 24 -4 29 25 27 31 -3z"/>
 <path d="M2320 1995 c0 -14 5 -25 10 -25 6 0 10 11 10 25 0 14 -4 25 -10 25 -5 0 -10 -11 -10 -25z"/>
 <path d="M2083 1213 c15 -2 37 -2 50 0 12 2 0 4 -28 4 -27 0 -38 -2 -22 -4z"/>
 <path d="M1210 640 c0 -11 5 -20 10 -20 6 0 10 9 10 20 0 11 -4 20 -10 20 -5 0 -10 -9 -10 -20z"/>
 <path d="M1230 510 c0 -11 5 -20 10 -20 6 0 10 9 10 20 0 11 -4 20 -10 20 -5 0 -10 -9 -10 -20z"/>
 <path d="M4349 888 c-6 -12 -4 -48 2 -48 5 0 9 11 9 25 0 21 -6 33 -11 23z"/>
 </g>

</svg>