<?xml version="1.0" encoding="utf-8"?>
<!-- Generator: Adobe Illustrator 23.0.1, SVG Export Plug-In . SVG Version: 6.00 Build 0)  -->
<svg version="1.1" id="Layer_1" xmlns="http://www.w3.org/2000/svg" xmlns:xlink="http://www.w3.org/1999/xlink" x="0px" y="0px"
	 viewBox="0 0 500 500" style="enable-background:new 0 0 500 500;" xml:space="preserve">
<g>
	<path d="M149,29C82.3,29,28,83.3,28,150v201.6c0,66.7,54.3,121,121,121h201.6c66.7,0,121-54.3,121-121V150c0-66.7-54.3-121-121-121
		H149z M149,49.2h201.6c55.8,0,100.8,45,100.8,100.8v201.6c0,55.8-45,100.8-100.8,100.8H149c-55.8,0-100.8-45-100.8-100.8V150
		C48.2,94.2,93.2,49.2,149,49.2L149,49.2z M114.9,180.9c-7.1,0-12.3,5-12.3,11.7c0,6.5,5.2,11.6,12.3,11.6c7,0,12.3-5,12.3-11.6
		C127.2,185.9,121.9,180.9,114.9,180.9L114.9,180.9z M219.9,186.6c-36.7,0-59.7,25.7-59.7,67c0,41.2,22.6,67.1,59.7,67.1
		c37,0,59.5-25.9,59.5-67.1C279.5,212.4,256.7,186.6,219.9,186.6L219.9,186.6z M350.3,186.6c-27.9,0-46.5,15.2-46.5,37.9
		c0,18.8,10.6,30,33.7,35.4l16.5,4c16.9,4,24.3,9.8,24.3,19.5c0,11.3-11.7,19.6-27.6,19.6c-17.1,0-28.9-7.7-30.6-19.8h-19.7
		c1.4,22.9,20.5,37.5,48.8,37.5c30.3,0,49.2-15.3,49.2-39.8c0-19.3-10.8-29.9-37-36l-14.1-3.5c-16.6-3.9-23.4-9.1-23.4-18.3
		c0-11.5,10.5-19,26.1-19c14.9,0,25.2,7.3,27,19.1h19.3C395.2,201.8,376.2,186.6,350.3,186.6L350.3,186.6z M219.9,205.1
		c24.3,0,39.2,18.8,39.2,48.5c0,29.5-15,48.5-39.2,48.5c-24.6,0-39.5-19.1-39.5-48.5C180.5,223.9,195.8,205.1,219.9,205.1
		L219.9,205.1z M105.4,221.1v96.5h18.9v-96.5H105.4z M105.4,221.1"/>
</g>
</svg>
