<?xml version="1.0" encoding="utf-8"?>
<!-- Generator: Adobe Illustrator 23.0.1, SVG Export Plug-In . SVG Version: 6.00 Build 0)  -->
<svg version="1.1" id="Layer_1" xmlns="http://www.w3.org/2000/svg" xmlns:xlink="http://www.w3.org/1999/xlink" x="0px" y="0px"
	 viewBox="0 0 500 500" style="enable-background:new 0 0 500 500;" xml:space="preserve">
<style type="text/css">
	.st0{fill:#FFFFFF;}
</style>
<g id="layer101">
	<path class="st0" d="M325.5,419c-0.3-0.5-1.7-1-3.1-1c-1.3,0-2.4-0.4-2.4-1c0-0.5-0.7-1-1.6-1c-1.5,0-4.4-2.3-4.4-3.5
		c0-0.3-1-1.7-2.2-3c-3.3-3.5-4.1-4.7-5.7-8c-0.7-1.6-1.7-3.8-2.3-4.8c-0.5-1-0.6-2.2-0.3-2.7c0.3-0.4,0.1-1-0.3-1.2
		c-0.5-0.1-3.3-5.5-6.2-11.8c-2.9-6.3-6.5-14.2-8.1-17.5c-1.5-3.3-3.8-8.2-5-10.8c-1.3-2.7-2.2-6.4-2.2-8.3c0.1-1.9-0.3-3.2-0.8-2.9
		c-1.3,0.9-9.7-17.4-9.1-19.7c0.1-0.5-0.5-0.8-1.3-0.8c-0.8,0-1.5-0.7-1.5-1.6c0-0.8-1.6-4.9-3.5-9.1c-1.9-4.2-3.5-8.2-3.5-8.9
		c0-0.8-0.4-1.4-0.9-1.4c-0.4,0-1.6-2.5-2.6-5.5c-0.9-3.1-2.3-6.2-3.1-7c-0.8-0.7-1.4-2.3-1.4-3.4c0-1.2-0.4-2.1-1-2.1
		c-0.5,0-1-0.5-1-1c0-0.6-0.7-2.7-1.6-4.8c-1-2-1.8-4.1-1.8-4.7c-0.2-1.3-4.9-10.9-5.7-11.5c-0.4-0.3-1-1.6-1.3-3
		c-0.9-2.8-1.8-4.9-7.6-17.5c-6-12.8-6.3-14.3-3.7-15.1c1.2-0.4,5.1-0.6,8.7-0.4c3.6,0.1,10,0.3,14.3,0.4c4.3,0.2,8,0.6,8.4,1
		c0.4,0.3,1.2,2.1,1.9,3.9c2.7,7.3,3.9,10.2,4.4,10.7c0.3,0.3,2,3.9,3.9,8c1.8,4.1,3.7,8.3,4.2,9.2c1.2,2.4,1.1,3.6-0.2,1.8
		c-0.8-1.2-1-1.1-0.7,0.5c0.2,1.1,1,2,1.8,2c0.8,0,1.4,0.8,1.4,1.8c-0.1,0.9,0.2,1.7,0.7,1.7c1.3,0,3.7,5.2,3.4,7.3
		c-0.2,0.9,0,1.7,0.5,1.7c0.4,0,1.8,2.4,3,5.3c3.7,8.7,8,18,9.5,20.9c0.8,1.4,1.5,3.3,1.5,4.2c0,0.9,0.4,1.6,1,1.6
		c0.5,0,1.4,1.7,1.9,3.8c0.6,2.1,1.7,4.6,2.5,5.7c0.9,1.1,1.6,2.8,1.6,3.8c0,0.9,0.5,1.7,1,1.7c0.6,0,1,0.6,1,1.4
		c0,0.7,1.4,4.4,3.1,8.2c3.4,7.4,4.6,10.5,4.7,11.7c0.1,0.4,1.7,3.8,3.8,7.5c2,3.7,3.6,8.2,3.7,9.9c0.1,1.8,0.4,2.8,0.7,2.2
		c0.4-0.5,1.9,1.8,3.4,5.3s3.1,7.1,3.6,8c0.5,1,0.7,2.5,0.4,3.5c-0.4,1.3-0.3,1.4,0.4,0.5c0.7-1,1.2-0.6,2.2,1.7
		c1.4,3.6,2.6,3.9,3.5,1.1c0.3-1.1,1.1-2,1.6-2s0.9-0.9,0.9-1.9c0-1.1,0.7-2.6,1.5-3.5c0.8-0.8,1.5-2.2,1.5-3c0-1.4,6.8-16.4,8-17.6
		c0.3-0.3,0.6-1.4,0.8-2.5c0.3-2.1,0.9-3.6,6.5-15.6c2-4.2,3.9-9.3,4.2-11.2c0.5-2.7,1.4-3.9,3.4-4.6c1.4-0.5,2.1-1,1.4-1
		c-0.8-0.1-0.5-1.8,0.9-5.3c1.1-2.9,2.2-6.3,2.5-7.5c0.3-1.3,1.2-2.3,2-2.3c1,0,1.3-0.6,0.9-1.5c-0.5-1.4,2.8-10.1,4.3-11.5
		c0.4-0.3,1.2-2.3,2-4.5c0.7-2.2,2.4-6.2,3.6-9c3.5-7.6,5.2-11.7,6-14.5c0.4-1.4,1.4-3.4,2.1-4.5c0.8-1.1,1.4-2.7,1.4-3.6
		c0-0.9,0.6-1.9,1.3-2.2c0.6-0.2,2.3-4,3.7-8.3c1.3-4.4,2.7-8.1,3-8.4c0.3-0.3,1.4-2.2,2.5-4.2c1.2-2.3,2.7-3.8,3.8-3.8
		c1.4,0,1.7-0.5,1.2-1.9c-0.6-1.9,0-2,13.9-2c14.3,0.1,14.6,0.1,14.6,2.2c0,1.8,0.2,1.9,1,0.7c1.4-2.2,1.2-0.6-0.4,3.2
		c-0.8,1.8-2.2,5.3-3.1,7.8c-1,2.5-2.8,6.8-4,9.5c-1.3,2.8-3.4,7.9-4.7,11.3c-1.2,3.5-3,6.8-3.9,7.2c-0.9,0.5-1.6,2.2-1.7,3.8
		c0,1.7-1.2,5.3-2.6,8.1c-1.4,2.8-2.6,5.9-2.6,7.1c0,1.1-0.4,2-1,2c-0.5,0-1,0.9-1,1.9c0,1.1-0.3,2.1-0.7,2.3
		c-0.5,0.2-1.6,2.6-2.7,5.3c-3.8,10.1-4.2,11-5.8,13.5c-0.8,1.4-2.1,4.2-2.8,6.3c-0.7,2.1-1.8,4.1-2.4,4.3c-0.7,0.3-1.3,2-1.4,3.9
		c-0.2,3.9-5.5,14.9-6.7,13.8c-0.4-0.5-0.5-0.3-0.2,0.3c1,1.8-6.5,20.7-7.6,19.2c-0.6-0.9-0.7-0.7-0.3,0.5c0.3,1-0.3,3.6-1.4,5.7
		c-1.1,2.2-2,4.6-2,5.4c0,1.3-2.8,7.4-4,8.6c-0.3,0.3-1.1,2.3-1.8,4.5c-3,9-9.9,23.3-12.8,26.4c-1.3,1.4-2.4,3.1-2.4,3.8
		c0,0.7-0.7,1.3-1.5,1.3c-0.8,0-1.5,0.5-1.5,1c0,0.6-0.7,1-1.5,1c-0.8,0-1.5,0.5-1.5,1c0,0.6-1.3,1-2.9,1c-1.7,0-3.3,0.5-3.6,1
		c-0.3,0.6-4.4,1-9,1S325.8,419.6,325.5,419z M262,227.1c0-0.5-0.7-1.1-1.5-1.5c-0.9-0.3-1.5,0-1.5,0.9c0,0.8,0.7,1.5,1.5,1.5
		C261.3,228,262,227.6,262,227.1z"/>
	<path class="st0" d="M125,417.2c0-0.9-3.5-1.2-12.4-1.2c-9,0-12.6-0.3-12.9-1.2c-0.4-1-0.8-0.9-1.7,0.2c-1,1.2-1.1,1.2-0.5-0.5
		c0.5-1.1,0.9-3.3,1.1-5c0.3-2.8,0.3-2.9-0.5-0.5c-0.5,1.5-0.9-30.6-1-78.2c-0.1-44.3-0.4-81.3-0.7-82.2c-0.5-1.4-4.4-1.6-31.8-1.7
		c-17.1-0.1-29.7-0.5-28.1-0.9l3-0.8l-2.7-0.1L34,245v-10c0-8.2,0.3-10,1.5-10c0.8,0,1.4,0.5,1.3,1.1c-0.2,0.6,0.2,1.3,0.9,1.6
		c0.6,0.2,1.3-0.4,1.5-1.4c0.3-1.6,4.5-1.7,76.6-1.8c46.9,0,76.6,0.3,76.9,0.9c0.3,0.5,0.1,0.6-0.5,0.2c-0.7-0.4-1.2-0.1-1.2,0.8
		c0,0.9,0.5,1.6,1,1.6c0.6,0,1,3.5,1,8.5c0,6.1-0.3,8.5-1.2,8.5s-0.8,0.4,0.2,1c1,0.6-9.4,1-30.2,1H130v84.6
		c0,63.5-0.3,84.3-1.2,83.8c-0.6-0.4-1.7,0.1-2.5,1.1C125.6,417.6,125,417.8,125,417.2z M88.8,245.3c-2.1-0.2-5.5-0.2-7.5,0
		c-2.1,0.2-0.4,0.4,3.7,0.4S90.8,245.5,88.8,245.3z M137.8,245.3c-1-0.2-2.6-0.2-3.5,0c-1,0.3-0.2,0.5,1.7,0.5
		C137.9,245.8,138.7,245.6,137.8,245.3z M162.8,245.3c-3.2-0.2-8.4-0.2-11.5,0c-3.2,0.2-0.6,0.3,5.7,0.3S165.9,245.5,162.8,245.3z"
		/>
	<path class="st0" d="M163.6,203.8c-0.9-1.2-1.6-3.2-1.6-4.3c0-1.2-0.4-2.5-0.8-3c-2.1-2.5-7.6-24.8-6.2-25.3c1.3-0.5,1.3-3.2,0-3.2
		c-0.5,0-1,0.5-1,1.2c0,2.2-1.3-0.2-2.1-3.9c-0.4-2.1-1.4-6.3-2.2-9.3c-0.9-3-2.5-9.1-3.7-13.5c-1.2-4.4-2.8-10.5-3.5-13.5
		c-2.3-10.1-3.8-13.5-6-13.5c-1.7,0-2.1,0.9-2.7,7c-0.4,3.9-1.2,10.6-1.8,15c-0.6,4.4-1.2,9.4-1.4,11c-0.3,1.7-0.5,3-0.6,3
		c-0.1,0-0.3,1.6-0.5,3.5c-0.3,1.9-0.9,6.2-1.4,9.5c-0.6,3.3-1.3,9.4-1.6,13.5c-0.4,4.1-1.3,9.7-2.1,12.5c-0.8,2.7-1.1,6.3-0.8,8.1
		c0.4,2,0.1,3.4-0.6,3.9c-2.4,1.5-3.2-1.3-2.5-9.1c0.6-5.5,1-7.3,1.6-5.9c0.5,1.3,0.8,0,0.7-4c0-3.3,0.9-13.9,2.1-23.5
		c1.2-9.6,2.9-23.1,3.7-29.8c1.5-13,1.9-14.6,3.6-13.6c0.5,0.3,0.9-0.2,0.8-1.2c-0.4-3.2-0.1-4.4,1.1-4.4c0.5,0,0.7,0.5,0.4,1
		s0.1,1,1,1c0.9,0,1.3-0.4,1-1c-0.3-0.5,0.3-1,1.4-1c1.2,0,2.1,0.7,2.1,1.5c0,0.8,0.5,1.5,1,1.5c0.6,0,1,0.5,1,1.1
		c0,0.5-0.4,0.7-1,0.4c-0.5-0.3-1,0-1,0.8c0,0.8,0.8,1.4,1.7,1.3c2.5-0.2,5.2,12,3.9,17.4c-0.5,2.1-0.5,2.2,0.3,0.5
		c1-2.3,1-2.3,3.7,6.5c0.9,3,2.3,7.4,3,9.8c0.8,2.3,1.4,4.9,1.4,5.8c0,0.8,0.9,4,2,7.1c1.1,3.2,2,6.8,2,8c0,1.3,0.5,2.3,1,2.3
		c0.6,0,1,1.1,1,2.3c0,1.3,0.7,4.6,1.5,7.3c1,3.3,1.1,5,0.4,5.5c-0.7,0.4-0.4,0.9,0.5,1.2c1.2,0.5,1.5,1.4,1,3.3
		c-0.5,1.9-0.3,2.5,0.4,2c0.7-0.4,1.4,0.3,1.8,1.9c0.8,3.3,2.6,2.7,3.8-1.1c0.5-1.6,1.2-3.8,1.6-4.9c0.4-1.1,1.2-3.8,1.8-6
		c0.5-2.2,1.9-7,3-10.7c1-3.7,1.7-7,1.4-7.3c-0.3-0.3,0.2-0.5,1.1-0.5c1.1,0,1.7-0.8,1.6-2.2c0-4,0.9-9.2,2.4-13.8
		c0.8-2.5,2-7,2.7-10c1.3-5.8,4-13.2,5.1-14c0.4-0.3,0.7-2.1,0.6-4c-0.1-3.7,3.2-13,4.6-13c0.5,0,0.5,0.5,0.2,1s0.1,1,1,1
		c0.9,0,1.3-0.5,1-1c-0.3-0.6,0.4-1,1.7-1c4.2,0,5,2.9,8.2,31c0.9,7.4,2,16.2,2.5,19.5c0.6,3.3,1.5,10.7,2.2,16.5
		c0.6,5.8,1.5,13,1.9,16c0.8,5.8,0.5,7.6-1.3,8.3c-0.7,0.3-1.2-0.6-1.3-2.2c-0.1-1.4-0.9-7.1-1.8-12.6c-1-5.5-1.9-12.5-2.1-15.5
		c-0.1-3-0.7-7.3-1.3-9.5c-0.6-2.2-1.3-6.9-1.7-10.5c-0.7-7.4-1-10.1-2.5-22c-1.9-15.5-1.7-15-5-14.6c-1.7,0.1-3.3,0.6-3.8,1.1
		c-0.4,0.5-0.2,0.5,0.5,0.1c2.5-1.4-0.2,11.3-6.7,31.2c-1.1,3.4-2,7.3-2,8.7c0,1.4-1,4.6-2.3,7.3c-1.2,2.6-2.3,6.8-2.5,9.5
		c-0.1,2.6-0.8,6-1.6,7.6c-0.9,1.6-1.2,3.1-0.9,3.4c0.3,0.4-0.2,0.9-1.1,1.3c-0.9,0.3-1.4,0.9-1.1,1.3c0.8,1.4-3.1,15.5-4.5,15.9
		c-0.9,0.3-1,0-0.4-0.9c0.6-1.2,0.5-1.1-1,0c-1.3,1.1-1.4,1.6-0.4,2.2c0.9,0.6,0.9,0.9,0.1,0.9c-0.6,0-1.8,0.3-2.6,0.6
		C165.8,205.9,164.5,205.2,163.6,203.8z"/>
	<path class="st0" d="M42,202.3c0-1.2,2.9-1.4,18-1.2c9.8,0.2,18.2,0,18.6-0.4c0.4-0.4,1.6-0.7,2.6-0.7c1.1,0,1.6-0.4,1.3-1
		c-0.3-0.5-0.1-1,0.4-1c0.6,0,1.1,0.5,1.1,1c0,0.6,0.7,1,1.5,1c0.8,0,1.5-0.4,1.5-1c0-0.5-0.4-1-1-1c-0.5,0-1-0.5-1-1
		c0-0.6,1-0.8,2.4-0.4c1.6,0.4,2.5,0.1,2.9-1c0.4-0.9,0.2-1.6-0.3-1.6c-0.6,0-1,0.5-1,1.2c0,0.6-0.3,0.9-0.6,0.6s0.4-2.3,1.5-4.4
		c1.2-2.2,2.1-5.7,2.1-8.2c0-4.1-3.5-14.3-5.2-15c-0.4-0.2-0.8-1-0.8-1.8c0-0.9-0.5-1.2-1.1-0.8c-0.6,0.3-1.4,0.3-1.8-0.2
		c-0.3-0.5-1.5-1.4-2.5-1.9c-1-0.6-2.3-2.2-2.8-3.5c-0.7-2-0.7-2.3,0.3-1.2c0.7,0.6,1.9,1.2,2.6,1.2c2.5,0,8.3,4.5,8.4,6.5
		c0,1.1,0.3,1.4,0.6,0.7c0.9-2.4,5.1,3.5,5.9,8.3c0.9,6.3,0.1,15-1.7,16.8c-0.8,0.8-3,3.4-4.9,5.7c-3.1,3.8-3.7,4.1-7,3.6
		c-2.6-0.4-3-0.3-1.5,0.4c1.1,0.5,1.8,0.9,1.5,1c-0.3,0.1-9.4,0.3-20.2,0.4C45.1,203.7,42,203.5,42,202.3z M93.2,188.8
		c-0.8-0.8-1.2-0.9-1.2-0.1c0,0.6-0.3,2-0.6,3c-0.7,1.7-0.6,1.7,1.2,0.1C94,190.4,94.1,189.8,93.2,188.8z"/>
	<path class="st0" d="M241.3,168.9c-0.3-32.6-0.2-34.9,1.5-34.9c1.4,0,1.5-0.2,0.2-1c-1.4-0.9-0.8-2.4,1.1-2.6
		c2.2-0.3,2.3-0.5,1-1.3c-1.2-0.8-1.2-1.4-0.1-4c0.7-1.7,1.6-3.1,2.1-3.1c0.4,0,1-0.9,1.4-2c0.4-1.2,1.9-2.2,4-2.6
		c1.9-0.3,3.3-1.1,3.2-1.8c-0.1-0.6,0.4-1,1.2-0.8c0.7,0.2,2.4-0.7,3.6-1.8c1.9-1.7,2.3-1.8,2.8-0.6c0.4,0.9,1.4,1.2,2.6,0.9
		c1.2-0.3,1.8-0.9,1.5-1.4c-0.3-0.5,1.6-0.9,4.1-0.9s4.4,0.4,4.1,0.9s0.3,1.1,1.4,1.4c1.3,0.3,2,0,2-0.9c0-1.8,1.6-1.8,2.3,0
		c0.3,0.8,0.1,1.7-0.6,2c-0.7,0.3,0.2,0.3,2,0c1.7-0.3,3.4,0,3.8,0.5c0.3,0.6,0.1,1.1-0.5,1.1s-0.9,0.4-0.6,0.9
		c0.3,0.5-1.7,0.1-4.4-1c-2.8-1-6.5-1.9-8.3-2c-2.7,0-2.9-0.2-1.2-0.9c1.1-0.5,1.4-0.9,0.7-0.9c-0.7-0.1-2,0.3-3,0.8
		c-0.9,0.5-4.6,1.9-8.2,3.2c-7.5,2.6-9.9,4.7-13.5,12l-2.5,5.3v35.5c0,23.7-0.4,35.1-1,34.1c-0.7-1.1-1.2-1.2-1.8-0.3
		C241.8,203.3,241.4,188.1,241.3,168.9z"/>
	<path class="st0" d="M380.1,189.2c-0.1-9.3-0.5-16.2-1.2-17.4c-0.6-1.2-1.2-3.5-1.3-5.1c-0.1-1.7-0.7-3.2-1.4-3.5
		c-0.7-0.2-1,0.2-0.9,1c0.2,0.7,0.2,1,0,0.6c-0.3-0.5-1.1-0.8-1.8-0.8c-0.8,0-1.3-0.9-1.2-2c0.2-2.9,1-2.5,6.4,2.5l4.8,4.6l0.3,16.4
		c0.3,14.2,0.2,16.5-1.1,16.5c-0.9,0-1.8,0.6-2,1.3C380.4,203.9,380.1,197.6,380.1,189.2z"/>
	<path class="st0" d="M431.1,161.7c-0.1-27.5-0.5-43.5-1.1-44.8c-0.9-1.6-2.2-1.9-8.3-2c-7.8,0-14.4-1.7-7.4-1.8
		c2-0.1,3.7-0.5,3.7-1.1c0-1.6,10.7-1.2,11.3,0.4c0.6,1.5,4.1,1.1,6.4-0.6c0.7-0.5,1.8-0.6,2.4-0.2c2.2,1.3,13.9,1.6,13.9,0.3
		c0-0.8,0.4-0.8,1.4,0s1.6,0.9,2.1,0.1c0.3-0.5,1.4-1,2.3-0.9c1.4,0,1.3,0.2-0.3,0.9c-1.7,0.7-1.7,0.9-0.2,0.9
		c0.9,0.1,1.7,0.5,1.7,1s-4.8,0.9-10.6,1c-5.9,0-11.4,0.3-12.3,0.6c-1.4,0.4-1.6,4.8-1.3,43.5c0.2,37,0.1,43-1.2,43
		c-0.8,0-1.7,0.6-1.9,1.3C431.4,203.9,431.1,185.2,431.1,161.7z"/>
	<path class="st0" d="M297.8,202.2c-1.7-0.3-1.8-2.2-1.8-22.3c0-14.4-0.4-21.9-1-21.9c-0.7,0-0.7-0.6,0-1.9c0.5-1.1,1-6.9,1-13
		c0-9.6-0.3-11.7-2.6-17c-1.5-3.4-3.3-6.1-4-6.1c-0.7,0-1.6-0.4-1.9-1c-0.3-0.6,0.1-0.7,1-0.4c1,0.4,1.4,0.1,1.2-0.7
		c-0.2-0.8-0.2-1.1,0-0.6c0.3,0.4,1.2,0.7,2,0.7c1,0,1.3,0.6,0.9,1.7c-0.4,1-0.4,1.4,0,1c0.7-0.7,4.3,2.8,4.5,4.5
		c0.3,1.8,0.5,2.3,1,3.3c0.4,0.6,0.9,2.4,1.3,4c1,5.1,1.6,48.4,0.8,59.5C299.6,201.3,299.3,202.5,297.8,202.2z"/>
	<path class="st0" d="M331.2,165.2c0.2-30,0.6-38.3,1.7-40.4c0.8-1.6,1.8-2.8,2.3-2.8s1.3-1,1.8-2.2c0.7-1.8,0.9-1.9,0.9-0.5
		c0.1,1.6,0.3,1.6,2.3-0.3c1.2-1.1,2.5-2,3-2c0.4,0,0.5-0.7,0.1-1.7c-0.5-1.3-0.2-1.5,1.5-1.1c1.2,0.3,2.1,0.3,2-0.1
		c-0.2-2,0.4-3.1,1.8-3.1c0.8,0,1.2,0.5,0.9,1c-0.4,0.6,0.9,1,3.2,0.9c3.4-0.1,3.5-0.2,1.3-0.9c-2-0.7-1.6-0.8,2.3-0.9
		c2.6-0.1,4.7,0.4,4.7,0.9c0,0.6,1,1,2.3,1c1.8,0,1.9-0.2,0.7-1.1c-1.2-0.8-1.1-0.9,0.5-0.7c1.1,0.2,1.9,1.1,1.9,2
		c-0.1,1.4,0.4,1.6,2.7,1.1c2.5-0.5,2.9-0.2,2.9,1.6c0,1.7,0.6,2.1,3,2.1c2.3,0,3,0.4,3,2c0,1.1,0.5,2,1.1,2s0.8,0.7,0.5,1.6
		c-0.3,0.8-0.2,1.2,0.3,0.9c1.2-0.7,2.4,3.1,1.5,4.6c-0.4,0.7-0.3,0.9,0.3,0.6c2.2-1.4,1.3,9.6-1.2,15c-1.3,2.8-2.1,5.4-1.7,5.7
		c0.3,0.3-0.2,0.6-1.1,0.6s-1.7,0.5-1.7,1c0,0.6-0.7,1-1.5,1c-0.8,0-1.5,0.5-1.5,1c0,0.6-0.7,1-1.6,1c-1.2,0-1.5,0.6-1.1,2.3
		c0.4,1.2,0.2,2.9-0.3,3.7c-1,1.5-1.6,1.1-3.5-2.5c-0.3-0.6-0.7-0.5-1.1,0.3c-0.7,1.5-15.4,1.7-15.4,0.2c0-0.5,1.5-1,3.3-1
		c2.4,0,2.8-0.3,1.7-1s-0.1-1,3.5-1c6.8,0,14.4-4.3,16.9-9.6c1.1-2.2,2.3-4.6,2.7-5.5c1.5-3.1-0.9-15-3.8-18.7
		c-3.5-4.6-11.4-8.2-18.1-8.2c-6.6,0-14.4,3.7-17.3,8.3c-1.2,1.8-1.9,2.4-1.5,1.5c0.3-1,0.1-1.8-0.5-1.8c-0.7,0-0.9,1.2-0.5,3.4
		c0.5,2.4,0.3,3.5-0.6,3.8c-1,0.4-1.2,5-1,20.9c0.4,29.6-0.6,51.6-2.5,52.3C331.1,202.9,330.9,197.8,331.2,165.2z"/>
	<path class="st0" d="M66.9,158.8c-0.1-0.7-0.1-1.6,0-2c0.2-1.3-3.7-0.9-4.1,0.4c-0.3,0.9-0.9,0.8-2.2-0.5c-1-0.9-2.6-1.7-3.7-1.7
		c-1.1,0-1.9-0.7-1.9-1.6c0-1.2-0.6-1.5-2.5-1c-1.4,0.4-2.5,0.2-2.5-0.4c0-0.5-0.7-1-1.6-1c-2.3,0-7.4-5.8-8.1-9.2
		c-0.3-1.6-1-3.1-1.4-3.4c-1.1-0.6-1.2-12.1-0.1-12.6c0.4-0.1,1.6-2,2.6-4.1c1.5-2.8,2.4-3.6,3.8-3.2c1,0.4,2.8-0.1,4-0.9
		c1.2-0.9,1.7-1.6,1-1.6s-1.1-0.4-0.7-0.9c0.3-0.5,2.2-0.7,4.3-0.5c2.5,0.4,3.3,0.3,2.4-0.4c-2-1.4,3.3-2.1,16.3-2.1
		c7.3,0,12,0.4,14,1.3c2.8,1.3,2.2,1.5-8.5,1.7c-20.2,0.3-24.7,1-29.7,4c-2.4,1.5-3.3,1.6-3.7,0.7c-0.3-0.7-0.3-0.3,0,1
		c0.3,1.3,0.1,2.9-0.6,3.6c-2.9,3.6-0.2,20.5,3.3,20.7c0.7,0,0.3,0.4-0.8,0.9c-1.8,0.8-1.8,0.9,0.5,0.9c1.4,0.1,3.9,1,5.5,2.1
		c1.7,1.1,5.5,2.7,8.5,3.6c3,0.8,6.3,2,7.2,2.5c1,0.5,2.5,0.9,3.5,0.9c1.4,0,1.4,0.3-0.5,2C68.8,160.3,67.1,160.6,66.9,158.8z"/>
	<path class="st0" d="M342,158c0-1.5,0.6-2,2.8-1.9l2.7,0.1L345,157c-2.3,0.7-2.3,0.8-0.3,0.9c3.5,0.2,3.8,2.1,0.4,2.1
		C342.7,160,342,159.6,342,158z"/>
	<path class="st0" d="M285,156.5c0-0.8,0.5-1.5,1-1.5c0.6,0,1,0.4,1,0.9s0.8,1.2,1.8,1.4c1,0.3,0.6,0.5-1,0.6
		C285.9,158,285,157.5,285,156.5z"/>
</g>
<g id="layer102">
	<path class="st0" d="M81.3,245.3c2-0.2,5.4-0.2,7.5,0c2,0.2,0.3,0.4-3.8,0.4S79.2,245.5,81.3,245.3z"/>
	<path class="st0" d="M134.3,245.3c0.9-0.2,2.5-0.2,3.5,0c0.9,0.3,0.1,0.5-1.8,0.5C134.1,245.8,133.3,245.6,134.3,245.3z"/>
	<path class="st0" d="M151.3,245.3c3.1-0.2,8.3-0.2,11.5,0c3.1,0.2,0.5,0.3-5.8,0.3S148.1,245.5,151.3,245.3z"/>
	<path class="st0" d="M36.5,227c-0.3-0.5-0.3-1,0.2-1.1c0.4,0-0.1-0.4-1.2-0.9c-1.7-0.7-1.5-0.9,1.2-0.9c2.6-0.1,3,0.2,2.6,1.9
		C38.7,228.2,37.5,228.6,36.5,227z"/>
	<path class="st0" d="M191,226.5c0-1.2-2.1-1.5-11.7-1.7l-11.8-0.2l11.4-0.3c7.5-0.3,11.8,0,12.7,0.8c1.6,1.3,1.8,2.9,0.4,2.9
		C191.5,228,191,227.3,191,226.5z"/>
	<path class="st0" d="M259,226.5c0-0.9,0.6-1.2,1.5-0.9c0.8,0.4,1.5,1,1.5,1.5s-0.7,0.9-1.5,0.9C259.7,228,259,227.3,259,226.5z"/>
	<path class="st0" d="M404.2,226.9c0.2-0.6,0.8-1,1.3-1s1.1,0.4,1.3,1c0.2,0.6-0.4,1.1-1.3,1.1S404,227.5,404.2,226.9z"/>
	<path class="st0" d="M435,226.2c0-1.4,0.6-2.2,1.6-2.2c1.4,0,1.5,0.3,0.3,1.8c-0.7,0.9-1.5,1.9-1.6,2.1
		C435.1,228.1,435,227.4,435,226.2z"/>
	<path class="st0" d="M56.2,224.3c4.8-0.2,12.9-0.2,18,0c5.1,0.1,1.2,0.3-8.7,0.3S51.4,224.4,56.2,224.3z"/>
	<path class="st0" d="M96.3,224.3c0.9-0.2,2.5-0.2,3.5,0c0.9,0.3,0.1,0.5-1.8,0.5S95.3,224.6,96.3,224.3z"/>
	<path class="st0" d="M138.3,224.3c1.5-0.2,3.9-0.2,5.5,0c1.5,0.2,0.2,0.4-2.8,0.4S136.7,224.5,138.3,224.3z"/>
	<path class="st0" d="M251.8,224.3c1.2-0.2,3-0.2,4,0c0.9,0.3-0.1,0.5-2.3,0.4C251.3,224.7,250.5,224.5,251.8,224.3z"/>
	<path class="st0" d="M40,202.5c0-0.8,0.5-1.5,1-1.5c0.6,0,1,0.7,1,1.5s-0.4,1.5-1,1.5C40.5,204,40,203.3,40,202.5z"/>
	<path class="st0" d="M55.7,203.3c1.8-0.2,5-0.2,7,0c2.1,0.2,0.7,0.4-3.2,0.4C55.7,203.7,54,203.5,55.7,203.3z"/>
	<path class="st0" d="M211.4,201.5c-0.4-1.4-0.4-2.9,0-3.2c0.3-0.4,0.6,0.3,0.6,1.5c0,2.4,1.5,3,2.3,1c0.3-0.7,0.6-0.3,0.6,1
		C215,204.9,212.2,204.6,211.4,201.5z"/>
	<path class="st0" d="M241.5,201.7c-0.4-1.3-0.5-4.6-0.2-7.3c0.3-4.7,0.3-4.6,0.5,1.4c0.1,3.4,0.7,6.2,1.2,6.2c0.6,0,1,0.5,1,1
		C244,205,242,204,241.5,201.7z"/>
	<path class="st0" d="M381,203c0-0.5,0.7-1,1.5-1c0.8,0,1.5,0.5,1.5,1c0,0.6-0.7,1-1.5,1C381.7,204,381,203.6,381,203z"/>
	<path class="st0" d="M84,199c0-0.5,0.7-1,1.5-1c0.8,0,1.5,0.5,1.5,1c0,0.6-0.7,1-1.5,1C84.7,200,84,199.6,84,199z"/>
	<path class="st0" d="M88.4,195.5c0.8-0.8,1.7-1.5,2-1.5s0.3,0.7,0,1.5c-0.4,0.8-1.3,1.5-2.1,1.5C87.1,197,87.1,196.8,88.4,195.5z"
		/>
	<path class="st0" d="M91.4,191.7c0.3-1,0.6-2.4,0.6-3c0-0.8,0.4-0.7,1.2,0.1c0.9,1,0.8,1.6-0.6,3C90.8,193.4,90.7,193.4,91.4,191.7
		z"/>
	<path class="st0" d="M122.3,185c0-2.5,0.2-3.5,0.4-2.2c0.2,1.2,0.2,3.2,0,4.5C122.5,188.5,122.3,187.5,122.3,185z"/>
	<path class="st0" d="M154,169.5c0-0.8,0.5-1.5,1-1.5c0.6,0,1,0.7,1,1.5s-0.4,1.5-1,1.5C154.5,171,154,170.3,154,169.5z"/>
	<path class="st0" d="M179.6,168.4c-0.4-1.5-0.5-2.9-0.1-3.2c0.3-0.3,0.5,0.2,0.5,1.2c0,0.9,0.4,1.5,0.9,1.2
		c0.5-0.4,0.7,0.3,0.4,1.4C180.6,171.6,180.3,171.5,179.6,168.4z"/>
	<path class="st0" d="M375.6,164.4c-0.4-1-0.1-1.4,0.6-1.2c1.5,0.5,2.3,2.8,1,2.8C376.7,166,375.9,165.3,375.6,164.4z"/>
	<path class="st0" d="M77,161.2c0-0.7-1.5-1.2-3.5-1.2c-1.9,0-3.5-0.4-3.5-1c0-1.7,7-1.2,7.7,0.5c0.3,0.9,0.3,1.9-0.1,2.2
		C77.3,162.1,77,161.8,77,161.2z"/>
	<path class="st0" d="M63,157c0-0.5,0.9-1,2.1-1c1.1,0,1.7,0.5,1.4,1c-0.3,0.6-1.3,1-2.1,1C63.6,158,63,157.6,63,157z"/>
	<path class="st0" d="M252,156.9c0-0.5,7.1-0.9,16.5-0.9c10.7,0,16.5,0.4,16.5,1c0,0.7-5.8,1-16.5,0.9
		C259.2,157.9,252,157.4,252,156.9z"/>
	<path class="st0" d="M288.5,157c-1.5-0.7-1-0.9,2.3-0.9c2.6-0.1,4.1,0.3,3.7,0.9C293.8,158.2,291.3,158.2,288.5,157z"/>
	<path class="st0" d="M44,120.5c0-1.7,4-4.6,5.7-4.3c1.1,0.2,0.7,0.8-1.3,1.8c-1.6,0.8-3.2,1.9-3.6,2.5
		C44.3,121.2,44,121.2,44,120.5z"/>
	<path class="st0" d="M338,119.8c0-1,0.5-1.8,1.1-1.8c0.5,0,0.7-0.4,0.4-1c-0.4-0.6,0.6-1,2.2-1h2.7l-2.4,1.7
		c-1.4,0.9-2.8,2.2-3.2,2.7C338.3,121.1,338,120.8,338,119.8z"/>
	<path class="st0" d="M286.4,117.5c-1.9-1.4-1.9-1.4,0.2-1.5c1.2,0,2.4,0.7,2.8,1.5C290.1,119.4,288.9,119.4,286.4,117.5z"/>
	<path class="st0" d="M408.8,114.3c1.2-0.2,3-0.2,4,0c0.9,0.3-0.1,0.5-2.3,0.4C408.3,114.7,407.5,114.5,408.8,114.3z"/>
	<path class="st0" d="M263.6,113.2c-0.3-0.3-0.6-0.9-0.6-1.4c0-1.1,3.7-1,4.4,0.1C268,112.9,264.4,114.1,263.6,113.2z"/>
	<path class="st0" d="M276.5,113c-1.9-0.7-1.9-0.8-0.2-1.5c1.9-0.8,3.1-0.2,2.6,1.3C278.7,113.3,277.6,113.4,276.5,113z"/>
	<path class="st0" d="M349.6,112c0.6-0.6,2.1-0.6,3.9-0.1c3,0.9,3,0.9-0.9,1C350,113,348.9,112.7,349.6,112z"/>
	<path class="st0" d="M361,112c0-1.3,1.1-1.3,3,0c1.2,0.8,1.1,1-0.7,1C362,113,361,112.6,361,112z"/>
</g>
<g id="layer103">
	<path class="st0" d="M325.5,421c-0.3-0.5-1.5-1-2.6-1c-2.3,0-5.5-1.7-8.4-4.5c-2.7-2.6-9.5-12-9.5-13.1c0-0.5-1.1-3.1-2.5-5.8
		s-2.5-5.4-2.5-5.9c0-0.6-0.6-1.8-1.4-2.6c-0.8-0.9-2.1-3.6-2.9-6.1c-2.2-6.5-5.6-13.8-6.7-14.5c-0.6-0.3-1-1.2-1-2
		c0-0.8-1.4-4.4-3.1-8c-1.8-3.6-2.9-6.8-2.6-7.1c0.3-0.3,1.3,1.2,2.2,3.3s2.9,6.5,4.4,9.8c5.2,11.2,12.9,28,14.6,32
		c3.9,9.3,4.2,9.7,8.3,14c1.2,1.3,2.2,2.7,2.2,3c0,1.2,2.9,3.5,4.4,3.5c0.9,0,1.6,0.5,1.6,1c0,0.6,1.1,1,2.4,1c1.4,0,2.8,0.5,3.1,1
		c0.3,0.6,4.4,1,9,1s8.7-0.4,9-1c0.3-0.5,1.9-1,3.6-1c1.6,0,2.9-0.4,2.9-1c0-0.5,0.7-1,1.5-1c0.8,0,1.5-0.4,1.5-1c0-0.5,0.7-1,1.5-1
		c0.8,0,1.5-0.6,1.5-1.2c0.1-1.7,3.9-6.2,4.6-5.5c0.4,0.3-0.5,2-2,3.7c-1.4,1.7-2.6,3.6-2.6,4.1s-0.5,0.9-1,0.9c-0.6,0-2,0.9-3.2,2
		c-1.2,1.1-3.2,2-4.4,2c-1.3,0-2.6,0.5-2.9,1c-0.3,0.6-4.6,1-9.5,1S325.8,421.6,325.5,421z"/>
	<path class="st0" d="M96.6,416.4c-0.3-0.9-0.6-38.9-0.6-84.5V249l-31.2-0.2l-31.3-0.3l-0.3-12.7L32.9,223h80.6h80.6l-0.3,12.8
		l-0.3,12.7l-30.7,0.3L132,249v82.9c0,45.6-0.3,83.6-0.6,84.5c-0.7,1.7-5.4,2.2-5.4,0.6c0-0.5,0.9-1,2-1c2,0,2-0.7,2-84.5V247h31.5
		h31.6l-0.3-11.2l-0.3-11.3l-79.2-0.3L34,224v11.5V247h30.9c26.8,0,31,0.2,31.5,1.5c0.3,0.9,0.6,38.9,0.6,84.5l0.1,83H111
		c8.7,0,14,0.4,14,1s-5.3,1-13.9,1C99.4,418,97.1,417.8,96.6,416.4z"/>
	<path class="st0" d="M361.8,404.5c0.5-1.1,1.8-4.2,3.1-7c4.5-9.9,5-11.1,6.3-15c0.7-2.2,1.5-4.2,1.8-4.5c1.2-1.1,4-7.3,4-8.6
		c0-0.8,1.1-3.6,2.4-6.2c1.3-2.6,4.5-10,7.1-16.6c2.6-6.5,5.5-13.3,6.6-15c1-1.7,1.9-4,1.9-5s0.9-3.7,2-6c1-2.3,2.6-5.7,3.4-7.6
		c0.9-1.9,2-4.2,2.5-5c1.6-2.6,6.1-14.1,6.1-15.6c0-0.8,0.5-1.4,1-1.4c0.6,0,1-0.9,1-2s0.5-2,1-2c0.6,0,1-0.9,1-2
		c0-1.2,1.1-4.2,2.4-6.8c1.3-2.6,2.7-6.3,3.1-8.2s1.3-3.9,2-4.5c0.7-0.5,2.2-3.7,3.5-7c1.2-3.3,3.2-8.2,4.5-11
		c1.2-2.7,2.9-6.8,3.8-9c0.8-2.2,2.4-6.2,3.5-9l2.1-5l-14.7-0.3c-8.1-0.1-15.6,0-16.7,0.3c-1.2,0.3-3,2.6-4.5,6
		c-1.4,3-2.7,5.5-3,5.5c-0.3,0-1.6,3.7-3,8.1c-1.3,4.5-3,8.4-3.7,8.6c-0.7,0.3-1.3,1.3-1.3,2.2c0,0.9-0.6,2.5-1.4,3.6
		c-0.7,1.1-1.7,3.1-2.1,4.5c-0.8,2.8-2.5,6.9-6,14.5c-1.2,2.8-2.9,6.8-3.6,9c-0.8,2.2-1.6,4.2-2,4.5c-1,0.9-4.9,10-4.9,11.5
		c0,0.8-0.4,1.5-1,1.5c-0.5,0-1,0.7-1,1.5c0,0.8-0.7,3-1.5,5c-0.8,1.9-2.2,5.1-3,7.1c-0.9,2-1.8,3.4-2,3.2c-0.7-0.7,2-7.6,8.5-22.3
		c3.1-7.1,6.2-14.3,6.8-16c1.2-3.4,9.7-22.8,14.2-32.3c1.7-3.4,3-7.1,3-8.2c0-1.1,0.5-2,1-2c0.6,0,1-0.7,1-1.6
		c0-0.9,1.6-4.7,3.6-8.5l3.6-6.9h18h17.9l-0.7,2.3c-0.3,1.2-1.7,4.3-3,6.9c-1.3,2.6-2.4,5.2-2.4,5.8c0,1-3.8,9.9-10.1,23.8
		c-1.6,3.5-2.9,6.7-2.9,7.2c0,0.6-0.4,1-0.9,1s-1.2,1.6-1.6,3.6c-0.3,2-1,4.4-1.5,5.3c-2.1,3.9-6,13.5-6,14.7c0,0.8-0.5,1.4-1,1.4
		c-0.6,0-1.5,2-2.2,4.5c-0.7,2.5-1.6,4.5-2,4.5c-0.4,0-0.8,0.6-0.8,1.4c0,1.4-4.1,11.4-6.4,15.6c-0.8,1.4-2.4,5.3-3.5,8.7
		c-1.2,3.4-3,7.8-4.1,9.8s-2,4-2,4.6c0,0.5-1.3,3.9-3,7.4c-1.6,3.5-3,7.1-3,8c0,0.8-0.4,1.5-0.9,1.5s-1.2,1.2-1.6,2.8
		c-0.4,1.5-2.4,6.5-4.4,11.2c-4.1,9.1-7.6,17.4-9.5,22.8c-0.7,1.8-2.2,4.5-3.4,6C361.7,405.7,361.3,405.9,361.8,404.5z"/>
	<path class="st0" d="M330.9,378.7c-1.5-2.8-4.4-9-6.4-13.7c-2.1-4.7-5.3-11.6-7.3-15.5c-1.9-3.8-3.5-7.2-3.5-7.5
		c0.1-0.8-1.2-3.9-4.6-11.4c-3.4-7.4-4.3-12.3-1.2-6.6c1,1.9,2.2,4.6,2.6,5.9c0.4,1.4,3.1,7.5,6,13.5c2.9,6.1,5.5,12.2,5.9,13.6
		c1.1,4,4,10,4.9,10c0.4,0,0.7,1,0.7,2.3c0.1,1.2,1.4,4.7,2.9,7.7l2.9,5.4l2.1-3.4c1.2-1.9,3.4-6.9,5.1-11c3.6-9.3,8.9-20,9-18.1
		c0,0.7-2,5.6-4.5,10.9c-2.5,5.2-4.5,10.1-4.5,10.9c0,0.8-0.7,2.1-1.5,2.9c-0.8,0.9-1.5,2.4-1.5,3.5c0,1-0.4,1.9-0.9,1.9
		s-1.3,0.9-1.6,2C334.5,385,333.7,384.5,330.9,378.7z"/>
	<path class="st0" d="M280.3,346.5c-0.7-0.8-1.3-1.8-1.3-2.3s-1.3-3.6-3-7c-1.6-3.4-3-6.6-3-7s-1.8-4.3-4-8.6c-2.2-4.4-4-8.6-4-9.3
		c0-1.8-2.8-7.3-4.6-9.1c-0.8-0.7-1.4-2.2-1.4-3.2c0-1.5-8-19.8-11-25.2c-0.6-1-1-2.2-1-2.7c0-0.6-2.2-5.7-4.9-11.4
		c-2.8-5.7-5.3-11.6-5.7-13c-0.3-1.5-1-3-1.5-3.3c-1.1-0.6-3.1-5.1-6.5-14.2c-2.6-6.9-2.2-7.7,3.3-6.9c2.7,0.4,2.7,0.4-0.5,0.6
		c-3,0.1-3.2,0.3-2.6,2.8c0.4,1.5,2.9,7.4,5.6,13.2c6.8,14.7,6.6,14.3,7.4,17.1c0.4,1.4,1,2.7,1.3,3c0.3,0.3,1.7,3,3,6
		c1.3,3,3.2,7.3,4.3,9.6c1,2.2,1.8,4.6,1.8,5.2c0,0.7,0.5,1.2,1,1.2c0.6,0,1,0.9,1,2.1c0,1.1,0.6,2.7,1.4,3.4c0.8,0.8,2.2,3.9,3.1,7
		c1,3,2.2,5.5,2.6,5.5c0.5,0,0.9,0.6,0.9,1.4c0,0.7,1.6,4.7,3.5,8.9c1.9,4.2,3.5,8.3,3.5,9.1c0,0.9,0.4,1.6,0.8,1.6
		c0.5,0,1.7,1.9,2.7,4.3c0.9,2.3,3.2,7.4,5,11.2c3.2,6.8,5,11.5,4.3,11.5C281.6,347.9,280.9,347.3,280.3,346.5z"/>
	<path class="st0" d="M350,346.7c0-0.8,1.7-4.9,3.8-9.3c2.1-4.3,4.6-9.5,5.5-11.4c1.6-3.4,1.6-3.4,1-0.5c-0.3,1.7-2.3,6.7-4.5,11.3
		c-2.1,4.5-3.8,8.7-3.8,9.2s-0.4,1.2-1,1.5C350.5,347.8,350,347.5,350,346.7z"/>
	<path class="st0" d="M304.1,319.5c-0.1-1.1-0.8-2.9-1.7-4c-0.8-1.1-1.9-3.6-2.5-5.7c-0.5-2.1-1.4-3.8-1.9-3.8c-0.6,0-1-0.7-1-1.6
		c0-0.9-0.7-2.8-1.5-4.2c-0.8-1.5-2.5-5.2-3.9-8.2c-1.3-3-3.9-8.6-5.6-12.5c-3.1-6.8-4.3-10.5-3.5-10.5c0.2,0,1.1,1.7,2.1,3.8
		c0.9,2,2.9,6.4,4.4,9.7c1.6,3.3,4.3,9.5,6.1,13.8c1.8,4.2,3.6,7.7,4.1,7.7c0.4,0,0.8,0.6,0.8,1.4c0,0.7,1.1,3.9,2.5,7.1
		c1.4,3.2,2.4,6.5,2.2,7.4C304.3,321.1,304.2,321,304.1,319.5z"/>
	<path class="st0" d="M278.3,261.8c-1.7-3.5-4.5-9.7-6.4-13.8c-1.9-4.1-3.6-7.7-3.9-8c-0.5-0.5-1.7-3.4-4.4-10.7
		c-0.7-1.8-1.6-3.6-2-4c-0.4-0.5-6.7-1.1-13.9-1.4l-13.2-0.5l14.1-0.2l14-0.2l2.3,5.8c1.2,3.1,3.9,9.3,6.1,13.7
		c2.1,4.4,4.8,10.6,6,13.8c1.2,3.1,2.6,5.7,3,5.7c0.8,0,2.3,5,1.7,5.6C281.5,267.8,280,265.2,278.3,261.8z"/>
	<path class="st0" d="M161.6,203c-1.8-4.6-2.1-7.4-0.6-6.5c0.6,0.3,1,1.7,1,2.9c0,1.3,0.8,3.4,1.8,4.6c1.4,1.7,2.2,2,4.3,1.2
		c3.5-1.4,4.4-2.8,5.9-9.7c0.7-3.3,1.8-7.1,2.3-8.5c0.6-1.4,1.1-3,1.3-3.7c0.1-0.6,0.7-1.9,1.3-3c1-1.5,1.1-1.2,0.5,1.7
		c-0.4,1.9-1,3.7-1.3,4c-0.4,0.3-1.7,4.6-2.9,9.5c-2.4,9.7-3.7,11.5-8.8,11.5C163.6,207,163,206.5,161.6,203z"/>
	<path class="st0" d="M37.8,204.8c-0.3-0.7-0.3-2.1,0-3c0.4-1.6,2.2-1.8,20.4-1.8c13,0,19.7-0.3,19.3-1c-0.3-0.5,0.1-1,1-1
		c2.7,0,9.5-5,10.7-7.8c2.7-6.7-0.6-22.2-4.7-22.2c-0.8,0-1.5-0.4-1.5-1c0-0.5-0.7-1-1.5-1c-0.8,0-1.5-0.4-1.5-1c0-0.5-1.3-1-3-1
		c-1.6,0-3-0.4-3-1c0-0.5-1.1-1-2.4-1c-1.4,0-2.8-0.4-3.1-1c-0.4-0.6,0.8-1,2.9-1c2,0,3.6,0.5,3.6,1c0,0.6,0.6,1,1.3,1
		c1.8,0,6.7,2.4,6.7,3.3c0,0.4,0.5,0.7,1.1,0.7c2.9,0,7.9,10.7,7.9,17.1c0,4.7-3.6,12.9-5.7,12.9c-0.7,0-1.3,0.5-1.3,1
		c0,0.6-0.7,1-1.6,1c-0.8,0-1.3,0.4-1,0.9c1,1.5-5.3,2.1-23.9,2.1c-15.3,0-18.4,0.2-18.9,1.5S41.8,204,60,204
		c12.8,0,21.1-0.4,21.5-1c0.3-0.5,1.4-1,2.4-1s3.3-1.8,5.2-4.1c1.9-2.2,4-4.8,4.8-5.6c1.8-1.8,2.6-10.5,1.6-16.9
		c-0.5-3.8-1.5-5.5-5-8.8c-2.3-2.3-5.6-4.7-7.1-5.5c-1.6-0.7-3.7-1.7-4.6-2.2c-1-0.5-2.9-0.9-4.3-0.9c-1.5,0-2.4-0.4-2-1
		c0.3-0.5-0.1-1-1-1c-0.8,0-2.3-0.4-3.3-0.9c-0.9-0.5-3.7-1.5-6.2-2.2c-4.8-1.3-12.5-5.3-15-7.7c-4.2-4.3-5.6-15.8-2.6-21.6
		c3.5-6.8,8.6-8.1,33.6-8.5c12.2-0.2,12.4-0.3,8.5-1.7c-4.6-1.7-23.5-1.8-30.5-0.2c-5.6,1.3-10,3.1-10,4c0,0.5-0.6,0.8-1.4,0.8
		c-0.8,0-2.3,1.8-3.3,4c-1,2.2-2.1,4-2.5,4c-1.1,0-1-0.7,0.8-4.2c2-3.8,4.9-6.5,8.7-7.9c1.5-0.6,2.7-1.5,2.7-2s9-0.9,20.5-0.9H92
		v2.5c0,3.2-0.5,3.3-22.3,4c-15.9,0.5-18,0.7-19.9,2.5c-1.2,1.1-2.5,2-2.8,2c-2.7,0-4.1,14.2-1.8,18.2c1.7,2.9,6,6.7,7.6,6.8
		c0.6,0,1.2,0.4,1.2,0.9s1,1.2,2.3,1.6c6.5,2.1,15.5,4.7,18,5.2c1.6,0.3,3.1,1.2,3.4,1.9c0.3,0.8,1.6,1.4,2.9,1.4
		c1.3,0,2.4,0.5,2.4,1c0,0.6,0.8,1,1.8,1s2.4,0.9,3.2,2c0.8,1.1,2,2,2.7,2c0.7,0,1.3,0.4,1.3,0.9s0.6,1.6,1.3,2.3
		c2.6,2.7,3.7,7.1,3.7,14.4c0,8-1.7,13.4-5,15.7c-1,0.7-1.7,1.6-1.7,2.2c-0.1,0.5-2.3,2.1-4.9,3.5c-4.7,2.4-5.8,2.5-26,2.8
		C42.5,206.1,38.1,205.9,37.8,204.8z"/>
	<path class="st0" d="M118.8,204.8c-0.5-1.3,0.4-10.8,2.3-24.3c0.5-3.8,1.6-12.8,2.4-19.9c1.3-11.9,2.5-17.3,2.5-11.5
		c0,3-2.4,23-4.4,36.9c-2,13.7-2,18-0.1,18c1.6,0,2.2-2,2.9-9.5c1.2-13.6,5.3-41.8,5.5-38c0.1,2.5-4.5,42.4-5.5,47.3
		C123.9,206.2,119.6,207,118.8,204.8z"/>
	<path class="st0" d="M210.6,203.8c-1-4.5-2.5-16.4-3-22.8l-0.5-6.5l1,5c0.6,2.8,1.6,9.3,2.2,14.5c1,7.9,1.5,9.5,3.1,9.8
		c1.7,0.4,1.8-0.1,1.2-4.9c-0.4-3-1.1-8.8-1.6-12.9c-0.5-4.1-1.2-10-1.6-13c-0.4-3-0.4-5.3-0.1-5c0.4,0.3,1.3,6,2.2,12.5
		c0.8,6.6,1.9,14.5,2.3,17.6c1,6.8,0.7,7.9-2.4,7.9C211.8,206,210.9,205.3,210.6,203.8z"/>
	<path class="st0" d="M240.7,205.4c-0.4-0.4-0.7-16.2-0.7-35.2c0-34.2,0.3-38.3,3.6-45.8c1.6-3.6,8.2-10.4,10.2-10.4
		c0.7,0,1.5-0.7,1.8-1.5c0.4-0.8,1.4-1.5,2.4-1.5c1.1,0,2.2-0.4,2.5-1c0.3-0.5,4.6-1,9.5-1s9.2,0.5,9.5,1c0.4,0.6-2.6,1-8.3,1
		c-6.7,0-9.3,0.4-10.2,1.5c-0.7,0.8-1.8,1.5-2.4,1.5c-1.8,0-6.6,2.4-6.6,3.3c0,0.4-0.6,0.7-1.4,0.7s-1.8,0.9-2.1,2s-1,2-1.4,2
		c-0.5,0-1.4,1.5-2.1,3.3c-0.7,1.7-1.9,4.6-2.6,6.4c-1.1,2.4-1.4,10.4-1.4,37.7c0,33.9,0,34.6,2,34.6s2-0.7,2-35.3v-35.3l2.5-5.3
		c3.7-7.5,6-9.5,14.2-12.3c8.6-3,14-2.5,23.4,1.9c5.5,2.6,6.1,3.2,8.4,8.8c2.3,5.5,2.6,7,2.3,17.5l-0.3,11.5l-5,0.1
		c-2.7,0.1-12.5,0.2-21.7,0.3c-10.5,0.1-16.8,0.5-16.8,1.1c0,0.6,8,1,22,1h22v21.4c0,21.9,0.3,24.6,2.5,24.6c1.7,0,2.7-24.9,2-49
		c-0.5-19.1-1.1-24.8-2.5-26.5c-0.5-0.5-0.9-1.4-0.9-2c-0.2-2.2-1.3-4.5-2.1-4.5c-0.5,0-1.2-0.9-1.5-2c-0.3-1.1-1.3-2-2.1-2
		c-0.8,0-1.4-0.3-1.4-0.8c0-0.7-2.9-2.1-7.2-3.6c-1-0.3-1.8-1-1.8-1.6c0-1.5,3.6-1.2,5,0.5c0.7,0.8,1.8,1.5,2.4,1.5
		c1.5,0.1,5.6,3.9,8.2,7.6c4.7,6.7,5.4,12.7,5.4,47.5c0,17.8-0.3,33.4-0.6,34.7c-0.7,2.6-4.8,3.1-5.8,0.6c-0.3-0.9-0.6-11.2-0.6-23
		V160h-21.9c-18.5,0-22-0.2-22.5-1.5c-0.8-2.2,0.3-4.2,2.6-4.8c1.1-0.3,10.8-0.5,21.6-0.4l19.7,0.2l0.3-8c0.3-8-1.3-17.9-3.3-20.2
		c-2.7-3.2-3.4-3.9-5.1-5.3c-1.1-0.8-3.5-2.1-5.5-2.7c-4.2-1.5-17.5-1.7-18.4-0.3c-0.3,0.6-1.7,1-3.1,1c-1.3,0-2.4,0.5-2.4,1
		c0,0.6-0.5,1-1,1c-2.1,0-6.3,5.2-7.8,9.8c-1.3,3.8-1.7,11.5-2.2,40.2c-0.5,34.8-0.5,35.5-2.5,35.8
		C242.3,206,241.1,205.8,240.7,205.4z"/>
	<path class="st0" d="M329.8,197.3c-0.2-4.9-0.1-22.5,0.2-39.3c0.5-29.2,0.6-30.7,2.7-34.7c2.4-4.5,6.8-9.3,8.4-9.3
		c0.5,0,1.2-0.7,1.5-1.5c0.7-1.7,4.4-2.1,4.4-0.4c0,0.6-0.9,1.3-2,1.6c-1.1,0.3-2,0.9-2,1.4s-0.7,0.9-1.6,0.9
		c-1.7,0-4.4,2.3-4.4,3.9c0,0.5-0.6,1.4-1.4,1.8c-3.9,2.3-4.1,4.6-4.4,44.1c-0.3,32.8-0.1,38.2,1.1,38.2c1.2,0,1.6-3.3,2.1-18.2
		c0.4-10.1,0.5-26.8,0.4-37.2c-0.2-14.4,0-19,1-19.4c0.6-0.2,1.2-1.1,1.2-2c0-6.3,10.1-13.2,19.2-13.2c6.7,0,14.6,3.6,18.1,8.2
		c2.9,3.7,5.3,15.6,3.8,18.7c-0.4,0.9-1.6,3.3-2.7,5.5c-2.5,5.3-10.1,9.6-16.9,9.6c-3.6,0-4.6,0.3-3.5,1s0.7,1-1.7,1
		c-1.8,0-3.3,0.5-3.3,1c0,0.6,3.7,1,9,1c5.3,0,9,0.4,9,1c0,0.6-5.2,1-13.5,1c-13.4,0-13.5,0-14.1-2.4c-0.3-1.4-0.3-3,0.1-3.5
		c0.4-0.7,4.7-1.1,10.6-1.1s9.9-0.4,9.9-1c0-0.5,1-1,2.3-1c3.3,0,7.6-2.2,8.3-4.2c0.3-1,0.9-1.8,1.4-1.8c0.4,0,1.5-1.8,2.4-4
		c1.8-4.4,2.1-11.6,0.7-15.2c-1.2-3.3-7.5-9.8-9.4-9.8c-0.9,0-1.9-0.4-2.2-1c-0.3-0.5-4.2-1-8.6-1c-4.6,0-7.9,0.4-7.9,1
		s-0.7,1-1.6,1c-2.2,0-7.1,5.7-8.6,10c-0.8,2.4-1.3,14.5-1.5,38.5c-0.2,19.3-0.5,36-0.8,37.3c-0.4,1.5-1.3,2.2-2.9,2.2
		C330.2,206,330.1,205.7,329.8,197.3z M347.5,159c-0.3-0.5-1.6-1-2.8-1.1c-2-0.1-2-0.2,0.3-0.9l2.5-0.8l-2.7-0.1
		c-2.2-0.1-2.8,0.4-2.8,1.9c0,1.6,0.7,2,3.1,2C346.8,160,347.9,159.6,347.5,159z"/>
	<path class="st0" d="M379.7,205.4c-0.4-0.4-0.7-5.9-0.7-12.2c0-15.7-1.5-24-4.9-26.9c-1.4-1.3-3.2-2.3-3.8-2.3
		c-0.7,0-1.3-0.4-1.3-1c0-0.5,0.7-1,1.5-1c0.8,0,1.5,0.5,1.5,1c0,0.6,0.5,1,1.1,1c1.6,0,3.6,2.4,5.3,6.5c1.2,2.8,1.6,7.3,1.6,18.6
		c0,14.2,0.1,14.9,2,14.9s2-0.7,2.2-15.7c0.1-12.6,0.2-14.3,0.7-8.3c0.4,4.2,0.4,11.6,0.1,16.5c-0.4,8.1-0.7,9-2.5,9.3
		C381.3,206,380.1,205.8,379.7,205.4z"/>
	<path class="st0" d="M430.7,205.3c-0.4-0.3-0.7-19.9-0.7-43.4s-0.3-43.4-0.6-44.3c-0.5-1.3-2.6-1.6-12.5-1.6H405v-2.5
		c0-2.4,0.2-2.5,6.5-2.5c6.5,0,9.5,1.9,3.3,2.1c-1.8,0.1-4.4,0.5-5.8,0.9c-1.6,0.5,1.6,0.8,8.7,0.9c10,0.1,11.3,0.3,12.3,2
		c0.6,1.3,1,17.1,1,44.5c0,36.1,0.2,42.6,1.4,42.6c0.8,0,1.7-0.6,1.9-1.2c0.3-0.7,0.6-0.3,0.6,1c0.1,1.5-0.5,2.2-1.7,2.2
		C432.2,206,431,205.7,430.7,205.3z"/>
	<path class="st0" d="M165.2,197.7c-1.5-4.1-1.5-5-0.2-4.2c0.6,0.3,1,1.5,1,2.6c0,2.6,1.6,2.4,2.5-0.3c0.6-1.9,0.8-2,1.2-0.6
		c0.5,1.8-1.3,5.8-2.5,5.8C166.7,201,165.9,199.5,165.2,197.7z"/>
	<path class="st0" d="M158.8,194.5c-0.3-0.6-0.9-2.6-1.2-4.5l-0.7-3.5l1.6,3.4C159.9,193.1,160.2,196.7,158.8,194.5z"/>
	<path class="st0" d="M170,192.6c0-0.8,4.6-18.6,6.5-24.8c2.1-7.1,3.9-9.7,3-4.3c-0.4,2.2-1,4.2-1.4,4.5c-0.5,0.3-1.1,2.3-1.5,4.5
		c-0.4,2.2-1.6,6.5-2.7,9.5c-1,3-1.9,6.4-1.9,7.7c0,1.2-0.4,2.5-1,2.8C170.5,192.8,170,192.9,170,192.6z"/>
	<path class="st0" d="M435.3,189c0-2.5,0.2-3.5,0.4-2.2c0.2,1.2,0.2,3.2,0,4.5C435.5,192.5,435.3,191.5,435.3,189z"/>
	<path class="st0" d="M161.2,183.8c-0.7-2.6-1.2-5.6-1.2-6.7c0-1.2-0.4-2.1-1-2.1c-0.5,0-1-1-1-2.2c0.1-2.3,0.1-2.3,1.4,0.2
		c1.7,3.2,3.9,12.6,3.4,14.2C162.5,187.9,161.8,186.3,161.2,183.8z"/>
	<path class="st0" d="M153.2,174.5c-1.8-6.6-3.7-14-4.3-16.5c-0.5-2.5-1.3-5.4-1.8-6.5c-0.5-1.1-1.9-6.3-3.1-11.5
		c-1.3-5.2-2.6-9.9-3-10.5c-0.4-0.5-1.1-2.8-1.5-5c-0.8-4.6-2.4-7.9-3.3-7c-0.4,0.3-1.2,4.3-1.9,8.8l-1.2,8.2l0.5-9
		c0.5-9.3,1.2-11.2,3.8-10.2c1.5,0.6,2.7,3.9,5.1,13.7c0.7,3,2.3,9.1,3.5,13.5c4.4,16.2,5.2,19.1,6,22.5c0.5,1.9,1.8,6.7,3,10.5
		c1.1,3.9,1.9,7.9,1.8,9C156.6,185.6,155,181.1,153.2,174.5z"/>
	<path class="st0" d="M180.1,176c-0.1-2.5,2.4-12.3,3.8-14.5c1.1-1.9,1.2-1.8,0.6,0.5c-0.4,1.4-1.1,3.9-1.5,5.5
		c-0.5,1.7-1.3,4.6-1.8,6.5C180.6,175.9,180.2,176.8,180.1,176z"/>
	<path class="st0" d="M206.1,172.8c-0.6-3.3-4.1-33-4.5-39.3c-0.4-7-0.4-7.3,0.4-2.5c0.5,3,1.1,8,1.4,11c1.4,13.3,1.8,15.8,2.8,20.5
		c0.5,2.8,0.8,6.4,0.5,8C206.5,172.2,206.2,173.2,206.1,172.8z"/>
	<path class="st0" d="M383,170.3c0-2-8.4-10.3-10.4-10.3c-1.3,0-2.6-2.1-2.6-4.1c0-0.5,0.7-0.9,1.5-0.9c0.8,0,1.5-0.4,1.5-1
		c0-0.5,0.6-1,1.4-1c0.8,0,1.6-0.6,1.9-1.2c0.2-0.7,0.7-1,1.1-0.7c0.3,0.3-0.3,1.5-1.4,2.7c-2.2,2.3-2.7,6.2-0.8,6.2s8.8,8,8.8,10.1
		c0,1.1-0.2,1.9-0.5,1.9C383.2,172,383,171.2,383,170.3z"/>
	<path class="st0" d="M155.2,162.4c-2-7.9-3.1-12-4.6-17.1c-3.6-11.9-4.7-16-5.6-20.8c-1.2-5.6-3.1-10.5-4.2-10.5
		c-0.5,0-0.8-0.7-0.8-1.5c0-1-1-1.5-3.3-1.5c-2.9,0-3.5,0.5-5.1,4c-0.9,2.2-2.4,9.9-3.2,17.2c-0.8,7.2-1.7,13.4-1.9,13.7
		c-1,0.9-0.5-5,1.8-24.4c0.4-3.3,1.2-5.8,3-9.5c1-2,2-2.5,5.2-2.5c3.7,0,4.1,0.3,6.2,4.5c1.2,2.5,2.4,6.3,2.8,8.5
		c0.5,3.4,5.5,20.8,8.5,29.5c1.6,4.6,3.2,13.1,2.7,13.7C156.4,166,155.7,164.5,155.2,162.4z"/>
	<path class="st0" d="M209.7,160c-2.1-15-3.1-26.7-2.3-25.9c0.8,0.7,3.8,26.7,3.4,28.6C210.5,163.7,210.1,162.5,209.7,160z"/>
	<path class="st0" d="M61.5,159c-0.3-0.5-1.9-1-3.6-1c-1.6,0-2.9-0.4-2.9-0.9s-2.7-2.2-5.9-3.8c-5.1-2.4-6.3-3.5-8.5-7.8
		c-1.3-2.8-2.8-6.4-3.1-8l-0.7-3l1.5,2.6c0.7,1.4,1.7,3.7,2,5.1c0.8,3.2,6,8.8,8.1,8.8c0.9,0,1.6,0.5,1.6,1c0,0.6,1.1,1,2.5,1
		c1.4,0,2.5,0.5,2.5,1c0,0.6,0.9,1,1.9,1c1.1,0,2.6,0.7,3.5,1.5c0.8,0.8,2.6,1.5,4,1.5s2.6,0.5,2.6,1c0,0.6-1.1,1-2.4,1
		C63.2,160,61.8,159.6,61.5,159z"/>
	<path class="st0" d="M180.4,155.5c0.4-2.7,2.9-12.2,8.6-32.5c1.2-4.1,2.9-9,3.8-10.7c1.5-2.9,2.1-3.3,5.8-3.3
		c3.8,0,4.3,0.3,5.3,3.1c1.7,4.9,1.2,6.8-0.7,2.7c-1.5-3.4-2.1-3.8-5.2-3.8c-3.2,0-3.7,0.4-5.2,4.3c-1,2.3-2.2,6.5-2.7,9.3
		c-0.6,2.8-1.7,6.6-2.5,8.5c-0.8,1.9-2,6.1-2.7,9.4C183.3,149.6,179.8,159.9,180.4,155.5z"/>
	<path class="st0" d="M185.1,156.3c-0.1-1.3,0.8-4.9,1.8-8c1.1-3.2,2.2-7.1,2.6-8.7c0.3-1.5,0.8-2.6,1.1-2.3
		c0.8,0.7-1.1,9.3-3.5,15.7C185.9,156.3,185.1,157.6,185.1,156.3z"/>
	<path class="st0" d="M130.8,146.8c0.2-2.9,0.8-6.9,1.3-8.8c0.6-2.4,0.7-1.1,0.3,4.5c-0.3,4.4-0.9,8.4-1.3,8.8
		C130.7,151.7,130.5,149.7,130.8,146.8z"/>
	<path class="st0" d="M378.7,150.3c-0.2-0.4,0.6-3,1.9-5.8c1.7-3.5,2.4-4.3,2.4-2.7C383,144.3,379.4,151.5,378.7,150.3z"/>
	<path class="st0" d="M435.3,143c0-4.7,0.2-6.6,0.4-4.2c0.2,2.3,0.2,6.1,0,8.5C435.5,149.6,435.3,147.7,435.3,143z"/>
	<path class="st0" d="M382.8,136.1c-0.2-1.6-0.1-3.7,0.3-4.7c0.5-1.3,0.8-0.3,0.8,2.9C384,139.6,383.4,140.5,382.8,136.1z"/>
	<path class="st0" d="M192.1,131.2c0.6-2,1.3-6.1,1.8-9c1.4-9.6,7.4-9.7,7-0.2c-0.1,1.9-0.3,1.7-0.8-0.9c-0.3-1.9-1.1-3.6-1.7-3.8
		c-1.1-0.4-3.7,6.8-5,13.5c-0.4,1.8-1,3.5-1.4,3.7C191.6,134.8,191.6,133.3,192.1,131.2z"/>
	<path class="st0" d="M205.8,129c-1.2-3.9-1-8.6,0.3-7.3c0.5,0.5,0.9,3,0.7,5.4C206.5,130.8,206.4,131.1,205.8,129z"/>
	<path class="st0" d="M381.7,126.8c-0.4-1.5-1.4-3.4-2.3-4.2c-0.8-0.9-1.4-2.4-1.2-3.3c0.2-1.1,1.1,0,2.7,2.9c1.3,2.6,2.1,5.2,1.9,6
		C382.5,128.9,382,128.3,381.7,126.8z"/>
	<path class="st0" d="M434.9,120.5c-0.4-2.4-0.2-4.3,0.5-4.7c0.6-0.4,6.2-0.8,12.4-0.8c10.5,0,11.2-0.1,11.2-2c0-1.1,0.5-2,1.1-2
		s0.9,1,0.7,2.3c-0.3,2.1-0.7,2.2-12.5,2.5l-12.2,0.3l-0.3,4.2l-0.3,4.2L434.9,120.5z"/>
	<path class="st0" d="M373,116c-0.8-1.1-2.4-2-3.6-2c-1.2,0-2.4-0.7-2.8-1.5c-0.4-1.2-2.5-1.5-9.6-1.5c-5.8,0-8.9-0.4-8.5-1
		c0.3-0.5,4.4-1,9-1s8.7,0.5,9,1c0.3,0.6,1.2,1,2,1c0.8,0,3.1,1.6,5.2,3.5c2.3,2.1,3.2,3.5,2.3,3.5S373.8,117.1,373,116z"/>
	<path class="st0" d="M429.5,113.2c-1.3-1.4-0.2-2.2,3.1-2.2c1.9,0,3.3,0.4,3,0.9C434.9,112.9,430.3,113.9,429.5,113.2z"/>
	<path class="st0" d="M438.3,111.8c-0.2-0.5,2.8-0.8,6.6-0.8c4.1,0,7.1,0.4,7.1,1C452,113.1,439.1,112.9,438.3,111.8z"/>
</g>
</svg>
