<?xml version="1.0" encoding="utf-8"?>
<!-- Generator: Adobe Illustrator 23.0.1, SVG Export Plug-In . SVG Version: 6.00 Build 0)  -->
<svg version="1.1" xmlns="http://www.w3.org/2000/svg" xmlns:xlink="http://www.w3.org/1999/xlink" x="0px" y="0px"
	 viewBox="0 0 500 500" style="enable-background:new 0 0 500 500;" xml:space="preserve">
<style type="text/css">
	.st0{stroke:#FFFFFF;stroke-miterlimit:10;}
	.st1{fill:#FFFFFF;}
	.st2{fill:none;stroke:#FFFFFF;stroke-miterlimit:10;}
</style>
<g id="Layer_2">
	<rect class="st0" width="500" height="500"/>
</g>
<g id="Layer_1">
	<g>
		<path class="st1" d="M220.5,70.5c0-16.6,13.4-30,30-30s30,13.4,30,30s-13.4,30-30,30S220.5,87.1,220.5,70.5L220.5,70.5z
			 M250.5,98.1c15.2,0,27.6-12.4,27.6-27.6c0-15.2-12.4-27.6-27.6-27.6c-15.2,0-27.6,12.4-27.6,27.6S235.3,98.1,250.5,98.1
			L250.5,98.1z"/>
		<path class="st1" d="M251.7,50.5l4.5,13.5l14.2,0.2c1.2,0,1.7,1.6,0.7,2.3L259.7,75l4.2,13.6c0.4,1.2-1,2.1-2,1.4l-11.6-8.2
			L238.7,90c-1,0.7-2.3-0.3-2-1.4l4.2-13.6l-11.4-8.5c-1-0.7-0.5-2.3,0.7-2.3l14.2-0.2l4.5-13.5C249.7,49.4,251.3,49.4,251.7,50.5
			L251.7,50.5z"/>
	</g>
	<g>
		<path class="st1" d="M289.5,70.5c0-16.6,13.4-30,30-30s30,13.4,30,30s-13.4,30-30,30S289.5,87.1,289.5,70.5L289.5,70.5z
			 M319.5,98.1c15.2,0,27.6-12.4,27.6-27.6c0-15.2-12.4-27.6-27.6-27.6s-27.6,12.4-27.6,27.6S304.3,98.1,319.5,98.1L319.5,98.1z"/>
		<path class="st1" d="M320.7,50.5l4.5,13.5l14.2,0.2c1.2,0,1.7,1.6,0.7,2.3L328.7,75l4.2,13.6c0.4,1.2-1,2.1-2,1.4l-11.6-8.2
			L307.7,90c-1,0.7-2.3-0.3-2-1.4l4.2-13.6l-11.4-8.5c-1-0.7-0.5-2.3,0.7-2.3l14.2-0.2l4.5-13.5C318.7,49.4,320.3,49.4,320.7,50.5
			L320.7,50.5z"/>
	</g>
	<g>
		<path class="st1" d="M358.5,70.5c0-16.6,13.4-30,30-30s30,13.4,30,30s-13.4,30-30,30S358.5,87.1,358.5,70.5L358.5,70.5z
			 M388.5,98.1c15.2,0,27.6-12.4,27.6-27.6c0-15.2-12.4-27.6-27.6-27.6s-27.6,12.4-27.6,27.6S373.3,98.1,388.5,98.1L388.5,98.1z"/>
		<path class="st1" d="M389.7,50.5l4.5,13.5l14.2,0.2c1.2,0,1.7,1.6,0.7,2.3L397.7,75l4.2,13.6c0.4,1.2-1,2.1-2,1.4l-11.6-8.2
			L376.7,90c-1,0.7-2.3-0.3-2-1.4l4.2-13.6l-11.4-8.5c-1-0.7-0.5-2.3,0.7-2.3l14.2-0.2l4.5-13.5C387.7,49.4,389.3,49.4,389.7,50.5
			L389.7,50.5z"/>
	</g>
	<g>
		<path class="st1" d="M150.5,70.5c0-16.6,13.4-30,30-30s30,13.4,30,30s-13.4,30-30,30S150.5,87.1,150.5,70.5L150.5,70.5z
			 M180.5,98.1c15.2,0,27.6-12.4,27.6-27.6c0-15.2-12.4-27.6-27.6-27.6c-15.2,0-27.6,12.4-27.6,27.6S165.3,98.1,180.5,98.1
			L180.5,98.1z"/>
		<path class="st1" d="M181.7,50.5l4.5,13.5l14.2,0.2c1.2,0,1.7,1.6,0.7,2.3L189.7,75l4.2,13.6c0.4,1.2-1,2.1-2,1.4l-11.6-8.2
			L168.7,90c-1,0.7-2.3-0.3-2-1.4l4.2-13.6l-11.4-8.5c-1-0.7-0.5-2.3,0.7-2.3l14.2-0.2l4.5-13.5C179.7,49.4,181.3,49.4,181.7,50.5
			L181.7,50.5z"/>
	</g>
	<g>
		<path class="st1" d="M80.5,70.5c0-16.6,13.4-30,30-30s30,13.4,30,30s-13.4,30-30,30S80.5,87.1,80.5,70.5L80.5,70.5z M110.5,98.1
			c15.2,0,27.6-12.4,27.6-27.6c0-15.2-12.4-27.6-27.6-27.6c-15.2,0-27.6,12.4-27.6,27.6S95.3,98.1,110.5,98.1L110.5,98.1z"/>
		<path class="st1" d="M111.7,50.5l4.5,13.5l14.2,0.2c1.2,0,1.7,1.6,0.7,2.3L119.7,75l4.2,13.6c0.4,1.2-1,2.1-2,1.4l-11.6-8.2
			L98.7,90c-1,0.7-2.3-0.3-2-1.4l4.2-13.6l-11.4-8.5c-1-0.7-0.5-2.3,0.7-2.3l14.2-0.2l4.5-13.5C109.7,49.4,111.3,49.4,111.7,50.5
			L111.7,50.5z"/>
	</g>
	<g>
		<path class="st1" d="M221,147.5c0-16.6,13.4-30,30-30s30,13.4,30,30s-13.4,30-30,30S221,164.1,221,147.5L221,147.5z M251,175.1
			c15.2,0,27.6-12.4,27.6-27.6c0-15.2-12.4-27.6-27.6-27.6c-15.2,0-27.6,12.4-27.6,27.6S235.8,175.1,251,175.1L251,175.1z"/>
		<path class="st1" d="M252.2,127.5l4.5,13.5l14.2,0.2c1.2,0,1.7,1.6,0.7,2.3l-11.4,8.5l4.2,13.6c0.4,1.2-1,2.1-2,1.4l-11.6-8.2
			l-11.6,8.2c-1,0.7-2.3-0.3-2-1.4l4.2-13.6l-11.4-8.5c-1-0.7-0.5-2.3,0.7-2.3l14.2-0.2l4.5-13.5
			C250.2,126.4,251.8,126.4,252.2,127.5L252.2,127.5z"/>
	</g>
	<g>
		<path class="st1" d="M290,147.5c0-16.6,13.4-30,30-30s30,13.4,30,30s-13.4,30-30,30S290,164.1,290,147.5L290,147.5z M320,175.1
			c15.2,0,27.6-12.4,27.6-27.6c0-15.2-12.4-27.6-27.6-27.6s-27.6,12.4-27.6,27.6S304.8,175.1,320,175.1L320,175.1z"/>
		<path class="st1" d="M321.2,127.5l4.5,13.5l14.2,0.2c1.2,0,1.7,1.6,0.7,2.3l-11.4,8.5l4.2,13.6c0.4,1.2-1,2.1-2,1.4l-11.6-8.2
			l-11.6,8.2c-1,0.7-2.3-0.3-2-1.4l4.2-13.6l-11.4-8.5c-1-0.7-0.5-2.3,0.7-2.3l14.2-0.2l4.5-13.5
			C319.2,126.4,320.8,126.4,321.2,127.5L321.2,127.5z"/>
	</g>
	<g>
		<path class="st2" d="M359,147.5c0-16.6,13.4-30,30-30s30,13.4,30,30s-13.4,30-30,30S359,164.1,359,147.5L359,147.5z M389,175.1
			c15.2,0,27.6-12.4,27.6-27.6c0-15.2-12.4-27.6-27.6-27.6s-27.6,12.4-27.6,27.6S373.8,175.1,389,175.1L389,175.1z"/>
		<path class="st2" d="M390.2,127.5l4.5,13.5l14.2,0.2c1.2,0,1.7,1.6,0.7,2.3l-11.4,8.5l4.2,13.6c0.4,1.2-1,2.1-2,1.4l-11.6-8.2
			l-11.6,8.2c-1,0.7-2.3-0.3-2-1.4l4.2-13.6l-11.4-8.5c-1-0.7-0.5-2.3,0.7-2.3l14.2-0.2l4.5-13.5
			C388.2,126.4,389.8,126.4,390.2,127.5L390.2,127.5z"/>
	</g>
	<g>
		<path class="st1" d="M151,147.5c0-16.6,13.4-30,30-30s30,13.4,30,30s-13.4,30-30,30S151,164.1,151,147.5L151,147.5z M181,175.1
			c15.2,0,27.6-12.4,27.6-27.6c0-15.2-12.4-27.6-27.6-27.6c-15.2,0-27.6,12.4-27.6,27.6S165.8,175.1,181,175.1L181,175.1z"/>
		<path class="st1" d="M182.2,127.5l4.5,13.5l14.2,0.2c1.2,0,1.7,1.6,0.7,2.3l-11.4,8.5l4.2,13.6c0.4,1.2-1,2.1-2,1.4l-11.6-8.2
			l-11.6,8.2c-1,0.7-2.3-0.3-2-1.4l4.2-13.6l-11.4-8.5c-1-0.7-0.5-2.3,0.7-2.3l14.2-0.2l4.5-13.5
			C180.2,126.4,181.8,126.4,182.2,127.5L182.2,127.5z"/>
	</g>
	<g>
		<path class="st1" d="M81,147.5c0-16.6,13.4-30,30-30s30,13.4,30,30s-13.4,30-30,30S81,164.1,81,147.5L81,147.5z M111,175.1
			c15.2,0,27.6-12.4,27.6-27.6c0-15.2-12.4-27.6-27.6-27.6c-15.2,0-27.6,12.4-27.6,27.6S95.8,175.1,111,175.1L111,175.1z"/>
		<path class="st1" d="M112.2,127.5l4.5,13.5l14.2,0.2c1.2,0,1.7,1.6,0.7,2.3l-11.4,8.5l4.2,13.6c0.4,1.2-1,2.1-2,1.4l-11.6-8.2
			L99.2,167c-1,0.7-2.3-0.3-2-1.4l4.2-13.6L90,143.5c-1-0.7-0.5-2.3,0.7-2.3l14.2-0.2l4.5-13.5C110.2,126.4,111.8,126.4,112.2,127.5
			L112.2,127.5z"/>
	</g>
	<g>
		<path class="st1" d="M222.3,218.9c0-16.6,13.4-30,30-30s30,13.4,30,30s-13.4,30-30,30S222.3,235.5,222.3,218.9L222.3,218.9z
			 M252.3,246.5c15.2,0,27.6-12.4,27.6-27.6c0-15.2-12.4-27.6-27.6-27.6c-15.2,0-27.6,12.4-27.6,27.6S237.1,246.5,252.3,246.5
			L252.3,246.5z"/>
		<path class="st1" d="M253.5,198.9l4.5,13.5l14.2,0.2c1.2,0,1.7,1.6,0.7,2.3l-11.4,8.5l4.2,13.6c0.4,1.2-1,2.1-2,1.4l-11.6-8.2
			l-11.6,8.2c-1,0.7-2.3-0.3-2-1.4l4.2-13.6l-11.4-8.5c-1-0.7-0.5-2.3,0.7-2.3l14.2-0.2l4.5-13.5
			C251.5,197.8,253.1,197.8,253.5,198.9L253.5,198.9z"/>
	</g>
	<g>
		<path class="st2" d="M291.3,218.9c0-16.6,13.4-30,30-30s30,13.4,30,30s-13.4,30-30,30S291.3,235.5,291.3,218.9L291.3,218.9z
			 M321.3,246.5c15.2,0,27.6-12.4,27.6-27.6c0-15.2-12.4-27.6-27.6-27.6s-27.6,12.4-27.6,27.6S306.1,246.5,321.3,246.5L321.3,246.5z
			"/>
		<path class="st2" d="M322.5,198.9l4.5,13.5l14.2,0.2c1.2,0,1.7,1.6,0.7,2.3l-11.4,8.5l4.2,13.6c0.4,1.2-1,2.1-2,1.4l-11.6-8.2
			l-11.6,8.2c-1,0.7-2.3-0.3-2-1.4l4.2-13.6l-11.4-8.5c-1-0.7-0.5-2.3,0.7-2.3l14.2-0.2l4.5-13.5
			C320.5,197.8,322.1,197.8,322.5,198.9L322.5,198.9z"/>
	</g>
	<g>
		<path class="st2" d="M360.3,218.9c0-16.6,13.4-30,30-30s30,13.4,30,30s-13.4,30-30,30S360.3,235.5,360.3,218.9L360.3,218.9z
			 M390.3,246.5c15.2,0,27.6-12.4,27.6-27.6c0-15.2-12.4-27.6-27.6-27.6s-27.6,12.4-27.6,27.6S375.1,246.5,390.3,246.5L390.3,246.5z
			"/>
		<path class="st2" d="M391.5,198.9l4.5,13.5l14.2,0.2c1.2,0,1.7,1.6,0.7,2.3l-11.4,8.5l4.2,13.6c0.4,1.2-1,2.1-2,1.4l-11.6-8.2
			l-11.6,8.2c-1,0.7-2.3-0.3-2-1.4l4.2-13.6l-11.4-8.5c-1-0.7-0.5-2.3,0.7-2.3l14.2-0.2l4.5-13.5
			C389.5,197.8,391.1,197.8,391.5,198.9L391.5,198.9z"/>
	</g>
	<g>
		<path class="st1" d="M152.3,218.9c0-16.6,13.4-30,30-30s30,13.4,30,30s-13.4,30-30,30S152.3,235.5,152.3,218.9L152.3,218.9z
			 M182.3,246.5c15.2,0,27.6-12.4,27.6-27.6c0-15.2-12.4-27.6-27.6-27.6c-15.2,0-27.6,12.4-27.6,27.6S167.1,246.5,182.3,246.5
			L182.3,246.5z"/>
		<path class="st1" d="M183.5,198.9l4.5,13.5l14.2,0.2c1.2,0,1.7,1.6,0.7,2.3l-11.4,8.5l4.2,13.6c0.4,1.2-1,2.1-2,1.4l-11.6-8.2
			l-11.6,8.2c-1,0.7-2.3-0.3-2-1.4l4.2-13.6l-11.4-8.5c-1-0.7-0.5-2.3,0.7-2.3l14.2-0.2l4.5-13.5
			C181.5,197.8,183.1,197.8,183.5,198.9L183.5,198.9z"/>
	</g>
	<g>
		<path class="st1" d="M82.3,218.9c0-16.6,13.4-30,30-30s30,13.4,30,30s-13.4,30-30,30S82.3,235.5,82.3,218.9L82.3,218.9z
			 M112.3,246.5c15.2,0,27.6-12.4,27.6-27.6c0-15.2-12.4-27.6-27.6-27.6c-15.2,0-27.6,12.4-27.6,27.6S97.1,246.5,112.3,246.5
			L112.3,246.5z"/>
		<path class="st1" d="M113.5,198.9l4.5,13.5l14.2,0.2c1.2,0,1.7,1.6,0.7,2.3l-11.4,8.5l4.2,13.6c0.4,1.2-1,2.1-2,1.4l-11.6-8.2
			l-11.6,8.2c-1,0.7-2.3-0.3-2-1.4l4.2-13.6l-11.4-8.5c-1-0.7-0.5-2.3,0.7-2.3l14.2-0.2l4.5-13.5
			C111.5,197.8,113.1,197.8,113.5,198.9L113.5,198.9z"/>
	</g>
	<g>
		<path class="st2" d="M222.5,306.5c0-16.6,13.4-30,30-30s30,13.4,30,30s-13.4,30-30,30S222.5,323.1,222.5,306.5L222.5,306.5z
			 M252.5,334.1c15.2,0,27.6-12.4,27.6-27.6s-12.4-27.6-27.6-27.6c-15.2,0-27.6,12.4-27.6,27.6S237.3,334.1,252.5,334.1L252.5,334.1
			z"/>
		<path class="st2" d="M253.7,286.5l4.5,13.5l14.2,0.2c1.2,0,1.7,1.6,0.7,2.3l-11.4,8.5l4.2,13.6c0.4,1.2-1,2.1-2,1.4l-11.6-8.2
			l-11.6,8.2c-1,0.7-2.3-0.3-2-1.4l4.2-13.6l-11.4-8.5c-1-0.7-0.5-2.3,0.7-2.3l14.2-0.2l4.5-13.5
			C251.7,285.4,253.3,285.4,253.7,286.5L253.7,286.5z"/>
	</g>
	<g>
		<path class="st2" d="M291.5,306.5c0-16.6,13.4-30,30-30s30,13.4,30,30s-13.4,30-30,30S291.5,323.1,291.5,306.5L291.5,306.5z
			 M321.5,334.1c15.2,0,27.6-12.4,27.6-27.6s-12.4-27.6-27.6-27.6s-27.6,12.4-27.6,27.6S306.3,334.1,321.5,334.1L321.5,334.1z"/>
		<path class="st2" d="M322.7,286.5l4.5,13.5l14.2,0.2c1.2,0,1.7,1.6,0.7,2.3l-11.4,8.5l4.2,13.6c0.4,1.2-1,2.1-2,1.4l-11.6-8.2
			l-11.6,8.2c-1,0.7-2.3-0.3-2-1.4l4.2-13.6l-11.4-8.5c-1-0.7-0.5-2.3,0.7-2.3l14.2-0.2l4.5-13.5
			C320.7,285.4,322.3,285.4,322.7,286.5L322.7,286.5z"/>
	</g>
	<g>
		<path class="st2" d="M360.5,306.5c0-16.6,13.4-30,30-30s30,13.4,30,30s-13.4,30-30,30S360.5,323.1,360.5,306.5L360.5,306.5z
			 M390.5,334.1c15.2,0,27.6-12.4,27.6-27.6s-12.4-27.6-27.6-27.6s-27.6,12.4-27.6,27.6S375.3,334.1,390.5,334.1L390.5,334.1z"/>
		<path class="st2" d="M391.7,286.5l4.5,13.5l14.2,0.2c1.2,0,1.7,1.6,0.7,2.3l-11.4,8.5l4.2,13.6c0.4,1.2-1,2.1-2,1.4l-11.6-8.2
			l-11.6,8.2c-1,0.7-2.3-0.3-2-1.4l4.2-13.6l-11.4-8.5c-1-0.7-0.5-2.3,0.7-2.3l14.2-0.2l4.5-13.5
			C389.7,285.4,391.3,285.4,391.7,286.5L391.7,286.5z"/>
	</g>
	<g>
		<path class="st1" d="M152.5,306.5c0-16.6,13.4-30,30-30s30,13.4,30,30s-13.4,30-30,30S152.5,323.1,152.5,306.5L152.5,306.5z
			 M182.5,334.1c15.2,0,27.6-12.4,27.6-27.6s-12.4-27.6-27.6-27.6c-15.2,0-27.6,12.4-27.6,27.6S167.3,334.1,182.5,334.1L182.5,334.1
			z"/>
		<path class="st1" d="M183.7,286.5l4.5,13.5l14.2,0.2c1.2,0,1.7,1.6,0.7,2.3l-11.4,8.5l4.2,13.6c0.4,1.2-1,2.1-2,1.4l-11.6-8.2
			l-11.6,8.2c-1,0.7-2.3-0.3-2-1.4l4.2-13.6l-11.4-8.5c-1-0.7-0.5-2.3,0.7-2.3l14.2-0.2l4.5-13.5
			C181.7,285.4,183.3,285.4,183.7,286.5L183.7,286.5z"/>
	</g>
	<g>
		<path class="st1" d="M82.5,306.5c0-16.6,13.4-30,30-30s30,13.4,30,30s-13.4,30-30,30S82.5,323.1,82.5,306.5L82.5,306.5z
			 M112.5,334.1c15.2,0,27.6-12.4,27.6-27.6s-12.4-27.6-27.6-27.6c-15.2,0-27.6,12.4-27.6,27.6S97.3,334.1,112.5,334.1L112.5,334.1z
			"/>
		<path class="st1" d="M113.7,286.5l4.5,13.5l14.2,0.2c1.2,0,1.7,1.6,0.7,2.3l-11.4,8.5l4.2,13.6c0.4,1.2-1,2.1-2,1.4l-11.6-8.2
			l-11.6,8.2c-1,0.7-2.3-0.3-2-1.4l4.2-13.6l-11.4-8.5c-1-0.7-0.5-2.3,0.7-2.3l14.2-0.2l4.5-13.5
			C111.7,285.4,113.3,285.4,113.7,286.5L113.7,286.5z"/>
	</g>
	<g>
		<path class="st2" d="M221,376.9c0-16.6,13.4-30,30-30s30,13.4,30,30s-13.4,30-30,30S221,393.5,221,376.9L221,376.9z M251,404.5
			c15.2,0,27.6-12.4,27.6-27.6c0-15.2-12.4-27.6-27.6-27.6c-15.2,0-27.6,12.4-27.6,27.6S235.8,404.5,251,404.5L251,404.5z"/>
		<path class="st2" d="M252.2,356.9l4.5,13.5l14.2,0.2c1.2,0,1.7,1.6,0.7,2.3l-11.4,8.5l4.2,13.6c0.4,1.2-1,2.1-2,1.4l-11.6-8.2
			l-11.6,8.2c-1,0.7-2.3-0.3-2-1.4l4.2-13.6l-11.4-8.5c-1-0.7-0.5-2.3,0.7-2.3l14.2-0.2l4.5-13.5
			C250.2,355.8,251.8,355.8,252.2,356.9L252.2,356.9z"/>
	</g>
	<g>
		<path class="st2" d="M290,376.9c0-16.6,13.4-30,30-30s30,13.4,30,30s-13.4,30-30,30S290,393.5,290,376.9L290,376.9z M320,404.5
			c15.2,0,27.6-12.4,27.6-27.6c0-15.2-12.4-27.6-27.6-27.6s-27.6,12.4-27.6,27.6S304.8,404.5,320,404.5L320,404.5z"/>
		<path class="st2" d="M321.2,356.9l4.5,13.5l14.2,0.2c1.2,0,1.7,1.6,0.7,2.3l-11.4,8.5l4.2,13.6c0.4,1.2-1,2.1-2,1.4l-11.6-8.2
			l-11.6,8.2c-1,0.7-2.3-0.3-2-1.4l4.2-13.6l-11.4-8.5c-1-0.7-0.5-2.3,0.7-2.3l14.2-0.2l4.5-13.5
			C319.2,355.8,320.8,355.8,321.2,356.9L321.2,356.9z"/>
	</g>
	<g>
		<path class="st2" d="M359,376.9c0-16.6,13.4-30,30-30s30,13.4,30,30s-13.4,30-30,30S359,393.5,359,376.9L359,376.9z M389,404.5
			c15.2,0,27.6-12.4,27.6-27.6c0-15.2-12.4-27.6-27.6-27.6s-27.6,12.4-27.6,27.6S373.8,404.5,389,404.5L389,404.5z"/>
		<path class="st2" d="M390.2,356.9l4.5,13.5l14.2,0.2c1.2,0,1.7,1.6,0.7,2.3l-11.4,8.5l4.2,13.6c0.4,1.2-1,2.1-2,1.4l-11.6-8.2
			l-11.6,8.2c-1,0.7-2.3-0.3-2-1.4l4.2-13.6l-11.4-8.5c-1-0.7-0.5-2.3,0.7-2.3l14.2-0.2l4.5-13.5
			C388.2,355.8,389.8,355.8,390.2,356.9L390.2,356.9z"/>
	</g>
	<g>
		<path class="st2" d="M151,376.9c0-16.6,13.4-30,30-30s30,13.4,30,30s-13.4,30-30,30S151,393.5,151,376.9L151,376.9z M181,404.5
			c15.2,0,27.6-12.4,27.6-27.6c0-15.2-12.4-27.6-27.6-27.6c-15.2,0-27.6,12.4-27.6,27.6S165.8,404.5,181,404.5L181,404.5z"/>
		<path class="st2" d="M182.2,356.9l4.5,13.5l14.2,0.2c1.2,0,1.7,1.6,0.7,2.3l-11.4,8.5l4.2,13.6c0.4,1.2-1,2.1-2,1.4l-11.6-8.2
			l-11.6,8.2c-1,0.7-2.3-0.3-2-1.4l4.2-13.6l-11.4-8.5c-1-0.7-0.5-2.3,0.7-2.3l14.2-0.2l4.5-13.5
			C180.2,355.8,181.8,355.8,182.2,356.9L182.2,356.9z"/>
	</g>
	<g>
		<path class="st1" d="M81,376.9c0-16.6,13.4-30,30-30s30,13.4,30,30s-13.4,30-30,30S81,393.5,81,376.9L81,376.9z M111,404.5
			c15.2,0,27.6-12.4,27.6-27.6c0-15.2-12.4-27.6-27.6-27.6c-15.2,0-27.6,12.4-27.6,27.6S95.8,404.5,111,404.5L111,404.5z"/>
		<path class="st1" d="M112.2,356.9l4.5,13.5l14.2,0.2c1.2,0,1.7,1.6,0.7,2.3l-11.4,8.5l4.2,13.6c0.4,1.2-1,2.1-2,1.4l-11.6-8.2
			l-11.6,8.2c-1,0.7-2.3-0.3-2-1.4l4.2-13.6L90,372.9c-1-0.7-0.5-2.3,0.7-2.3l14.2-0.2l4.5-13.5
			C110.2,355.8,111.8,355.8,112.2,356.9L112.2,356.9z"/>
	</g>
</g>
</svg>
