<svg id="Layer_1" data-name="Layer 1" xmlns="http://www.w3.org/2000/svg" viewBox="0 0 501.8 240.1"><defs><style>.cls-1{fill:#fff;}</style></defs><title>usb</title><path class="cls-1" d="M189.6,130c-53.5,0-88.7,20.7-109.7,41.7s-28.6,42.5-28.6,42.5l-.1.2,1.3-4.5h-41l-13.3,80H40.1v-4.7a79.1,79.1,0,0,0,13.1,41c15,22.5,46.9,43.7,107.8,43.7H378l4.5-20h37.7c47.8,0,79.8-37.9,79.8-78.6,0-10-3.2-18.6-7.7-26.1a60.55,60.55,0,0,0,7.7-29.3c0-33.5-28.2-66.1-69.6-66.1H428l4.5-20H189.6Zm0,20H407.5l-4.6,20h27.4c31.1,0,49.6,23.8,49.6,46.1,0,10.3-2.9,17.9-7,23.9l-4.2,6.1,4.6,5.8a29.78,29.78,0,0,1,6.6,19.5c0,30.5-22.4,58.6-59.8,58.6H366.3l-4.5,20H160.9c-56.4,0-80-18-91.1-34.8S60,282.3,60,282.3v-.5L59.9,270H21.8l6.7-40h39l2.7-9.4c.1-.2,5.9-17.1,23.7-34.8,18-17.8,47.2-35.8,95.7-35.8Zm101.3,40c-30.6,0-49.4,17.2-49.4,37.8,0,37.9,55.4,29.4,55.4,45.7,0,8.6-10.5,11.3-16.7,11.3-15.3,0-16.2-9.1-16.2-14.8H230c-1,28.8,21.6,40,48.1,40,38.8,0,52.8-22.1,52.9-39.8,0-40.7-55.8-30.6-55.8-45.3,0-6,5.7-9.4,13.6-9.4s16.9,2.6,14.5,14.5h33.4c-.1,0,7.1-40-45.8-40Zm-173.1,0s-17,76.5-17.6,80.2S99.5,310,151.9,310c61.5,0,62.6-50.2,62.5-50.2L230,190H192.1l-14.5,65.4s-2.5,25.4-23,25.4c-21.9,0-12.3-27.3-12.3-27.3l13.4-63.6Zm243.8.2L335.8,310h74.4c4.1,0,49.8.6,49.8-38.6,0-20.6-24.4-23.7-24.4-23.7S460,242,460,216.1c0-23-28.6-25.9-39.6-25.9Zm28.9,29.9h21.2s8.6,1.3,8.6,9.8-8.6,10.2-10.5,10.2H386.7Zm-8.5,40h21.6s13.9-1,13.9,9.9-13,10.1-15.3,10.1H377.4Z" transform="translate(1.8 -129.8)"/></svg>