<?xml version="1.0" encoding="utf-8"?>
<!-- Generator: Adobe Illustrator 23.0.1, SVG Export Plug-In . SVG Version: 6.00 Build 0)  -->
<svg version="1.1" id="Layer_1" xmlns="http://www.w3.org/2000/svg" xmlns:xlink="http://www.w3.org/1999/xlink" x="0px" y="0px"
	 viewBox="0 0 500 500" style="enable-background:new 0 0 500 500;" xml:space="preserve">
<style type="text/css">
	.st0{fill:#FFFFFF;}
</style>
<g>
	<g>
		<path class="st0" d="M250,80c-45.5,0-88.2,17.8-120.3,50H90c-49.6,0-90,40.4-90,90v60c0,49.6,40.4,90,90,90h39.7
			c32.1,32.2,74.6,50,120.3,50c45.6,0,88.2-17.8,120.3-50H410c49.6,0,90-40.4,90-90v-60c0-49.6-40.4-90-90-90h-40.3
			c-0.4-0.7-0.9-1.6-1.6-2.2C336.2,97,294.4,80,250,80L250,80z M300,150h110c38.6,0,70,31.4,70,70v60c0,38.6-31.4,70-70,70H192.5
			c11.5-0.8,57.5-7.5,57.5-60v-90C250,151.8,294.9,150,300,150L300,150z M205.3,190.6c8.8,0,15.9,6.6,15.9,14.7
			c0,8.1-7.1,14.7-15.9,14.7c-8.8,0-15.9-6.6-15.9-14.7C189.4,197.2,196.5,190.6,205.3,190.6L205.3,190.6z M418.8,190.6
			c-8.8,0-15.9,6.6-15.9,14.7c0,8.1,7.1,14.7,15.9,14.7s15.9-6.6,15.9-14.7C434.7,197.2,427.5,190.6,418.8,190.6L418.8,190.6z
			 M148.7,197.2h29.7l-25,114.1h-27.2l-11.9-70l-11.6,70H75.9L50.6,197.5h30.3l8.7,66.6l11.6-66.6h26.9l11.6,66.6L148.7,197.2z
			 M296.9,197.5v112.8h29.4v-34.4h55.6v-26.6h-55.6v-25.3h61.6v-26.6L296.9,197.5z M191.2,228.4h27.5v82.2h-27.5V228.4z
			 M404.7,228.4v82.2h27.5v-82.2H404.7z"/>
	</g>
</g>
</svg>
