<svg xmlns="http://www.w3.org/2000/svg" viewBox="0 0 473.39 113.49"><defs><style>.a{fill:#fff;}</style></defs><path class="a" d="M483.63-338c-4.19-16.66-.05-31.64,6.7-46.13,9.24-19.86,25-32.48,45.92-38.32,22.71-6.34,45.74-6,68.76-1.37a30.52,30.52,0,0,1,3.36,1c10.09,3.28,18.29,8.33,18.69,20.3.59,0,1,.12,1.14,0,13.86-18.57,33.81-23.5,55.49-24.27,8.49-.3,17-.05,25.5.18a29.39,29.39,0,0,1,8.32,1.42c4.36,1.44,5.74,4.66,4.38,9C718-403.7,718-403.79,705-403.67c-10.65.09-21.33-.07-31.92.82-9.52.79-15.44,6.22-18,15.85-6,22-12.67,43.86-18.83,65.83-1.4,5-3.94,7.11-9.22,6.83-6.65-.34-13.33,0-20-.09-5.64,0-6.5-1.19-5-6.57q8.35-29.1,16.75-58.19c.22-.76.42-1.54,1-3.87-12.92,13.59-28.56,18.16-44.92,20.66-16.12,2.46-32.36,4.2-48.54,6.26-4.12.53-8.24,1.09-12.28,1.62-1.5,7.76,2.53,14.86,10.94,16.13a227,227,0,0,0,32.78,2.12c11.64,0,23.28-1,34.93-1.47,1.61-.06,3.24.13,4.81.2.89,14.28-5.17,21.77-18.71,22.1-19,.46-38,1-56.89,0-16.35-.86-22.68-4.63-35-15.58-.23.72-.46,1.24-.58,1.79-2.11,10-3.46,12-13.32,13.17-20.88,2.47-41.9,3.67-62.68-.53-13.59-2.74-24.55-9.42-28.5-23.9-.34-1.27-.47-2.6-.71-3.9a6.29,6.29,0,0,0-1.52-3.41c-1.93,6-4.17,12-5.69,18.11-1.73,6.94-6.22,10.15-12.9,11.32a290.18,290.18,0,0,1-61.72,3.88,180.15,180.15,0,0,1-30.57-4c-8.88-1.88-17.11-6.34-19.13-16.1-2.28-11,1.73-20.58,10.32-28,10.72-9.24,23.85-13,37.39-15.33,19.2-3.25,38.49-6,57.76-8.79,4-.58,6.48-2.33,7.19-6.33.74-4.17-.32-8.08-4.27-9.67-4.85-2-10.17-4-15.25-3.92-17.8.28-35.58,1.45-53.37,2.3-3.26.15-6.52.38-9.78.58-.48-12.67,5-20.52,16.41-21.43,25.05-2,50.19-4.08,75.12,1.32a42,42,0,0,1,9.32,3.44c9.28,4.54,13.8,12.07,13.59,22.38a19.81,19.81,0,0,0,.15,2.43c0,.09.21.17.33.26.28-.08.69-.07.83-.26,16.52-22.4,40.07-30.08,66.63-31.2,7.64-.33,15.33-.09,23,.27,11.33.54,17.83,9.6,14.53,20.33-.35,1.13-3,2.25-4.55,2.22-9.65-.16-19.31-1.06-28.95-.89a81.37,81.37,0,0,0-19.21,2.57c-19.16,5-28.43,19-32.33,37.23a53.41,53.41,0,0,0-1.24,9.83c-.28,10.18,2.78,15.38,13,16.77,12.6,1.72,25.49,1.61,38.26,1.84C470.61-336.53,476.75-337.46,483.63-338Zm-129.2-29.89c-13.93,1.88-27,3.5-39.94,5.43-7.71,1.14-15.49,2.23-22.95,4.36-6.25,1.78-10.63,8.1-10,12.9.92,6.53,6.41,8,11.67,9,16,3.27,32.16,1.83,48.25.49a5,5,0,0,0,3.54-2.71C348.26-347.88,351.19-357.51,354.43-367.86Zm164.13-5.5a4.17,4.17,0,0,0,1.4.35c19.19-3,38.43-5.69,57.52-9.22,4.8-.89,9.69-3.73,13.53-6.89,6.38-5.25,4.74-12.43-2.94-15.44a16,16,0,0,0-5.27-1.36c-10.1-.18-20.32-1.16-30.28,0C532.71-403.68,522.21-393,518.56-373.36Z" transform="translate(-249 427.3)"/></svg>