<?xml version="1.0" encoding="utf-8"?>
<!-- Generator: Adobe Illustrator 23.0.2, SVG Export Plug-In . SVG Version: 6.00 Build 0)  -->
<svg version="1.1" id="JVC" xmlns="http://www.w3.org/2000/svg" xmlns:xlink="http://www.w3.org/1999/xlink" x="0px" y="0px"
	 viewBox="0 0 768 137" style="enable-background:new 0 0 768 137;" xml:space="preserve">
<style type="text/css">
	.st0{fill:#FFFFFF;}
</style>
<path id="path2818" class="st0" d="M18.2,134.4C12,132.4,7,127.2,5.3,120.7c-0.5-1.9-0.9-11.3-0.9-22l0-18.8h16.1h16.1v12.4v12.4h19
	h19l0.2-50.1l0.2-50.1h16.1H107v56.9c0,61.2,0.1,60.4-4.3,66.2c-1.2,1.6-4.1,3.7-6.7,4.9l-4.6,2.2l-35.4,0.2
	C36.4,135,19.4,134.7,18.2,134.4L18.2,134.4z M157.1,134.1C156,132.7,115.6,7.4,115.6,5.5c0-1.3,1.4-1.4,16.8-1.4
	c15.2,0,16.9,0.1,17.4,1.4c0.3,0.8,5.2,15,10.8,31.5C175.2,79.7,176.4,83,177,81.6c0.3-0.7,6.2-18.3,13.1-39.2l12.6-37.9l17.1-0.2
	L237,4.1c-2.7,13.3-7.5,26.3-11.7,39.2c-6,18.6-15.1,46.8-20.2,62.6l-9.3,28.8l-19,0.2C162.3,135.1,157.7,134.9,157.1,134.1
	L157.1,134.1z M256.4,134c-5-1.8-8.6-5.1-11.1-10.2l-2.3-4.7V70.5c0-40,0.2-49.4,1.2-52.7c1.6-5.6,7.3-11.3,12.6-12.6
	c2.6-0.7,14.6-1,38.1-1c38.1,0,37.7,0,43.5,5.5c5.2,5,6,8.8,6,28.2l0,16.9L328.5,55l-15.8,0.2l-0.2-11.4l-0.2-11.4l-18.3-0.2
	l-18.3-0.2v37.1v37.1l18.3-0.2l18.3-0.2l0.2-11.4l0.2-11.4l15.8,0.2l15.8,0.2l0,17.7c0,9.7-0.3,19.1-0.7,20.8c-0.9,4-5,8.7-9.6,10.8
	c-3.6,1.6-5.2,1.7-39.2,1.9C266.6,135.1,258.9,134.9,256.4,134L256.4,134L256.4,134z"/>
</svg>
