<svg id="LG" xmlns="http://www.w3.org/2000/svg" viewBox="0 0 283.04 134.8"><defs><style>.cls-1{fill:#fff;fill-rule:evenodd;}</style></defs><title>lg_logo</title><path class="cls-1" d="M68.64,1a67.4,67.4,0,1,0,67.41,67.4A67.41,67.41,0,0,0,68.64,1ZM85.06,92.12v5.17h-14v0H65.92v-58H71.1V92.12Zm-16.42,32.7A56.42,56.42,0,0,1,68.64,12c.83,0,1.65,0,2.46,0v5.14c-.81,0-1.63-.06-2.45-.06a51.29,51.29,0,1,0,51.24,53.6l0-.15H85.14V65.38H125c.05,1,.08,2,.08,3A56.42,56.42,0,0,1,68.64,124.82ZM55.52,47.06a7.93,7.93,0,1,1-7.92-7.93A7.91,7.91,0,0,1,55.52,47.06Z" transform="translate(-1.24 -1)"/><polygon class="cls-1" points="168.27 100.49 216.43 100.49 216.43 85.94 187.37 85.94 185.96 85.94 185.96 84.53 185.96 33.85 168.27 33.85 168.27 100.49"/><path class="cls-1" d="M275.87,39.55c-5.53-4.28-12.63-6.45-21.12-6.45-10.07,0-18.49,3.09-24.34,8.94-6.11,6.11-9.34,15.12-9.34,26,0,11.67,3.42,21.51,9.62,27.72a25.92,25.92,0,0,0,18.8,7.44c16.31,0,20.06-9.78,20.06-9.78v8h14.73V63.85H255V75.63h13.5s.13,14.82-13.8,14.82a12.61,12.61,0,0,1-9.12-3.71c-3.78-3.77-5.77-10.13-5.77-18.38,0-13.67,5.43-21.82,14.52-21.82a10.78,10.78,0,0,1,11,8.77h18.76C283.12,47.63,281,43.63,275.87,39.55Z" transform="translate(-1.24 -1)"/></svg>