<?xml version="1.0" encoding="utf-8"?>
<!-- Generator: Adobe Illustrator 23.0.2, SVG Export Plug-In . SVG Version: 6.00 Build 0)  -->
<svg version="1.1" id="Polaroid" xmlns="http://www.w3.org/2000/svg" xmlns:xlink="http://www.w3.org/1999/xlink" x="0px" y="0px"
	 viewBox="0 0 768 137" style="enable-background:new 0 0 768 137;display:none;" xml:space="preserve">
<style type="text/css">
	.st0{fill:#FFFFFF;}
</style>
<g style="display:inline;">
	<path class="st0" d="M2.3,68.7c5.9-5.8,11.7-11.6,17.6-17.4c0.6-0.6,1-1.5,1.4-2.1c7,7,13.5,13.5,20,20C35.1,75.5,28.6,82,21.7,89
		C15.2,82.4,8.8,75.8,2.3,69.2V68.7z"/>
	<path class="st0" d="M721.9,124.9c-7,0-14,0-21.2,0c0-3.3,0-6.6,0-10.3c-0.8,0.6-1.2,0.9-1.5,1.2c-17.3,18.1-46.2,11.5-58.6-5.8
		C627,90.8,629.7,62.2,646.9,47c11.3-10,29.7-12.9,42.1-6.4c4,2.1,7.4,5.2,11.2,7.8c0-11.9,0-24,0-36.3c7.4,0,14.5,0,21.7,0
		C721.9,49.7,721.9,87.2,721.9,124.9z M679.4,55.7c-10.3,0.2-16.8,3.7-21.1,10.7c-5.6,9.3-6,19.2-1.2,28.9c7.7,15.5,29,17.1,39,2.9
		c4.7-6.6,5.7-14.1,4.4-22C698.7,64.2,688.9,55.6,679.4,55.7z"/>
	<path class="st0" d="M233.9,45.4c-1.5-12.5-7.6-22.1-19-28c-7.9-4.1-16.5-5.4-25.4-5.4c-13.7-0.1-27.3,0-41,0
		c-0.8,0-1.6,0.1-2.4,0.1c0,37.7,0,75.2,0,112.8c7.4,0,14.7,0,22.1,0c0-11.3,0-22.4,0-33.8c7.1,0,14,0.1,20.9,0
		c3.9-0.1,7.8-0.3,11.5-1c12.6-2.4,23-8.2,29.2-19.9C234,62.4,234.9,54,233.9,45.4z M191.9,71.8c-7.8,0.5-15.6,0.1-23.5,0.1
		c0-13.6,0-27.1,0-40.6l0.4-0.3c8,0.1,15.9-0.1,23.9,0.4c9.8,0.6,16.6,6.5,18.2,15.3C212.9,58,208.3,70.8,191.9,71.8z"/>
	<path class="st0" d="M372.3,65c0-6.9,0-13.5,0-20.2c0-0.5,0.6-1.2,1.1-1.4c14.8-6,30-8.4,45.6-4.3c15.2,3.9,24.4,15.8,24.6,31.3
		c0.1,17.6,0,35.2,0,52.9c0,0.4-0.1,0.9-0.1,1.5c-7,0-13.9,0-21.1,0c0-3.3,0-6.5,0-10.3c-1.9,1.6-3.4,3-5,4.2
		c-11.8,9.2-24.8,10.1-38.1,4.1c-10.8-4.9-15.4-14.3-15-25.9c0.4-11.3,6.1-19.1,16.3-23.7c6.2-2.8,12.8-3.7,19.5-3.7
		c7.4,0,14.7,0,22.3,0c-0.1-4.7-1.8-8.3-5.5-11c-3.4-2.4-7.3-3.2-11.4-3.5c-10.2-0.7-19.2,2.7-28,7.3c-1.6,0.9-3.2,1.7-4.8,2.6
		C372.8,65,372.7,65,372.3,65z M422.6,85.1c-0.4-0.1-0.7-0.2-1-0.2c-6.6,0-13.2-0.3-19.8,0.1c-3.5,0.2-7.1,1.1-10.2,2.5
		c-4.6,2.2-5.8,6.6-5.4,11.3c0.4,4.5,3.2,7.2,7.4,8.2C408,110.7,422.3,103.7,422.6,85.1z"/>
	<path class="st0" d="M326.5,82c0,25.4-19.5,44.6-45.4,44.5c-26.1,0-45.5-19.2-45.4-45c0.1-25.3,20.3-44.8,46.8-44.4
		C307.3,37.6,326.5,56.9,326.5,82z M281.9,55.9c-6.5,0.1-11.8,1.9-16.1,6.1c-9.3,9-10.6,25.4-3.1,36.3c9.2,13.2,28.8,13,37.3-0.7
		c6-9.7,6.2-19.9,1-29.9C296.9,59.9,290,56.2,281.9,55.9z"/>
	<path class="st0" d="M593.6,81.9c0,25.4-19.5,44.6-45.3,44.6c-26.1,0-45.5-19.1-45.4-44.9c0.1-25.3,20.2-44.9,46.8-44.4
		C574.4,37.6,593.6,56.8,593.6,81.9z M524.8,83.4c0.4,1.9,0.7,5.4,1.8,8.6c3.1,9.4,11.1,15.5,20.4,15.9c9.8,0.4,18.2-4.8,22.1-14.1
		c3.6-8.6,3.4-17.3-0.8-25.7c-6.2-12.3-21.9-16.1-33.1-8.1C527.9,65.3,525.2,73,524.8,83.4z"/>
	<path class="st0" d="M335,12.1c7.2,0,14.3,0,21.4,0c0,37.6,0,75.1,0,112.8c-7.1,0-14.2,0-21.4,0C335,87.3,335,49.8,335,12.1z"/>
	<path class="st0" d="M456.4,38.7c7.2,0,14,0,21.2,0c0,3.4,0,6.8,0,10.1l0.5,0.4c7.4-8.6,16.7-12.1,27.9-11.5c0,6.6,0,13.3,0,20.1
		c-3.1,0.3-6.2,0.4-9.3,0.9c-2.5,0.4-5.1,1-7.5,1.9c-8.3,3.3-11.2,10.1-11.4,18.3c-0.2,14.3-0.1,28.7-0.1,43.1c0,0.9,0,1.8,0,2.9
		c-7.2,0-14.2,0-21.3,0C456.4,96.1,456.4,67.5,456.4,38.7z"/>
	<path class="st0" d="M623.5,124.9c-7,0-14.1,0-21.3,0c0-28.7,0-57.3,0-86.1c7.1,0,14.1,0,21.3,0C623.5,67.4,623.5,96.1,623.5,124.9
		z"/>
	<path class="st0" d="M45,27c6.3,6.3,12.8,12.8,19.3,19.3C58,52.6,51.5,59.1,45.2,65.4C38.7,59,32.2,52.5,25.9,46.1
		C32.1,39.9,38.6,33.4,45,27z"/>
	<path class="st0" d="M67.8,49.7c6.4,6.4,12.9,12.9,19.3,19.2c-6.4,6.4-12.9,12.9-19.3,19.3C61.4,81.9,54.9,75.4,48.5,69
		C54.9,62.6,61.3,56.1,67.8,49.7z"/>
	<path class="st0" d="M71.5,91.8c6.3-6.3,12.8-12.8,19.1-19.1c6.3,6.4,12.8,12.9,19.1,19.2c-6.2,6.2-12.8,12.7-19.2,19
		C84.5,104.8,78,98.3,71.5,91.8z"/>
	<path class="st0" d="M64.2,92c-6.4,6.4-12.9,12.9-19.1,19.1c-6.4-6.4-13-12.9-19.4-19.4c6.3-6.3,12.8-12.8,19-19
		C51.1,79.1,57.6,85.6,64.2,92z"/>
	<path class="st0" d="M90.5,65.3c-6.3-6.2-12.9-12.7-19.3-19c6.5-6.5,13-13,19.3-19.3c6.2,6.3,12.7,12.8,19.1,19.2
		C103.5,52.4,96.9,58.9,90.5,65.3z"/>
	<path class="st0" d="M67.8,42.1C61.5,36,54.9,29.6,48.5,23.4c6.5-6.5,13-13,19.3-19.3C74,10.3,80.5,16.9,87,23.3
		C80.7,29.5,74.1,36,67.8,42.1z"/>
	<path class="st0" d="M113.6,49.7c6.5,6.5,13,12.9,19.3,19.3c-6.3,6.4-12.8,12.8-19.1,19.2c-6.4-6.4-12.9-12.9-19.5-19.5
		C100.6,62.5,107.1,56.1,113.6,49.7z"/>
	<path class="st0" d="M87.1,114.7c-6.5,6.5-13,13-19.3,19.3c-6.4-6.3-12.8-12.8-19.1-19.1C55,108.6,61.6,102,68,95.6
		C74.2,101.9,80.7,108.3,87.1,114.7z"/>
	<path class="st0" d="M623.6,29.6c-7.3,0-14.4,0-21.7,0c0-5.9,0-11.6,0-17.5c7.3,0,14.4,0,21.7,0C623.6,18,623.6,23.7,623.6,29.6z"
		/>
</g>
</svg>
