<svg id="Sony" xmlns="http://www.w3.org/2000/svg" viewBox="0 0 756.63 131.95"><defs><style>.cls-1{fill:#fff;fill-rule:evenodd;}</style></defs><title>sony_logo</title><path class="cls-1" d="M751,109.56a11.53,11.53,0,1,0,11.5,11.5A11.53,11.53,0,0,0,751,109.56Zm0,21.67a10.14,10.14,0,1,1,10.12-10.17A10.13,10.13,0,0,1,751,131.23Z" transform="translate(-5.89 -3)"/><path class="cls-1" d="M756.94,118a3.16,3.16,0,0,0-1.45-2.78,6,6,0,0,0-3.14-.63h-5.61v12.89h1.56v-6h2.9l3.69,6h1.87l-3.89-6C755.16,121.51,756.94,120.58,756.94,118Zm-6.22,2.3H748.3v-4.56H752c1.6,0,3.35.24,3.35,2.23C755.34,120.64,752.53,120.34,750.72,120.34Z" transform="translate(-5.89 -3)"/><path class="cls-1" d="M683.42,55.73,707,30.55c1.37-1.85,2-3.14,2-4.25,0-1.85-1.59-2.59-6.59-2.59h-6V7.82h64.4V23.71h-8.47c-9.77,0-11.59,1.48-25.22,18.66l-37.3,40.29v24.58c0,6.29,3.18,8.5,12.27,8.5h14.08v15.33H626.08V115.74h14.09c9.09,0,12.27-2.21,12.27-8.5V82.66L608.5,34.06c-7.26-8.5-6.26-10.35-26.47-10.35V7.82H663.6V23.71h-5.81c-5.91,0-8.41,1.11-8.41,3.33,0,1.85,1.82,3.33,3,4.8l22.23,24.22C677.19,58.81,680.41,59.17,683.42,55.73Z" transform="translate(-5.89 -3)"/><path class="cls-1" d="M136.16,7.81h19.68V52.16H137.67c-1.61-8.86-7.16-12.31-12.22-17-9.13-8.39-28.9-15.38-45.52-15.38-21.46,0-39.57,6.66-39.57,16.45,0,27.17,122.72,5.55,122.72,56.92C163.08,120,136.79,135,89.59,135c-16.35,0-41.08-5.07-55.67-12.82-4.58-2.64-6.52,2.5-7.37,8.94H6.37V85.24H24.62c4,11.65,9.57,14,14.67,18.67,8.85,8.13,29.91,14,49.22,13.85,29.12-.28,39.14-6.65,39.14-15.89s-9.9-11.45-41.82-16.44L58.74,81C28.16,76.37,5.89,69.53,5.89,45.14c0-25.32,28.17-41.21,72.7-41.21,18.76,0,34.47,2.51,49.53,11C132.3,17.67,136.22,18,136.16,7.81Z" transform="translate(-5.89 -3)"/><path class="cls-1" d="M520.14,82.06l.39-49.29c0-6.46-3.36-8.68-13-8.68H496.26V8.75h71.87V24.09h-9.38c-9.61,0-13,2.22-13,8.68V132l-28.14-.22L426.55,45.53v62.64c0,6.28,3.36,8.68,13,8.68H452V132H377.4V116.85h12.36c9.62,0,13-2.4,13-8.68V32.77c0-6.46-3.36-8.68-13-8.68H377.4V8.75h64.53Z" transform="translate(-5.89 -3)"/><path class="cls-1" d="M279.42,3c-57.28,0-93.13,25.32-93.13,66,0,39.92,35.35,65.05,91.38,65.05,59.51,0,94.12-24.76,94.12-67.08C371.79,28.88,334.44,3,279.42,3Zm-1.31,114.94c-31.7,0-49.93-18.29-49.93-49.89,0-30.86,19-49.16,51.51-49.16,31.18,0,49.4,18.67,49.4,50.45C329.09,100.39,310.6,117.94,278.11,117.94Z" transform="translate(-5.89 -3)"/></svg>